<?xml version="1.0" encoding="utf-8" standalone="no"?>
<!DOCTYPE svg PUBLIC "-//W3C//DTD SVG 1.1//EN"
  "http://www.w3.org/Graphics/SVG/1.1/DTD/svg11.dtd">
<!-- Created with matplotlib (http://matplotlib.org/) -->
<svg height="405pt" version="1.1" viewBox="0 0 541 405" width="541pt" xmlns="http://www.w3.org/2000/svg" xmlns:xlink="http://www.w3.org/1999/xlink">
 <defs>
  <style type="text/css">
*{stroke-linecap:butt;stroke-linejoin:round;}
  </style>
 </defs>
 <g id="figure_1">
  <g id="patch_1">
   <path d="
M0 405.347
L541.834 405.347
L541.834 0
L0 0
z
" style="fill:#ffffff;"/>
  </g>
  <g id="axes_1">
   <g id="patch_2">
    <path d="
M45.2594 346.839
L491.659 346.839
L491.659 12.0391
L45.2594 12.0391
z
" style="fill:#ffffff;"/>
   </g>
   <g id="line2d_1">
    <path clip-path="url(#pf3f07b7d2a)" d="
M45.2594 238.876
L46.4959 214.165
L47.7325 218.931
L48.9691 200.487
L50.2056 206.87
L51.4422 190.277
L52.6788 220.013
L53.9153 210.265
L55.1519 183.85
L56.3885 200.261
L57.625 186.703
L58.8616 190.562
L60.0982 199.532
L61.3347 192.669
L62.5713 198.097
L63.8079 180.937
L65.0444 168.97
L66.281 198.654
L68.7541 188.838
L69.9907 196.477
L71.2272 229.885
L72.4638 188.637
L73.7004 172.36
L74.9369 183.703
L76.1735 179.534
L77.4101 177.099
L79.8832 194.541
L81.1198 183.124
L82.3563 183.828
L83.5929 172.431
L84.8295 139.06
L86.066 114.834
L87.3026 156.098
L88.5392 182.735
L89.7757 106.911
L91.0123 47.555
L93.4854 161.575
L94.722 131.879
L95.9585 172.545
L97.1951 177.103
L98.4317 51.1161
L99.6682 152.633
L100.905 191.269
L102.141 165.258
L103.378 196.205
L104.614 202.243
L105.851 199.715
L107.088 178.614
L108.324 196.384
L109.561 199.527
L110.797 187.291
L112.034 197.925
L113.27 199.505
L114.507 208.521
L115.744 187.107
L116.98 192.735
L118.217 188.192
L119.453 176.536
L120.69 187.966
L121.926 192.87
L123.163 215.714
L124.4 197.552
L125.636 181.943
L126.873 195.541
L128.109 174.853
L129.346 194.389
L130.582 207.512
L131.819 210.5
L133.055 193.818
L134.292 181.231
L135.529 180.485
L136.765 184.545
L138.002 192.339
L139.238 180.919
L140.475 229.251
L141.711 200.455
L142.948 205.022
L144.185 182.386
L145.421 196.959
L146.658 193.295
L147.894 213.308
L149.131 237.611
L150.367 201.469
L151.604 196.997
L152.841 201.24
L154.077 201.661
L155.314 200.697
L156.55 244.011
L157.787 235.094
L159.023 204.651
L160.26 188.079
L161.496 181.4
L162.733 160.948
L165.206 212.094
L166.443 222.785
L167.679 228.984
L168.916 193.945
L170.152 169.376
L171.389 157.2
L172.626 168.096
L173.862 195.759
L175.099 205.106
L176.335 175.393
L177.572 180.504
L178.808 171.86
L180.045 172.588
L181.282 163.801
L182.518 192.718
L183.755 191.875
L184.991 176.585
L186.228 158.837
L187.464 185.639
L188.701 194.595
L189.937 163.12
L191.174 201.68
L192.411 231.715
L193.647 207.014
L194.884 241.645
L196.12 199.067
L197.357 173.248
L198.593 176.422
L199.83 190.924
L201.067 197.628
L202.303 176.033
L203.54 188.013
L204.776 183.262
L206.013 191.987
L207.249 186.595
L208.486 208.173
L209.723 221.601
L210.959 194.628
L212.196 182.201
L213.432 176.407
L214.669 210.434
L215.905 213.848
L217.142 205.232
L218.378 222.183
L219.615 182.653
L220.852 186.73
L222.088 172.164
L223.325 192.103
L224.561 205.019
L225.798 223.65
L227.034 235.2
L228.271 217.888
L229.508 187.516
L230.744 167.389
L231.981 173.251
L233.217 190.922
L234.454 191.333
L235.69 207.72
L236.927 194.603
L238.164 187.238
L239.4 194.733
L240.637 201.334
L241.873 201.174
L243.11 236.443
L244.346 234.557
L245.583 175.225
L246.819 172.765
L248.056 181.916
L249.293 192.494
L250.529 191.794
L251.766 194.356
L253.002 236.266
L254.239 208.994
L255.475 162.538
L256.712 162.277
L259.185 185.47
L261.658 243.311
L262.895 207.906
L264.131 193.079
L265.368 185.363
L266.605 169.514
L269.078 202.902
L270.314 214.808
L271.551 188.056
L272.787 171.466
L274.024 179.677
L275.26 179.941
L276.497 179.62
L277.734 197.325
L278.97 232.075
L281.443 178.269
L282.68 196.815
L283.916 203.739
L285.153 194.318
L286.39 212.775
L287.626 225.448
L288.863 196.707
L290.099 191.77
L291.336 178.893
L292.572 188.521
L293.809 179.827
L295.046 204.762
L296.282 234.734
L298.755 179.441
L299.992 174.629
L301.228 182.497
L302.465 182.943
L303.701 190.965
L304.938 224.947
L306.175 209.141
L307.411 199.367
L308.648 200.418
L309.884 189.702
L312.357 200.354
L313.594 205.882
L314.831 197.396
L316.067 206.964
L317.304 184.646
L318.54 190.604
L319.777 188.901
L321.013 196.967
L322.25 229.481
L323.487 186.173
L324.723 172.738
L325.96 188.044
L327.196 172.815
L328.433 181.346
L329.669 188.355
L330.906 196.636
L332.142 160.71
L333.379 160.316
L334.616 185.028
L335.852 183.539
L337.089 173.616
L338.325 199.727
L339.562 234.869
L340.798 191.368
L342.035 173.885
L343.272 171.302
L344.508 165.024
L345.745 180.858
L346.981 202.24
L348.218 218.746
L349.454 184.078
L350.691 180.165
L351.928 169.297
L353.164 180.87
L354.401 181.318
L355.637 195.081
L356.874 207.201
L358.11 169.625
L359.347 167.654
L360.583 165.178
L361.82 187.997
L363.057 201.149
L364.293 199.274
L365.53 218.702
L366.766 174.447
L368.003 169.466
L370.476 189.828
L371.713 183.158
L372.949 198.391
L374.186 221.539
L375.422 194.729
L376.659 188.752
L377.895 175.683
L379.132 183.853
L380.369 196.881
L381.605 207.582
L382.842 220.707
L384.078 179.756
L385.315 186.941
L386.551 209.553
L387.788 183.957
L389.024 206.938
L390.261 205.182
L391.498 213.277
L392.734 190.697
L393.971 174.829
L395.207 154.472
L396.444 183.334
L397.68 182.965
L398.917 216.359
L400.154 208.237
L401.39 181.087
L402.627 195.992
L403.863 199.223
L405.1 185.489
L406.336 180.249
L407.573 188.722
L408.81 208.718
L410.046 168.306
L411.283 165.79
L412.519 157.601
L414.992 184.636
L416.229 210.64
L417.465 200.257
L418.702 178.917
L419.939 167.885
L421.175 190.794
L422.412 208.971
L423.648 197.391
L424.885 202.722
L426.121 213.778
L427.358 192.651
L429.831 207.874
L431.068 184.675
L432.304 176.696
L433.541 185.566
L434.777 215.844
L436.014 179.636
L437.251 183.773
L438.487 169.531
L439.724 165.25
L440.96 165.871
L442.197 175.969
L443.433 190.513
L444.67 165.732
L445.906 181.676
L447.143 190.178
L448.38 192.513
L449.616 178.44
L450.853 191.184
L452.089 235.138
L453.326 178.406
L454.562 159.371
L455.799 160.593
L457.036 177.409
L458.272 167.47
L459.509 189.009
L460.745 193.995
L461.982 184.423
L463.218 186.506
L464.455 164.582
L465.692 167.335
L466.928 157.215
L468.165 176.411
L469.401 207.589
L470.638 153.623
L471.874 143.119
L473.111 134.944
L474.347 136.94
L475.584 172.856
L476.821 203.194
L478.057 210.474
L479.294 172.847
L480.53 176.666
L481.767 177.44
L483.003 197.287
L484.24 196.824
L485.477 202.023
L486.713 240.803
L487.95 248.338
L489.186 341.88
L490.423 296.732
L491.659 228.007
L491.659 228.007" style="fill:none;stroke:#0000ff;stroke-linecap:square;"/>
   </g>
   <g id="patch_3">
    <path d="
M45.2594 12.0391
L491.659 12.0391" style="fill:none;stroke:#000000;stroke-linecap:square;stroke-linejoin:miter;"/>
   </g>
   <g id="patch_4">
    <path d="
M491.659 346.839
L491.659 12.0391" style="fill:none;stroke:#000000;stroke-linecap:square;stroke-linejoin:miter;"/>
   </g>
   <g id="patch_5">
    <path d="
M45.2594 346.839
L491.659 346.839" style="fill:none;stroke:#000000;stroke-linecap:square;stroke-linejoin:miter;"/>
   </g>
   <g id="patch_6">
    <path d="
M45.2594 346.839
L45.2594 12.0391" style="fill:none;stroke:#000000;stroke-linecap:square;stroke-linejoin:miter;"/>
   </g>
   <g id="matplotlib.axis_1">
    <g id="xtick_1">
     <g id="line2d_2">
      <path clip-path="url(#pf3f07b7d2a)" d="
M45.2594 346.839
L45.2594 12.0391" style="fill:none;stroke:#000000;stroke-dasharray:1.000000,3.000000;stroke-dashoffset:0.0;stroke-width:0.5;"/>
     </g>
     <g id="line2d_3">
      <defs>
       <path d="
M0 0
L0 -4" id="m93b0483c22" style="stroke:#000000;stroke-width:0.5;"/>
      </defs>
      <g>
       <use style="stroke:#000000;stroke-width:0.5;" x="45.259375" xlink:href="#m93b0483c22" y="346.8390625"/>
      </g>
     </g>
     <g id="line2d_4">
      <defs>
       <path d="
M0 0
L0 4" id="m741efc42ff" style="stroke:#000000;stroke-width:0.5;"/>
      </defs>
      <g>
       <use style="stroke:#000000;stroke-width:0.5;" x="45.259375" xlink:href="#m741efc42ff" y="12.0390625"/>
      </g>
     </g>
     <g id="text_1">
      <!-- Jan -->
      <defs>
       <path d="
M54.8906 33.0156
L54.8906 0
L45.9062 0
L45.9062 32.7188
Q45.9062 40.4844 42.875 44.3281
Q39.8438 48.1875 33.7969 48.1875
Q26.5156 48.1875 22.3125 43.5469
Q18.1094 38.9219 18.1094 30.9062
L18.1094 0
L9.07812 0
L9.07812 54.6875
L18.1094 54.6875
L18.1094 46.1875
Q21.3438 51.125 25.7031 53.5625
Q30.0781 56 35.7969 56
Q45.2188 56 50.0469 50.1719
Q54.8906 44.3438 54.8906 33.0156" id="BitstreamVeraSans-Roman-6e"/>
       <path d="
M34.2812 27.4844
Q23.3906 27.4844 19.1875 25
Q14.9844 22.5156 14.9844 16.5
Q14.9844 11.7188 18.1406 8.90625
Q21.2969 6.10938 26.7031 6.10938
Q34.1875 6.10938 38.7031 11.4062
Q43.2188 16.7031 43.2188 25.4844
L43.2188 27.4844
z

M52.2031 31.2031
L52.2031 0
L43.2188 0
L43.2188 8.29688
Q40.1406 3.32812 35.5469 0.953125
Q30.9531 -1.42188 24.3125 -1.42188
Q15.9219 -1.42188 10.9531 3.29688
Q6 8.01562 6 15.9219
Q6 25.1406 12.1719 29.8281
Q18.3594 34.5156 30.6094 34.5156
L43.2188 34.5156
L43.2188 35.4062
Q43.2188 41.6094 39.1406 45
Q35.0625 48.3906 27.6875 48.3906
Q23 48.3906 18.5469 47.2656
Q14.1094 46.1406 10.0156 43.8906
L10.0156 52.2031
Q14.9375 54.1094 19.5781 55.0469
Q24.2188 56 28.6094 56
Q40.4844 56 46.3438 49.8438
Q52.2031 43.7031 52.2031 31.2031" id="BitstreamVeraSans-Roman-61"/>
       <path d="
M9.8125 72.9062
L19.6719 72.9062
L19.6719 5.07812
Q19.6719 -8.10938 14.6719 -14.0625
Q9.67188 -20.0156 -1.42188 -20.0156
L-5.17188 -20.0156
L-5.17188 -11.7188
L-2.09375 -11.7188
Q4.4375 -11.7188 7.125 -8.04688
Q9.8125 -4.39062 9.8125 5.07812
z
" id="BitstreamVeraSans-Roman-4a"/>
      </defs>
      <g transform="translate(37.7171875 358.4375)scale(0.1 -0.1)">
       <use xlink:href="#BitstreamVeraSans-Roman-4a"/>
       <use x="29.4921875" xlink:href="#BitstreamVeraSans-Roman-61"/>
       <use x="90.771484375" xlink:href="#BitstreamVeraSans-Roman-6e"/>
      </g>
      <!-- 2012 -->
      <defs>
       <path d="
M19.1875 8.29688
L53.6094 8.29688
L53.6094 0
L7.32812 0
L7.32812 8.29688
Q12.9375 14.1094 22.625 23.8906
Q32.3281 33.6875 34.8125 36.5312
Q39.5469 41.8438 41.4219 45.5312
Q43.3125 49.2188 43.3125 52.7812
Q43.3125 58.5938 39.2344 62.25
Q35.1562 65.9219 28.6094 65.9219
Q23.9688 65.9219 18.8125 64.3125
Q13.6719 62.7031 7.8125 59.4219
L7.8125 69.3906
Q13.7656 71.7812 18.9375 73
Q24.125 74.2188 28.4219 74.2188
Q39.75 74.2188 46.4844 68.5469
Q53.2188 62.8906 53.2188 53.4219
Q53.2188 48.9219 51.5312 44.8906
Q49.8594 40.875 45.4062 35.4062
Q44.1875 33.9844 37.6406 27.2188
Q31.1094 20.4531 19.1875 8.29688" id="BitstreamVeraSans-Roman-32"/>
       <path d="
M31.7812 66.4062
Q24.1719 66.4062 20.3281 58.9062
Q16.5 51.4219 16.5 36.375
Q16.5 21.3906 20.3281 13.8906
Q24.1719 6.39062 31.7812 6.39062
Q39.4531 6.39062 43.2812 13.8906
Q47.125 21.3906 47.125 36.375
Q47.125 51.4219 43.2812 58.9062
Q39.4531 66.4062 31.7812 66.4062
M31.7812 74.2188
Q44.0469 74.2188 50.5156 64.5156
Q56.9844 54.8281 56.9844 36.375
Q56.9844 17.9688 50.5156 8.26562
Q44.0469 -1.42188 31.7812 -1.42188
Q19.5312 -1.42188 13.0625 8.26562
Q6.59375 17.9688 6.59375 36.375
Q6.59375 54.8281 13.0625 64.5156
Q19.5312 74.2188 31.7812 74.2188" id="BitstreamVeraSans-Roman-30"/>
       <path d="
M12.4062 8.29688
L28.5156 8.29688
L28.5156 63.9219
L10.9844 60.4062
L10.9844 69.3906
L28.4219 72.9062
L38.2812 72.9062
L38.2812 8.29688
L54.3906 8.29688
L54.3906 0
L12.4062 0
z
" id="BitstreamVeraSans-Roman-31"/>
      </defs>
      <g transform="translate(33.4015625 369.6353125)scale(0.1 -0.1)">
       <use xlink:href="#BitstreamVeraSans-Roman-32"/>
       <use x="63.623046875" xlink:href="#BitstreamVeraSans-Roman-30"/>
       <use x="127.24609375" xlink:href="#BitstreamVeraSans-Roman-31"/>
       <use x="190.869140625" xlink:href="#BitstreamVeraSans-Roman-32"/>
      </g>
     </g>
    </g>
    <g id="xtick_2">
     <g id="line2d_5">
      <path clip-path="url(#pf3f07b7d2a)" d="
M83.5929 346.839
L83.5929 12.0391" style="fill:none;stroke:#000000;stroke-dasharray:1.000000,3.000000;stroke-dashoffset:0.0;stroke-width:0.5;"/>
     </g>
     <g id="line2d_6">
      <g>
       <use style="stroke:#000000;stroke-width:0.5;" x="83.5928930055" xlink:href="#m93b0483c22" y="346.8390625"/>
      </g>
     </g>
     <g id="line2d_7">
      <g>
       <use style="stroke:#000000;stroke-width:0.5;" x="83.5928930055" xlink:href="#m741efc42ff" y="12.0390625"/>
      </g>
     </g>
     <g id="text_2">
      <!-- Feb -->
      <defs>
       <path d="
M56.2031 29.5938
L56.2031 25.2031
L14.8906 25.2031
Q15.4844 15.9219 20.4844 11.0625
Q25.4844 6.20312 34.4219 6.20312
Q39.5938 6.20312 44.4531 7.46875
Q49.3125 8.73438 54.1094 11.2812
L54.1094 2.78125
Q49.2656 0.734375 44.1875 -0.34375
Q39.1094 -1.42188 33.8906 -1.42188
Q20.7969 -1.42188 13.1562 6.1875
Q5.51562 13.8125 5.51562 26.8125
Q5.51562 40.2344 12.7656 48.1094
Q20.0156 56 32.3281 56
Q43.3594 56 49.7812 48.8906
Q56.2031 41.7969 56.2031 29.5938
M47.2188 32.2344
Q47.125 39.5938 43.0938 43.9844
Q39.0625 48.3906 32.4219 48.3906
Q24.9062 48.3906 20.3906 44.1406
Q15.875 39.8906 15.1875 32.1719
z
" id="BitstreamVeraSans-Roman-65"/>
       <path d="
M9.8125 72.9062
L51.7031 72.9062
L51.7031 64.5938
L19.6719 64.5938
L19.6719 43.1094
L48.5781 43.1094
L48.5781 34.8125
L19.6719 34.8125
L19.6719 0
L9.8125 0
z
" id="BitstreamVeraSans-Roman-46"/>
       <path d="
M48.6875 27.2969
Q48.6875 37.2031 44.6094 42.8438
Q40.5312 48.4844 33.4062 48.4844
Q26.2656 48.4844 22.1875 42.8438
Q18.1094 37.2031 18.1094 27.2969
Q18.1094 17.3906 22.1875 11.75
Q26.2656 6.10938 33.4062 6.10938
Q40.5312 6.10938 44.6094 11.75
Q48.6875 17.3906 48.6875 27.2969
M18.1094 46.3906
Q20.9531 51.2656 25.2656 53.625
Q29.5938 56 35.5938 56
Q45.5625 56 51.7812 48.0938
Q58.0156 40.1875 58.0156 27.2969
Q58.0156 14.4062 51.7812 6.48438
Q45.5625 -1.42188 35.5938 -1.42188
Q29.5938 -1.42188 25.2656 0.953125
Q20.9531 3.32812 18.1094 8.20312
L18.1094 0
L9.07812 0
L9.07812 75.9844
L18.1094 75.9844
z
" id="BitstreamVeraSans-Roman-62"/>
      </defs>
      <g transform="translate(75.5053930055 358.4375)scale(0.1 -0.1)">
       <use xlink:href="#BitstreamVeraSans-Roman-46"/>
       <use x="52.01953125" xlink:href="#BitstreamVeraSans-Roman-65"/>
       <use x="113.54296875" xlink:href="#BitstreamVeraSans-Roman-62"/>
      </g>
     </g>
    </g>
    <g id="xtick_3">
     <g id="line2d_8">
      <path clip-path="url(#pf3f07b7d2a)" d="
M119.453 346.839
L119.453 12.0391" style="fill:none;stroke:#000000;stroke-dasharray:1.000000,3.000000;stroke-dashoffset:0.0;stroke-width:0.5;"/>
     </g>
     <g id="line2d_9">
      <g>
       <use style="stroke:#000000;stroke-width:0.5;" x="119.453280817" xlink:href="#m93b0483c22" y="346.8390625"/>
      </g>
     </g>
     <g id="line2d_10">
      <g>
       <use style="stroke:#000000;stroke-width:0.5;" x="119.453280817" xlink:href="#m741efc42ff" y="12.0390625"/>
      </g>
     </g>
     <g id="text_3">
      <!-- Mar -->
      <defs>
       <path d="
M9.8125 72.9062
L24.5156 72.9062
L43.1094 23.2969
L61.8125 72.9062
L76.5156 72.9062
L76.5156 0
L66.8906 0
L66.8906 64.0156
L48.0938 14.0156
L38.1875 14.0156
L19.3906 64.0156
L19.3906 0
L9.8125 0
z
" id="BitstreamVeraSans-Roman-4d"/>
       <path d="
M41.1094 46.2969
Q39.5938 47.1719 37.8125 47.5781
Q36.0312 48 33.8906 48
Q26.2656 48 22.1875 43.0469
Q18.1094 38.0938 18.1094 28.8125
L18.1094 0
L9.07812 0
L9.07812 54.6875
L18.1094 54.6875
L18.1094 46.1875
Q20.9531 51.1719 25.4844 53.5781
Q30.0312 56 36.5312 56
Q37.4531 56 38.5781 55.875
Q39.7031 55.7656 41.0625 55.5156
z
" id="BitstreamVeraSans-Roman-72"/>
      </defs>
      <g transform="translate(110.510312067 358.4375)scale(0.1 -0.1)">
       <use xlink:href="#BitstreamVeraSans-Roman-4d"/>
       <use x="86.279296875" xlink:href="#BitstreamVeraSans-Roman-61"/>
       <use x="147.55859375" xlink:href="#BitstreamVeraSans-Roman-72"/>
      </g>
     </g>
    </g>
    <g id="xtick_4">
     <g id="line2d_11">
      <path clip-path="url(#pf3f07b7d2a)" d="
M157.787 346.839
L157.787 12.0391" style="fill:none;stroke:#000000;stroke-dasharray:1.000000,3.000000;stroke-dashoffset:0.0;stroke-width:0.5;"/>
     </g>
     <g id="line2d_12">
      <g>
       <use style="stroke:#000000;stroke-width:0.5;" x="157.786798823" xlink:href="#m93b0483c22" y="346.8390625"/>
      </g>
     </g>
     <g id="line2d_13">
      <g>
       <use style="stroke:#000000;stroke-width:0.5;" x="157.786798823" xlink:href="#m741efc42ff" y="12.0390625"/>
      </g>
     </g>
     <g id="text_4">
      <!-- Apr -->
      <defs>
       <path d="
M18.1094 8.20312
L18.1094 -20.7969
L9.07812 -20.7969
L9.07812 54.6875
L18.1094 54.6875
L18.1094 46.3906
Q20.9531 51.2656 25.2656 53.625
Q29.5938 56 35.5938 56
Q45.5625 56 51.7812 48.0938
Q58.0156 40.1875 58.0156 27.2969
Q58.0156 14.4062 51.7812 6.48438
Q45.5625 -1.42188 35.5938 -1.42188
Q29.5938 -1.42188 25.2656 0.953125
Q20.9531 3.32812 18.1094 8.20312
M48.6875 27.2969
Q48.6875 37.2031 44.6094 42.8438
Q40.5312 48.4844 33.4062 48.4844
Q26.2656 48.4844 22.1875 42.8438
Q18.1094 37.2031 18.1094 27.2969
Q18.1094 17.3906 22.1875 11.75
Q26.2656 6.10938 33.4062 6.10938
Q40.5312 6.10938 44.6094 11.75
Q48.6875 17.3906 48.6875 27.2969" id="BitstreamVeraSans-Roman-70"/>
       <path d="
M34.1875 63.1875
L20.7969 26.9062
L47.6094 26.9062
z

M28.6094 72.9062
L39.7969 72.9062
L67.5781 0
L57.3281 0
L50.6875 18.7031
L17.8281 18.7031
L11.1875 0
L0.78125 0
z
" id="BitstreamVeraSans-Roman-41"/>
      </defs>
      <g transform="translate(149.175861323 358.4375)scale(0.1 -0.1)">
       <use xlink:href="#BitstreamVeraSans-Roman-41"/>
       <use x="68.408203125" xlink:href="#BitstreamVeraSans-Roman-70"/>
       <use x="131.884765625" xlink:href="#BitstreamVeraSans-Roman-72"/>
      </g>
     </g>
    </g>
    <g id="xtick_5">
     <g id="line2d_14">
      <path clip-path="url(#pf3f07b7d2a)" d="
M194.884 346.839
L194.884 12.0391" style="fill:none;stroke:#000000;stroke-dasharray:1.000000,3.000000;stroke-dashoffset:0.0;stroke-width:0.5;"/>
     </g>
     <g id="line2d_15">
      <g>
       <use style="stroke:#000000;stroke-width:0.5;" x="194.883751731" xlink:href="#m93b0483c22" y="346.8390625"/>
      </g>
     </g>
     <g id="line2d_16">
      <g>
       <use style="stroke:#000000;stroke-width:0.5;" x="194.883751731" xlink:href="#m741efc42ff" y="12.0390625"/>
      </g>
     </g>
     <g id="text_5">
      <!-- May -->
      <defs>
       <path d="
M32.1719 -5.07812
Q28.375 -14.8438 24.75 -17.8125
Q21.1406 -20.7969 15.0938 -20.7969
L7.90625 -20.7969
L7.90625 -13.2812
L13.1875 -13.2812
Q16.8906 -13.2812 18.9375 -11.5156
Q21 -9.76562 23.4844 -3.21875
L25.0938 0.875
L2.98438 54.6875
L12.5 54.6875
L29.5938 11.9219
L46.6875 54.6875
L56.2031 54.6875
z
" id="BitstreamVeraSans-Roman-79"/>
      </defs>
      <g transform="translate(185.186095481 358.4375)scale(0.1 -0.1)">
       <use xlink:href="#BitstreamVeraSans-Roman-4d"/>
       <use x="86.279296875" xlink:href="#BitstreamVeraSans-Roman-61"/>
       <use x="147.55859375" xlink:href="#BitstreamVeraSans-Roman-79"/>
      </g>
     </g>
    </g>
    <g id="xtick_6">
     <g id="line2d_17">
      <path clip-path="url(#pf3f07b7d2a)" d="
M233.217 346.839
L233.217 12.0391" style="fill:none;stroke:#000000;stroke-dasharray:1.000000,3.000000;stroke-dashoffset:0.0;stroke-width:0.5;"/>
     </g>
     <g id="line2d_18">
      <g>
       <use style="stroke:#000000;stroke-width:0.5;" x="233.217269737" xlink:href="#m93b0483c22" y="346.8390625"/>
      </g>
     </g>
     <g id="line2d_19">
      <g>
       <use style="stroke:#000000;stroke-width:0.5;" x="233.217269737" xlink:href="#m741efc42ff" y="12.0390625"/>
      </g>
     </g>
     <g id="text_6">
      <!-- Jun -->
      <defs>
       <path d="
M8.5 21.5781
L8.5 54.6875
L17.4844 54.6875
L17.4844 21.9219
Q17.4844 14.1562 20.5 10.2656
Q23.5312 6.39062 29.5938 6.39062
Q36.8594 6.39062 41.0781 11.0312
Q45.3125 15.6719 45.3125 23.6875
L45.3125 54.6875
L54.2969 54.6875
L54.2969 0
L45.3125 0
L45.3125 8.40625
Q42.0469 3.42188 37.7188 1
Q33.4062 -1.42188 27.6875 -1.42188
Q18.2656 -1.42188 13.375 4.4375
Q8.5 10.2969 8.5 21.5781" id="BitstreamVeraSans-Roman-75"/>
      </defs>
      <g transform="translate(225.570394737 358.4375)scale(0.1 -0.1)">
       <use xlink:href="#BitstreamVeraSans-Roman-4a"/>
       <use x="29.4921875" xlink:href="#BitstreamVeraSans-Roman-75"/>
       <use x="92.87109375" xlink:href="#BitstreamVeraSans-Roman-6e"/>
      </g>
     </g>
    </g>
    <g id="xtick_7">
     <g id="line2d_20">
      <path clip-path="url(#pf3f07b7d2a)" d="
M270.314 346.839
L270.314 12.0391" style="fill:none;stroke:#000000;stroke-dasharray:1.000000,3.000000;stroke-dashoffset:0.0;stroke-width:0.5;"/>
     </g>
     <g id="line2d_21">
      <g>
       <use style="stroke:#000000;stroke-width:0.5;" x="270.314222645" xlink:href="#m93b0483c22" y="346.8390625"/>
      </g>
     </g>
     <g id="line2d_22">
      <g>
       <use style="stroke:#000000;stroke-width:0.5;" x="270.314222645" xlink:href="#m741efc42ff" y="12.0390625"/>
      </g>
     </g>
     <g id="text_7">
      <!-- Jul -->
      <defs>
       <path d="
M9.42188 75.9844
L18.4062 75.9844
L18.4062 0
L9.42188 0
z
" id="BitstreamVeraSans-Roman-6c"/>
      </defs>
      <g transform="translate(264.491566395 358.4375)scale(0.1 -0.1)">
       <use xlink:href="#BitstreamVeraSans-Roman-4a"/>
       <use x="29.4921875" xlink:href="#BitstreamVeraSans-Roman-75"/>
       <use x="92.87109375" xlink:href="#BitstreamVeraSans-Roman-6c"/>
      </g>
     </g>
    </g>
    <g id="xtick_8">
     <g id="line2d_23">
      <path clip-path="url(#pf3f07b7d2a)" d="
M308.648 346.839
L308.648 12.0391" style="fill:none;stroke:#000000;stroke-dasharray:1.000000,3.000000;stroke-dashoffset:0.0;stroke-width:0.5;"/>
     </g>
     <g id="line2d_24">
      <g>
       <use style="stroke:#000000;stroke-width:0.5;" x="308.647740651" xlink:href="#m93b0483c22" y="346.8390625"/>
      </g>
     </g>
     <g id="line2d_25">
      <g>
       <use style="stroke:#000000;stroke-width:0.5;" x="308.647740651" xlink:href="#m741efc42ff" y="12.0390625"/>
      </g>
     </g>
     <g id="text_8">
      <!-- Aug -->
      <defs>
       <path d="
M45.4062 27.9844
Q45.4062 37.75 41.375 43.1094
Q37.3594 48.4844 30.0781 48.4844
Q22.8594 48.4844 18.8281 43.1094
Q14.7969 37.75 14.7969 27.9844
Q14.7969 18.2656 18.8281 12.8906
Q22.8594 7.51562 30.0781 7.51562
Q37.3594 7.51562 41.375 12.8906
Q45.4062 18.2656 45.4062 27.9844
M54.3906 6.78125
Q54.3906 -7.17188 48.1875 -13.9844
Q42 -20.7969 29.2031 -20.7969
Q24.4688 -20.7969 20.2656 -20.0938
Q16.0625 -19.3906 12.1094 -17.9219
L12.1094 -9.1875
Q16.0625 -11.3281 19.9219 -12.3438
Q23.7812 -13.375 27.7812 -13.375
Q36.625 -13.375 41.0156 -8.76562
Q45.4062 -4.15625 45.4062 5.17188
L45.4062 9.625
Q42.625 4.78125 38.2812 2.39062
Q33.9375 0 27.875 0
Q17.8281 0 11.6719 7.65625
Q5.51562 15.3281 5.51562 27.9844
Q5.51562 40.6719 11.6719 48.3281
Q17.8281 56 27.875 56
Q33.9375 56 38.2812 53.6094
Q42.625 51.2188 45.4062 46.3906
L45.4062 54.6875
L54.3906 54.6875
z
" id="BitstreamVeraSans-Roman-67"/>
      </defs>
      <g transform="translate(299.378209401 358.4375)scale(0.1 -0.1)">
       <use xlink:href="#BitstreamVeraSans-Roman-41"/>
       <use x="68.408203125" xlink:href="#BitstreamVeraSans-Roman-75"/>
       <use x="131.787109375" xlink:href="#BitstreamVeraSans-Roman-67"/>
      </g>
     </g>
    </g>
    <g id="xtick_9">
     <g id="line2d_26">
      <path clip-path="url(#pf3f07b7d2a)" d="
M346.981 346.839
L346.981 12.0391" style="fill:none;stroke:#000000;stroke-dasharray:1.000000,3.000000;stroke-dashoffset:0.0;stroke-width:0.5;"/>
     </g>
     <g id="line2d_27">
      <g>
       <use style="stroke:#000000;stroke-width:0.5;" x="346.981258657" xlink:href="#m93b0483c22" y="346.8390625"/>
      </g>
     </g>
     <g id="line2d_28">
      <g>
       <use style="stroke:#000000;stroke-width:0.5;" x="346.981258657" xlink:href="#m741efc42ff" y="12.0390625"/>
      </g>
     </g>
     <g id="text_9">
      <!-- Sep -->
      <defs>
       <path d="
M53.5156 70.5156
L53.5156 60.8906
Q47.9062 63.5781 42.9219 64.8906
Q37.9375 66.2188 33.2969 66.2188
Q25.25 66.2188 20.875 63.0938
Q16.5 59.9688 16.5 54.2031
Q16.5 49.3594 19.4062 46.8906
Q22.3125 44.4375 30.4219 42.9219
L36.375 41.7031
Q47.4062 39.5938 52.6562 34.2969
Q57.9062 29 57.9062 20.125
Q57.9062 9.51562 50.7969 4.04688
Q43.7031 -1.42188 29.9844 -1.42188
Q24.8125 -1.42188 18.9688 -0.25
Q13.1406 0.921875 6.89062 3.21875
L6.89062 13.375
Q12.8906 10.0156 18.6562 8.29688
Q24.4219 6.59375 29.9844 6.59375
Q38.4219 6.59375 43.0156 9.90625
Q47.6094 13.2344 47.6094 19.3906
Q47.6094 24.75 44.3125 27.7812
Q41.0156 30.8125 33.5 32.3281
L27.4844 33.5
Q16.4531 35.6875 11.5156 40.375
Q6.59375 45.0625 6.59375 53.4219
Q6.59375 63.0938 13.4062 68.6562
Q20.2188 74.2188 32.1719 74.2188
Q37.3125 74.2188 42.625 73.2812
Q47.9531 72.3594 53.5156 70.5156" id="BitstreamVeraSans-Roman-53"/>
      </defs>
      <g transform="translate(338.159383657 358.4375)scale(0.1 -0.1)">
       <use xlink:href="#BitstreamVeraSans-Roman-53"/>
       <use x="63.4765625" xlink:href="#BitstreamVeraSans-Roman-65"/>
       <use x="125.0" xlink:href="#BitstreamVeraSans-Roman-70"/>
      </g>
     </g>
    </g>
    <g id="xtick_10">
     <g id="line2d_29">
      <path clip-path="url(#pf3f07b7d2a)" d="
M384.078 346.839
L384.078 12.0391" style="fill:none;stroke:#000000;stroke-dasharray:1.000000,3.000000;stroke-dashoffset:0.0;stroke-width:0.5;"/>
     </g>
     <g id="line2d_30">
      <g>
       <use style="stroke:#000000;stroke-width:0.5;" x="384.078211565" xlink:href="#m93b0483c22" y="346.8390625"/>
      </g>
     </g>
     <g id="line2d_31">
      <g>
       <use style="stroke:#000000;stroke-width:0.5;" x="384.078211565" xlink:href="#m741efc42ff" y="12.0390625"/>
      </g>
     </g>
     <g id="text_10">
      <!-- Oct -->
      <defs>
       <path d="
M39.4062 66.2188
Q28.6562 66.2188 22.3281 58.2031
Q16.0156 50.2031 16.0156 36.375
Q16.0156 22.6094 22.3281 14.5938
Q28.6562 6.59375 39.4062 6.59375
Q50.1406 6.59375 56.4219 14.5938
Q62.7031 22.6094 62.7031 36.375
Q62.7031 50.2031 56.4219 58.2031
Q50.1406 66.2188 39.4062 66.2188
M39.4062 74.2188
Q54.7344 74.2188 63.9062 63.9375
Q73.0938 53.6562 73.0938 36.375
Q73.0938 19.1406 63.9062 8.85938
Q54.7344 -1.42188 39.4062 -1.42188
Q24.0312 -1.42188 14.8125 8.82812
Q5.60938 19.0938 5.60938 36.375
Q5.60938 53.6562 14.8125 63.9375
Q24.0312 74.2188 39.4062 74.2188" id="BitstreamVeraSans-Roman-4f"/>
       <path d="
M18.3125 70.2188
L18.3125 54.6875
L36.8125 54.6875
L36.8125 47.7031
L18.3125 47.7031
L18.3125 18.0156
Q18.3125 11.3281 20.1406 9.42188
Q21.9688 7.51562 27.5938 7.51562
L36.8125 7.51562
L36.8125 0
L27.5938 0
Q17.1875 0 13.2344 3.875
Q9.28125 7.76562 9.28125 18.0156
L9.28125 47.7031
L2.6875 47.7031
L2.6875 54.6875
L9.28125 54.6875
L9.28125 70.2188
z
" id="BitstreamVeraSans-Roman-74"/>
       <path d="
M48.7812 52.5938
L48.7812 44.1875
Q44.9688 46.2969 41.1406 47.3438
Q37.3125 48.3906 33.4062 48.3906
Q24.6562 48.3906 19.8125 42.8438
Q14.9844 37.3125 14.9844 27.2969
Q14.9844 17.2812 19.8125 11.7344
Q24.6562 6.20312 33.4062 6.20312
Q37.3125 6.20312 41.1406 7.25
Q44.9688 8.29688 48.7812 10.4062
L48.7812 2.09375
Q45.0156 0.34375 40.9844 -0.53125
Q36.9688 -1.42188 32.4219 -1.42188
Q20.0625 -1.42188 12.7812 6.34375
Q5.51562 14.1094 5.51562 27.2969
Q5.51562 40.6719 12.8594 48.3281
Q20.2188 56 33.0156 56
Q37.1562 56 41.1094 55.1406
Q45.0625 54.2969 48.7812 52.5938" id="BitstreamVeraSans-Roman-63"/>
      </defs>
      <g transform="translate(375.832899065 358.4375)scale(0.1 -0.1)">
       <use xlink:href="#BitstreamVeraSans-Roman-4f"/>
       <use x="78.7109375" xlink:href="#BitstreamVeraSans-Roman-63"/>
       <use x="133.69140625" xlink:href="#BitstreamVeraSans-Roman-74"/>
      </g>
     </g>
    </g>
    <g id="xtick_11">
     <g id="line2d_32">
      <path clip-path="url(#pf3f07b7d2a)" d="
M422.412 346.839
L422.412 12.0391" style="fill:none;stroke:#000000;stroke-dasharray:1.000000,3.000000;stroke-dashoffset:0.0;stroke-width:0.5;"/>
     </g>
     <g id="line2d_33">
      <g>
       <use style="stroke:#000000;stroke-width:0.5;" x="422.411729571" xlink:href="#m93b0483c22" y="346.8390625"/>
      </g>
     </g>
     <g id="line2d_34">
      <g>
       <use style="stroke:#000000;stroke-width:0.5;" x="422.411729571" xlink:href="#m741efc42ff" y="12.0390625"/>
      </g>
     </g>
     <g id="text_11">
      <!-- Nov -->
      <defs>
       <path d="
M2.98438 54.6875
L12.5 54.6875
L29.5938 8.79688
L46.6875 54.6875
L56.2031 54.6875
L35.6875 0
L23.4844 0
z
" id="BitstreamVeraSans-Roman-76"/>
       <path d="
M9.8125 72.9062
L23.0938 72.9062
L55.4219 11.9219
L55.4219 72.9062
L64.9844 72.9062
L64.9844 0
L51.7031 0
L19.3906 60.9844
L19.3906 0
L9.8125 0
z
" id="BitstreamVeraSans-Roman-4e"/>
       <path d="
M30.6094 48.3906
Q23.3906 48.3906 19.1875 42.75
Q14.9844 37.1094 14.9844 27.2969
Q14.9844 17.4844 19.1562 11.8438
Q23.3438 6.20312 30.6094 6.20312
Q37.7969 6.20312 41.9844 11.8594
Q46.1875 17.5312 46.1875 27.2969
Q46.1875 37.0156 41.9844 42.7031
Q37.7969 48.3906 30.6094 48.3906
M30.6094 56
Q42.3281 56 49.0156 48.375
Q55.7188 40.7656 55.7188 27.2969
Q55.7188 13.875 49.0156 6.21875
Q42.3281 -1.42188 30.6094 -1.42188
Q18.8438 -1.42188 12.1719 6.21875
Q5.51562 13.875 5.51562 27.2969
Q5.51562 40.7656 12.1719 48.375
Q18.8438 56 30.6094 56" id="BitstreamVeraSans-Roman-6f"/>
      </defs>
      <g transform="translate(413.292198321 358.4375)scale(0.1 -0.1)">
       <use xlink:href="#BitstreamVeraSans-Roman-4e"/>
       <use x="74.8046875" xlink:href="#BitstreamVeraSans-Roman-6f"/>
       <use x="135.986328125" xlink:href="#BitstreamVeraSans-Roman-76"/>
      </g>
     </g>
    </g>
    <g id="xtick_12">
     <g id="line2d_35">
      <path clip-path="url(#pf3f07b7d2a)" d="
M459.509 346.839
L459.509 12.0391" style="fill:none;stroke:#000000;stroke-dasharray:1.000000,3.000000;stroke-dashoffset:0.0;stroke-width:0.5;"/>
     </g>
     <g id="line2d_36">
      <g>
       <use style="stroke:#000000;stroke-width:0.5;" x="459.508682479" xlink:href="#m93b0483c22" y="346.8390625"/>
      </g>
     </g>
     <g id="line2d_37">
      <g>
       <use style="stroke:#000000;stroke-width:0.5;" x="459.508682479" xlink:href="#m741efc42ff" y="12.0390625"/>
      </g>
     </g>
     <g id="text_12">
      <!-- Dec -->
      <defs>
       <path d="
M19.6719 64.7969
L19.6719 8.10938
L31.5938 8.10938
Q46.6875 8.10938 53.6875 14.9375
Q60.6875 21.7812 60.6875 36.5312
Q60.6875 51.1719 53.6875 57.9844
Q46.6875 64.7969 31.5938 64.7969
z

M9.8125 72.9062
L30.0781 72.9062
Q51.2656 72.9062 61.1719 64.0938
Q71.0938 55.2812 71.0938 36.5312
Q71.0938 17.6719 61.125 8.82812
Q51.1719 0 30.0781 0
L9.8125 0
z
" id="BitstreamVeraSans-Roman-44"/>
      </defs>
      <g transform="translate(450.633682479 358.4375)scale(0.1 -0.1)">
       <use xlink:href="#BitstreamVeraSans-Roman-44"/>
       <use x="77.001953125" xlink:href="#BitstreamVeraSans-Roman-65"/>
       <use x="138.525390625" xlink:href="#BitstreamVeraSans-Roman-63"/>
      </g>
     </g>
    </g>
    <g id="xtick_13">
     <g id="line2d_38">
      <path clip-path="url(#pf3f07b7d2a)" d="
M491.659 346.839
L491.659 12.0391" style="fill:none;stroke:#000000;stroke-dasharray:1.000000,3.000000;stroke-dashoffset:0.0;stroke-width:0.5;"/>
     </g>
     <g id="line2d_39">
      <g>
       <use style="stroke:#000000;stroke-width:0.5;" x="491.659375" xlink:href="#m93b0483c22" y="346.8390625"/>
      </g>
     </g>
     <g id="line2d_40">
      <g>
       <use style="stroke:#000000;stroke-width:0.5;" x="491.659375" xlink:href="#m741efc42ff" y="12.0390625"/>
      </g>
     </g>
    </g>
    <g id="xtick_14">
     <g id="line2d_41">
      <defs>
       <path d="
M0 0
L0 -2" id="m177f7580d0" style="stroke:#000000;stroke-width:0.5;"/>
      </defs>
      <g>
       <use style="stroke:#000000;stroke-width:0.5;" x="46.495940097" xlink:href="#m177f7580d0" y="346.8390625"/>
      </g>
     </g>
     <g id="line2d_42">
      <defs>
       <path d="
M0 0
L0 2" id="m5284c7e2a0" style="stroke:#000000;stroke-width:0.5;"/>
      </defs>
      <g>
       <use style="stroke:#000000;stroke-width:0.5;" x="46.495940097" xlink:href="#m5284c7e2a0" y="12.0390625"/>
      </g>
     </g>
    </g>
    <g id="xtick_15">
     <g id="line2d_43">
      <g>
       <use style="stroke:#000000;stroke-width:0.5;" x="55.1518957756" xlink:href="#m177f7580d0" y="346.8390625"/>
      </g>
     </g>
     <g id="line2d_44">
      <g>
       <use style="stroke:#000000;stroke-width:0.5;" x="55.1518957756" xlink:href="#m5284c7e2a0" y="12.0390625"/>
      </g>
     </g>
    </g>
    <g id="xtick_16">
     <g id="line2d_45">
      <g>
       <use style="stroke:#000000;stroke-width:0.5;" x="63.8078514543" xlink:href="#m177f7580d0" y="346.8390625"/>
      </g>
     </g>
     <g id="line2d_46">
      <g>
       <use style="stroke:#000000;stroke-width:0.5;" x="63.8078514543" xlink:href="#m5284c7e2a0" y="12.0390625"/>
      </g>
     </g>
    </g>
    <g id="xtick_17">
     <g id="line2d_47">
      <g>
       <use style="stroke:#000000;stroke-width:0.5;" x="72.463807133" xlink:href="#m177f7580d0" y="346.8390625"/>
      </g>
     </g>
     <g id="line2d_48">
      <g>
       <use style="stroke:#000000;stroke-width:0.5;" x="72.463807133" xlink:href="#m5284c7e2a0" y="12.0390625"/>
      </g>
     </g>
    </g>
    <g id="xtick_18">
     <g id="line2d_49">
      <g>
       <use style="stroke:#000000;stroke-width:0.5;" x="81.1197628116" xlink:href="#m177f7580d0" y="346.8390625"/>
      </g>
     </g>
     <g id="line2d_50">
      <g>
       <use style="stroke:#000000;stroke-width:0.5;" x="81.1197628116" xlink:href="#m5284c7e2a0" y="12.0390625"/>
      </g>
     </g>
    </g>
    <g id="xtick_19">
     <g id="line2d_51">
      <g>
       <use style="stroke:#000000;stroke-width:0.5;" x="89.7757184903" xlink:href="#m177f7580d0" y="346.8390625"/>
      </g>
     </g>
     <g id="line2d_52">
      <g>
       <use style="stroke:#000000;stroke-width:0.5;" x="89.7757184903" xlink:href="#m5284c7e2a0" y="12.0390625"/>
      </g>
     </g>
    </g>
    <g id="xtick_20">
     <g id="line2d_53">
      <g>
       <use style="stroke:#000000;stroke-width:0.5;" x="98.431674169" xlink:href="#m177f7580d0" y="346.8390625"/>
      </g>
     </g>
     <g id="line2d_54">
      <g>
       <use style="stroke:#000000;stroke-width:0.5;" x="98.431674169" xlink:href="#m5284c7e2a0" y="12.0390625"/>
      </g>
     </g>
    </g>
    <g id="xtick_21">
     <g id="line2d_55">
      <g>
       <use style="stroke:#000000;stroke-width:0.5;" x="107.087629848" xlink:href="#m177f7580d0" y="346.8390625"/>
      </g>
     </g>
     <g id="line2d_56">
      <g>
       <use style="stroke:#000000;stroke-width:0.5;" x="107.087629848" xlink:href="#m5284c7e2a0" y="12.0390625"/>
      </g>
     </g>
    </g>
    <g id="xtick_22">
     <g id="line2d_57">
      <g>
       <use style="stroke:#000000;stroke-width:0.5;" x="115.743585526" xlink:href="#m177f7580d0" y="346.8390625"/>
      </g>
     </g>
     <g id="line2d_58">
      <g>
       <use style="stroke:#000000;stroke-width:0.5;" x="115.743585526" xlink:href="#m5284c7e2a0" y="12.0390625"/>
      </g>
     </g>
    </g>
    <g id="xtick_23">
     <g id="line2d_59">
      <g>
       <use style="stroke:#000000;stroke-width:0.5;" x="124.399541205" xlink:href="#m177f7580d0" y="346.8390625"/>
      </g>
     </g>
     <g id="line2d_60">
      <g>
       <use style="stroke:#000000;stroke-width:0.5;" x="124.399541205" xlink:href="#m5284c7e2a0" y="12.0390625"/>
      </g>
     </g>
    </g>
    <g id="xtick_24">
     <g id="line2d_61">
      <g>
       <use style="stroke:#000000;stroke-width:0.5;" x="133.055496884" xlink:href="#m177f7580d0" y="346.8390625"/>
      </g>
     </g>
     <g id="line2d_62">
      <g>
       <use style="stroke:#000000;stroke-width:0.5;" x="133.055496884" xlink:href="#m5284c7e2a0" y="12.0390625"/>
      </g>
     </g>
    </g>
    <g id="xtick_25">
     <g id="line2d_63">
      <g>
       <use style="stroke:#000000;stroke-width:0.5;" x="141.711452562" xlink:href="#m177f7580d0" y="346.8390625"/>
      </g>
     </g>
     <g id="line2d_64">
      <g>
       <use style="stroke:#000000;stroke-width:0.5;" x="141.711452562" xlink:href="#m5284c7e2a0" y="12.0390625"/>
      </g>
     </g>
    </g>
    <g id="xtick_26">
     <g id="line2d_65">
      <g>
       <use style="stroke:#000000;stroke-width:0.5;" x="150.367408241" xlink:href="#m177f7580d0" y="346.8390625"/>
      </g>
     </g>
     <g id="line2d_66">
      <g>
       <use style="stroke:#000000;stroke-width:0.5;" x="150.367408241" xlink:href="#m5284c7e2a0" y="12.0390625"/>
      </g>
     </g>
    </g>
    <g id="xtick_27">
     <g id="line2d_67">
      <g>
       <use style="stroke:#000000;stroke-width:0.5;" x="159.02336392" xlink:href="#m177f7580d0" y="346.8390625"/>
      </g>
     </g>
     <g id="line2d_68">
      <g>
       <use style="stroke:#000000;stroke-width:0.5;" x="159.02336392" xlink:href="#m5284c7e2a0" y="12.0390625"/>
      </g>
     </g>
    </g>
    <g id="xtick_28">
     <g id="line2d_69">
      <g>
       <use style="stroke:#000000;stroke-width:0.5;" x="167.679319598" xlink:href="#m177f7580d0" y="346.8390625"/>
      </g>
     </g>
     <g id="line2d_70">
      <g>
       <use style="stroke:#000000;stroke-width:0.5;" x="167.679319598" xlink:href="#m5284c7e2a0" y="12.0390625"/>
      </g>
     </g>
    </g>
    <g id="xtick_29">
     <g id="line2d_71">
      <g>
       <use style="stroke:#000000;stroke-width:0.5;" x="176.335275277" xlink:href="#m177f7580d0" y="346.8390625"/>
      </g>
     </g>
     <g id="line2d_72">
      <g>
       <use style="stroke:#000000;stroke-width:0.5;" x="176.335275277" xlink:href="#m5284c7e2a0" y="12.0390625"/>
      </g>
     </g>
    </g>
    <g id="xtick_30">
     <g id="line2d_73">
      <g>
       <use style="stroke:#000000;stroke-width:0.5;" x="184.991230956" xlink:href="#m177f7580d0" y="346.8390625"/>
      </g>
     </g>
     <g id="line2d_74">
      <g>
       <use style="stroke:#000000;stroke-width:0.5;" x="184.991230956" xlink:href="#m5284c7e2a0" y="12.0390625"/>
      </g>
     </g>
    </g>
    <g id="xtick_31">
     <g id="line2d_75">
      <g>
       <use style="stroke:#000000;stroke-width:0.5;" x="193.647186634" xlink:href="#m177f7580d0" y="346.8390625"/>
      </g>
     </g>
     <g id="line2d_76">
      <g>
       <use style="stroke:#000000;stroke-width:0.5;" x="193.647186634" xlink:href="#m5284c7e2a0" y="12.0390625"/>
      </g>
     </g>
    </g>
    <g id="xtick_32">
     <g id="line2d_77">
      <g>
       <use style="stroke:#000000;stroke-width:0.5;" x="202.303142313" xlink:href="#m177f7580d0" y="346.8390625"/>
      </g>
     </g>
     <g id="line2d_78">
      <g>
       <use style="stroke:#000000;stroke-width:0.5;" x="202.303142313" xlink:href="#m5284c7e2a0" y="12.0390625"/>
      </g>
     </g>
    </g>
    <g id="xtick_33">
     <g id="line2d_79">
      <g>
       <use style="stroke:#000000;stroke-width:0.5;" x="210.959097992" xlink:href="#m177f7580d0" y="346.8390625"/>
      </g>
     </g>
     <g id="line2d_80">
      <g>
       <use style="stroke:#000000;stroke-width:0.5;" x="210.959097992" xlink:href="#m5284c7e2a0" y="12.0390625"/>
      </g>
     </g>
    </g>
    <g id="xtick_34">
     <g id="line2d_81">
      <g>
       <use style="stroke:#000000;stroke-width:0.5;" x="219.61505367" xlink:href="#m177f7580d0" y="346.8390625"/>
      </g>
     </g>
     <g id="line2d_82">
      <g>
       <use style="stroke:#000000;stroke-width:0.5;" x="219.61505367" xlink:href="#m5284c7e2a0" y="12.0390625"/>
      </g>
     </g>
    </g>
    <g id="xtick_35">
     <g id="line2d_83">
      <g>
       <use style="stroke:#000000;stroke-width:0.5;" x="228.271009349" xlink:href="#m177f7580d0" y="346.8390625"/>
      </g>
     </g>
     <g id="line2d_84">
      <g>
       <use style="stroke:#000000;stroke-width:0.5;" x="228.271009349" xlink:href="#m5284c7e2a0" y="12.0390625"/>
      </g>
     </g>
    </g>
    <g id="xtick_36">
     <g id="line2d_85">
      <g>
       <use style="stroke:#000000;stroke-width:0.5;" x="236.926965028" xlink:href="#m177f7580d0" y="346.8390625"/>
      </g>
     </g>
     <g id="line2d_86">
      <g>
       <use style="stroke:#000000;stroke-width:0.5;" x="236.926965028" xlink:href="#m5284c7e2a0" y="12.0390625"/>
      </g>
     </g>
    </g>
    <g id="xtick_37">
     <g id="line2d_87">
      <g>
       <use style="stroke:#000000;stroke-width:0.5;" x="245.582920706" xlink:href="#m177f7580d0" y="346.8390625"/>
      </g>
     </g>
     <g id="line2d_88">
      <g>
       <use style="stroke:#000000;stroke-width:0.5;" x="245.582920706" xlink:href="#m5284c7e2a0" y="12.0390625"/>
      </g>
     </g>
    </g>
    <g id="xtick_38">
     <g id="line2d_89">
      <g>
       <use style="stroke:#000000;stroke-width:0.5;" x="254.238876385" xlink:href="#m177f7580d0" y="346.8390625"/>
      </g>
     </g>
     <g id="line2d_90">
      <g>
       <use style="stroke:#000000;stroke-width:0.5;" x="254.238876385" xlink:href="#m5284c7e2a0" y="12.0390625"/>
      </g>
     </g>
    </g>
    <g id="xtick_39">
     <g id="line2d_91">
      <g>
       <use style="stroke:#000000;stroke-width:0.5;" x="262.894832064" xlink:href="#m177f7580d0" y="346.8390625"/>
      </g>
     </g>
     <g id="line2d_92">
      <g>
       <use style="stroke:#000000;stroke-width:0.5;" x="262.894832064" xlink:href="#m5284c7e2a0" y="12.0390625"/>
      </g>
     </g>
    </g>
    <g id="xtick_40">
     <g id="line2d_93">
      <g>
       <use style="stroke:#000000;stroke-width:0.5;" x="271.550787742" xlink:href="#m177f7580d0" y="346.8390625"/>
      </g>
     </g>
     <g id="line2d_94">
      <g>
       <use style="stroke:#000000;stroke-width:0.5;" x="271.550787742" xlink:href="#m5284c7e2a0" y="12.0390625"/>
      </g>
     </g>
    </g>
    <g id="xtick_41">
     <g id="line2d_95">
      <g>
       <use style="stroke:#000000;stroke-width:0.5;" x="280.206743421" xlink:href="#m177f7580d0" y="346.8390625"/>
      </g>
     </g>
     <g id="line2d_96">
      <g>
       <use style="stroke:#000000;stroke-width:0.5;" x="280.206743421" xlink:href="#m5284c7e2a0" y="12.0390625"/>
      </g>
     </g>
    </g>
    <g id="xtick_42">
     <g id="line2d_97">
      <g>
       <use style="stroke:#000000;stroke-width:0.5;" x="288.8626991" xlink:href="#m177f7580d0" y="346.8390625"/>
      </g>
     </g>
     <g id="line2d_98">
      <g>
       <use style="stroke:#000000;stroke-width:0.5;" x="288.8626991" xlink:href="#m5284c7e2a0" y="12.0390625"/>
      </g>
     </g>
    </g>
    <g id="xtick_43">
     <g id="line2d_99">
      <g>
       <use style="stroke:#000000;stroke-width:0.5;" x="297.518654778" xlink:href="#m177f7580d0" y="346.8390625"/>
      </g>
     </g>
     <g id="line2d_100">
      <g>
       <use style="stroke:#000000;stroke-width:0.5;" x="297.518654778" xlink:href="#m5284c7e2a0" y="12.0390625"/>
      </g>
     </g>
    </g>
    <g id="xtick_44">
     <g id="line2d_101">
      <g>
       <use style="stroke:#000000;stroke-width:0.5;" x="306.174610457" xlink:href="#m177f7580d0" y="346.8390625"/>
      </g>
     </g>
     <g id="line2d_102">
      <g>
       <use style="stroke:#000000;stroke-width:0.5;" x="306.174610457" xlink:href="#m5284c7e2a0" y="12.0390625"/>
      </g>
     </g>
    </g>
    <g id="xtick_45">
     <g id="line2d_103">
      <g>
       <use style="stroke:#000000;stroke-width:0.5;" x="314.830566136" xlink:href="#m177f7580d0" y="346.8390625"/>
      </g>
     </g>
     <g id="line2d_104">
      <g>
       <use style="stroke:#000000;stroke-width:0.5;" x="314.830566136" xlink:href="#m5284c7e2a0" y="12.0390625"/>
      </g>
     </g>
    </g>
    <g id="xtick_46">
     <g id="line2d_105">
      <g>
       <use style="stroke:#000000;stroke-width:0.5;" x="323.486521814" xlink:href="#m177f7580d0" y="346.8390625"/>
      </g>
     </g>
     <g id="line2d_106">
      <g>
       <use style="stroke:#000000;stroke-width:0.5;" x="323.486521814" xlink:href="#m5284c7e2a0" y="12.0390625"/>
      </g>
     </g>
    </g>
    <g id="xtick_47">
     <g id="line2d_107">
      <g>
       <use style="stroke:#000000;stroke-width:0.5;" x="332.142477493" xlink:href="#m177f7580d0" y="346.8390625"/>
      </g>
     </g>
     <g id="line2d_108">
      <g>
       <use style="stroke:#000000;stroke-width:0.5;" x="332.142477493" xlink:href="#m5284c7e2a0" y="12.0390625"/>
      </g>
     </g>
    </g>
    <g id="xtick_48">
     <g id="line2d_109">
      <g>
       <use style="stroke:#000000;stroke-width:0.5;" x="340.798433172" xlink:href="#m177f7580d0" y="346.8390625"/>
      </g>
     </g>
     <g id="line2d_110">
      <g>
       <use style="stroke:#000000;stroke-width:0.5;" x="340.798433172" xlink:href="#m5284c7e2a0" y="12.0390625"/>
      </g>
     </g>
    </g>
    <g id="xtick_49">
     <g id="line2d_111">
      <g>
       <use style="stroke:#000000;stroke-width:0.5;" x="349.45438885" xlink:href="#m177f7580d0" y="346.8390625"/>
      </g>
     </g>
     <g id="line2d_112">
      <g>
       <use style="stroke:#000000;stroke-width:0.5;" x="349.45438885" xlink:href="#m5284c7e2a0" y="12.0390625"/>
      </g>
     </g>
    </g>
    <g id="xtick_50">
     <g id="line2d_113">
      <g>
       <use style="stroke:#000000;stroke-width:0.5;" x="358.110344529" xlink:href="#m177f7580d0" y="346.8390625"/>
      </g>
     </g>
     <g id="line2d_114">
      <g>
       <use style="stroke:#000000;stroke-width:0.5;" x="358.110344529" xlink:href="#m5284c7e2a0" y="12.0390625"/>
      </g>
     </g>
    </g>
    <g id="xtick_51">
     <g id="line2d_115">
      <g>
       <use style="stroke:#000000;stroke-width:0.5;" x="366.766300208" xlink:href="#m177f7580d0" y="346.8390625"/>
      </g>
     </g>
     <g id="line2d_116">
      <g>
       <use style="stroke:#000000;stroke-width:0.5;" x="366.766300208" xlink:href="#m5284c7e2a0" y="12.0390625"/>
      </g>
     </g>
    </g>
    <g id="xtick_52">
     <g id="line2d_117">
      <g>
       <use style="stroke:#000000;stroke-width:0.5;" x="375.422255886" xlink:href="#m177f7580d0" y="346.8390625"/>
      </g>
     </g>
     <g id="line2d_118">
      <g>
       <use style="stroke:#000000;stroke-width:0.5;" x="375.422255886" xlink:href="#m5284c7e2a0" y="12.0390625"/>
      </g>
     </g>
    </g>
    <g id="xtick_53">
     <g id="line2d_119">
      <g>
       <use style="stroke:#000000;stroke-width:0.5;" x="392.734167244" xlink:href="#m177f7580d0" y="346.8390625"/>
      </g>
     </g>
     <g id="line2d_120">
      <g>
       <use style="stroke:#000000;stroke-width:0.5;" x="392.734167244" xlink:href="#m5284c7e2a0" y="12.0390625"/>
      </g>
     </g>
    </g>
    <g id="xtick_54">
     <g id="line2d_121">
      <g>
       <use style="stroke:#000000;stroke-width:0.5;" x="401.390122922" xlink:href="#m177f7580d0" y="346.8390625"/>
      </g>
     </g>
     <g id="line2d_122">
      <g>
       <use style="stroke:#000000;stroke-width:0.5;" x="401.390122922" xlink:href="#m5284c7e2a0" y="12.0390625"/>
      </g>
     </g>
    </g>
    <g id="xtick_55">
     <g id="line2d_123">
      <g>
       <use style="stroke:#000000;stroke-width:0.5;" x="410.046078601" xlink:href="#m177f7580d0" y="346.8390625"/>
      </g>
     </g>
     <g id="line2d_124">
      <g>
       <use style="stroke:#000000;stroke-width:0.5;" x="410.046078601" xlink:href="#m5284c7e2a0" y="12.0390625"/>
      </g>
     </g>
    </g>
    <g id="xtick_56">
     <g id="line2d_125">
      <g>
       <use style="stroke:#000000;stroke-width:0.5;" x="418.70203428" xlink:href="#m177f7580d0" y="346.8390625"/>
      </g>
     </g>
     <g id="line2d_126">
      <g>
       <use style="stroke:#000000;stroke-width:0.5;" x="418.70203428" xlink:href="#m5284c7e2a0" y="12.0390625"/>
      </g>
     </g>
    </g>
    <g id="xtick_57">
     <g id="line2d_127">
      <g>
       <use style="stroke:#000000;stroke-width:0.5;" x="427.357989958" xlink:href="#m177f7580d0" y="346.8390625"/>
      </g>
     </g>
     <g id="line2d_128">
      <g>
       <use style="stroke:#000000;stroke-width:0.5;" x="427.357989958" xlink:href="#m5284c7e2a0" y="12.0390625"/>
      </g>
     </g>
    </g>
    <g id="xtick_58">
     <g id="line2d_129">
      <g>
       <use style="stroke:#000000;stroke-width:0.5;" x="436.013945637" xlink:href="#m177f7580d0" y="346.8390625"/>
      </g>
     </g>
     <g id="line2d_130">
      <g>
       <use style="stroke:#000000;stroke-width:0.5;" x="436.013945637" xlink:href="#m5284c7e2a0" y="12.0390625"/>
      </g>
     </g>
    </g>
    <g id="xtick_59">
     <g id="line2d_131">
      <g>
       <use style="stroke:#000000;stroke-width:0.5;" x="444.669901316" xlink:href="#m177f7580d0" y="346.8390625"/>
      </g>
     </g>
     <g id="line2d_132">
      <g>
       <use style="stroke:#000000;stroke-width:0.5;" x="444.669901316" xlink:href="#m5284c7e2a0" y="12.0390625"/>
      </g>
     </g>
    </g>
    <g id="xtick_60">
     <g id="line2d_133">
      <g>
       <use style="stroke:#000000;stroke-width:0.5;" x="453.325856994" xlink:href="#m177f7580d0" y="346.8390625"/>
      </g>
     </g>
     <g id="line2d_134">
      <g>
       <use style="stroke:#000000;stroke-width:0.5;" x="453.325856994" xlink:href="#m5284c7e2a0" y="12.0390625"/>
      </g>
     </g>
    </g>
    <g id="xtick_61">
     <g id="line2d_135">
      <g>
       <use style="stroke:#000000;stroke-width:0.5;" x="461.981812673" xlink:href="#m177f7580d0" y="346.8390625"/>
      </g>
     </g>
     <g id="line2d_136">
      <g>
       <use style="stroke:#000000;stroke-width:0.5;" x="461.981812673" xlink:href="#m5284c7e2a0" y="12.0390625"/>
      </g>
     </g>
    </g>
    <g id="xtick_62">
     <g id="line2d_137">
      <g>
       <use style="stroke:#000000;stroke-width:0.5;" x="470.637768352" xlink:href="#m177f7580d0" y="346.8390625"/>
      </g>
     </g>
     <g id="line2d_138">
      <g>
       <use style="stroke:#000000;stroke-width:0.5;" x="470.637768352" xlink:href="#m5284c7e2a0" y="12.0390625"/>
      </g>
     </g>
    </g>
    <g id="xtick_63">
     <g id="line2d_139">
      <g>
       <use style="stroke:#000000;stroke-width:0.5;" x="479.29372403" xlink:href="#m177f7580d0" y="346.8390625"/>
      </g>
     </g>
     <g id="line2d_140">
      <g>
       <use style="stroke:#000000;stroke-width:0.5;" x="479.29372403" xlink:href="#m5284c7e2a0" y="12.0390625"/>
      </g>
     </g>
    </g>
    <g id="xtick_64">
     <g id="line2d_141">
      <g>
       <use style="stroke:#000000;stroke-width:0.5;" x="487.949679709" xlink:href="#m177f7580d0" y="346.8390625"/>
      </g>
     </g>
     <g id="line2d_142">
      <g>
       <use style="stroke:#000000;stroke-width:0.5;" x="487.949679709" xlink:href="#m5284c7e2a0" y="12.0390625"/>
      </g>
     </g>
    </g>
    <g id="text_13">
     <!-- Delivery Day_Hour -->
     <defs>
      <path id="BitstreamVeraSans-Roman-20"/>
      <path d="
M9.42188 54.6875
L18.4062 54.6875
L18.4062 0
L9.42188 0
z

M9.42188 75.9844
L18.4062 75.9844
L18.4062 64.5938
L9.42188 64.5938
z
" id="BitstreamVeraSans-Roman-69"/>
      <path d="
M50.9844 -16.6094
L50.9844 -23.5781
L-0.984375 -23.5781
L-0.984375 -16.6094
z
" id="BitstreamVeraSans-Roman-5f"/>
      <path d="
M9.8125 72.9062
L19.6719 72.9062
L19.6719 43.0156
L55.5156 43.0156
L55.5156 72.9062
L65.375 72.9062
L65.375 0
L55.5156 0
L55.5156 34.7188
L19.6719 34.7188
L19.6719 0
L9.8125 0
z
" id="BitstreamVeraSans-Roman-48"/>
     </defs>
     <g transform="translate(221.69765625 384.5915625)scale(0.1 -0.1)">
      <use xlink:href="#BitstreamVeraSans-Roman-44"/>
      <use x="77.001953125" xlink:href="#BitstreamVeraSans-Roman-65"/>
      <use x="138.525390625" xlink:href="#BitstreamVeraSans-Roman-6c"/>
      <use x="166.30859375" xlink:href="#BitstreamVeraSans-Roman-69"/>
      <use x="194.091796875" xlink:href="#BitstreamVeraSans-Roman-76"/>
      <use x="253.271484375" xlink:href="#BitstreamVeraSans-Roman-65"/>
      <use x="314.794921875" xlink:href="#BitstreamVeraSans-Roman-72"/>
      <use x="355.908203125" xlink:href="#BitstreamVeraSans-Roman-79"/>
      <use x="415.087890625" xlink:href="#BitstreamVeraSans-Roman-20"/>
      <use x="446.875" xlink:href="#BitstreamVeraSans-Roman-44"/>
      <use x="523.876953125" xlink:href="#BitstreamVeraSans-Roman-61"/>
      <use x="585.15625" xlink:href="#BitstreamVeraSans-Roman-79"/>
      <use x="644.3359375" xlink:href="#BitstreamVeraSans-Roman-5f"/>
      <use x="694.3359375" xlink:href="#BitstreamVeraSans-Roman-48"/>
      <use x="769.53125" xlink:href="#BitstreamVeraSans-Roman-6f"/>
      <use x="830.712890625" xlink:href="#BitstreamVeraSans-Roman-75"/>
      <use x="894.091796875" xlink:href="#BitstreamVeraSans-Roman-72"/>
     </g>
     <!-- from -->
     <defs>
      <path d="
M52 44.1875
Q55.375 50.25 60.0625 53.125
Q64.75 56 71.0938 56
Q79.6406 56 84.2812 50.0156
Q88.9219 44.0469 88.9219 33.0156
L88.9219 0
L79.8906 0
L79.8906 32.7188
Q79.8906 40.5781 77.0938 44.375
Q74.3125 48.1875 68.6094 48.1875
Q61.625 48.1875 57.5625 43.5469
Q53.5156 38.9219 53.5156 30.9062
L53.5156 0
L44.4844 0
L44.4844 32.7188
Q44.4844 40.625 41.7031 44.4062
Q38.9219 48.1875 33.1094 48.1875
Q26.2188 48.1875 22.1562 43.5312
Q18.1094 38.875 18.1094 30.9062
L18.1094 0
L9.07812 0
L9.07812 54.6875
L18.1094 54.6875
L18.1094 46.1875
Q21.1875 51.2188 25.4844 53.6094
Q29.7812 56 35.6875 56
Q41.6562 56 45.8281 52.9688
Q50 49.9531 52 44.1875" id="BitstreamVeraSans-Roman-6d"/>
      <path d="
M37.1094 75.9844
L37.1094 68.5
L28.5156 68.5
Q23.6875 68.5 21.7969 66.5469
Q19.9219 64.5938 19.9219 59.5156
L19.9219 54.6875
L34.7188 54.6875
L34.7188 47.7031
L19.9219 47.7031
L19.9219 0
L10.8906 0
L10.8906 47.7031
L2.29688 47.7031
L2.29688 54.6875
L10.8906 54.6875
L10.8906 58.5
Q10.8906 67.625 15.1406 71.7969
Q19.3906 75.9844 28.6094 75.9844
z
" id="BitstreamVeraSans-Roman-66"/>
     </defs>
     <g transform="translate(257.365625 396.0675)scale(0.1 -0.1)">
      <use xlink:href="#BitstreamVeraSans-Roman-66"/>
      <use x="35.205078125" xlink:href="#BitstreamVeraSans-Roman-72"/>
      <use x="74.068359375" xlink:href="#BitstreamVeraSans-Roman-6f"/>
      <use x="135.25" xlink:href="#BitstreamVeraSans-Roman-6d"/>
     </g>
    </g>
   </g>
   <g id="matplotlib.axis_2">
    <g id="ytick_1">
     <g id="line2d_143">
      <path clip-path="url(#pf3f07b7d2a)" d="
M45.2594 346.839
L491.659 346.839" style="fill:none;stroke:#000000;stroke-dasharray:1.000000,3.000000;stroke-dashoffset:0.0;stroke-width:0.5;"/>
     </g>
     <g id="line2d_144">
      <defs>
       <path d="
M0 0
L4 0" id="m728421d6d4" style="stroke:#000000;stroke-width:0.5;"/>
      </defs>
      <g>
       <use style="stroke:#000000;stroke-width:0.5;" x="45.259375" xlink:href="#m728421d6d4" y="346.8390625"/>
      </g>
     </g>
     <g id="text_14">
      <!-- 40 -->
      <defs>
       <path d="
M10.5938 35.5
L73.1875 35.5
L73.1875 27.2031
L10.5938 27.2031
z
" id="BitstreamVeraSans-Roman-2212"/>
       <path d="
M37.7969 64.3125
L12.8906 25.3906
L37.7969 25.3906
z

M35.2031 72.9062
L47.6094 72.9062
L47.6094 25.3906
L58.0156 25.3906
L58.0156 17.1875
L47.6094 17.1875
L47.6094 0
L37.7969 0
L37.7969 17.1875
L4.89062 17.1875
L4.89062 26.7031
z
" id="BitstreamVeraSans-Roman-34"/>
      </defs>
      <g transform="translate(21.878125 349.5984375)scale(0.1 -0.1)">
       <use xlink:href="#BitstreamVeraSans-Roman-2212"/>
       <use x="83.7890625" xlink:href="#BitstreamVeraSans-Roman-34"/>
       <use x="147.412109375" xlink:href="#BitstreamVeraSans-Roman-30"/>
      </g>
     </g>
    </g>
    <g id="ytick_2">
     <g id="line2d_145">
      <path clip-path="url(#pf3f07b7d2a)" d="
M45.2594 309.639
L491.659 309.639" style="fill:none;stroke:#000000;stroke-dasharray:1.000000,3.000000;stroke-dashoffset:0.0;stroke-width:0.5;"/>
     </g>
     <g id="line2d_146">
      <g>
       <use style="stroke:#000000;stroke-width:0.5;" x="45.259375" xlink:href="#m728421d6d4" y="309.6390625"/>
      </g>
     </g>
     <g id="text_15">
      <!-- 20 -->
      <g transform="translate(21.878125 312.3984375)scale(0.1 -0.1)">
       <use xlink:href="#BitstreamVeraSans-Roman-2212"/>
       <use x="83.7890625" xlink:href="#BitstreamVeraSans-Roman-32"/>
       <use x="147.412109375" xlink:href="#BitstreamVeraSans-Roman-30"/>
      </g>
     </g>
    </g>
    <g id="ytick_3">
     <g id="line2d_147">
      <path clip-path="url(#pf3f07b7d2a)" d="
M45.2594 272.439
L491.659 272.439" style="fill:none;stroke:#000000;stroke-dasharray:1.000000,3.000000;stroke-dashoffset:0.0;stroke-width:0.5;"/>
     </g>
     <g id="line2d_148">
      <g>
       <use style="stroke:#000000;stroke-width:0.5;" x="45.259375" xlink:href="#m728421d6d4" y="272.4390625"/>
      </g>
     </g>
     <g id="text_16">
      <!-- 0 -->
      <g transform="translate(36.2203125 275.1984375)scale(0.1 -0.1)">
       <use xlink:href="#BitstreamVeraSans-Roman-30"/>
      </g>
     </g>
    </g>
    <g id="ytick_4">
     <g id="line2d_149">
      <path clip-path="url(#pf3f07b7d2a)" d="
M45.2594 235.239
L491.659 235.239" style="fill:none;stroke:#000000;stroke-dasharray:1.000000,3.000000;stroke-dashoffset:0.0;stroke-width:0.5;"/>
     </g>
     <g id="line2d_150">
      <g>
       <use style="stroke:#000000;stroke-width:0.5;" x="45.259375" xlink:href="#m728421d6d4" y="235.2390625"/>
      </g>
     </g>
     <g id="text_17">
      <!-- 20 -->
      <g transform="translate(29.93125 237.9984375)scale(0.1 -0.1)">
       <use xlink:href="#BitstreamVeraSans-Roman-32"/>
       <use x="63.623046875" xlink:href="#BitstreamVeraSans-Roman-30"/>
      </g>
     </g>
    </g>
    <g id="ytick_5">
     <g id="line2d_151">
      <path clip-path="url(#pf3f07b7d2a)" d="
M45.2594 198.039
L491.659 198.039" style="fill:none;stroke:#000000;stroke-dasharray:1.000000,3.000000;stroke-dashoffset:0.0;stroke-width:0.5;"/>
     </g>
     <g id="line2d_152">
      <g>
       <use style="stroke:#000000;stroke-width:0.5;" x="45.259375" xlink:href="#m728421d6d4" y="198.0390625"/>
      </g>
     </g>
     <g id="text_18">
      <!-- 40 -->
      <g transform="translate(29.6875 200.7984375)scale(0.1 -0.1)">
       <use xlink:href="#BitstreamVeraSans-Roman-34"/>
       <use x="63.623046875" xlink:href="#BitstreamVeraSans-Roman-30"/>
      </g>
     </g>
    </g>
    <g id="ytick_6">
     <g id="line2d_153">
      <path clip-path="url(#pf3f07b7d2a)" d="
M45.2594 160.839
L491.659 160.839" style="fill:none;stroke:#000000;stroke-dasharray:1.000000,3.000000;stroke-dashoffset:0.0;stroke-width:0.5;"/>
     </g>
     <g id="line2d_154">
      <g>
       <use style="stroke:#000000;stroke-width:0.5;" x="45.259375" xlink:href="#m728421d6d4" y="160.8390625"/>
      </g>
     </g>
     <g id="text_19">
      <!-- 60 -->
      <defs>
       <path d="
M33.0156 40.375
Q26.375 40.375 22.4844 35.8281
Q18.6094 31.2969 18.6094 23.3906
Q18.6094 15.5312 22.4844 10.9531
Q26.375 6.39062 33.0156 6.39062
Q39.6562 6.39062 43.5312 10.9531
Q47.4062 15.5312 47.4062 23.3906
Q47.4062 31.2969 43.5312 35.8281
Q39.6562 40.375 33.0156 40.375
M52.5938 71.2969
L52.5938 62.3125
Q48.875 64.0625 45.0938 64.9844
Q41.3125 65.9219 37.5938 65.9219
Q27.8281 65.9219 22.6719 59.3281
Q17.5312 52.7344 16.7969 39.4062
Q19.6719 43.6562 24.0156 45.9219
Q28.375 48.1875 33.5938 48.1875
Q44.5781 48.1875 50.9531 41.5156
Q57.3281 34.8594 57.3281 23.3906
Q57.3281 12.1562 50.6875 5.35938
Q44.0469 -1.42188 33.0156 -1.42188
Q20.3594 -1.42188 13.6719 8.26562
Q6.98438 17.9688 6.98438 36.375
Q6.98438 53.6562 15.1875 63.9375
Q23.3906 74.2188 37.2031 74.2188
Q40.9219 74.2188 44.7031 73.4844
Q48.4844 72.75 52.5938 71.2969" id="BitstreamVeraSans-Roman-36"/>
      </defs>
      <g transform="translate(29.896875 163.5984375)scale(0.1 -0.1)">
       <use xlink:href="#BitstreamVeraSans-Roman-36"/>
       <use x="63.623046875" xlink:href="#BitstreamVeraSans-Roman-30"/>
      </g>
     </g>
    </g>
    <g id="ytick_7">
     <g id="line2d_155">
      <path clip-path="url(#pf3f07b7d2a)" d="
M45.2594 123.639
L491.659 123.639" style="fill:none;stroke:#000000;stroke-dasharray:1.000000,3.000000;stroke-dashoffset:0.0;stroke-width:0.5;"/>
     </g>
     <g id="line2d_156">
      <g>
       <use style="stroke:#000000;stroke-width:0.5;" x="45.259375" xlink:href="#m728421d6d4" y="123.6390625"/>
      </g>
     </g>
     <g id="text_20">
      <!-- 80 -->
      <defs>
       <path d="
M31.7812 34.625
Q24.75 34.625 20.7188 30.8594
Q16.7031 27.0938 16.7031 20.5156
Q16.7031 13.9219 20.7188 10.1562
Q24.75 6.39062 31.7812 6.39062
Q38.8125 6.39062 42.8594 10.1719
Q46.9219 13.9688 46.9219 20.5156
Q46.9219 27.0938 42.8906 30.8594
Q38.875 34.625 31.7812 34.625
M21.9219 38.8125
Q15.5781 40.375 12.0312 44.7188
Q8.5 49.0781 8.5 55.3281
Q8.5 64.0625 14.7188 69.1406
Q20.9531 74.2188 31.7812 74.2188
Q42.6719 74.2188 48.875 69.1406
Q55.0781 64.0625 55.0781 55.3281
Q55.0781 49.0781 51.5312 44.7188
Q48 40.375 41.7031 38.8125
Q48.8281 37.1562 52.7969 32.3125
Q56.7812 27.4844 56.7812 20.5156
Q56.7812 9.90625 50.3125 4.23438
Q43.8438 -1.42188 31.7812 -1.42188
Q19.7344 -1.42188 13.25 4.23438
Q6.78125 9.90625 6.78125 20.5156
Q6.78125 27.4844 10.7812 32.3125
Q14.7969 37.1562 21.9219 38.8125
M18.3125 54.3906
Q18.3125 48.7344 21.8438 45.5625
Q25.3906 42.3906 31.7812 42.3906
Q38.1406 42.3906 41.7188 45.5625
Q45.3125 48.7344 45.3125 54.3906
Q45.3125 60.0625 41.7188 63.2344
Q38.1406 66.4062 31.7812 66.4062
Q25.3906 66.4062 21.8438 63.2344
Q18.3125 60.0625 18.3125 54.3906" id="BitstreamVeraSans-Roman-38"/>
      </defs>
      <g transform="translate(29.8765625 126.3984375)scale(0.1 -0.1)">
       <use xlink:href="#BitstreamVeraSans-Roman-38"/>
       <use x="63.623046875" xlink:href="#BitstreamVeraSans-Roman-30"/>
      </g>
     </g>
    </g>
    <g id="ytick_8">
     <g id="line2d_157">
      <path clip-path="url(#pf3f07b7d2a)" d="
M45.2594 86.4391
L491.659 86.4391" style="fill:none;stroke:#000000;stroke-dasharray:1.000000,3.000000;stroke-dashoffset:0.0;stroke-width:0.5;"/>
     </g>
     <g id="line2d_158">
      <g>
       <use style="stroke:#000000;stroke-width:0.5;" x="45.259375" xlink:href="#m728421d6d4" y="86.4390625"/>
      </g>
     </g>
     <g id="text_21">
      <!-- 100 -->
      <g transform="translate(23.934375 89.1984375)scale(0.1 -0.1)">
       <use xlink:href="#BitstreamVeraSans-Roman-31"/>
       <use x="63.623046875" xlink:href="#BitstreamVeraSans-Roman-30"/>
       <use x="127.24609375" xlink:href="#BitstreamVeraSans-Roman-30"/>
      </g>
     </g>
    </g>
    <g id="ytick_9">
     <g id="line2d_159">
      <path clip-path="url(#pf3f07b7d2a)" d="
M45.2594 49.2391
L491.659 49.2391" style="fill:none;stroke:#000000;stroke-dasharray:1.000000,3.000000;stroke-dashoffset:0.0;stroke-width:0.5;"/>
     </g>
     <g id="line2d_160">
      <g>
       <use style="stroke:#000000;stroke-width:0.5;" x="45.259375" xlink:href="#m728421d6d4" y="49.2390625"/>
      </g>
     </g>
     <g id="text_22">
      <!-- 120 -->
      <g transform="translate(23.934375 51.9984375)scale(0.1 -0.1)">
       <use xlink:href="#BitstreamVeraSans-Roman-31"/>
       <use x="63.623046875" xlink:href="#BitstreamVeraSans-Roman-32"/>
       <use x="127.24609375" xlink:href="#BitstreamVeraSans-Roman-30"/>
      </g>
     </g>
    </g>
    <g id="ytick_10">
     <g id="line2d_161">
      <path clip-path="url(#pf3f07b7d2a)" d="
M45.2594 12.0391
L491.659 12.0391" style="fill:none;stroke:#000000;stroke-dasharray:1.000000,3.000000;stroke-dashoffset:0.0;stroke-width:0.5;"/>
     </g>
     <g id="line2d_162">
      <g>
       <use style="stroke:#000000;stroke-width:0.5;" x="45.259375" xlink:href="#m728421d6d4" y="12.0390625"/>
      </g>
     </g>
     <g id="text_23">
      <!-- 140 -->
      <g transform="translate(23.934375 14.7984375)scale(0.1 -0.1)">
       <use xlink:href="#BitstreamVeraSans-Roman-31"/>
       <use x="63.623046875" xlink:href="#BitstreamVeraSans-Roman-34"/>
       <use x="127.24609375" xlink:href="#BitstreamVeraSans-Roman-30"/>
      </g>
     </g>
    </g>
    <g id="text_24">
     <!-- Average Price (EUR) -->
     <defs>
      <path d="
M8.01562 75.875
L15.8281 75.875
Q23.1406 64.3594 26.7812 53.3125
Q30.4219 42.2812 30.4219 31.3906
Q30.4219 20.4531 26.7812 9.375
Q23.1406 -1.70312 15.8281 -13.1875
L8.01562 -13.1875
Q14.5 -2 17.7031 9.0625
Q20.9062 20.125 20.9062 31.3906
Q20.9062 42.6719 17.7031 53.6562
Q14.5 64.6562 8.01562 75.875" id="BitstreamVeraSans-Roman-29"/>
      <path d="
M31 75.875
Q24.4688 64.6562 21.2812 53.6562
Q18.1094 42.6719 18.1094 31.3906
Q18.1094 20.125 21.3125 9.0625
Q24.5156 -2 31 -13.1875
L23.1875 -13.1875
Q15.875 -1.70312 12.2344 9.375
Q8.59375 20.4531 8.59375 31.3906
Q8.59375 42.2812 12.2031 53.3125
Q15.8281 64.3594 23.1875 75.875
z
" id="BitstreamVeraSans-Roman-28"/>
      <path d="
M44.3906 34.1875
Q47.5625 33.1094 50.5625 29.5938
Q53.5625 26.0781 56.5938 19.9219
L66.6094 0
L56 0
L46.6875 18.7031
Q43.0625 26.0312 39.6719 28.4219
Q36.2812 30.8125 30.4219 30.8125
L19.6719 30.8125
L19.6719 0
L9.8125 0
L9.8125 72.9062
L32.0781 72.9062
Q44.5781 72.9062 50.7344 67.6719
Q56.8906 62.4531 56.8906 51.9062
Q56.8906 45.0156 53.6875 40.4688
Q50.4844 35.9375 44.3906 34.1875
M19.6719 64.7969
L19.6719 38.9219
L32.0781 38.9219
Q39.2031 38.9219 42.8438 42.2188
Q46.4844 45.5156 46.4844 51.9062
Q46.4844 58.2969 42.8438 61.5469
Q39.2031 64.7969 32.0781 64.7969
z
" id="BitstreamVeraSans-Roman-52"/>
      <path d="
M19.6719 64.7969
L19.6719 37.4062
L32.0781 37.4062
Q38.9688 37.4062 42.7188 40.9688
Q46.4844 44.5312 46.4844 51.125
Q46.4844 57.6719 42.7188 61.2344
Q38.9688 64.7969 32.0781 64.7969
z

M9.8125 72.9062
L32.0781 72.9062
Q44.3438 72.9062 50.6094 67.3594
Q56.8906 61.8125 56.8906 51.125
Q56.8906 40.3281 50.6094 34.8125
Q44.3438 29.2969 32.0781 29.2969
L19.6719 29.2969
L19.6719 0
L9.8125 0
z
" id="BitstreamVeraSans-Roman-50"/>
      <path d="
M9.8125 72.9062
L55.9062 72.9062
L55.9062 64.5938
L19.6719 64.5938
L19.6719 43.0156
L54.3906 43.0156
L54.3906 34.7188
L19.6719 34.7188
L19.6719 8.29688
L56.7812 8.29688
L56.7812 0
L9.8125 0
z
" id="BitstreamVeraSans-Roman-45"/>
      <path d="
M8.6875 72.9062
L18.6094 72.9062
L18.6094 28.6094
Q18.6094 16.8906 22.8438 11.7344
Q27.0938 6.59375 36.625 6.59375
Q46.0938 6.59375 50.3438 11.7344
Q54.5938 16.8906 54.5938 28.6094
L54.5938 72.9062
L64.5 72.9062
L64.5 27.3906
Q64.5 13.1406 57.4375 5.85938
Q50.3906 -1.42188 36.625 -1.42188
Q22.7969 -1.42188 15.7344 5.85938
Q8.6875 13.1406 8.6875 27.3906
z
" id="BitstreamVeraSans-Roman-55"/>
     </defs>
     <g transform="translate(14.7984375 229.1125)rotate(-90.0)scale(0.1 -0.1)">
      <use xlink:href="#BitstreamVeraSans-Roman-41"/>
      <use x="62.533203125" xlink:href="#BitstreamVeraSans-Roman-76"/>
      <use x="121.712890625" xlink:href="#BitstreamVeraSans-Roman-65"/>
      <use x="183.236328125" xlink:href="#BitstreamVeraSans-Roman-72"/>
      <use x="224.349609375" xlink:href="#BitstreamVeraSans-Roman-61"/>
      <use x="285.62890625" xlink:href="#BitstreamVeraSans-Roman-67"/>
      <use x="349.10546875" xlink:href="#BitstreamVeraSans-Roman-65"/>
      <use x="410.62890625" xlink:href="#BitstreamVeraSans-Roman-20"/>
      <use x="442.416015625" xlink:href="#BitstreamVeraSans-Roman-50"/>
      <use x="500.96875" xlink:href="#BitstreamVeraSans-Roman-72"/>
      <use x="542.08203125" xlink:href="#BitstreamVeraSans-Roman-69"/>
      <use x="569.865234375" xlink:href="#BitstreamVeraSans-Roman-63"/>
      <use x="624.845703125" xlink:href="#BitstreamVeraSans-Roman-65"/>
      <use x="686.369140625" xlink:href="#BitstreamVeraSans-Roman-20"/>
      <use x="718.15625" xlink:href="#BitstreamVeraSans-Roman-28"/>
      <use x="757.169921875" xlink:href="#BitstreamVeraSans-Roman-45"/>
      <use x="820.353515625" xlink:href="#BitstreamVeraSans-Roman-55"/>
      <use x="893.546875" xlink:href="#BitstreamVeraSans-Roman-52"/>
      <use x="963.029296875" xlink:href="#BitstreamVeraSans-Roman-29"/>
     </g>
    </g>
   </g>
  </g>
  <g id="axes_2">
   <g id="line2d_163">
    <path clip-path="url(#pf3f07b7d2a)" d="
M45.2594 196.469
L46.4959 95.8957
L47.7325 25.3601
L48.9691 42.462
L50.2056 26.7982
L51.4422 151.953
L52.6788 198.236
L53.9153 77.4662
L55.1519 205.159
L57.625 248.578
L58.8616 142.716
L60.0982 86.762
L61.3347 190.568
L62.5713 312.833
L63.8079 280.09
L65.0444 254.506
L66.281 255.67
L67.5175 85.3236
L68.7541 169.516
L69.9907 179.885
L71.2272 180.778
L72.4638 284.419
L73.7004 282.641
L74.9369 279.732
L76.1735 280.547
L77.4101 257.26
L78.6466 317.492
L79.8832 276.244
L81.1198 185.189
L82.3563 215.736
L83.5929 190.43
L84.8295 280.226
L86.066 251.112
L87.3026 302.119
L88.5392 299.365
L89.7757 266.073
L91.0123 211.108
L92.2488 265.182
L93.4854 257.463
L94.722 254.709
L95.9585 308.752
L97.1951 272.606
L98.4317 179.759
L99.6682 234.72
L100.905 122.523
L102.141 227.123
L103.378 288.171
L104.614 308.907
L105.851 213.162
L107.088 182.457
L108.324 261.92
L109.561 263.103
L110.797 195.971
L112.034 77.0166
L113.27 117.234
L114.507 274.012
L115.744 286.109
L116.98 226.972
L118.217 303.789
L119.453 266.073
L120.69 304.826
L121.926 266.112
L123.163 298.536
L124.4 309.907
L125.636 285.499
L126.873 266.275
L128.109 176.807
L129.346 259.895
L130.582 250.931
L131.819 227.685
L133.055 289.17
L134.292 245.437
L135.529 244.92
L136.765 294.686
L138.002 307.483
L139.238 296.256
L140.475 213.193
L141.711 278.206
L142.948 253.59
L144.185 285.442
L145.421 311.406
L146.658 313.263
L147.894 297.132
L149.131 309.799
L150.367 291.846
L151.604 315.747
L152.841 276.761
L154.077 175.388
L155.314 203.465
L156.55 207.204
L157.787 230.616
L160.26 311.486
L161.496 282.095
L163.97 239.522
L165.206 277.452
L166.443 268.209
L167.679 288.71
L168.916 258.938
L170.152 302.827
L171.389 270.896
L172.626 302.02
L173.862 323.224
L175.099 300.637
L176.335 262.505
L177.572 303.972
L178.808 285.188
L180.045 275.957
L181.282 277.527
L182.518 309.118
L183.755 286.452
L184.991 261.552
L186.228 257.035
L187.464 248.144
L188.701 283.972
L189.937 226.673
L191.174 260.927
L192.411 250.209
L193.647 221.01
L194.884 245.801
L196.12 249.964
L197.357 227.478
L198.593 232.247
L199.83 218.391
L201.067 230.982
L202.303 195.597
L203.54 268.687
L204.776 246.031
L206.013 270.6
L207.249 214.744
L208.486 238.479
L209.723 294.375
L210.959 253.071
L212.196 287.886
L213.432 209.24
L214.669 271.553
L215.905 227.244
L217.142 285.785
L218.378 285.783
L219.615 241.28
L220.852 267.327
L222.088 230.079
L223.325 260.297
L224.561 250.986
L225.798 334.278
L227.034 304.818
L228.271 291.904
L229.508 262.904
L230.744 275.506
L231.981 219.994
L233.217 224.512
L234.454 215.697
L235.69 279.303
L236.927 267.304
L238.164 252.978
L239.4 256.237
L240.637 278.013
L241.873 250.552
L243.11 313.989
L244.346 292.398
L245.583 230.552
L246.819 192.066
L248.056 278.509
L249.293 302.7
L250.529 248.175
L251.766 186.723
L253.002 287.854
L254.239 287.32
L255.475 249.236
L256.712 187.495
L257.949 235.782
L259.185 212.875
L260.422 272.979
L261.658 259.135
L262.895 213.075
L264.131 243.364
L265.368 268.392
L266.605 171.252
L267.841 228.2
L269.078 271.571
L270.314 230.883
L271.551 221.48
L272.787 265.77
L274.024 285.545
L275.26 273.963
L276.497 261.051
L277.734 277.914
L278.97 271.823
L280.207 231.09
L281.443 265.291
L282.68 271.275
L283.916 254.498
L285.153 209.11
L286.39 190.981
L287.626 300.469
L288.863 242.142
L290.099 280.712
L291.336 223.115
L292.572 248.396
L293.809 244.713
L295.046 287.998
L296.282 279.512
L297.519 264.375
L298.755 240.876
L299.992 239.643
L301.228 273.773
L302.465 265.12
L303.701 153.093
L304.938 243.222
L306.175 262.075
L307.411 265.499
L308.648 314.72
L309.884 222.452
L311.121 288.693
L312.357 285.574
L313.594 229.304
L314.831 224.625
L316.067 288.887
L317.304 270.289
L318.54 307.863
L319.777 270.668
L321.013 315.89
L322.25 313.339
L323.487 236.072
L324.723 280.254
L325.96 300.893
L327.196 224.454
L328.433 291.391
L329.669 260.136
L330.906 285.276
L332.142 27.0034
L333.379 234.713
L334.616 259.484
L335.852 292.481
L337.089 218.359
L338.325 268.392
L339.562 269.735
L340.798 281.067
L342.035 257.994
L343.272 276.794
L344.508 179.152
L345.745 223.081
L346.981 292.558
L348.218 307.44
L349.454 284.861
L350.691 305.571
L351.928 251.54
L353.164 262.073
L354.401 270.867
L355.637 253.765
L356.874 327.369
L358.11 228.267
L359.347 237.511
L360.583 203.946
L361.82 235.614
L363.057 244.645
L364.293 286.75
L365.53 306.945
L366.766 260.03
L368.003 192.987
L369.239 263.904
L370.476 291.977
L371.713 257.469
L372.949 298.971
L374.186 305.072
L375.422 212.875
L376.659 262.782
L377.895 229.323
L379.132 169.274
L380.369 272.02
L381.605 321.946
L382.842 280.41
L384.078 292.883
L385.315 287.036
L386.551 270.879
L387.788 216.582
L389.024 230.34
L390.261 235.654
L391.498 255.845
L392.734 270.176
L393.971 265.287
L395.207 237.015
L396.444 276.663
L397.68 277.059
L398.917 301.506
L400.154 278.751
L401.39 258.182
L402.627 269.456
L403.863 276.713
L405.1 228.591
L406.336 287.95
L407.573 281.989
L408.81 258.986
L410.046 164.006
L411.283 213.33
L412.519 228.547
L413.756 256.294
L414.992 235.302
L416.229 280.596
L417.465 269.96
L418.702 169.068
L419.939 285.679
L421.175 254.399
L422.412 285.059
L423.648 238.933
L424.885 267.978
L426.121 287.611
L427.358 197.985
L428.595 243.214
L429.831 200.76
L432.304 296.629
L433.541 234.203
L434.777 270.01
L436.014 295.886
L437.251 289.783
L438.487 271.313
L439.724 200.994
L440.96 235.642
L442.197 248.663
L443.433 289.748
L444.67 236.322
L445.906 268.049
L447.143 236.597
L448.38 261.541
L449.616 206.905
L450.853 312.267
L452.089 240.185
L453.326 233.628
L454.562 244.43
L455.799 197.51
L457.036 238.474
L458.272 253.737
L459.509 297.111
L460.745 316.119
L461.982 264.536
L463.218 239.5
L464.455 263.609
L465.692 274.722
L466.928 222.68
L468.165 315.177
L469.401 246.156
L470.638 215.629
L471.874 233.41
L473.111 233.685
L474.347 226.682
L475.584 241.804
L476.821 296.849
L478.057 294.08
L479.294 241.608
L480.53 216.377
L481.767 266.726
L483.003 257.312
L484.24 230.336
L485.477 274.397
L486.713 243.766
L487.95 123.246
L489.186 181.626
L490.423 198.981
L491.659 154.491
L491.659 154.491" style="fill:none;opacity:0.4;stroke:#ff0000;stroke-linecap:square;"/>
   </g>
   <g id="patch_7">
    <path d="
M45.2594 12.0391
L491.659 12.0391" style="fill:none;stroke:#000000;stroke-linecap:square;stroke-linejoin:miter;"/>
   </g>
   <g id="patch_8">
    <path d="
M491.659 346.839
L491.659 12.0391" style="fill:none;stroke:#000000;stroke-linecap:square;stroke-linejoin:miter;"/>
   </g>
   <g id="patch_9">
    <path d="
M45.2594 346.839
L491.659 346.839" style="fill:none;stroke:#000000;stroke-linecap:square;stroke-linejoin:miter;"/>
   </g>
   <g id="patch_10">
    <path d="
M45.2594 346.839
L45.2594 12.0391" style="fill:none;stroke:#000000;stroke-linecap:square;stroke-linejoin:miter;"/>
   </g>
   <g id="matplotlib.axis_3">
    <g id="ytick_11">
     <g id="line2d_164">
      <defs>
       <path d="
M0 0
L-4 0" id="mcb0005524f" style="stroke:#000000;stroke-width:0.5;"/>
      </defs>
      <g>
       <use style="stroke:#000000;stroke-width:0.5;" x="491.659375" xlink:href="#mcb0005524f" y="346.8390625"/>
      </g>
     </g>
     <g id="text_25">
      <!-- 500 -->
      <defs>
       <path d="
M10.7969 72.9062
L49.5156 72.9062
L49.5156 64.5938
L19.8281 64.5938
L19.8281 46.7344
Q21.9688 47.4688 24.1094 47.8281
Q26.2656 48.1875 28.4219 48.1875
Q40.625 48.1875 47.75 41.5
Q54.8906 34.8125 54.8906 23.3906
Q54.8906 11.625 47.5625 5.09375
Q40.2344 -1.42188 26.9062 -1.42188
Q22.3125 -1.42188 17.5469 -0.640625
Q12.7969 0.140625 7.71875 1.70312
L7.71875 11.625
Q12.1094 9.23438 16.7969 8.0625
Q21.4844 6.89062 26.7031 6.89062
Q35.1562 6.89062 40.0781 11.3281
Q45.0156 15.7656 45.0156 23.3906
Q45.0156 31 40.0781 35.4375
Q35.1562 39.8906 26.7031 39.8906
Q22.75 39.8906 18.8125 39.0156
Q14.8906 38.1406 10.7969 36.2812
z
" id="BitstreamVeraSans-Roman-35"/>
      </defs>
      <g transform="translate(495.659375 349.5984375)scale(0.1 -0.1)">
       <use xlink:href="#BitstreamVeraSans-Roman-35"/>
       <use x="63.623046875" xlink:href="#BitstreamVeraSans-Roman-30"/>
       <use x="127.24609375" xlink:href="#BitstreamVeraSans-Roman-30"/>
      </g>
     </g>
    </g>
    <g id="ytick_12">
     <g id="line2d_165">
      <g>
       <use style="stroke:#000000;stroke-width:0.5;" x="491.659375" xlink:href="#mcb0005524f" y="299.010491071"/>
      </g>
     </g>
     <g id="text_26">
      <!-- 1000 -->
      <g transform="translate(495.659375 301.769866071)scale(0.1 -0.1)">
       <use xlink:href="#BitstreamVeraSans-Roman-31"/>
       <use x="63.623046875" xlink:href="#BitstreamVeraSans-Roman-30"/>
       <use x="127.24609375" xlink:href="#BitstreamVeraSans-Roman-30"/>
       <use x="190.869140625" xlink:href="#BitstreamVeraSans-Roman-30"/>
      </g>
     </g>
    </g>
    <g id="ytick_13">
     <g id="line2d_166">
      <g>
       <use style="stroke:#000000;stroke-width:0.5;" x="491.659375" xlink:href="#mcb0005524f" y="251.181919643"/>
      </g>
     </g>
     <g id="text_27">
      <!-- 1500 -->
      <g transform="translate(495.659375 253.941294643)scale(0.1 -0.1)">
       <use xlink:href="#BitstreamVeraSans-Roman-31"/>
       <use x="63.623046875" xlink:href="#BitstreamVeraSans-Roman-35"/>
       <use x="127.24609375" xlink:href="#BitstreamVeraSans-Roman-30"/>
       <use x="190.869140625" xlink:href="#BitstreamVeraSans-Roman-30"/>
      </g>
     </g>
    </g>
    <g id="ytick_14">
     <g id="line2d_167">
      <g>
       <use style="stroke:#000000;stroke-width:0.5;" x="491.659375" xlink:href="#mcb0005524f" y="203.353348214"/>
      </g>
     </g>
     <g id="text_28">
      <!-- 2000 -->
      <g transform="translate(495.659375 206.112723214)scale(0.1 -0.1)">
       <use xlink:href="#BitstreamVeraSans-Roman-32"/>
       <use x="63.623046875" xlink:href="#BitstreamVeraSans-Roman-30"/>
       <use x="127.24609375" xlink:href="#BitstreamVeraSans-Roman-30"/>
       <use x="190.869140625" xlink:href="#BitstreamVeraSans-Roman-30"/>
      </g>
     </g>
    </g>
    <g id="ytick_15">
     <g id="line2d_168">
      <g>
       <use style="stroke:#000000;stroke-width:0.5;" x="491.659375" xlink:href="#mcb0005524f" y="155.524776786"/>
      </g>
     </g>
     <g id="text_29">
      <!-- 2500 -->
      <g transform="translate(495.659375 158.284151786)scale(0.1 -0.1)">
       <use xlink:href="#BitstreamVeraSans-Roman-32"/>
       <use x="63.623046875" xlink:href="#BitstreamVeraSans-Roman-35"/>
       <use x="127.24609375" xlink:href="#BitstreamVeraSans-Roman-30"/>
       <use x="190.869140625" xlink:href="#BitstreamVeraSans-Roman-30"/>
      </g>
     </g>
    </g>
    <g id="ytick_16">
     <g id="line2d_169">
      <g>
       <use style="stroke:#000000;stroke-width:0.5;" x="491.659375" xlink:href="#mcb0005524f" y="107.696205357"/>
      </g>
     </g>
     <g id="text_30">
      <!-- 3000 -->
      <defs>
       <path d="
M40.5781 39.3125
Q47.6562 37.7969 51.625 33
Q55.6094 28.2188 55.6094 21.1875
Q55.6094 10.4062 48.1875 4.48438
Q40.7656 -1.42188 27.0938 -1.42188
Q22.5156 -1.42188 17.6562 -0.515625
Q12.7969 0.390625 7.625 2.20312
L7.625 11.7188
Q11.7188 9.32812 16.5938 8.10938
Q21.4844 6.89062 26.8125 6.89062
Q36.0781 6.89062 40.9375 10.5469
Q45.7969 14.2031 45.7969 21.1875
Q45.7969 27.6406 41.2812 31.2656
Q36.7656 34.9062 28.7188 34.9062
L20.2188 34.9062
L20.2188 43.0156
L29.1094 43.0156
Q36.375 43.0156 40.2344 45.9219
Q44.0938 48.8281 44.0938 54.2969
Q44.0938 59.9062 40.1094 62.9062
Q36.1406 65.9219 28.7188 65.9219
Q24.6562 65.9219 20.0156 65.0312
Q15.375 64.1562 9.8125 62.3125
L9.8125 71.0938
Q15.4375 72.6562 20.3438 73.4375
Q25.25 74.2188 29.5938 74.2188
Q40.8281 74.2188 47.3594 69.1094
Q53.9062 64.0156 53.9062 55.3281
Q53.9062 49.2656 50.4375 45.0938
Q46.9688 40.9219 40.5781 39.3125" id="BitstreamVeraSans-Roman-33"/>
      </defs>
      <g transform="translate(495.659375 110.455580357)scale(0.1 -0.1)">
       <use xlink:href="#BitstreamVeraSans-Roman-33"/>
       <use x="63.623046875" xlink:href="#BitstreamVeraSans-Roman-30"/>
       <use x="127.24609375" xlink:href="#BitstreamVeraSans-Roman-30"/>
       <use x="190.869140625" xlink:href="#BitstreamVeraSans-Roman-30"/>
      </g>
     </g>
    </g>
    <g id="ytick_17">
     <g id="line2d_170">
      <g>
       <use style="stroke:#000000;stroke-width:0.5;" x="491.659375" xlink:href="#mcb0005524f" y="59.8676339286"/>
      </g>
     </g>
     <g id="text_31">
      <!-- 3500 -->
      <g transform="translate(495.659375 62.6270089286)scale(0.1 -0.1)">
       <use xlink:href="#BitstreamVeraSans-Roman-33"/>
       <use x="63.623046875" xlink:href="#BitstreamVeraSans-Roman-35"/>
       <use x="127.24609375" xlink:href="#BitstreamVeraSans-Roman-30"/>
       <use x="190.869140625" xlink:href="#BitstreamVeraSans-Roman-30"/>
      </g>
     </g>
    </g>
    <g id="ytick_18">
     <g id="line2d_171">
      <g>
       <use style="stroke:#000000;stroke-width:0.5;" x="491.659375" xlink:href="#mcb0005524f" y="12.0390625"/>
      </g>
     </g>
     <g id="text_32">
      <!-- 4000 -->
      <g transform="translate(495.659375 14.7984375)scale(0.1 -0.1)">
       <use xlink:href="#BitstreamVeraSans-Roman-34"/>
       <use x="63.623046875" xlink:href="#BitstreamVeraSans-Roman-30"/>
       <use x="127.24609375" xlink:href="#BitstreamVeraSans-Roman-30"/>
       <use x="190.869140625" xlink:href="#BitstreamVeraSans-Roman-30"/>
      </g>
     </g>
    </g>
    <g id="text_33">
     <!-- Volume (MW) -->
     <defs>
      <path d="
M28.6094 0
L0.78125 72.9062
L11.0781 72.9062
L34.1875 11.5312
L57.3281 72.9062
L67.5781 72.9062
L39.7969 0
z
" id="BitstreamVeraSans-Roman-56"/>
      <path d="
M3.32812 72.9062
L13.2812 72.9062
L28.6094 11.2812
L43.8906 72.9062
L54.9844 72.9062
L70.3125 11.2812
L85.5938 72.9062
L95.6094 72.9062
L77.2969 0
L64.8906 0
L49.5156 63.2812
L33.9844 0
L21.5781 0
z
" id="BitstreamVeraSans-Roman-57"/>
     </defs>
     <g transform="translate(532.5546875 212.3546875)rotate(-90.0)scale(0.1 -0.1)">
      <use xlink:href="#BitstreamVeraSans-Roman-56"/>
      <use x="60.658203125" xlink:href="#BitstreamVeraSans-Roman-6f"/>
      <use x="121.83984375" xlink:href="#BitstreamVeraSans-Roman-6c"/>
      <use x="149.623046875" xlink:href="#BitstreamVeraSans-Roman-75"/>
      <use x="213.001953125" xlink:href="#BitstreamVeraSans-Roman-6d"/>
      <use x="310.4140625" xlink:href="#BitstreamVeraSans-Roman-65"/>
      <use x="371.9375" xlink:href="#BitstreamVeraSans-Roman-20"/>
      <use x="403.724609375" xlink:href="#BitstreamVeraSans-Roman-28"/>
      <use x="442.73828125" xlink:href="#BitstreamVeraSans-Roman-4d"/>
      <use x="529.017578125" xlink:href="#BitstreamVeraSans-Roman-57"/>
      <use x="627.89453125" xlink:href="#BitstreamVeraSans-Roman-29"/>
     </g>
    </g>
   </g>
  </g>
 </g>
 <defs>
  <clipPath id="pf3f07b7d2a">
   <rect height="334.8" width="446.4" x="45.259375" y="12.0390625"/>
  </clipPath>
 </defs>
</svg>
