<?xml version="1.0" encoding="utf-8" standalone="no"?>
<!DOCTYPE svg PUBLIC "-//W3C//DTD SVG 1.1//EN"
  "http://www.w3.org/Graphics/SVG/1.1/DTD/svg11.dtd">
<!-- Created with matplotlib (http://matplotlib.org/) -->
<svg height="427pt" version="1.1" viewBox="0 0 489 427" width="489pt" xmlns="http://www.w3.org/2000/svg" xmlns:xlink="http://www.w3.org/1999/xlink">
 <defs>
  <style type="text/css">
*{stroke-linecap:butt;stroke-linejoin:round;}
  </style>
 </defs>
 <g id="figure_1">
  <g id="patch_1">
   <path d="
M0 427.743
L489.097 427.743
L489.097 0
L0 0
z
" style="fill:#ffffff;"/>
  </g>
  <g id="axes_1">
   <g id="patch_2">
    <path d="
M35.4969 346.839
L481.897 346.839
L481.897 12.0391
L35.4969 12.0391
z
" style="fill:#ffffff;"/>
   </g>
   <g id="line2d_1">
    <path clip-path="url(#pa2788519f5)" d="
M35.4969 325.691
L36.0977 312.745
L36.6985 318.102
L37.9001 332.086
L38.5009 316.54
L39.7025 269.556
L40.3033 278.596
L40.9041 309.23
L41.505 297.121
L42.1058 271.565
L42.7066 232.505
L43.3074 232.616
L43.9082 240.652
L44.509 255.718
L45.1098 280.995
L45.7106 286.798
L47.513 264.534
L48.1138 295.949
L48.7146 307.221
L49.3154 299.911
L49.9163 313.08
L50.5171 317.209
L51.1179 326.249
L51.7187 313.638
L52.3195 311.294
L52.9203 313.805
L53.5211 287.245
L54.1219 251.142
L54.7227 297.735
L55.3235 289.253
L55.9243 268.596
L56.5251 225.418
L57.1259 205.274
L57.7268 211.468
L58.3276 215.932
L59.5292 289.856
L60.7308 310.402
L61.3316 278.093
L61.9324 309.844
L62.5332 327.7
L63.134 297.735
L63.7348 300.581
L64.3356 323.626
L64.9364 323.459
L65.5373 317.6
L66.1381 309.062
L66.7389 304.208
L67.3397 304.543
L68.5413 331.327
L69.1421 294.275
L69.7429 272.848
L70.3437 285.403
L70.9445 293.996
L71.5453 287.691
L72.1461 287.468
L72.7469 301.697
L73.3477 289.477
L73.9486 289.421
L74.5494 297.4
L75.1502 279.868
L75.751 287.97
L76.3518 248.408
L76.9526 146.684
L77.5534 106.732
L78.1542 89.2105
L78.755 312.243
L79.3558 316.819
L79.9566 312.857
L80.5574 314.977
L81.1582 300.19
L81.7591 314.196
L82.9607 247.348
L83.5615 271.732
L84.1623 234.793
L84.7631 239.48
L85.3639 240.038
L85.9647 221.512
L86.5655 247.18
L87.1663 204.27
L87.7671 179.774
L88.3679 142.723
L88.9687 115.66
L89.5696 117.501
L90.1704 150.194
L91.372 277.647
L91.9728 275.415
L93.1744 314.587
L93.7752 322.12
L94.376 318.883
L94.9768 326.918
L95.5776 314.754
L96.1784 315.145
L96.7792 297.623
L97.3801 263.92
L97.9809 292.657
L98.5817 282.725
L99.1825 268.161
L99.7833 256.387
L100.985 217.662
L101.586 229.771
L102.787 145.289
L103.388 163.592
L103.989 194.271
L104.59 152.097
L105.191 205.609
L105.791 244
L106.392 249.914
L106.993 220.117
L107.594 290.202
L108.195 275.582
L109.396 315.033
L110.598 263.976
L111.199 316.707
L111.799 311.183
L112.4 295.168
L113.001 271.23
L113.602 232.282
L114.203 182.954
L114.803 159.686
L115.404 160.913
L116.005 181.057
L116.606 164.429
L117.207 190.934
L117.808 236.076
L118.408 269.947
L119.009 286.463
L119.61 286.966
L120.211 267.715
L120.812 270.672
L122.013 299.576
L122.614 266.096
L123.215 283.952
L123.816 289.421
L124.416 281.944
L125.017 288.249
L125.618 288.863
L126.219 303.594
L126.82 285.124
L127.42 299.967
L128.021 275.527
L128.622 272.737
L129.824 245.283
L130.424 224.302
L131.025 230.161
L131.626 234.235
L132.227 289.421
L132.828 284.789
L133.429 232.282
L134.029 207.339
L134.63 227.092
L135.231 233.119
L135.832 278.763
L136.433 278.093
L137.033 318.493
L137.634 331.55
L138.235 322.064
L139.437 310.178
L140.638 251.867
L141.239 263.083
L141.84 259.177
L142.441 271.007
L143.041 256.889
L143.642 260.237
L144.243 240.373
L144.844 250.026
L145.445 249.747
L146.045 259.233
L146.646 237.471
L147.247 219.782
L147.848 254.49
L148.449 263.362
L149.049 291.206
L149.65 287.803
L150.852 335.623
L151.453 330.769
L152.054 322.287
L152.654 329.932
L153.255 331.271
L153.856 316.316
L154.457 291.485
L155.058 260.516
L156.259 283.785
L156.86 268.161
L157.461 239.089
L158.062 226.925
L158.662 196.514
L159.263 192.887
L159.864 187.028
L160.465 201.815
L161.066 251.923
L161.666 280.772
L162.267 279.879
L162.868 282.223
L163.469 270.505
L164.07 275.527
L165.872 307.612
L166.473 302.869
L167.074 334.172
L167.675 319.553
L168.275 277.759
L168.876 276.196
L169.477 297.902
L170.078 300.413
L171.279 251.533
L171.88 242.437
L172.481 187.709
L173.082 199.321
L173.683 222.684
L174.283 252.537
L174.884 222.126
L175.485 209.459
L176.086 242.772
L176.687 213.589
L177.287 204.995
L177.888 175.477
L178.489 247.571
L179.09 256.22
L179.691 281.72
L180.291 285.18
L180.892 273.908
L181.493 285.068
L182.094 265.036
L182.695 280.716
L183.296 292.657
L183.896 280.214
L184.497 288.807
L185.098 222.907
L185.699 238.364
L186.3 259.735
L186.9 264.383
L187.501 299.911
L188.102 301.306
L188.703 271.9
L189.304 308.449
L189.904 276.029
L190.505 270.505
L191.106 240.077
L191.707 281.497
L192.308 289.644
L192.908 305.714
L194.11 310.625
L194.711 323.682
L195.312 322.733
L195.912 316.205
L196.513 325.077
L197.114 311.964
L197.715 289.309
L198.316 295.615
L198.917 273.964
L199.517 238.922
L200.118 247.85
L200.719 216.211
L201.32 211.608
L201.921 217.271
L202.521 275.638
L203.122 254.657
L204.925 279.656
L205.525 265.427
L206.126 292.769
L206.727 281.888
L207.328 301.641
L207.929 291.988
L208.529 302.757
L209.13 303.594
L209.731 306.775
L210.332 312.187
L210.933 293.383
L211.533 292.49
L212.134 274.187
L212.735 271.844
L213.336 324.296
L213.937 276.029
L214.538 298.46
L215.138 304.431
L215.739 272.234
L216.34 276.475
L216.941 271.453
L217.542 263.251
L218.142 290.983
L218.743 303.427
L219.344 302.255
L219.945 314.977
L220.546 315.982
L221.747 289.253
L222.348 257.838
L222.949 318.158
L223.55 320.836
L224.15 327.197
L224.751 319.106
L225.352 327.532
L225.953 325.077
L226.554 310.625
L227.154 329.485
L227.755 309.62
L228.356 285.013
L228.957 294.443
L229.558 262.748
L230.159 214.816
L230.759 207.004
L231.36 237.694
L231.961 186.47
L232.562 167.107
L233.763 274.69
L234.364 285.068
L234.965 270.114
L235.566 282.669
L236.167 313.024
L236.767 314.531
L237.368 323.738
L237.969 318.604
L238.57 294.443
L239.171 289.058
L239.771 264.98
L240.372 274.734
L240.973 291.932
L241.574 289.309
L242.175 280.381
L242.775 246.901
L243.376 238.085
L243.977 232.282
L244.578 220.061
L245.179 218.22
L245.78 249.412
L246.38 274.355
L246.981 250.193
L247.582 276.029
L248.183 289.532
L248.784 281.888
L249.384 271.732
L250.586 243.107
L251.187 236.69
L251.788 313.136
L252.388 309.732
L252.989 319.441
L253.59 326.081
L254.191 309.453
L254.792 308.002
L255.392 323.347
L255.993 313.303
L257.195 265.817
L257.796 269.612
L258.396 284.51
L258.997 275.024
L259.598 285.738
L260.199 280.772
L260.8 271.509
L261.401 255.662
L262.001 212.863
L262.602 247.738
L263.203 207.73
L263.804 206.725
L264.405 215.542
L265.005 243.609
L265.606 237.304
L266.207 328.146
L266.808 329.708
L268.009 319.888
L268.61 297.623
L269.211 304.319
L269.812 281.051
L270.413 297.735
L271.013 281.999
L271.614 254.49
L272.215 261.298
L272.816 216.881
L273.417 213.644
L274.017 231.947
L274.618 253.876
L275.219 254.992
L275.82 267.715
L276.421 233.007
L277.022 282.725
L277.622 243.313
L278.223 291.151
L278.824 287.97
L279.425 306.272
L280.026 307.835
L280.626 328.481
L281.227 334.228
L281.828 330.211
L283.03 302.534
L283.63 296.284
L284.231 305.547
L284.832 293.996
L286.034 256.778
L286.634 257.559
L287.235 225.418
L287.836 177.095
L288.437 160.3
L289.638 243.944
L290.239 185.577
L290.84 176.035
L291.441 226.478
L292.042 157.063
L293.243 244.781
L293.844 250.417
L294.445 245.897
L295.046 335.288
L295.647 324.017
L296.848 328.258
L297.449 326.918
L298.05 321.506
L298.651 300.748
L299.251 247.961
L299.852 244.781
L300.453 254.044
L301.054 224.414
L301.655 257.615
L302.255 258.508
L302.856 268.384
L303.457 284.287
L304.058 289.644
L304.659 268.719
L305.259 274.969
L305.86 289.979
L306.461 252.37
L307.062 276.698
L307.663 284.231
L308.263 281.72
L309.465 332.381
L310.066 311.908
L310.667 302.59
L311.268 296.898
L312.469 287.579
L313.07 302.422
L313.671 298.628
L314.272 298.349
L314.872 289.198
L315.473 262.804
L316.074 223.8
L316.675 258.842
L317.276 230.965
L317.876 238.699
L318.477 202.54
L319.078 224.972
L320.28 293.885
L320.88 300.023
L321.481 297.177
L322.082 321.227
L322.683 311.462
L323.284 310.011
L323.884 338.357
L324.485 320.39
L325.086 311.015
L325.687 293.55
L326.288 302.701
L326.889 285.013
L327.489 300.246
L328.09 298.46
L328.691 275.582
L329.292 271.397
L329.893 271.063
L331.094 192.608
L331.695 186.023
L332.296 207.674
L332.897 241.042
L333.497 247.124
L334.699 285.068
L335.3 257.615
L335.901 266.822
L336.501 265.929
L337.102 250.138
L337.703 255.16
L338.304 314.475
L338.905 297.456
L339.505 296.228
L340.106 317.377
L340.707 311.127
L341.308 311.406
L341.909 312.466
L343.11 275.861
L343.711 175.924
L344.312 145.234
L344.913 101.542
L345.514 43.9567
L346.114 34.4707
L347.316 81.7333
L347.917 112.981
L348.518 151.427
L349.118 215.542
L349.719 243.776
L350.32 243.553
L351.522 252.035
L352.122 257.615
L352.723 315.926
L353.324 319.888
L353.925 322.957
L354.526 330.657
L355.126 332.052
L355.727 322.733
L356.328 332.275
L357.53 276.587
L358.131 226.757
L358.731 229.547
L359.332 180.722
L359.933 78.8317
L360.534 56.1211
L361.135 54.6145
L361.735 94.0651
L362.937 228.431
L363.538 248.631
L364.139 248.017
L364.739 228.878
L365.34 299.8
L365.941 304.431
L366.542 289.142
L367.143 323.738
L367.743 337.744
L368.344 329.987
L368.945 318.493
L369.546 318.493
L370.147 321.171
L371.348 265.817
L371.949 277.312
L372.55 269.612
L373.151 216.881
L373.752 153.771
L374.352 109.689
L374.953 78.6085
L375.554 139.598
L376.155 172.185
L376.756 231.277
L377.356 269.612
L377.957 268.328
L378.558 232.895
L379.159 225.697
L379.76 276.252
L380.36 276.308
L380.961 291.206
L381.562 312.634
L382.163 319.888
L382.764 306.44
L383.364 316.428
L383.965 312.076
L384.566 302.645
L385.167 268.44
L385.768 263.362
L386.368 265.706
L386.969 219.392
L387.57 185.075
L388.171 193.947
L388.772 196.681
L389.373 209.069
L389.973 226.59
L390.574 271.063
L391.175 257.671
L391.776 263.92
L392.377 274.522
L392.977 269.891
L393.578 283.88
L394.179 281.72
L394.78 290.704
L395.381 295.168
L395.981 300.469
L396.582 312.913
L397.183 313.415
L397.784 286.91
L398.385 302.143
L398.985 300.469
L399.586 310.402
L400.187 303.427
L400.788 267.324
L403.191 187.753
L403.792 222.684
L404.393 174.194
L404.994 189.204
L405.594 192.664
L406.195 244.446
L406.796 245.171
L407.397 234.737
L407.998 242.716
L408.598 234.904
L409.8 283.729
L410.401 328.76
L411.002 312.076
L411.602 301.362
L412.203 312.578
L412.804 301.362
L413.405 296.675
L414.006 291.039
L415.207 252.983
L415.808 262.414
L416.409 297.902
L417.01 263.641
L417.61 270.226
L418.211 274.578
L418.812 264.757
L419.413 275.359
L420.014 258.787
L420.615 257.503
L421.215 277.089
L421.816 277.647
L422.417 270.895
L423.018 284.399
L423.619 259.345
L424.219 262.358
L424.82 297.177
L425.421 282.334
L426.022 308.319
L426.623 307.723
L427.223 306.886
L427.824 312.466
L428.425 307.277
L429.026 307.388
L430.227 280.27
L430.828 292.936
L431.429 298.46
L432.631 173.747
L433.231 180.053
L433.832 245.953
L434.433 255.718
L435.034 281.776
L435.635 268.976
L436.236 238.531
L436.836 283.171
L437.437 266.654
L438.038 275.527
L438.639 276.866
L439.24 311.239
L439.84 311.35
L441.042 294.387
L441.643 268.105
L442.244 266.487
L442.844 234.569
L443.445 217.16
L444.046 227.26
L445.248 154.385
L445.848 132.567
L446.449 148.805
L447.05 76.8787
L447.651 120.905
L448.252 136.082
L449.453 202.261
L450.054 196.458
L450.655 209.738
L451.256 248.352
L451.856 260.907
L452.457 227.929
L453.058 257.559
L453.659 308.56
L454.26 320.557
L454.861 319.218
L455.461 327.979
L456.062 303.985
L456.663 321.785
L457.264 297.623
L457.865 312.913
L459.066 230.942
L459.667 243.274
L460.268 243.888
L460.869 228.376
L461.469 261.019
L462.07 253.541
L462.671 293.606
L463.272 271.063
L463.873 282.836
L464.473 226.032
L465.074 269.277
L465.675 289.549
L466.276 323.738
L467.477 287.356
L468.078 326.36
L468.679 320.111
L469.28 316.428
L469.881 332.387
L470.482 314.419
L471.082 313.08
L471.683 305.324
L472.284 311.071
L473.486 221.568
L474.086 217.048
L474.687 179.941
L475.288 203.5
L475.889 222.461
L476.49 206.167
L477.09 177.598
L477.691 228.208
L478.893 266.71
L479.494 278.596
L480.094 270.56
L480.695 280.883
L481.296 286.24
L481.897 266.989
L481.897 266.989" style="fill:none;stroke:#0000ff;stroke-linecap:square;"/>
   </g>
   <g id="patch_3">
    <path d="
M35.4969 12.0391
L481.897 12.0391" style="fill:none;stroke:#000000;stroke-linecap:square;stroke-linejoin:miter;"/>
   </g>
   <g id="patch_4">
    <path d="
M481.897 346.839
L481.897 12.0391" style="fill:none;stroke:#000000;stroke-linecap:square;stroke-linejoin:miter;"/>
   </g>
   <g id="patch_5">
    <path d="
M35.4969 346.839
L481.897 346.839" style="fill:none;stroke:#000000;stroke-linecap:square;stroke-linejoin:miter;"/>
   </g>
   <g id="patch_6">
    <path d="
M35.4969 346.839
L35.4969 12.0391" style="fill:none;stroke:#000000;stroke-linecap:square;stroke-linejoin:miter;"/>
   </g>
   <g id="matplotlib.axis_1">
    <g id="xtick_1">
     <g id="line2d_2">
      <path clip-path="url(#pa2788519f5)" d="
M35.4969 346.839
L35.4969 12.0391" style="fill:none;stroke:#000000;stroke-dasharray:1.000000,3.000000;stroke-dashoffset:0.0;stroke-width:0.5;"/>
     </g>
     <g id="line2d_3">
      <defs>
       <path d="
M0 0
L0 -4" id="m93b0483c22" style="stroke:#000000;stroke-width:0.5;"/>
      </defs>
      <g>
       <use style="stroke:#000000;stroke-width:0.5;" x="35.496875" xlink:href="#m93b0483c22" y="346.8390625"/>
      </g>
     </g>
     <g id="line2d_4">
      <defs>
       <path d="
M0 0
L0 4" id="m741efc42ff" style="stroke:#000000;stroke-width:0.5;"/>
      </defs>
      <g>
       <use style="stroke:#000000;stroke-width:0.5;" x="35.496875" xlink:href="#m741efc42ff" y="12.0390625"/>
      </g>
     </g>
     <g id="text_1">
      <!--  -->
      <g transform="translate(35.496875 358.4375)scale(0.1 -0.1)"/>
      <!--  -->
      <g transform="translate(35.496875 369.6353125)scale(0.1 -0.1)"/>
      <!-- Oct -->
      <defs>
       <path d="
M39.4062 66.2188
Q28.6562 66.2188 22.3281 58.2031
Q16.0156 50.2031 16.0156 36.375
Q16.0156 22.6094 22.3281 14.5938
Q28.6562 6.59375 39.4062 6.59375
Q50.1406 6.59375 56.4219 14.5938
Q62.7031 22.6094 62.7031 36.375
Q62.7031 50.2031 56.4219 58.2031
Q50.1406 66.2188 39.4062 66.2188
M39.4062 74.2188
Q54.7344 74.2188 63.9062 63.9375
Q73.0938 53.6562 73.0938 36.375
Q73.0938 19.1406 63.9062 8.85938
Q54.7344 -1.42188 39.4062 -1.42188
Q24.0312 -1.42188 14.8125 8.82812
Q5.60938 19.0938 5.60938 36.375
Q5.60938 53.6562 14.8125 63.9375
Q24.0312 74.2188 39.4062 74.2188" id="BitstreamVeraSans-Roman-4f"/>
       <path d="
M18.3125 70.2188
L18.3125 54.6875
L36.8125 54.6875
L36.8125 47.7031
L18.3125 47.7031
L18.3125 18.0156
Q18.3125 11.3281 20.1406 9.42188
Q21.9688 7.51562 27.5938 7.51562
L36.8125 7.51562
L36.8125 0
L27.5938 0
Q17.1875 0 13.2344 3.875
Q9.28125 7.76562 9.28125 18.0156
L9.28125 47.7031
L2.6875 47.7031
L2.6875 54.6875
L9.28125 54.6875
L9.28125 70.2188
z
" id="BitstreamVeraSans-Roman-74"/>
       <path d="
M48.7812 52.5938
L48.7812 44.1875
Q44.9688 46.2969 41.1406 47.3438
Q37.3125 48.3906 33.4062 48.3906
Q24.6562 48.3906 19.8125 42.8438
Q14.9844 37.3125 14.9844 27.2969
Q14.9844 17.2812 19.8125 11.7344
Q24.6562 6.20312 33.4062 6.20312
Q37.3125 6.20312 41.1406 7.25
Q44.9688 8.29688 48.7812 10.4062
L48.7812 2.09375
Q45.0156 0.34375 40.9844 -0.53125
Q36.9688 -1.42188 32.4219 -1.42188
Q20.0625 -1.42188 12.7812 6.34375
Q5.51562 14.1094 5.51562 27.2969
Q5.51562 40.6719 12.8594 48.3281
Q20.2188 56 33.0156 56
Q37.1562 56 41.1094 55.1406
Q45.0625 54.2969 48.7812 52.5938" id="BitstreamVeraSans-Roman-63"/>
      </defs>
      <g transform="translate(27.2515625 380.833125)scale(0.1 -0.1)">
       <use xlink:href="#BitstreamVeraSans-Roman-4f"/>
       <use x="78.7109375" xlink:href="#BitstreamVeraSans-Roman-63"/>
       <use x="133.69140625" xlink:href="#BitstreamVeraSans-Roman-74"/>
      </g>
      <!-- 2012 -->
      <defs>
       <path d="
M19.1875 8.29688
L53.6094 8.29688
L53.6094 0
L7.32812 0
L7.32812 8.29688
Q12.9375 14.1094 22.625 23.8906
Q32.3281 33.6875 34.8125 36.5312
Q39.5469 41.8438 41.4219 45.5312
Q43.3125 49.2188 43.3125 52.7812
Q43.3125 58.5938 39.2344 62.25
Q35.1562 65.9219 28.6094 65.9219
Q23.9688 65.9219 18.8125 64.3125
Q13.6719 62.7031 7.8125 59.4219
L7.8125 69.3906
Q13.7656 71.7812 18.9375 73
Q24.125 74.2188 28.4219 74.2188
Q39.75 74.2188 46.4844 68.5469
Q53.2188 62.8906 53.2188 53.4219
Q53.2188 48.9219 51.5312 44.8906
Q49.8594 40.875 45.4062 35.4062
Q44.1875 33.9844 37.6406 27.2188
Q31.1094 20.4531 19.1875 8.29688" id="BitstreamVeraSans-Roman-32"/>
       <path d="
M31.7812 66.4062
Q24.1719 66.4062 20.3281 58.9062
Q16.5 51.4219 16.5 36.375
Q16.5 21.3906 20.3281 13.8906
Q24.1719 6.39062 31.7812 6.39062
Q39.4531 6.39062 43.2812 13.8906
Q47.125 21.3906 47.125 36.375
Q47.125 51.4219 43.2812 58.9062
Q39.4531 66.4062 31.7812 66.4062
M31.7812 74.2188
Q44.0469 74.2188 50.5156 64.5156
Q56.9844 54.8281 56.9844 36.375
Q56.9844 17.9688 50.5156 8.26562
Q44.0469 -1.42188 31.7812 -1.42188
Q19.5312 -1.42188 13.0625 8.26562
Q6.59375 17.9688 6.59375 36.375
Q6.59375 54.8281 13.0625 64.5156
Q19.5312 74.2188 31.7812 74.2188" id="BitstreamVeraSans-Roman-30"/>
       <path d="
M12.4062 8.29688
L28.5156 8.29688
L28.5156 63.9219
L10.9844 60.4062
L10.9844 69.3906
L28.4219 72.9062
L38.2812 72.9062
L38.2812 8.29688
L54.3906 8.29688
L54.3906 0
L12.4062 0
z
" id="BitstreamVeraSans-Roman-31"/>
      </defs>
      <g transform="translate(23.6390625 392.0309375)scale(0.1 -0.1)">
       <use xlink:href="#BitstreamVeraSans-Roman-32"/>
       <use x="63.623046875" xlink:href="#BitstreamVeraSans-Roman-30"/>
       <use x="127.24609375" xlink:href="#BitstreamVeraSans-Roman-31"/>
       <use x="190.869140625" xlink:href="#BitstreamVeraSans-Roman-32"/>
      </g>
     </g>
    </g>
    <g id="xtick_2">
     <g id="line2d_5">
      <path clip-path="url(#pa2788519f5)" d="
M481.897 346.839
L481.897 12.0391" style="fill:none;stroke:#000000;stroke-dasharray:1.000000,3.000000;stroke-dashoffset:0.0;stroke-width:0.5;"/>
     </g>
     <g id="line2d_6">
      <g>
       <use style="stroke:#000000;stroke-width:0.5;" x="481.896875" xlink:href="#m93b0483c22" y="346.8390625"/>
      </g>
     </g>
     <g id="line2d_7">
      <g>
       <use style="stroke:#000000;stroke-width:0.5;" x="481.896875" xlink:href="#m741efc42ff" y="12.0390625"/>
      </g>
     </g>
    </g>
    <g id="xtick_3">
     <g id="line2d_8">
      <defs>
       <path d="
M0 0
L0 -2" id="m177f7580d0" style="stroke:#000000;stroke-width:0.5;"/>
      </defs>
      <g>
       <use style="stroke:#000000;stroke-width:0.5;" x="35.496875" xlink:href="#m177f7580d0" y="346.8390625"/>
      </g>
     </g>
     <g id="line2d_9">
      <defs>
       <path d="
M0 0
L0 2" id="m5284c7e2a0" style="stroke:#000000;stroke-width:0.5;"/>
      </defs>
      <g>
       <use style="stroke:#000000;stroke-width:0.5;" x="35.496875" xlink:href="#m5284c7e2a0" y="12.0390625"/>
      </g>
     </g>
    </g>
    <g id="xtick_4">
     <g id="line2d_10">
      <g>
       <use style="stroke:#000000;stroke-width:0.5;" x="49.9162558883" xlink:href="#m177f7580d0" y="346.8390625"/>
      </g>
     </g>
     <g id="line2d_11">
      <g>
       <use style="stroke:#000000;stroke-width:0.5;" x="49.9162558883" xlink:href="#m5284c7e2a0" y="12.0390625"/>
      </g>
     </g>
    </g>
    <g id="xtick_5">
     <g id="line2d_12">
      <g>
       <use style="stroke:#000000;stroke-width:0.5;" x="64.3356367766" xlink:href="#m177f7580d0" y="346.8390625"/>
      </g>
     </g>
     <g id="line2d_13">
      <g>
       <use style="stroke:#000000;stroke-width:0.5;" x="64.3356367766" xlink:href="#m5284c7e2a0" y="12.0390625"/>
      </g>
     </g>
    </g>
    <g id="xtick_6">
     <g id="line2d_14">
      <g>
       <use style="stroke:#000000;stroke-width:0.5;" x="78.7550176649" xlink:href="#m177f7580d0" y="346.8390625"/>
      </g>
     </g>
     <g id="line2d_15">
      <g>
       <use style="stroke:#000000;stroke-width:0.5;" x="78.7550176649" xlink:href="#m5284c7e2a0" y="12.0390625"/>
      </g>
     </g>
    </g>
    <g id="xtick_7">
     <g id="line2d_16">
      <g>
       <use style="stroke:#000000;stroke-width:0.5;" x="93.1743985532" xlink:href="#m177f7580d0" y="346.8390625"/>
      </g>
     </g>
     <g id="line2d_17">
      <g>
       <use style="stroke:#000000;stroke-width:0.5;" x="93.1743985532" xlink:href="#m5284c7e2a0" y="12.0390625"/>
      </g>
     </g>
    </g>
    <g id="xtick_8">
     <g id="line2d_18">
      <g>
       <use style="stroke:#000000;stroke-width:0.5;" x="107.593779441" xlink:href="#m177f7580d0" y="346.8390625"/>
      </g>
     </g>
     <g id="line2d_19">
      <g>
       <use style="stroke:#000000;stroke-width:0.5;" x="107.593779441" xlink:href="#m5284c7e2a0" y="12.0390625"/>
      </g>
     </g>
    </g>
    <g id="xtick_9">
     <g id="line2d_20">
      <g>
       <use style="stroke:#000000;stroke-width:0.5;" x="122.01316033" xlink:href="#m177f7580d0" y="346.8390625"/>
      </g>
     </g>
     <g id="line2d_21">
      <g>
       <use style="stroke:#000000;stroke-width:0.5;" x="122.01316033" xlink:href="#m5284c7e2a0" y="12.0390625"/>
      </g>
     </g>
    </g>
    <g id="xtick_10">
     <g id="line2d_22">
      <g>
       <use style="stroke:#000000;stroke-width:0.5;" x="136.432541218" xlink:href="#m177f7580d0" y="346.8390625"/>
      </g>
     </g>
     <g id="line2d_23">
      <g>
       <use style="stroke:#000000;stroke-width:0.5;" x="136.432541218" xlink:href="#m5284c7e2a0" y="12.0390625"/>
      </g>
     </g>
     <g id="text_2">
      <!-- 08 -->
      <defs>
       <path d="
M31.7812 34.625
Q24.75 34.625 20.7188 30.8594
Q16.7031 27.0938 16.7031 20.5156
Q16.7031 13.9219 20.7188 10.1562
Q24.75 6.39062 31.7812 6.39062
Q38.8125 6.39062 42.8594 10.1719
Q46.9219 13.9688 46.9219 20.5156
Q46.9219 27.0938 42.8906 30.8594
Q38.875 34.625 31.7812 34.625
M21.9219 38.8125
Q15.5781 40.375 12.0312 44.7188
Q8.5 49.0781 8.5 55.3281
Q8.5 64.0625 14.7188 69.1406
Q20.9531 74.2188 31.7812 74.2188
Q42.6719 74.2188 48.875 69.1406
Q55.0781 64.0625 55.0781 55.3281
Q55.0781 49.0781 51.5312 44.7188
Q48 40.375 41.7031 38.8125
Q48.8281 37.1562 52.7969 32.3125
Q56.7812 27.4844 56.7812 20.5156
Q56.7812 9.90625 50.3125 4.23438
Q43.8438 -1.42188 31.7812 -1.42188
Q19.7344 -1.42188 13.25 4.23438
Q6.78125 9.90625 6.78125 20.5156
Q6.78125 27.4844 10.7812 32.3125
Q14.7969 37.1562 21.9219 38.8125
M18.3125 54.3906
Q18.3125 48.7344 21.8438 45.5625
Q25.3906 42.3906 31.7812 42.3906
Q38.1406 42.3906 41.7188 45.5625
Q45.3125 48.7344 45.3125 54.3906
Q45.3125 60.0625 41.7188 63.2344
Q38.1406 66.4062 31.7812 66.4062
Q25.3906 66.4062 21.8438 63.2344
Q18.3125 60.0625 18.3125 54.3906" id="BitstreamVeraSans-Roman-38"/>
      </defs>
      <g transform="translate(130.741916218 358.4375)scale(0.1 -0.1)">
       <use xlink:href="#BitstreamVeraSans-Roman-30"/>
       <use x="63.623046875" xlink:href="#BitstreamVeraSans-Roman-38"/>
      </g>
     </g>
    </g>
    <g id="xtick_11">
     <g id="line2d_24">
      <g>
       <use style="stroke:#000000;stroke-width:0.5;" x="150.851922106" xlink:href="#m177f7580d0" y="346.8390625"/>
      </g>
     </g>
     <g id="line2d_25">
      <g>
       <use style="stroke:#000000;stroke-width:0.5;" x="150.851922106" xlink:href="#m5284c7e2a0" y="12.0390625"/>
      </g>
     </g>
    </g>
    <g id="xtick_12">
     <g id="line2d_26">
      <g>
       <use style="stroke:#000000;stroke-width:0.5;" x="165.271302995" xlink:href="#m177f7580d0" y="346.8390625"/>
      </g>
     </g>
     <g id="line2d_27">
      <g>
       <use style="stroke:#000000;stroke-width:0.5;" x="165.271302995" xlink:href="#m5284c7e2a0" y="12.0390625"/>
      </g>
     </g>
    </g>
    <g id="xtick_13">
     <g id="line2d_28">
      <g>
       <use style="stroke:#000000;stroke-width:0.5;" x="179.690683883" xlink:href="#m177f7580d0" y="346.8390625"/>
      </g>
     </g>
     <g id="line2d_29">
      <g>
       <use style="stroke:#000000;stroke-width:0.5;" x="179.690683883" xlink:href="#m5284c7e2a0" y="12.0390625"/>
      </g>
     </g>
    </g>
    <g id="xtick_14">
     <g id="line2d_30">
      <g>
       <use style="stroke:#000000;stroke-width:0.5;" x="194.110064771" xlink:href="#m177f7580d0" y="346.8390625"/>
      </g>
     </g>
     <g id="line2d_31">
      <g>
       <use style="stroke:#000000;stroke-width:0.5;" x="194.110064771" xlink:href="#m5284c7e2a0" y="12.0390625"/>
      </g>
     </g>
    </g>
    <g id="xtick_15">
     <g id="line2d_32">
      <g>
       <use style="stroke:#000000;stroke-width:0.5;" x="208.529445659" xlink:href="#m177f7580d0" y="346.8390625"/>
      </g>
     </g>
     <g id="line2d_33">
      <g>
       <use style="stroke:#000000;stroke-width:0.5;" x="208.529445659" xlink:href="#m5284c7e2a0" y="12.0390625"/>
      </g>
     </g>
    </g>
    <g id="xtick_16">
     <g id="line2d_34">
      <g>
       <use style="stroke:#000000;stroke-width:0.5;" x="222.948826548" xlink:href="#m177f7580d0" y="346.8390625"/>
      </g>
     </g>
     <g id="line2d_35">
      <g>
       <use style="stroke:#000000;stroke-width:0.5;" x="222.948826548" xlink:href="#m5284c7e2a0" y="12.0390625"/>
      </g>
     </g>
    </g>
    <g id="xtick_17">
     <g id="line2d_36">
      <g>
       <use style="stroke:#000000;stroke-width:0.5;" x="237.368207436" xlink:href="#m177f7580d0" y="346.8390625"/>
      </g>
     </g>
     <g id="line2d_37">
      <g>
       <use style="stroke:#000000;stroke-width:0.5;" x="237.368207436" xlink:href="#m5284c7e2a0" y="12.0390625"/>
      </g>
     </g>
     <g id="text_3">
      <!-- 15 -->
      <defs>
       <path d="
M10.7969 72.9062
L49.5156 72.9062
L49.5156 64.5938
L19.8281 64.5938
L19.8281 46.7344
Q21.9688 47.4688 24.1094 47.8281
Q26.2656 48.1875 28.4219 48.1875
Q40.625 48.1875 47.75 41.5
Q54.8906 34.8125 54.8906 23.3906
Q54.8906 11.625 47.5625 5.09375
Q40.2344 -1.42188 26.9062 -1.42188
Q22.3125 -1.42188 17.5469 -0.640625
Q12.7969 0.140625 7.71875 1.70312
L7.71875 11.625
Q12.1094 9.23438 16.7969 8.0625
Q21.4844 6.89062 26.7031 6.89062
Q35.1562 6.89062 40.0781 11.3281
Q45.0156 15.7656 45.0156 23.3906
Q45.0156 31 40.0781 35.4375
Q35.1562 39.8906 26.7031 39.8906
Q22.75 39.8906 18.8125 39.0156
Q14.8906 38.1406 10.7969 36.2812
z
" id="BitstreamVeraSans-Roman-35"/>
      </defs>
      <g transform="translate(231.991644936 358.4375)scale(0.1 -0.1)">
       <use xlink:href="#BitstreamVeraSans-Roman-31"/>
       <use x="63.623046875" xlink:href="#BitstreamVeraSans-Roman-35"/>
      </g>
     </g>
    </g>
    <g id="xtick_18">
     <g id="line2d_38">
      <g>
       <use style="stroke:#000000;stroke-width:0.5;" x="251.787588324" xlink:href="#m177f7580d0" y="346.8390625"/>
      </g>
     </g>
     <g id="line2d_39">
      <g>
       <use style="stroke:#000000;stroke-width:0.5;" x="251.787588324" xlink:href="#m5284c7e2a0" y="12.0390625"/>
      </g>
     </g>
    </g>
    <g id="xtick_19">
     <g id="line2d_40">
      <g>
       <use style="stroke:#000000;stroke-width:0.5;" x="266.206969213" xlink:href="#m177f7580d0" y="346.8390625"/>
      </g>
     </g>
     <g id="line2d_41">
      <g>
       <use style="stroke:#000000;stroke-width:0.5;" x="266.206969213" xlink:href="#m5284c7e2a0" y="12.0390625"/>
      </g>
     </g>
    </g>
    <g id="xtick_20">
     <g id="line2d_42">
      <g>
       <use style="stroke:#000000;stroke-width:0.5;" x="280.626350101" xlink:href="#m177f7580d0" y="346.8390625"/>
      </g>
     </g>
     <g id="line2d_43">
      <g>
       <use style="stroke:#000000;stroke-width:0.5;" x="280.626350101" xlink:href="#m5284c7e2a0" y="12.0390625"/>
      </g>
     </g>
    </g>
    <g id="xtick_21">
     <g id="line2d_44">
      <g>
       <use style="stroke:#000000;stroke-width:0.5;" x="295.045730989" xlink:href="#m177f7580d0" y="346.8390625"/>
      </g>
     </g>
     <g id="line2d_45">
      <g>
       <use style="stroke:#000000;stroke-width:0.5;" x="295.045730989" xlink:href="#m5284c7e2a0" y="12.0390625"/>
      </g>
     </g>
    </g>
    <g id="xtick_22">
     <g id="line2d_46">
      <g>
       <use style="stroke:#000000;stroke-width:0.5;" x="309.465111878" xlink:href="#m177f7580d0" y="346.8390625"/>
      </g>
     </g>
     <g id="line2d_47">
      <g>
       <use style="stroke:#000000;stroke-width:0.5;" x="309.465111878" xlink:href="#m5284c7e2a0" y="12.0390625"/>
      </g>
     </g>
    </g>
    <g id="xtick_23">
     <g id="line2d_48">
      <g>
       <use style="stroke:#000000;stroke-width:0.5;" x="323.884492766" xlink:href="#m177f7580d0" y="346.8390625"/>
      </g>
     </g>
     <g id="line2d_49">
      <g>
       <use style="stroke:#000000;stroke-width:0.5;" x="323.884492766" xlink:href="#m5284c7e2a0" y="12.0390625"/>
      </g>
     </g>
    </g>
    <g id="xtick_24">
     <g id="line2d_50">
      <g>
       <use style="stroke:#000000;stroke-width:0.5;" x="338.303873654" xlink:href="#m177f7580d0" y="346.8390625"/>
      </g>
     </g>
     <g id="line2d_51">
      <g>
       <use style="stroke:#000000;stroke-width:0.5;" x="338.303873654" xlink:href="#m5284c7e2a0" y="12.0390625"/>
      </g>
     </g>
     <g id="text_4">
      <!-- 22 -->
      <g transform="translate(332.808561154 358.4375)scale(0.1 -0.1)">
       <use xlink:href="#BitstreamVeraSans-Roman-32"/>
       <use x="63.623046875" xlink:href="#BitstreamVeraSans-Roman-32"/>
      </g>
     </g>
    </g>
    <g id="xtick_25">
     <g id="line2d_52">
      <g>
       <use style="stroke:#000000;stroke-width:0.5;" x="352.723254542" xlink:href="#m177f7580d0" y="346.8390625"/>
      </g>
     </g>
     <g id="line2d_53">
      <g>
       <use style="stroke:#000000;stroke-width:0.5;" x="352.723254542" xlink:href="#m5284c7e2a0" y="12.0390625"/>
      </g>
     </g>
    </g>
    <g id="xtick_26">
     <g id="line2d_54">
      <g>
       <use style="stroke:#000000;stroke-width:0.5;" x="367.142635431" xlink:href="#m177f7580d0" y="346.8390625"/>
      </g>
     </g>
     <g id="line2d_55">
      <g>
       <use style="stroke:#000000;stroke-width:0.5;" x="367.142635431" xlink:href="#m5284c7e2a0" y="12.0390625"/>
      </g>
     </g>
    </g>
    <g id="xtick_27">
     <g id="line2d_56">
      <g>
       <use style="stroke:#000000;stroke-width:0.5;" x="381.562016319" xlink:href="#m177f7580d0" y="346.8390625"/>
      </g>
     </g>
     <g id="line2d_57">
      <g>
       <use style="stroke:#000000;stroke-width:0.5;" x="381.562016319" xlink:href="#m5284c7e2a0" y="12.0390625"/>
      </g>
     </g>
    </g>
    <g id="xtick_28">
     <g id="line2d_58">
      <g>
       <use style="stroke:#000000;stroke-width:0.5;" x="395.981397207" xlink:href="#m177f7580d0" y="346.8390625"/>
      </g>
     </g>
     <g id="line2d_59">
      <g>
       <use style="stroke:#000000;stroke-width:0.5;" x="395.981397207" xlink:href="#m5284c7e2a0" y="12.0390625"/>
      </g>
     </g>
    </g>
    <g id="xtick_29">
     <g id="line2d_60">
      <g>
       <use style="stroke:#000000;stroke-width:0.5;" x="410.400778096" xlink:href="#m177f7580d0" y="346.8390625"/>
      </g>
     </g>
     <g id="line2d_61">
      <g>
       <use style="stroke:#000000;stroke-width:0.5;" x="410.400778096" xlink:href="#m5284c7e2a0" y="12.0390625"/>
      </g>
     </g>
    </g>
    <g id="xtick_30">
     <g id="line2d_62">
      <g>
       <use style="stroke:#000000;stroke-width:0.5;" x="424.820158984" xlink:href="#m177f7580d0" y="346.8390625"/>
      </g>
     </g>
     <g id="line2d_63">
      <g>
       <use style="stroke:#000000;stroke-width:0.5;" x="424.820158984" xlink:href="#m5284c7e2a0" y="12.0390625"/>
      </g>
     </g>
    </g>
    <g id="xtick_31">
     <g id="line2d_64">
      <g>
       <use style="stroke:#000000;stroke-width:0.5;" x="439.239539872" xlink:href="#m177f7580d0" y="346.8390625"/>
      </g>
     </g>
     <g id="line2d_65">
      <g>
       <use style="stroke:#000000;stroke-width:0.5;" x="439.239539872" xlink:href="#m5284c7e2a0" y="12.0390625"/>
      </g>
     </g>
     <g id="text_5">
      <!-- 29 -->
      <defs>
       <path d="
M10.9844 1.51562
L10.9844 10.5
Q14.7031 8.73438 18.5 7.8125
Q22.3125 6.89062 25.9844 6.89062
Q35.75 6.89062 40.8906 13.4531
Q46.0469 20.0156 46.7812 33.4062
Q43.9531 29.2031 39.5938 26.9531
Q35.25 24.7031 29.9844 24.7031
Q19.0469 24.7031 12.6719 31.3125
Q6.29688 37.9375 6.29688 49.4219
Q6.29688 60.6406 12.9375 67.4219
Q19.5781 74.2188 30.6094 74.2188
Q43.2656 74.2188 49.9219 64.5156
Q56.5938 54.8281 56.5938 36.375
Q56.5938 19.1406 48.4062 8.85938
Q40.2344 -1.42188 26.4219 -1.42188
Q22.7031 -1.42188 18.8906 -0.6875
Q15.0938 0.046875 10.9844 1.51562
M30.6094 32.4219
Q37.25 32.4219 41.125 36.9531
Q45.0156 41.5 45.0156 49.4219
Q45.0156 57.2812 41.125 61.8438
Q37.25 66.4062 30.6094 66.4062
Q23.9688 66.4062 20.0938 61.8438
Q16.2188 57.2812 16.2188 49.4219
Q16.2188 41.5 20.0938 36.9531
Q23.9688 32.4219 30.6094 32.4219" id="BitstreamVeraSans-Roman-39"/>
      </defs>
      <g transform="translate(433.595008622 358.4375)scale(0.1 -0.1)">
       <use xlink:href="#BitstreamVeraSans-Roman-32"/>
       <use x="63.623046875" xlink:href="#BitstreamVeraSans-Roman-39"/>
      </g>
     </g>
    </g>
    <g id="xtick_32">
     <g id="line2d_66">
      <g>
       <use style="stroke:#000000;stroke-width:0.5;" x="453.65892076" xlink:href="#m177f7580d0" y="346.8390625"/>
      </g>
     </g>
     <g id="line2d_67">
      <g>
       <use style="stroke:#000000;stroke-width:0.5;" x="453.65892076" xlink:href="#m5284c7e2a0" y="12.0390625"/>
      </g>
     </g>
    </g>
    <g id="xtick_33">
     <g id="line2d_68">
      <g>
       <use style="stroke:#000000;stroke-width:0.5;" x="468.078301649" xlink:href="#m177f7580d0" y="346.8390625"/>
      </g>
     </g>
     <g id="line2d_69">
      <g>
       <use style="stroke:#000000;stroke-width:0.5;" x="468.078301649" xlink:href="#m5284c7e2a0" y="12.0390625"/>
      </g>
     </g>
    </g>
    <g id="text_6">
     <!-- Delivery Day_Hour -->
     <defs>
      <path id="BitstreamVeraSans-Roman-20"/>
      <path d="
M50.9844 -16.6094
L50.9844 -23.5781
L-0.984375 -23.5781
L-0.984375 -16.6094
z
" id="BitstreamVeraSans-Roman-5f"/>
      <path d="
M34.2812 27.4844
Q23.3906 27.4844 19.1875 25
Q14.9844 22.5156 14.9844 16.5
Q14.9844 11.7188 18.1406 8.90625
Q21.2969 6.10938 26.7031 6.10938
Q34.1875 6.10938 38.7031 11.4062
Q43.2188 16.7031 43.2188 25.4844
L43.2188 27.4844
z

M52.2031 31.2031
L52.2031 0
L43.2188 0
L43.2188 8.29688
Q40.1406 3.32812 35.5469 0.953125
Q30.9531 -1.42188 24.3125 -1.42188
Q15.9219 -1.42188 10.9531 3.29688
Q6 8.01562 6 15.9219
Q6 25.1406 12.1719 29.8281
Q18.3594 34.5156 30.6094 34.5156
L43.2188 34.5156
L43.2188 35.4062
Q43.2188 41.6094 39.1406 45
Q35.0625 48.3906 27.6875 48.3906
Q23 48.3906 18.5469 47.2656
Q14.1094 46.1406 10.0156 43.8906
L10.0156 52.2031
Q14.9375 54.1094 19.5781 55.0469
Q24.2188 56 28.6094 56
Q40.4844 56 46.3438 49.8438
Q52.2031 43.7031 52.2031 31.2031" id="BitstreamVeraSans-Roman-61"/>
      <path d="
M30.6094 48.3906
Q23.3906 48.3906 19.1875 42.75
Q14.9844 37.1094 14.9844 27.2969
Q14.9844 17.4844 19.1562 11.8438
Q23.3438 6.20312 30.6094 6.20312
Q37.7969 6.20312 41.9844 11.8594
Q46.1875 17.5312 46.1875 27.2969
Q46.1875 37.0156 41.9844 42.7031
Q37.7969 48.3906 30.6094 48.3906
M30.6094 56
Q42.3281 56 49.0156 48.375
Q55.7188 40.7656 55.7188 27.2969
Q55.7188 13.875 49.0156 6.21875
Q42.3281 -1.42188 30.6094 -1.42188
Q18.8438 -1.42188 12.1719 6.21875
Q5.51562 13.875 5.51562 27.2969
Q5.51562 40.7656 12.1719 48.375
Q18.8438 56 30.6094 56" id="BitstreamVeraSans-Roman-6f"/>
      <path d="
M9.42188 75.9844
L18.4062 75.9844
L18.4062 0
L9.42188 0
z
" id="BitstreamVeraSans-Roman-6c"/>
      <path d="
M2.98438 54.6875
L12.5 54.6875
L29.5938 8.79688
L46.6875 54.6875
L56.2031 54.6875
L35.6875 0
L23.4844 0
z
" id="BitstreamVeraSans-Roman-76"/>
      <path d="
M19.6719 64.7969
L19.6719 8.10938
L31.5938 8.10938
Q46.6875 8.10938 53.6875 14.9375
Q60.6875 21.7812 60.6875 36.5312
Q60.6875 51.1719 53.6875 57.9844
Q46.6875 64.7969 31.5938 64.7969
z

M9.8125 72.9062
L30.0781 72.9062
Q51.2656 72.9062 61.1719 64.0938
Q71.0938 55.2812 71.0938 36.5312
Q71.0938 17.6719 61.125 8.82812
Q51.1719 0 30.0781 0
L9.8125 0
z
" id="BitstreamVeraSans-Roman-44"/>
      <path d="
M9.42188 54.6875
L18.4062 54.6875
L18.4062 0
L9.42188 0
z

M9.42188 75.9844
L18.4062 75.9844
L18.4062 64.5938
L9.42188 64.5938
z
" id="BitstreamVeraSans-Roman-69"/>
      <path d="
M32.1719 -5.07812
Q28.375 -14.8438 24.75 -17.8125
Q21.1406 -20.7969 15.0938 -20.7969
L7.90625 -20.7969
L7.90625 -13.2812
L13.1875 -13.2812
Q16.8906 -13.2812 18.9375 -11.5156
Q21 -9.76562 23.4844 -3.21875
L25.0938 0.875
L2.98438 54.6875
L12.5 54.6875
L29.5938 11.9219
L46.6875 54.6875
L56.2031 54.6875
z
" id="BitstreamVeraSans-Roman-79"/>
      <path d="
M56.2031 29.5938
L56.2031 25.2031
L14.8906 25.2031
Q15.4844 15.9219 20.4844 11.0625
Q25.4844 6.20312 34.4219 6.20312
Q39.5938 6.20312 44.4531 7.46875
Q49.3125 8.73438 54.1094 11.2812
L54.1094 2.78125
Q49.2656 0.734375 44.1875 -0.34375
Q39.1094 -1.42188 33.8906 -1.42188
Q20.7969 -1.42188 13.1562 6.1875
Q5.51562 13.8125 5.51562 26.8125
Q5.51562 40.2344 12.7656 48.1094
Q20.0156 56 32.3281 56
Q43.3594 56 49.7812 48.8906
Q56.2031 41.7969 56.2031 29.5938
M47.2188 32.2344
Q47.125 39.5938 43.0938 43.9844
Q39.0625 48.3906 32.4219 48.3906
Q24.9062 48.3906 20.3906 44.1406
Q15.875 39.8906 15.1875 32.1719
z
" id="BitstreamVeraSans-Roman-65"/>
      <path d="
M8.5 21.5781
L8.5 54.6875
L17.4844 54.6875
L17.4844 21.9219
Q17.4844 14.1562 20.5 10.2656
Q23.5312 6.39062 29.5938 6.39062
Q36.8594 6.39062 41.0781 11.0312
Q45.3125 15.6719 45.3125 23.6875
L45.3125 54.6875
L54.2969 54.6875
L54.2969 0
L45.3125 0
L45.3125 8.40625
Q42.0469 3.42188 37.7188 1
Q33.4062 -1.42188 27.6875 -1.42188
Q18.2656 -1.42188 13.375 4.4375
Q8.5 10.2969 8.5 21.5781" id="BitstreamVeraSans-Roman-75"/>
      <path d="
M41.1094 46.2969
Q39.5938 47.1719 37.8125 47.5781
Q36.0312 48 33.8906 48
Q26.2656 48 22.1875 43.0469
Q18.1094 38.0938 18.1094 28.8125
L18.1094 0
L9.07812 0
L9.07812 54.6875
L18.1094 54.6875
L18.1094 46.1875
Q20.9531 51.1719 25.4844 53.5781
Q30.0312 56 36.5312 56
Q37.4531 56 38.5781 55.875
Q39.7031 55.7656 41.0625 55.5156
z
" id="BitstreamVeraSans-Roman-72"/>
      <path d="
M9.8125 72.9062
L19.6719 72.9062
L19.6719 43.0156
L55.5156 43.0156
L55.5156 72.9062
L65.375 72.9062
L65.375 0
L55.5156 0
L55.5156 34.7188
L19.6719 34.7188
L19.6719 0
L9.8125 0
z
" id="BitstreamVeraSans-Roman-48"/>
     </defs>
     <g transform="translate(211.93515625 406.9871875)scale(0.1 -0.1)">
      <use xlink:href="#BitstreamVeraSans-Roman-44"/>
      <use x="77.001953125" xlink:href="#BitstreamVeraSans-Roman-65"/>
      <use x="138.525390625" xlink:href="#BitstreamVeraSans-Roman-6c"/>
      <use x="166.30859375" xlink:href="#BitstreamVeraSans-Roman-69"/>
      <use x="194.091796875" xlink:href="#BitstreamVeraSans-Roman-76"/>
      <use x="253.271484375" xlink:href="#BitstreamVeraSans-Roman-65"/>
      <use x="314.794921875" xlink:href="#BitstreamVeraSans-Roman-72"/>
      <use x="355.908203125" xlink:href="#BitstreamVeraSans-Roman-79"/>
      <use x="415.087890625" xlink:href="#BitstreamVeraSans-Roman-20"/>
      <use x="446.875" xlink:href="#BitstreamVeraSans-Roman-44"/>
      <use x="523.876953125" xlink:href="#BitstreamVeraSans-Roman-61"/>
      <use x="585.15625" xlink:href="#BitstreamVeraSans-Roman-79"/>
      <use x="644.3359375" xlink:href="#BitstreamVeraSans-Roman-5f"/>
      <use x="694.3359375" xlink:href="#BitstreamVeraSans-Roman-48"/>
      <use x="769.53125" xlink:href="#BitstreamVeraSans-Roman-6f"/>
      <use x="830.712890625" xlink:href="#BitstreamVeraSans-Roman-75"/>
      <use x="894.091796875" xlink:href="#BitstreamVeraSans-Roman-72"/>
     </g>
     <!-- from -->
     <defs>
      <path d="
M52 44.1875
Q55.375 50.25 60.0625 53.125
Q64.75 56 71.0938 56
Q79.6406 56 84.2812 50.0156
Q88.9219 44.0469 88.9219 33.0156
L88.9219 0
L79.8906 0
L79.8906 32.7188
Q79.8906 40.5781 77.0938 44.375
Q74.3125 48.1875 68.6094 48.1875
Q61.625 48.1875 57.5625 43.5469
Q53.5156 38.9219 53.5156 30.9062
L53.5156 0
L44.4844 0
L44.4844 32.7188
Q44.4844 40.625 41.7031 44.4062
Q38.9219 48.1875 33.1094 48.1875
Q26.2188 48.1875 22.1562 43.5312
Q18.1094 38.875 18.1094 30.9062
L18.1094 0
L9.07812 0
L9.07812 54.6875
L18.1094 54.6875
L18.1094 46.1875
Q21.1875 51.2188 25.4844 53.6094
Q29.7812 56 35.6875 56
Q41.6562 56 45.8281 52.9688
Q50 49.9531 52 44.1875" id="BitstreamVeraSans-Roman-6d"/>
      <path d="
M37.1094 75.9844
L37.1094 68.5
L28.5156 68.5
Q23.6875 68.5 21.7969 66.5469
Q19.9219 64.5938 19.9219 59.5156
L19.9219 54.6875
L34.7188 54.6875
L34.7188 47.7031
L19.9219 47.7031
L19.9219 0
L10.8906 0
L10.8906 47.7031
L2.29688 47.7031
L2.29688 54.6875
L10.8906 54.6875
L10.8906 58.5
Q10.8906 67.625 15.1406 71.7969
Q19.3906 75.9844 28.6094 75.9844
z
" id="BitstreamVeraSans-Roman-66"/>
     </defs>
     <g transform="translate(247.603125 418.463125)scale(0.1 -0.1)">
      <use xlink:href="#BitstreamVeraSans-Roman-66"/>
      <use x="35.205078125" xlink:href="#BitstreamVeraSans-Roman-72"/>
      <use x="74.068359375" xlink:href="#BitstreamVeraSans-Roman-6f"/>
      <use x="135.25" xlink:href="#BitstreamVeraSans-Roman-6d"/>
     </g>
    </g>
   </g>
   <g id="matplotlib.axis_2">
    <g id="ytick_1">
     <g id="line2d_70">
      <path clip-path="url(#pa2788519f5)" d="
M35.4969 346.839
L481.897 346.839" style="fill:none;stroke:#000000;stroke-dasharray:1.000000,3.000000;stroke-dashoffset:0.0;stroke-width:0.5;"/>
     </g>
     <g id="line2d_71">
      <defs>
       <path d="
M0 0
L4 0" id="m728421d6d4" style="stroke:#000000;stroke-width:0.5;"/>
      </defs>
      <g>
       <use style="stroke:#000000;stroke-width:0.5;" x="35.496875" xlink:href="#m728421d6d4" y="346.8390625"/>
      </g>
     </g>
     <g id="line2d_72">
      <defs>
       <path d="
M0 0
L-4 0" id="mcb0005524f" style="stroke:#000000;stroke-width:0.5;"/>
      </defs>
      <g>
       <use style="stroke:#000000;stroke-width:0.5;" x="481.896875" xlink:href="#mcb0005524f" y="346.8390625"/>
      </g>
     </g>
     <g id="text_7">
      <!-- 0 -->
      <g transform="translate(26.4578125 349.5984375)scale(0.1 -0.1)">
       <use xlink:href="#BitstreamVeraSans-Roman-30"/>
      </g>
     </g>
    </g>
    <g id="ytick_2">
     <g id="line2d_73">
      <path clip-path="url(#pa2788519f5)" d="
M35.4969 291.039
L481.897 291.039" style="fill:none;stroke:#000000;stroke-dasharray:1.000000,3.000000;stroke-dashoffset:0.0;stroke-width:0.5;"/>
     </g>
     <g id="line2d_74">
      <g>
       <use style="stroke:#000000;stroke-width:0.5;" x="35.496875" xlink:href="#m728421d6d4" y="291.0390625"/>
      </g>
     </g>
     <g id="line2d_75">
      <g>
       <use style="stroke:#000000;stroke-width:0.5;" x="481.896875" xlink:href="#mcb0005524f" y="291.0390625"/>
      </g>
     </g>
     <g id="text_8">
      <!-- 1000 -->
      <g transform="translate(7.809375 293.7984375)scale(0.1 -0.1)">
       <use xlink:href="#BitstreamVeraSans-Roman-31"/>
       <use x="63.623046875" xlink:href="#BitstreamVeraSans-Roman-30"/>
       <use x="127.24609375" xlink:href="#BitstreamVeraSans-Roman-30"/>
       <use x="190.869140625" xlink:href="#BitstreamVeraSans-Roman-30"/>
      </g>
     </g>
    </g>
    <g id="ytick_3">
     <g id="line2d_76">
      <path clip-path="url(#pa2788519f5)" d="
M35.4969 235.239
L481.897 235.239" style="fill:none;stroke:#000000;stroke-dasharray:1.000000,3.000000;stroke-dashoffset:0.0;stroke-width:0.5;"/>
     </g>
     <g id="line2d_77">
      <g>
       <use style="stroke:#000000;stroke-width:0.5;" x="35.496875" xlink:href="#m728421d6d4" y="235.2390625"/>
      </g>
     </g>
     <g id="line2d_78">
      <g>
       <use style="stroke:#000000;stroke-width:0.5;" x="481.896875" xlink:href="#mcb0005524f" y="235.2390625"/>
      </g>
     </g>
     <g id="text_9">
      <!-- 2000 -->
      <g transform="translate(7.44375 237.9984375)scale(0.1 -0.1)">
       <use xlink:href="#BitstreamVeraSans-Roman-32"/>
       <use x="63.623046875" xlink:href="#BitstreamVeraSans-Roman-30"/>
       <use x="127.24609375" xlink:href="#BitstreamVeraSans-Roman-30"/>
       <use x="190.869140625" xlink:href="#BitstreamVeraSans-Roman-30"/>
      </g>
     </g>
    </g>
    <g id="ytick_4">
     <g id="line2d_79">
      <path clip-path="url(#pa2788519f5)" d="
M35.4969 179.439
L481.897 179.439" style="fill:none;stroke:#000000;stroke-dasharray:1.000000,3.000000;stroke-dashoffset:0.0;stroke-width:0.5;"/>
     </g>
     <g id="line2d_80">
      <g>
       <use style="stroke:#000000;stroke-width:0.5;" x="35.496875" xlink:href="#m728421d6d4" y="179.4390625"/>
      </g>
     </g>
     <g id="line2d_81">
      <g>
       <use style="stroke:#000000;stroke-width:0.5;" x="481.896875" xlink:href="#mcb0005524f" y="179.4390625"/>
      </g>
     </g>
     <g id="text_10">
      <!-- 3000 -->
      <defs>
       <path d="
M40.5781 39.3125
Q47.6562 37.7969 51.625 33
Q55.6094 28.2188 55.6094 21.1875
Q55.6094 10.4062 48.1875 4.48438
Q40.7656 -1.42188 27.0938 -1.42188
Q22.5156 -1.42188 17.6562 -0.515625
Q12.7969 0.390625 7.625 2.20312
L7.625 11.7188
Q11.7188 9.32812 16.5938 8.10938
Q21.4844 6.89062 26.8125 6.89062
Q36.0781 6.89062 40.9375 10.5469
Q45.7969 14.2031 45.7969 21.1875
Q45.7969 27.6406 41.2812 31.2656
Q36.7656 34.9062 28.7188 34.9062
L20.2188 34.9062
L20.2188 43.0156
L29.1094 43.0156
Q36.375 43.0156 40.2344 45.9219
Q44.0938 48.8281 44.0938 54.2969
Q44.0938 59.9062 40.1094 62.9062
Q36.1406 65.9219 28.7188 65.9219
Q24.6562 65.9219 20.0156 65.0312
Q15.375 64.1562 9.8125 62.3125
L9.8125 71.0938
Q15.4375 72.6562 20.3438 73.4375
Q25.25 74.2188 29.5938 74.2188
Q40.8281 74.2188 47.3594 69.1094
Q53.9062 64.0156 53.9062 55.3281
Q53.9062 49.2656 50.4375 45.0938
Q46.9688 40.9219 40.5781 39.3125" id="BitstreamVeraSans-Roman-33"/>
      </defs>
      <g transform="translate(7.4734375 182.1984375)scale(0.1 -0.1)">
       <use xlink:href="#BitstreamVeraSans-Roman-33"/>
       <use x="63.623046875" xlink:href="#BitstreamVeraSans-Roman-30"/>
       <use x="127.24609375" xlink:href="#BitstreamVeraSans-Roman-30"/>
       <use x="190.869140625" xlink:href="#BitstreamVeraSans-Roman-30"/>
      </g>
     </g>
    </g>
    <g id="ytick_5">
     <g id="line2d_82">
      <path clip-path="url(#pa2788519f5)" d="
M35.4969 123.639
L481.897 123.639" style="fill:none;stroke:#000000;stroke-dasharray:1.000000,3.000000;stroke-dashoffset:0.0;stroke-width:0.5;"/>
     </g>
     <g id="line2d_83">
      <g>
       <use style="stroke:#000000;stroke-width:0.5;" x="35.496875" xlink:href="#m728421d6d4" y="123.6390625"/>
      </g>
     </g>
     <g id="line2d_84">
      <g>
       <use style="stroke:#000000;stroke-width:0.5;" x="481.896875" xlink:href="#mcb0005524f" y="123.6390625"/>
      </g>
     </g>
     <g id="text_11">
      <!-- 4000 -->
      <defs>
       <path d="
M37.7969 64.3125
L12.8906 25.3906
L37.7969 25.3906
z

M35.2031 72.9062
L47.6094 72.9062
L47.6094 25.3906
L58.0156 25.3906
L58.0156 17.1875
L47.6094 17.1875
L47.6094 0
L37.7969 0
L37.7969 17.1875
L4.89062 17.1875
L4.89062 26.7031
z
" id="BitstreamVeraSans-Roman-34"/>
      </defs>
      <g transform="translate(7.2 126.3984375)scale(0.1 -0.1)">
       <use xlink:href="#BitstreamVeraSans-Roman-34"/>
       <use x="63.623046875" xlink:href="#BitstreamVeraSans-Roman-30"/>
       <use x="127.24609375" xlink:href="#BitstreamVeraSans-Roman-30"/>
       <use x="190.869140625" xlink:href="#BitstreamVeraSans-Roman-30"/>
      </g>
     </g>
    </g>
    <g id="ytick_6">
     <g id="line2d_85">
      <path clip-path="url(#pa2788519f5)" d="
M35.4969 67.8391
L481.897 67.8391" style="fill:none;stroke:#000000;stroke-dasharray:1.000000,3.000000;stroke-dashoffset:0.0;stroke-width:0.5;"/>
     </g>
     <g id="line2d_86">
      <g>
       <use style="stroke:#000000;stroke-width:0.5;" x="35.496875" xlink:href="#m728421d6d4" y="67.8390625"/>
      </g>
     </g>
     <g id="line2d_87">
      <g>
       <use style="stroke:#000000;stroke-width:0.5;" x="481.896875" xlink:href="#mcb0005524f" y="67.8390625"/>
      </g>
     </g>
     <g id="text_12">
      <!-- 5000 -->
      <g transform="translate(7.4828125 70.5984375)scale(0.1 -0.1)">
       <use xlink:href="#BitstreamVeraSans-Roman-35"/>
       <use x="63.623046875" xlink:href="#BitstreamVeraSans-Roman-30"/>
       <use x="127.24609375" xlink:href="#BitstreamVeraSans-Roman-30"/>
       <use x="190.869140625" xlink:href="#BitstreamVeraSans-Roman-30"/>
      </g>
     </g>
    </g>
    <g id="ytick_7">
     <g id="line2d_88">
      <path clip-path="url(#pa2788519f5)" d="
M35.4969 12.0391
L481.897 12.0391" style="fill:none;stroke:#000000;stroke-dasharray:1.000000,3.000000;stroke-dashoffset:0.0;stroke-width:0.5;"/>
     </g>
     <g id="line2d_89">
      <g>
       <use style="stroke:#000000;stroke-width:0.5;" x="35.496875" xlink:href="#m728421d6d4" y="12.0390625"/>
      </g>
     </g>
     <g id="line2d_90">
      <g>
       <use style="stroke:#000000;stroke-width:0.5;" x="481.896875" xlink:href="#mcb0005524f" y="12.0390625"/>
      </g>
     </g>
     <g id="text_13">
      <!-- 6000 -->
      <defs>
       <path d="
M33.0156 40.375
Q26.375 40.375 22.4844 35.8281
Q18.6094 31.2969 18.6094 23.3906
Q18.6094 15.5312 22.4844 10.9531
Q26.375 6.39062 33.0156 6.39062
Q39.6562 6.39062 43.5312 10.9531
Q47.4062 15.5312 47.4062 23.3906
Q47.4062 31.2969 43.5312 35.8281
Q39.6562 40.375 33.0156 40.375
M52.5938 71.2969
L52.5938 62.3125
Q48.875 64.0625 45.0938 64.9844
Q41.3125 65.9219 37.5938 65.9219
Q27.8281 65.9219 22.6719 59.3281
Q17.5312 52.7344 16.7969 39.4062
Q19.6719 43.6562 24.0156 45.9219
Q28.375 48.1875 33.5938 48.1875
Q44.5781 48.1875 50.9531 41.5156
Q57.3281 34.8594 57.3281 23.3906
Q57.3281 12.1562 50.6875 5.35938
Q44.0469 -1.42188 33.0156 -1.42188
Q20.3594 -1.42188 13.6719 8.26562
Q6.98438 17.9688 6.98438 36.375
Q6.98438 53.6562 15.1875 63.9375
Q23.3906 74.2188 37.2031 74.2188
Q40.9219 74.2188 44.7031 73.4844
Q48.4844 72.75 52.5938 71.2969" id="BitstreamVeraSans-Roman-36"/>
      </defs>
      <g transform="translate(7.409375 14.7984375)scale(0.1 -0.1)">
       <use xlink:href="#BitstreamVeraSans-Roman-36"/>
       <use x="63.623046875" xlink:href="#BitstreamVeraSans-Roman-30"/>
       <use x="127.24609375" xlink:href="#BitstreamVeraSans-Roman-30"/>
       <use x="190.869140625" xlink:href="#BitstreamVeraSans-Roman-30"/>
      </g>
     </g>
    </g>
   </g>
  </g>
 </g>
 <defs>
  <clipPath id="pa2788519f5">
   <rect height="334.8" width="446.4" x="35.496875" y="12.0390625"/>
  </clipPath>
 </defs>
</svg>
