<?xml version="1.0" encoding="utf-8" standalone="no"?>
<!DOCTYPE svg PUBLIC "-//W3C//DTD SVG 1.1//EN"
  "http://www.w3.org/Graphics/SVG/1.1/DTD/svg11.dtd">
<!-- Created with matplotlib (http://matplotlib.org/) -->
<svg height="384pt" version="1.1" viewBox="0 0 503 384" width="503pt" xmlns="http://www.w3.org/2000/svg" xmlns:xlink="http://www.w3.org/1999/xlink">
 <defs>
  <style type="text/css">
*{stroke-linecap:butt;stroke-linejoin:round;}
  </style>
 </defs>
 <g id="figure_1">
  <g id="patch_1">
   <path d="
M0 384.604
L503.363 384.604
L503.363 0
L0 0
z
" style="fill:#ffffff;"/>
  </g>
  <g id="axes_1">
   <g id="patch_2">
    <path d="
M49.7626 314.439
L496.163 314.439
L496.163 12.0391
L49.7626 12.0391
z
" style="fill:#ffffff;"/>
   </g>
   <g id="line2d_1">
    <path clip-path="url(#pd45558ca38)" d="
M55.8263 145.873
L55.929 146.211
L55.9804 145.968
L56.0832 143.003
L56.5457 112.283
L57.1623 75.6895
L57.3679 70.431
L57.5734 70.2125
L57.779 70.464
L57.8304 70.5598
L57.8818 70.4528
L57.9331 70.4343
L58.2929 64.2394
L58.3956 64.5866
L58.447 64.7338
L58.4984 64.611
L59.0637 59.1745
L59.1664 59.5256
L59.3206 59.8509
L59.4748 59.9079
L59.5775 60.0561
L59.7317 61.0076
L59.7831 60.9554
L59.8345 60.9188
L59.8859 61.0106
L59.9886 62.1612
L60.7594 82.6152
L61.5816 125.037
L61.89 142.807
L62.1983 157.225
L62.7121 162.475
L62.9691 165.571
L63.0205 165.64
L63.0719 165.5
L63.1746 166.629
L64.0996 184.041
L64.3051 184.732
L64.3565 184.687
L64.4593 185.099
L64.5621 186.785
L64.819 190.554
L65.076 192.622
L65.1273 192.483
L65.4357 190.016
L65.6926 186.958
L65.8468 188.052
L65.9495 185.684
L66.3092 175.325
L66.4634 173.468
L66.5148 173.477
L66.6176 173.8
L66.7203 174.616
L66.7717 174.572
L66.9259 170.555
L67.337 154.067
L67.3884 153.861
L67.4398 153.876
L67.5425 154.064
L67.6453 153.676
L67.7995 157.599
L68.1592 171.235
L68.6731 190.112
L68.7244 190.361
L68.93 189.086
L68.9814 189.065
L69.0328 189.181
L69.0841 189.15
L69.1869 189.136
L69.2897 190.024
L69.4952 195.322
L69.7522 200.428
L69.9577 202.218
L70.0091 202.208
L70.3174 200.108
L70.7285 195.042
L70.8827 192.632
L71.3966 178.982
L71.448 178.884
L72.0132 187.25
L72.6299 205.867
L72.9382 212.914
L73.1437 215.929
L73.2979 218.261
L73.3493 218.038
L73.7604 210.102
L73.8632 211.227
L74.1201 218.497
L74.5312 214.728
L75.0964 200.601
L75.1478 201.169
L75.6103 209.444
L75.8159 212.351
L76.0214 213.04
L76.4325 215.824
L76.4839 215.637
L76.5867 213.836
L77.0492 190.4
L77.3061 180.938
L77.4603 181.899
L77.5116 181.906
L77.6658 182.677
L77.82 183.374
L77.9741 180.764
L78.3338 170.323
L78.5908 162.862
L78.7449 161.883
L79.1046 158.47
L79.2588 156.537
L79.3616 157.335
L79.413 157.221
L79.7213 155.203
L79.7727 155.293
L79.8241 155.257
L79.9268 155.692
L80.081 158.247
L80.2352 160.66
L80.3893 159.657
L80.4407 159.712
L80.6463 160.939
L80.6976 160.595
L80.9546 156.28
L81.3143 159.343
L81.5198 161.519
L81.6226 161.766
L81.7254 162.5
L81.8795 166.664
L82.0851 171.543
L82.2906 171.89
L82.3934 170.449
L84.0378 121.989
L84.3975 113.091
L84.6544 109.808
L84.7058 109.806
L84.9114 111.315
L85.1683 113.591
L85.3225 111.144
L85.528 109.293
L85.5794 109.328
L85.6822 110.284
L86.0933 116.881
L86.1447 116.759
L86.5558 114.634
L86.6072 114.801
L86.8641 117.744
L86.9155 117.297
L87.121 112.044
L87.2238 112.829
L87.6349 117.223
L87.7377 116.724
L87.8405 116.218
L87.9432 117.296
L88.1488 119.322
L88.3543 118.6
L88.7654 124.164
L89.5876 146.76
L90.1529 165.288
L90.2556 165.022
L90.307 165.107
L90.4098 167.339
L90.7695 177.163
L91.0778 175.097
L91.1292 175.164
L91.6431 178.56
L91.7459 178.924
L91.8486 177.537
L92.1056 174.224
L92.2597 173.277
L92.5167 168.541
L92.6195 168.96
L92.7736 169.365
L93.1333 173.288
L93.1847 173.28
L93.3389 173.793
L93.6472 176.396
L93.9041 179.853
L93.9555 179.628
L94.2638 177.305
L94.4694 174.415
L94.5722 175.645
L94.6749 177.348
L94.7263 177.319
L95.0346 173.865
L95.2916 169.565
L95.4971 172.931
L95.5485 172.873
L95.8055 168.15
L95.9082 168.662
L95.9596 168.539
L96.1138 167.256
L96.1652 167.276
L96.3707 168.018
L96.5763 169.99
L96.7304 171.755
L96.7818 171.734
L96.8332 171.478
L96.9874 169.486
L97.0387 169.674
L97.2443 172.959
L97.6554 180.164
L97.7068 179.853
L97.8609 178.338
L98.1179 171.541
L98.4262 164.931
L98.6831 163.101
L99.4026 144.352
L99.4539 144.795
L99.5567 145.387
L99.7109 142.085
L99.9678 137.693
L100.122 136.251
L100.173 136.281
L100.43 139.785
L100.482 139.198
L101.15 126.907
L101.869 121.624
L101.921 121.633
L102.023 123.597
L102.332 130.518
L102.434 131.712
L102.486 131.65
L102.64 130.929
L102.897 132.086
L103 132.785
L103.154 136.962
L103.411 142.133
L103.462 142.191
L103.514 142.108
L103.822 140.945
L103.873 141.145
L104.233 143.693
L104.336 143.664
L104.49 143.88
L104.541 143.693
L104.798 138.222
L105.107 136.473
L105.723 144.749
L106.031 152.08
L106.134 152.135
L106.34 149.821
L106.494 148.358
L106.545 148.524
L106.597 148.624
L106.648 148.545
L106.7 148.407
L106.751 148.479
L106.854 149.969
L107.368 162.447
L107.83 167.584
L107.881 167.808
L107.933 167.628
L108.036 166.681
L108.293 162.298
L108.447 160.403
L108.549 160.992
L108.704 163.445
L108.961 172.87
L109.166 177.164
L109.372 178.098
L109.629 180.605
L110.502 206.386
L110.708 207.692
L110.759 207.599
L110.862 206.575
L111.17 199.917
L111.222 199.96
L111.427 201.472
L111.89 206.202
L111.992 203.977
L112.558 185.46
L113.123 175.413
L113.277 176.764
L113.431 180.567
L114.048 201.42
L114.099 201.335
L114.202 203.209
L114.562 217.242
L115.024 236.691
L115.178 239.273
L115.23 239.128
L115.435 233.364
L116.103 213.044
L116.155 212.903
L116.258 213.801
L117.234 235.67
L117.285 235.574
L117.439 234.919
L117.542 236.671
L117.696 239.148
L117.748 239.127
L118.107 235.81
L118.21 235.912
L118.313 236.395
L118.467 236.894
L118.519 236.463
L118.93 221.123
L119.803 184.242
L120.266 173.041
L120.317 172.848
L120.42 174.115
L120.625 177.178
L120.677 177.318
L120.831 179.538
L121.345 188.016
L121.396 187.789
L121.705 180.534
L122.27 163.938
L122.321 164.164
L122.424 166.615
L122.578 171.734
L122.63 171.579
L122.886 165.671
L122.938 166.092
L123.452 176.946
L123.555 176.282
L123.657 175.336
L123.709 175.715
L124.12 180.79
L124.736 198.336
L124.839 198.877
L124.891 198.807
L125.096 197.807
L125.25 193.316
L125.97 168.017
L126.175 165.435
L126.329 164.489
L126.689 159.817
L126.843 159.117
L126.895 159.412
L126.946 159.593
L127.254 157.62
L127.511 155.474
L127.82 147.643
L127.871 147.659
L127.922 147.637
L128.025 146.556
L128.59 136.962
L128.847 139.441
L128.899 139.234
L129.002 138.614
L129.053 138.627
L129.207 139.882
L129.258 139.745
L129.515 138.013
L129.618 137.429
L129.927 134.124
L130.029 133.133
L130.235 131.184
L130.492 133.76
L130.697 140.734
L131.622 177.688
L132.65 200.317
L132.701 200.419
L132.804 201.42
L132.856 201.197
L133.01 200.277
L133.061 200.319
L133.267 201.111
L133.421 201.829
L133.575 201.975
L133.626 201.881
L133.729 201.051
L133.986 196.884
L134.037 196.99
L134.192 197.605
L134.346 200.732
L135.271 232.238
L135.476 233.748
L135.887 244.252
L135.99 244.833
L136.247 246.583
L136.35 246.55
L136.401 246.497
L136.453 246.595
L136.607 247.202
L136.761 246.697
L136.812 246.946
L136.864 247.4
L136.864 247.4
L136.864 247.4
L136.967 245.553
L137.172 243.441
L137.326 245.652
L137.48 247.587
L137.532 247.458
L137.635 246.55
L137.686 246.633
L137.994 256.997
L138.56 280.543
L139.022 288.955
L139.125 290.128
L139.176 290.078
L139.279 289.736
L139.433 285.239
L140.821 227.985
L141.489 194.522
L141.746 188.857
L141.848 189.497
L142.054 193.219
L142.311 200.534
L142.362 200.795
L142.414 200.528
L142.619 198.506
L142.671 198.582
L142.722 198.606
L142.825 196.354
L143.133 190.314
L143.287 188.178
L143.441 186.385
L143.493 186.548
L144.109 194.544
L144.212 194.336
L144.418 193.353
L144.777 187.15
L145.291 175.97
L145.394 177.138
L145.6 187.595
L146.011 206.612
L146.216 210.607
L146.884 234.425
L147.193 229.935
L147.295 228.096
L147.809 212.379
L147.861 212.179
L147.963 213.859
L148.066 214.889
L148.118 214.687
L148.477 209.167
L148.631 207.007
L149.043 195.253
L149.248 189.058
L149.505 185.727
L149.556 185.747
L149.762 186.824
L149.813 186.739
L150.019 186.399
L150.173 186.572
L150.43 188.055
L150.533 189.084
L150.584 188.774
L151.149 172.454
L151.355 170.324
L152.023 149.235
L152.074 149.469
L152.229 150.485
L152.485 148.033
L152.537 148.183
L152.691 148.848
L152.948 153.926
L153.102 157.243
L153.565 170.102
L153.616 169.955
L153.924 165.52
L154.078 161.94
L154.13 162.533
L154.695 187.885
L155.62 235.61
L156.391 247.223
L156.545 246.305
L156.596 246.512
L156.802 249.152
L156.853 248.889
L156.956 248.631
L157.11 250.398
L157.162 250.123
L157.316 247.273
L157.521 244.688
L157.727 245.026
L157.881 247.036
L158.138 249.419
L158.395 250.457
L158.498 248.404
L158.703 245.686
L158.755 245.624
L158.96 247.167
L159.217 251.401
L159.269 251.048
L159.525 242.706
L159.834 226.713
L160.656 188.619
L160.862 180.856
L161.273 162.436
L161.478 158.301
L161.53 158.041
L161.632 158.883
L161.684 158.687
L161.838 157.177
L161.889 157.433
L161.992 160.101
L163.174 206.365
L163.225 206.357
L163.328 205.207
L163.585 195.404
L163.688 196.394
L163.945 205.224
L166 279.121
L166.566 294.378
L166.72 294.399
L166.822 295.139
L167.028 297.56
L167.131 294.891
L168.57 225.498
L168.775 220.153
L169.186 201.973
L169.957 166.304
L170.214 163.177
L170.265 163.206
L171.19 172.825
L171.293 173.282
L171.345 173.184
L171.396 172.842
L171.447 173.084
L171.55 174.677
L171.756 177.417
L171.858 177.609
L172.013 176.508
L172.27 172.719
L172.321 173.067
L172.783 179.777
L173.4 201.952
L173.863 211.933
L174.017 213.421
L174.068 213.383
L174.119 213.251
L174.171 213.364
L174.325 215.457
L174.787 223.656
L174.89 224.627
L174.942 224.475
L175.147 222.63
L175.815 207.479
L176.843 172.747
L177.151 167.536
L177.203 168.135
L178.128 190.711
L178.179 190.675
L178.282 188.469
L178.642 177.155
L178.693 176.934
L178.847 180.249
L179.258 193.256
L179.515 199.743
L179.669 201.237
L179.823 202.537
L179.926 202.185
L180.029 202.966
L180.235 205.692
L180.286 205.66
L180.44 204.319
L180.646 199.554
L180.851 192.734
L180.903 192.899
L181.159 197.535
L181.725 223.017
L182.084 234.068
L182.29 238.753
L182.341 238.75
L182.547 235.423
L183.009 226.933
L183.421 215.612
L183.575 217.038
L183.78 219.228
L183.986 215.207
L184.397 202.867
L184.757 192.843
L184.962 189.35
L185.065 188.845
L185.168 188.354
L185.27 188.976
L185.425 191.949
L185.938 205.377
L185.99 205.037
L186.915 184.611
L187.275 173.836
L187.377 173.087
L187.429 173.222
L187.531 174.316
L188.354 187.563
L188.405 187.753
L188.508 186.901
L188.559 186.962
L188.919 189.677
L189.124 190.441
L189.381 192.7
L189.587 199.131
L189.947 207.012
L190.409 214.708
L190.461 214.633
L190.563 213.214
L190.717 210.322
L190.769 210.346
L190.82 210.453
L190.872 210.397
L191.077 207.65
L191.745 197.368
L192.105 187.854
L192.208 188.22
L192.413 190.243
L192.516 190.918
L192.567 190.882
L192.824 188.476
L192.979 185.39
L193.544 166.266
L193.595 166.096
L193.698 166.556
L193.749 166.5
L194.006 164.561
L194.212 165.09
L194.366 162.924
L194.931 147.645
L195.188 146.295
L195.342 147.116
L195.445 146.031
L195.805 139.279
L196.01 137.409
L196.062 137.52
L196.165 138.668
L196.37 145.528
L196.627 152.816
L196.678 152.721
L196.73 152.371
L196.781 152.491
L196.935 153.931
L197.141 157.609
L197.398 163.004
L197.449 162.965
L197.655 161.391
L197.912 160.222
L197.963 160.164
L198.066 161.578
L198.528 173.058
L198.888 179.836
L199.145 185.458
L199.659 180.392
L199.71 180.474
L199.864 182.047
L200.687 207.702
L200.944 215.303
L201.098 216.562
L201.2 215.922
L201.457 212.64
L201.56 213.069
L201.714 214.744
L201.868 219.306
L202.28 231.14
L202.537 235.226
L202.845 245.817
L202.896 245.62
L203.41 237.198
L203.461 237.298
L203.821 239.013
L203.924 239.249
L204.027 238.485
L204.541 228.223
L204.849 225.558
L205.054 218.277
L205.928 167.319
L206.339 159.093
L206.545 155.216
L207.007 138.551
L207.521 116.914
L207.829 103.509
L208.086 96.2187
L208.138 96.2817
L208.189 96.0656
L208.446 93.7723
L208.652 91.9101
L209.268 80.6187
L209.371 80.9143
L209.988 84.7082
L210.347 88.2498
L210.758 89.6032
L210.861 89.4127
L211.17 89.2261
L211.478 91.7213
L211.529 91.6185
L211.889 90.1552
L212.095 87.7233
L212.146 87.9934
L212.506 89.8153
L212.763 91.0823
L213.122 89.792
L213.431 88.3439
L213.482 88.6473
L213.842 96.4599
L213.893 96.5384
L214.356 94.2703
L214.407 94.1454
L214.458 94.2153
L214.561 94.3275
L214.715 93.954
L214.921 95.858
L215.435 106.631
L215.64 109.229
L215.897 112.594
L216.154 117.729
L216.514 125.379
L216.617 126.906
L217.028 136.763
L217.593 146.945
L218.004 155.54
L218.261 159.046
L218.569 162.352
L218.621 162.159
L219.135 150.54
L219.186 150.618
L219.237 150.536
L219.34 150.166
L219.392 150.331
L219.648 153.924
L219.905 161.215
L220.008 161.871
L220.06 161.612
L220.265 159.019
L220.522 152.239
L220.625 150.412
L220.676 150.899
L221.704 168.638
L221.807 166.353
L222.064 160.715
L222.115 160.757
L222.166 161.042
L222.218 160.854
L222.475 159.492
L222.68 153.7
L223.143 140.446
L223.246 140.418
L223.554 137.981
L223.605 138.097
L223.811 140.062
L224.016 141.889
L224.273 145.043
L224.376 144.803
L224.479 145.02
L224.582 144.344
L224.787 142.202
L225.044 136.978
L225.404 132.664
L225.764 129.974
L226.38 110.852
L226.843 91.264
L226.894 90.7759
L226.945 90.9489
L227.1 91.1139
L227.202 90.9712
L227.613 87.5828
L227.665 87.343
L227.716 87.4863
L227.87 90.9086
L228.127 103.196
L228.795 139.367
L228.898 138.181
L229.206 134.155
L229.309 133.677
L229.463 135.78
L229.926 147.296
L230.029 146.614
L230.234 144.567
L230.337 144.39
L230.543 145.228
L230.645 146.295
L230.851 152.685
L232.033 191.018
L232.187 191.793
L232.649 197.619
L232.804 199.533
L232.855 199.466
L233.06 195.779
L233.266 187.84
L233.883 159.298
L233.934 159.014
L233.985 159.299
L234.448 161.013
L234.602 160.199
L234.91 156.281
L235.116 152.546
L235.476 156.211
L235.578 156.1
L235.784 155.075
L235.887 153.932
L236.144 146.769
L236.503 135.374
L236.863 125.316
L237.069 117.421
L237.12 117.537
L237.428 122.874
L237.839 120.818
L237.942 122.348
L238.456 138.467
L238.713 147.296
L238.816 147.022
L238.867 147.078
L238.919 147.221
L239.021 145.747
L239.278 141.642
L239.484 140.568
L239.535 140.592
L239.741 141.625
L239.792 141.382
L240.563 132.348
L240.769 133.009
L240.871 132.885
L240.974 132.333
L241.18 130.75
L241.282 131.472
L241.642 136.156
L241.899 139.185
L242.207 145.036
L242.259 144.693
L242.516 139.439
L242.567 139.699
L243.03 143.8
L243.184 143.328
L243.235 143.397
L243.441 145.54
L243.492 145.262
L243.646 139.767
L243.852 135.557
L243.903 135.536
L244.109 134.847
L244.16 134.995
L244.468 136.2
L244.725 134.636
L244.982 130.937
L245.136 132.046
L245.291 136.347
L245.65 158.723
L246.37 201.095
L246.678 204.326
L247.038 206.203
L247.141 205.079
L247.552 198.468
L247.654 197.304
L247.757 196.225
L247.911 197.974
L248.117 204.467
L248.425 212.666
L248.631 216.476
L249.453 246.381
L250.172 281.233
L250.275 281.488
L250.378 280.487
L250.635 271.343
L251.2 241.487
L251.611 219.459
L252.125 206.552
L252.331 203.72
L252.382 203.749
L252.588 205.355
L252.845 208.181
L252.896 207.606
L253.153 198.91
L253.667 169.442
L254.335 135.653
L254.951 104.442
L255.26 91.501
L255.928 83.4317
L256.185 77.718
L256.544 80.0161
L257.11 81.3752
L257.264 81.5322
L257.469 82.3187
L257.521 82.0418
L257.88 78.8946
L257.932 79.3884
L258.137 81.2761
L258.497 89.3364
L259.011 105.404
L259.525 122.698
L260.193 151.526
L260.244 151.463
L260.398 150.923
L260.45 151.009
L260.707 152.811
L260.81 153.346
L260.861 153.271
L260.964 152.383
L261.169 150.646
L261.426 150.106
L261.478 150.183
L261.683 152.225
L262.146 159.378
L262.197 159.26
L262.248 159.042
L262.3 159.186
L262.557 162.256
L263.276 172.384
L263.328 172.355
L263.43 170.162
L263.893 157.243
L264.355 153.519
L264.509 150.282
L265.075 128.455
L265.126 128.976
L265.28 134.471
L265.948 169.601
L266.411 186.243
L266.925 207.068
L267.13 213.213
L267.49 224.154
L267.695 224.724
L267.798 224.246
L268.158 222.257
L268.569 213.125
L268.62 213.205
L268.929 211.473
L269.648 201.961
L269.751 202.556
L269.905 203.495
L270.008 203.02
L270.111 201.036
L270.47 180.55
L271.19 141.983
L271.447 137.705
L271.909 124.268
L272.115 116.956
L272.577 100.573
L272.886 97.8191
L272.937 98.0087
L273.091 98.112
L273.502 95.7757
L273.708 93.5676
L273.862 97.6555
L274.581 123.934
L274.89 129.202
L275.66 134.96
L275.763 135.537
L276.174 143.553
L276.277 144.11
L276.328 143.954
L276.74 139.608
L277.099 130.36
L277.151 130.638
L277.51 134.215
L277.716 134.345
L277.819 135.064
L278.076 137.123
L278.127 137.085
L278.384 136.208
L278.795 139.448
L278.846 139.203
L279.052 133.739
L279.463 118.375
L280.028 103.133
L280.285 99.1087
L280.388 98.7881
L280.542 97.1973
L281.056 88.0218
L281.21 86.5572
L281.416 88.3232
L281.673 93.3242
L282.032 97.9004
L282.187 98.2671
L282.341 96.1777
L282.649 92.5852
L283.214 89.0374
L283.266 89.2703
L283.471 92.5404
L283.677 100.387
L284.139 116.963
L284.91 136.705
L285.27 143.142
L286.092 164.489
L286.298 166.327
L286.4 165.973
L286.452 166.05
L286.503 166.434
L286.554 166.334
L286.709 163.971
L287.12 154.592
L287.223 154.844
L287.325 156.285
L287.685 169.915
L287.993 182.858
L288.045 182.854
L288.147 182.464
L288.199 182.555
L288.353 183.27
L288.456 182.607
L288.661 179.485
L289.432 157.65
L289.535 156.654
L289.74 152.723
L289.792 153.41
L290.203 165.522
L290.46 173.265
L290.922 168.917
L290.974 169.21
L291.231 171.6
L291.385 171.35
L291.539 171.935
L291.796 169.876
L291.847 170.036
L292.361 174.409
L292.464 175.604
L292.515 175.26
L293.029 166.557
L293.132 166.797
L293.338 167.896
L293.903 165.67
L294.057 164.095
L294.468 158.615
L294.622 156.1
L295.085 145.192
L295.547 133.5
L295.599 133.375
L295.856 134.914
L296.01 137.888
L296.318 148.365
L296.575 156.672
L296.832 158.154
L297.243 164.212
L297.757 172.202
L297.808 171.899
L298.168 167.647
L298.425 166.009
L298.528 166.152
L298.733 166.687
L298.939 169.212
L299.144 170.891
L299.453 171.268
L299.555 171.165
L299.658 173.224
L300.48 196.356
L300.532 196.334
L300.583 196.445
L300.789 199.116
L300.994 203.577
L301.046 203.452
L301.354 195.648
L301.56 190.241
L301.662 191.089
L301.868 200.088
L302.073 204.899
L302.433 210.83
L303.358 234.486
L303.718 241.256
L303.975 246.974
L304.129 245.808
L304.232 245.497
L304.283 245.528
L304.334 245.69
L304.386 245.591
L304.591 244.753
L304.694 243.552
L304.951 233.628
L306.39 177.407
L306.441 177.249
L306.595 174.537
L307.161 160.832
L307.212 161.426
L307.52 167.102
L307.623 166.389
L307.777 161.922
L308.24 143.831
L308.6 139.885
L308.651 140.021
L308.702 140.215
L308.856 138.197
L309.165 131.837
L309.37 131.745
L309.473 133.411
L311.477 212.812
L311.529 212.789
L311.58 212.826
L311.734 213.859
L311.786 213.624
L312.556 205.568
L312.813 201.823
L312.865 202.078
L313.07 203.909
L313.224 205.284
L313.687 211.869
L313.995 220.017
L314.252 224.769
L314.509 226.676
L314.612 225.352
L315.897 190.081
L315.948 190.003
L316.102 190.857
L316.205 191.352
L316.256 191.185
L316.41 188.31
L316.616 184.858
L316.77 182.922
L316.822 182.281
L316.873 182.382
L318.003 197.391
L318.106 198.258
L318.312 200.631
L318.774 193.926
L319.083 186.341
L319.339 182.919
L319.442 183.039
L319.956 185.993
L320.059 185.829
L320.213 185.184
L320.47 186.695
L320.521 186.554
L320.727 186.213
L320.83 187.024
L321.087 192.149
L321.601 199.623
L321.652 199.781
L321.703 199.637
L321.909 198.083
L322.012 196.595
L322.577 179.794
L323.296 150.04
L323.502 144.778
L323.605 144.35
L323.81 141.808
L325.352 120.734
L325.609 119.248
L325.66 119.356
L325.866 121.15
L325.917 121.094
L326.02 120.054
L326.277 112.73
L326.636 98.7413
L326.688 98.8398
L326.842 100.487
L327.87 129.101
L328.024 129.249
L328.127 129.247
L328.384 128.767
L328.538 129.578
L328.641 129.932
L328.846 129.374
L329.206 130.214
L329.411 131.509
L329.463 131.226
L329.566 130.72
L329.617 130.798
L329.771 131.033
L330.079 130.902
L330.234 131.578
L330.439 134.27
L330.593 138.023
L330.953 146.679
L331.107 147.811
L331.467 145.87
L331.775 141.605
L332.854 106.511
L332.957 106.883
L333.163 109.66
L333.625 117.564
L333.676 117.239
L333.779 116.581
L333.831 116.637
L334.19 118.91
L334.345 119.826
L334.55 117.958
L334.704 118.313
L334.858 118.2
L335.218 117.753
L335.629 113.358
L335.835 106.38
L336.297 91.0628
L336.606 86.8175
L336.657 86.9299
L337.017 88.2025
L337.222 89.3031
L337.325 88.9172
L337.479 87.8687
L337.993 97.5622
L338.353 103.204
L338.404 103.328
L338.507 102.699
L338.815 100.186
L338.867 100.221
L339.021 102.194
L339.689 119.538
L340.357 133.945
L340.717 136.735
L340.819 137.343
L341.025 142.002
L341.436 148.326
L342.258 157.885
L342.31 157.688
L342.721 155.577
L342.772 155.796
L342.875 158.77
L343.286 174.303
L343.389 175.071
L343.44 175.004
L343.543 174.989
L343.646 174.713
L343.697 174.841
L343.851 175.78
L344.057 178.095
L344.108 177.831
L344.159 177.23
L344.211 177.365
L344.519 186.351
L344.982 194.5
L345.084 192.63
L345.29 187.388
L345.444 187.529
L345.598 187.416
L345.65 187.576
L345.855 189.736
L345.907 189.69
L346.009 188.764
L347.397 163.05
L347.448 162.964
L347.5 163.09
L347.705 165.58
L347.859 167.46
L347.911 167.152
L348.013 163.86
L348.425 146.469
L348.682 140.398
L348.836 140.008
L348.938 139.417
L349.144 135.179
L349.35 130.506
L349.863 99.1561
L350.172 86.4174
L350.223 86.1042
L350.275 86.2119
L350.788 89.9758
L350.84 89.303
L351.148 85.5836
L351.456 84.1907
L351.559 84.4975
L351.713 87.0592
L352.484 101.971
L353.049 110.739
L353.717 125.232
L353.82 125.436
L353.923 125.294
L354.026 125.567
L354.18 127.58
L354.745 137.926
L355.31 148.202
L355.722 160.114
L356.287 172.346
L356.492 172.877
L356.698 172.381
L356.801 171.422
L357.417 162.819
L357.469 162.702
L358.034 166.493
L358.188 165.808
L358.445 158.798
L358.856 147.32
L358.908 147.476
L359.062 147.858
L359.113 147.752
L359.319 147.451
L359.37 147.466
L359.421 147.247
L359.678 144.004
L359.73 144.019
L359.781 143.949
L359.833 143.671
L359.884 143.869
L360.038 148.912
L360.86 185.614
L361.066 188.504
L361.169 187.608
L361.22 186.953
L361.271 186.97
L361.477 191.826
L362.248 224.322
L362.351 225.026
L362.402 224.958
L362.556 224.192
L362.659 222.862
L363.687 201.716
L364.252 195.933
L364.355 195.284
L365.023 185.538
L365.28 171.269
L366.153 110.775
L366.307 107.918
L366.359 108.25
L366.41 108.226
L366.616 105.276
L366.924 92.0049
L367.335 75.3949
L367.386 75.661
L367.541 80.9893
L368.209 105.742
L370.418 144.819
L370.778 149.431
L370.881 149.847
L370.932 149.805
L371.24 147.868
L371.549 145.219
L371.6 145.317
L371.754 146.328
L371.806 146.249
L371.909 146.67
L372.268 150.79
L372.474 153.599
L372.577 152.07
L373.604 121.236
L373.656 121.573
L374.067 126.03
L374.221 127.199
L374.272 127.07
L374.529 123.542
L374.632 123.671
L374.735 123.346
L374.889 127.685
L375.66 156.854
L375.865 161.167
L375.917 161.106
L376.071 164.619
L376.893 187.984
L377.099 190.276
L377.15 190.096
L377.201 189.842
L377.253 190.057
L377.458 197.403
L378.178 225.874
L378.743 242.589
L378.897 243.498
L379 243.654
L379.051 243.74
L379.103 243.62
L379.36 240.613
L379.976 231.176
L380.953 192.958
L381.107 194.653
L381.158 194.239
L381.569 188.153
L381.775 182.085
L382.083 175.174
L382.289 172.815
L382.34 172.788
L382.391 172.519
L382.546 166.531
L383.368 124.987
L383.882 111.39
L384.396 102.846
L384.498 103.185
L384.653 104.436
L385.012 113.869
L385.372 124.279
L385.577 125.578
L385.783 127.687
L385.886 127.099
L386.143 122.321
L386.348 120.372
L386.554 121.716
L386.657 121.593
L386.811 122.081
L386.965 124.176
L387.222 129.893
L387.376 131.84
L387.479 132.197
L387.633 133.905
L387.839 140.204
L388.455 158.781
L389.072 163.872
L389.175 163.577
L389.277 163.205
L389.329 163.333
L389.38 163.561
L389.432 163.514
L389.534 163.338
L389.637 163.717
L390.151 166.748
L390.202 166.697
L390.408 165.321
L390.459 165.466
L390.87 170.555
L391.179 179.739
L391.487 183.112
L391.693 182.613
L391.744 182.793
L392.104 185.215
L392.155 185.293
L392.206 185.25
L392.309 185.145
L392.361 185.016
L392.412 185.117
L392.618 190.672
L392.772 192.654
L392.874 190.966
L393.337 175.545
L393.388 175.808
L393.851 190.592
L395.29 255.547
L396.06 273.453
L396.112 273.358
L396.163 273.468
L396.266 274.116
L396.78 280.407
L396.831 280.581
L396.934 279.408
L397.294 272.063
L398.065 255.228
L398.219 253.786
L398.27 253.835
L398.424 253.988
L398.476 253.892
L398.681 251.2
L398.733 251.566
L398.887 253.302
L398.99 252.022
L399.606 235.785
L400.069 207.755
L400.891 167.288
L401.096 158.944
L401.559 140.49
L402.073 125.279
L402.432 121.918
L402.535 121.544
L402.741 119.081
L402.895 118.197
L403.049 119.146
L403.203 122.059
L403.82 141.089
L403.871 140.737
L404.437 130.37
L404.642 128.704
L404.745 129.35
L405.002 133.509
L405.516 144.047
L405.67 143.384
L406.081 141.125
L406.235 142.222
L406.389 142.354
L406.492 143.159
L406.646 147.317
L407.366 169.355
L407.623 174.28
L407.777 175.591
L408.188 180.454
L408.342 181.492
L408.804 176.024
L409.01 172.023
L409.267 170.283
L409.37 170.441
L409.421 170.412
L409.575 169.317
L409.627 169.33
L409.832 170.369
L409.884 170.315
L409.986 169.551
L410.243 163.675
L410.809 148.418
L411.22 146.122
L411.425 143.568
L411.579 143.303
L411.939 141.552
L412.093 140.687
L412.196 141.733
L413.07 161.192
L413.275 163.61
L413.429 161.297
L413.892 155.359
L413.995 156.114
L414.046 155.685
L414.663 145.579
L414.971 144.368
L415.228 142.303
L415.331 142.391
L415.588 141.72
L415.793 141.819
L415.947 141.59
L415.999 141.679
L416.101 141.587
L416.256 140.725
L416.718 137.085
L416.821 136.004
L417.283 125.029
L418.568 83.8851
L418.774 79.9864
L419.287 69.3423
L419.493 68.7564
L419.596 68.8889
L419.75 69.1637
L419.853 69.0286
L420.11 67.8291
L420.161 67.9903
L420.315 68.6634
L420.367 68.5909
L420.469 68.4932
L420.572 69.6887
L420.983 82.4588
L421.24 90.3875
L421.497 94.8436
L421.6 96.2578
L421.651 96.2386
L421.805 95.8129
L421.857 95.8363
L422.319 97.2283
L422.422 97.3137
L422.576 97.7715
L422.782 98.5604
L423.09 98.5407
L423.347 99.381
L423.501 99.9958
L423.553 99.9695
L423.758 99.2871
L423.81 99.3292
L424.323 102.62
L424.478 103.032
L424.837 105.24
L424.991 105.131
L425.146 105.449
L425.248 107.149
L425.454 115.269
L425.814 128.427
L426.019 132.369
L426.071 132.196
L426.276 129.121
L426.327 129.194
L426.43 129.431
L426.584 128.398
L426.687 129.381
L427.664 151.036
L427.869 151.974
L428.075 152.638
L428.383 152.173
L428.537 151.12
L428.794 149.242
L429 148.216
L429.154 146.801
L429.205 146.911
L429.411 147.648
L429.462 147.455
L429.513 147.492
L429.616 147.849
L429.668 147.824
L429.822 146.582
L430.233 142.98
L430.284 142.85
L430.387 141.179
L430.593 132.06
L431.106 109.349
L431.312 105.992
L431.569 103.823
L431.672 104.212
L431.775 102.925
L432.648 83.7994
L432.802 81.614
L433.008 85.0763
L433.162 88.8837
L434.652 156.623
L434.806 156.427
L434.909 157.555
L435.474 166.415
L435.526 166.325
L435.577 166.333
L435.68 167.147
L435.988 171.913
L436.142 172.174
L436.245 172.123
L436.348 172.213
L436.451 172.008
L436.554 173.156
L437.273 181.621
L437.376 182.259
L437.787 186.507
L437.838 186.469
L437.941 185.289
L438.352 172.851
L438.969 146.012
L439.277 139.099
L439.328 138.567
L439.38 138.638
L439.431 138.848
L439.483 138.748
L439.688 135.84
L439.74 136.518
L439.996 141.05
L440.048 140.577
L440.356 137.656
L440.408 137.764
L440.51 138.273
L440.613 140.399
L440.819 146.54
L441.024 145.991
L441.281 148.32
L441.589 152.244
L441.692 151.47
L441.795 150.759
L441.846 150.815
L442.103 154.619
L442.155 154.173
L442.309 153.003
L442.36 153.026
L442.977 147.119
L443.028 147.164
L443.285 148.659
L443.337 148.442
L443.748 145.386
L443.799 145.444
L443.85 145.515
L443.953 145.073
L444.21 142.58
L444.416 137.048
L445.032 118.252
L445.238 116.35
L445.443 116.009
L445.546 115.206
L445.7 112.846
L446.523 92.6041
L446.831 87.7228
L446.985 85.4964
L447.653 70.4602
L447.859 68.6383
L447.961 69.3097
L448.578 76.1007
L448.732 76.1205
L448.835 76.1546
L449.195 74.2574
L449.4 73.8725
L450.222 69.4201
L450.428 69.1046
L450.582 69.2038
L450.685 69.3535
L450.891 68.8127
L451.045 70.3851
L451.456 74.6143
L451.61 75.6212
L451.713 77.6234
L451.97 84.8157
L452.175 86.205
L452.638 96.4439
L452.997 103.091
L453.254 105.275
L453.408 105.46
L453.511 105.283
L453.614 104.937
L453.665 105.137
L454.025 107.139
L454.385 110.889
L454.436 110.742
L454.642 110.355
L454.745 110.308
L454.847 110.025
L455.001 109.693
L455.104 109.867
L455.258 109.425
L455.361 109.221
L455.413 109.244
L455.67 110.813
L455.721 110.671
L456.029 109.403
L456.081 109.364
L456.183 110.53
L456.44 114.375
L456.492 114.435
L456.543 114.328
L456.749 113.805
L456.851 112.366
L457.006 109.312
L457.057 109.478
L457.519 116.68
L457.571 116.544
L457.725 114.785
L458.804 98.6892
L458.856 98.5212
L458.907 98.7074
L459.112 99.6566
L459.318 101.017
L459.472 100.832
L459.626 101.844
L460.14 106.139
L460.192 106.085
L460.243 106.138
L460.346 107.015
L460.603 110.975
L460.808 109.59
L460.86 109.775
L461.117 112.529
L461.271 113.768
L461.374 112.757
L461.528 110.9
L461.63 112.346
L461.887 117.365
L462.196 116.275
L462.607 111.552
L462.71 111.035
L462.967 113.66
L463.069 113.288
L463.737 109.017
L463.943 107.95
L464.046 108.694
L464.251 110.837
L464.354 110.525
L464.508 109.645
L464.56 109.74
L465.022 112.808
L465.536 118.294
L465.639 118.454
L466.05 122.335
L466.153 121.999
L466.307 120.538
L466.872 111.069
L467.026 108.628
L467.077 108.751
L467.129 108.596
L467.232 107.512
L467.54 102.095
L467.694 99.6913
L467.746 99.7896
L468.362 112.696
L468.825 127.371
L469.082 130.012
L469.133 129.96
L469.287 127.658
L469.647 123.709
L470.212 118.525
L470.263 118.638
L470.315 118.586
L470.469 117.738
L470.726 113.888
L471.188 107.552
L471.445 105.416
L471.548 105.292
L471.651 104.967
L472.319 99.5532
L472.422 100.014
L472.679 104.514
L472.936 111.659
L473.038 112.324
L473.193 117.622
L473.501 127.304
L473.706 128.885
L473.861 128.18
L473.912 128.216
L474.118 131.651
L474.94 146.24
L475.248 148.528
L475.454 150.47
L475.505 150.466
L475.608 151.304
L476.584 166.406
L476.687 166.558
L476.79 166.488
L476.892 167.139
L477.509 171.945
L477.56 171.927
L477.612 171.569
L477.663 171.788
L477.766 172.35
L477.869 171.039
L478.331 159.157
L478.691 148.04
L478.845 146.359
L479.102 148.43
L479.153 148.171
L479.462 144.173
L479.667 139.634
L479.821 141.595
L480.13 149.591
L480.284 152.07
L480.438 149.114
L480.644 145.965
L481.106 142.7
L481.312 140.987
L481.671 144.619
L481.98 144.219
L482.083 143.722
L482.134 143.752
L482.391 145.593
L482.442 145.632
L482.802 143.705
L482.956 141.705
L483.007 141.904
L483.059 142.11
L483.11 141.993
L483.264 139.796
L483.624 131.983
L484.292 115.24
L484.6 112.329
L484.652 112.444
L484.703 112.415
L484.806 111.252
L485.269 99.6694
L485.474 95.29
L485.525 95.1146
L485.577 95.181
L485.885 96.22
L485.937 96.1904
L486.142 93.4359
L486.348 91.8287
L486.45 90.9308
L486.964 80.7809
L487.067 81.5917
L487.427 86.0779
L487.786 94.2514
L487.838 94.1471
L487.889 94.1162
L488.043 94.9354
L488.095 94.8731
L488.249 93.6462
L488.506 94.0989
L488.609 93.9932
L488.917 94.9151
L489.225 92.8157
L489.277 92.8776
L489.328 92.8976
L489.482 92.7926
L489.585 93.614
L489.791 95.118
L489.945 95.8227
L490.202 98.2732
L490.818 103.714
L490.972 105.821
L491.178 104.877
L491.281 104.946
L491.486 104.506
L491.589 104.657
L491.692 105.002
L492.154 108.071
L492.309 107.358
L492.36 107.419
L492.514 108.51
L492.565 108.25
L492.668 106.415
L492.874 103.046
L493.028 104.815
L493.182 107.15
L493.439 117.811
L494.929 176.865
L495.032 179.601
L495.083 179.292
L495.238 177.664
L495.597 172.409
L495.906 170.033
L496.06 167.449
L496.111 167.661
L496.163 168.411
L496.163 168.411" style="fill:none;stroke:#0000ff;stroke-linecap:square;"/>
   </g>
   <g id="patch_3">
    <path d="
M49.7626 12.0391
L496.163 12.0391" style="fill:none;stroke:#000000;stroke-linecap:square;stroke-linejoin:miter;"/>
   </g>
   <g id="patch_4">
    <path d="
M496.163 314.439
L496.163 12.0391" style="fill:none;stroke:#000000;stroke-linecap:square;stroke-linejoin:miter;"/>
   </g>
   <g id="patch_5">
    <path d="
M49.7626 314.439
L496.163 314.439" style="fill:none;stroke:#000000;stroke-linecap:square;stroke-linejoin:miter;"/>
   </g>
   <g id="patch_6">
    <path d="
M49.7626 314.439
L49.7626 12.0391" style="fill:none;stroke:#000000;stroke-linecap:square;stroke-linejoin:miter;"/>
   </g>
   <g id="matplotlib.axis_1">
    <g id="xtick_1">
     <g id="line2d_2">
      <path clip-path="url(#pd45558ca38)" d="
M49.7626 314.439
L49.7626 12.0391" style="fill:none;stroke:#000000;stroke-dasharray:1.000000,3.000000;stroke-dashoffset:0.0;stroke-width:0.5;"/>
     </g>
     <g id="line2d_3">
      <defs>
       <path d="
M0 0
L0 -4" id="m93b0483c22" style="stroke:#000000;stroke-width:0.5;"/>
      </defs>
      <g>
       <use style="stroke:#000000;stroke-width:0.5;" x="49.762587823" xlink:href="#m93b0483c22" y="314.4390625"/>
      </g>
     </g>
     <g id="line2d_4">
      <defs>
       <path d="
M0 0
L0 4" id="m741efc42ff" style="stroke:#000000;stroke-width:0.5;"/>
      </defs>
      <g>
       <use style="stroke:#000000;stroke-width:0.5;" x="49.762587823" xlink:href="#m741efc42ff" y="12.0390625"/>
      </g>
     </g>
     <g id="text_1">
      <!-- Jan 2012 -->
      <defs>
       <path d="
M19.1875 8.29688
L53.6094 8.29688
L53.6094 0
L7.32812 0
L7.32812 8.29688
Q12.9375 14.1094 22.625 23.8906
Q32.3281 33.6875 34.8125 36.5312
Q39.5469 41.8438 41.4219 45.5312
Q43.3125 49.2188 43.3125 52.7812
Q43.3125 58.5938 39.2344 62.25
Q35.1562 65.9219 28.6094 65.9219
Q23.9688 65.9219 18.8125 64.3125
Q13.6719 62.7031 7.8125 59.4219
L7.8125 69.3906
Q13.7656 71.7812 18.9375 73
Q24.125 74.2188 28.4219 74.2188
Q39.75 74.2188 46.4844 68.5469
Q53.2188 62.8906 53.2188 53.4219
Q53.2188 48.9219 51.5312 44.8906
Q49.8594 40.875 45.4062 35.4062
Q44.1875 33.9844 37.6406 27.2188
Q31.1094 20.4531 19.1875 8.29688" id="BitstreamVeraSans-Roman-32"/>
       <path id="BitstreamVeraSans-Roman-20"/>
       <path d="
M31.7812 66.4062
Q24.1719 66.4062 20.3281 58.9062
Q16.5 51.4219 16.5 36.375
Q16.5 21.3906 20.3281 13.8906
Q24.1719 6.39062 31.7812 6.39062
Q39.4531 6.39062 43.2812 13.8906
Q47.125 21.3906 47.125 36.375
Q47.125 51.4219 43.2812 58.9062
Q39.4531 66.4062 31.7812 66.4062
M31.7812 74.2188
Q44.0469 74.2188 50.5156 64.5156
Q56.9844 54.8281 56.9844 36.375
Q56.9844 17.9688 50.5156 8.26562
Q44.0469 -1.42188 31.7812 -1.42188
Q19.5312 -1.42188 13.0625 8.26562
Q6.59375 17.9688 6.59375 36.375
Q6.59375 54.8281 13.0625 64.5156
Q19.5312 74.2188 31.7812 74.2188" id="BitstreamVeraSans-Roman-30"/>
       <path d="
M12.4062 8.29688
L28.5156 8.29688
L28.5156 63.9219
L10.9844 60.4062
L10.9844 69.3906
L28.4219 72.9062
L38.2812 72.9062
L38.2812 8.29688
L54.3906 8.29688
L54.3906 0
L12.4062 0
z
" id="BitstreamVeraSans-Roman-31"/>
       <path d="
M9.8125 72.9062
L19.6719 72.9062
L19.6719 5.07812
Q19.6719 -8.10938 14.6719 -14.0625
Q9.67188 -20.0156 -1.42188 -20.0156
L-5.17188 -20.0156
L-5.17188 -11.7188
L-2.09375 -11.7188
Q4.4375 -11.7188 7.125 -8.04688
Q9.8125 -4.39062 9.8125 5.07812
z
" id="BitstreamVeraSans-Roman-4a"/>
       <path d="
M54.8906 33.0156
L54.8906 0
L45.9062 0
L45.9062 32.7188
Q45.9062 40.4844 42.875 44.3281
Q39.8438 48.1875 33.7969 48.1875
Q26.5156 48.1875 22.3125 43.5469
Q18.1094 38.9219 18.1094 30.9062
L18.1094 0
L9.07812 0
L9.07812 54.6875
L18.1094 54.6875
L18.1094 46.1875
Q21.3438 51.125 25.7031 53.5625
Q30.0781 56 35.7969 56
Q45.2188 56 50.0469 50.1719
Q54.8906 44.3438 54.8906 33.0156" id="BitstreamVeraSans-Roman-6e"/>
       <path d="
M34.2812 27.4844
Q23.3906 27.4844 19.1875 25
Q14.9844 22.5156 14.9844 16.5
Q14.9844 11.7188 18.1406 8.90625
Q21.2969 6.10938 26.7031 6.10938
Q34.1875 6.10938 38.7031 11.4062
Q43.2188 16.7031 43.2188 25.4844
L43.2188 27.4844
z

M52.2031 31.2031
L52.2031 0
L43.2188 0
L43.2188 8.29688
Q40.1406 3.32812 35.5469 0.953125
Q30.9531 -1.42188 24.3125 -1.42188
Q15.9219 -1.42188 10.9531 3.29688
Q6 8.01562 6 15.9219
Q6 25.1406 12.1719 29.8281
Q18.3594 34.5156 30.6094 34.5156
L43.2188 34.5156
L43.2188 35.4062
Q43.2188 41.6094 39.1406 45
Q35.0625 48.3906 27.6875 48.3906
Q23 48.3906 18.5469 47.2656
Q14.1094 46.1406 10.0156 43.8906
L10.0156 52.2031
Q14.9375 54.1094 19.5781 55.0469
Q24.2188 56 28.6094 56
Q40.4844 56 46.3438 49.8438
Q52.2031 43.7031 52.2031 31.2031" id="BitstreamVeraSans-Roman-61"/>
      </defs>
      <g transform="translate(10.99921875 346.799189904)rotate(-30.0)scale(0.1 -0.1)">
       <use xlink:href="#BitstreamVeraSans-Roman-4a"/>
       <use x="29.4921875" xlink:href="#BitstreamVeraSans-Roman-61"/>
       <use x="90.771484375" xlink:href="#BitstreamVeraSans-Roman-6e"/>
       <use x="154.150390625" xlink:href="#BitstreamVeraSans-Roman-20"/>
       <use x="185.9375" xlink:href="#BitstreamVeraSans-Roman-32"/>
       <use x="249.560546875" xlink:href="#BitstreamVeraSans-Roman-30"/>
       <use x="313.18359375" xlink:href="#BitstreamVeraSans-Roman-31"/>
       <use x="376.806640625" xlink:href="#BitstreamVeraSans-Roman-32"/>
      </g>
     </g>
    </g>
    <g id="xtick_2">
     <g id="line2d_5">
      <path clip-path="url(#pd45558ca38)" d="
M87.9946 314.439
L87.9946 12.0391" style="fill:none;stroke:#000000;stroke-dasharray:1.000000,3.000000;stroke-dashoffset:0.0;stroke-width:0.5;"/>
     </g>
     <g id="line2d_6">
      <g>
       <use style="stroke:#000000;stroke-width:0.5;" x="87.9946126877" xlink:href="#m93b0483c22" y="314.4390625"/>
      </g>
     </g>
     <g id="line2d_7">
      <g>
       <use style="stroke:#000000;stroke-width:0.5;" x="87.9946126877" xlink:href="#m741efc42ff" y="12.0390625"/>
      </g>
     </g>
     <g id="text_2">
      <!-- Feb 2012 -->
      <defs>
       <path d="
M56.2031 29.5938
L56.2031 25.2031
L14.8906 25.2031
Q15.4844 15.9219 20.4844 11.0625
Q25.4844 6.20312 34.4219 6.20312
Q39.5938 6.20312 44.4531 7.46875
Q49.3125 8.73438 54.1094 11.2812
L54.1094 2.78125
Q49.2656 0.734375 44.1875 -0.34375
Q39.1094 -1.42188 33.8906 -1.42188
Q20.7969 -1.42188 13.1562 6.1875
Q5.51562 13.8125 5.51562 26.8125
Q5.51562 40.2344 12.7656 48.1094
Q20.0156 56 32.3281 56
Q43.3594 56 49.7812 48.8906
Q56.2031 41.7969 56.2031 29.5938
M47.2188 32.2344
Q47.125 39.5938 43.0938 43.9844
Q39.0625 48.3906 32.4219 48.3906
Q24.9062 48.3906 20.3906 44.1406
Q15.875 39.8906 15.1875 32.1719
z
" id="BitstreamVeraSans-Roman-65"/>
       <path d="
M9.8125 72.9062
L51.7031 72.9062
L51.7031 64.5938
L19.6719 64.5938
L19.6719 43.1094
L48.5781 43.1094
L48.5781 34.8125
L19.6719 34.8125
L19.6719 0
L9.8125 0
z
" id="BitstreamVeraSans-Roman-46"/>
       <path d="
M48.6875 27.2969
Q48.6875 37.2031 44.6094 42.8438
Q40.5312 48.4844 33.4062 48.4844
Q26.2656 48.4844 22.1875 42.8438
Q18.1094 37.2031 18.1094 27.2969
Q18.1094 17.3906 22.1875 11.75
Q26.2656 6.10938 33.4062 6.10938
Q40.5312 6.10938 44.6094 11.75
Q48.6875 17.3906 48.6875 27.2969
M18.1094 46.3906
Q20.9531 51.2656 25.2656 53.625
Q29.5938 56 35.5938 56
Q45.5625 56 51.7812 48.0938
Q58.0156 40.1875 58.0156 27.2969
Q58.0156 14.4062 51.7812 6.48438
Q45.5625 -1.42188 35.5938 -1.42188
Q29.5938 -1.42188 25.2656 0.953125
Q20.9531 3.32812 18.1094 8.20312
L18.1094 0
L9.07812 0
L9.07812 75.9844
L18.1094 75.9844
z
" id="BitstreamVeraSans-Roman-62"/>
      </defs>
      <g transform="translate(47.6981080171 347.684346154)rotate(-30.0)scale(0.1 -0.1)">
       <use xlink:href="#BitstreamVeraSans-Roman-46"/>
       <use x="52.01953125" xlink:href="#BitstreamVeraSans-Roman-65"/>
       <use x="113.54296875" xlink:href="#BitstreamVeraSans-Roman-62"/>
       <use x="177.01953125" xlink:href="#BitstreamVeraSans-Roman-20"/>
       <use x="208.806640625" xlink:href="#BitstreamVeraSans-Roman-32"/>
       <use x="272.4296875" xlink:href="#BitstreamVeraSans-Roman-30"/>
       <use x="336.052734375" xlink:href="#BitstreamVeraSans-Roman-31"/>
       <use x="399.67578125" xlink:href="#BitstreamVeraSans-Roman-32"/>
      </g>
     </g>
    </g>
    <g id="xtick_3">
     <g id="line2d_8">
      <path clip-path="url(#pd45558ca38)" d="
M123.76 314.439
L123.76 12.0391" style="fill:none;stroke:#000000;stroke-dasharray:1.000000,3.000000;stroke-dashoffset:0.0;stroke-width:0.5;"/>
     </g>
     <g id="line2d_9">
      <g>
       <use style="stroke:#000000;stroke-width:0.5;" x="123.760055303" xlink:href="#m93b0483c22" y="314.4390625"/>
      </g>
     </g>
     <g id="line2d_10">
      <g>
       <use style="stroke:#000000;stroke-width:0.5;" x="123.760055303" xlink:href="#m741efc42ff" y="12.0390625"/>
      </g>
     </g>
     <g id="text_3">
      <!-- Mar 2012 -->
      <defs>
       <path d="
M9.8125 72.9062
L24.5156 72.9062
L43.1094 23.2969
L61.8125 72.9062
L76.5156 72.9062
L76.5156 0
L66.8906 0
L66.8906 64.0156
L48.0938 14.0156
L38.1875 14.0156
L19.3906 64.0156
L19.3906 0
L9.8125 0
z
" id="BitstreamVeraSans-Roman-4d"/>
       <path d="
M41.1094 46.2969
Q39.5938 47.1719 37.8125 47.5781
Q36.0312 48 33.8906 48
Q26.2656 48 22.1875 43.0469
Q18.1094 38.0938 18.1094 28.8125
L18.1094 0
L9.07812 0
L9.07812 54.6875
L18.1094 54.6875
L18.1094 46.1875
Q20.9531 51.1719 25.4844 53.5781
Q30.0312 56 36.5312 56
Q37.4531 56 38.5781 55.875
Q39.7031 55.7656 41.0625 55.5156
z
" id="BitstreamVeraSans-Roman-72"/>
      </defs>
      <g transform="translate(82.4554429359 348.266377404)rotate(-30.0)scale(0.1 -0.1)">
       <use xlink:href="#BitstreamVeraSans-Roman-4d"/>
       <use x="86.279296875" xlink:href="#BitstreamVeraSans-Roman-61"/>
       <use x="147.55859375" xlink:href="#BitstreamVeraSans-Roman-72"/>
       <use x="188.671875" xlink:href="#BitstreamVeraSans-Roman-20"/>
       <use x="220.458984375" xlink:href="#BitstreamVeraSans-Roman-32"/>
       <use x="284.08203125" xlink:href="#BitstreamVeraSans-Roman-30"/>
       <use x="347.705078125" xlink:href="#BitstreamVeraSans-Roman-31"/>
       <use x="411.328125" xlink:href="#BitstreamVeraSans-Roman-32"/>
      </g>
     </g>
    </g>
    <g id="xtick_4">
     <g id="line2d_11">
      <path clip-path="url(#pd45558ca38)" d="
M161.992 314.439
L161.992 12.0391" style="fill:none;stroke:#000000;stroke-dasharray:1.000000,3.000000;stroke-dashoffset:0.0;stroke-width:0.5;"/>
     </g>
     <g id="line2d_12">
      <g>
       <use style="stroke:#000000;stroke-width:0.5;" x="161.992080168" xlink:href="#m93b0483c22" y="314.4390625"/>
      </g>
     </g>
     <g id="line2d_13">
      <g>
       <use style="stroke:#000000;stroke-width:0.5;" x="161.992080168" xlink:href="#m741efc42ff" y="12.0390625"/>
      </g>
     </g>
     <g id="text_4">
      <!-- Apr 2012 -->
      <defs>
       <path d="
M18.1094 8.20312
L18.1094 -20.7969
L9.07812 -20.7969
L9.07812 54.6875
L18.1094 54.6875
L18.1094 46.3906
Q20.9531 51.2656 25.2656 53.625
Q29.5938 56 35.5938 56
Q45.5625 56 51.7812 48.0938
Q58.0156 40.1875 58.0156 27.2969
Q58.0156 14.4062 51.7812 6.48438
Q45.5625 -1.42188 35.5938 -1.42188
Q29.5938 -1.42188 25.2656 0.953125
Q20.9531 3.32812 18.1094 8.20312
M48.6875 27.2969
Q48.6875 37.2031 44.6094 42.8438
Q40.5312 48.4844 33.4062 48.4844
Q26.2656 48.4844 22.1875 42.8438
Q18.1094 37.2031 18.1094 27.2969
Q18.1094 17.3906 22.1875 11.75
Q26.2656 6.10938 33.4062 6.10938
Q40.5312 6.10938 44.6094 11.75
Q48.6875 17.3906 48.6875 27.2969" id="BitstreamVeraSans-Roman-70"/>
       <path d="
M34.1875 63.1875
L20.7969 26.9062
L47.6094 26.9062
z

M28.6094 72.9062
L39.7969 72.9062
L67.5781 0
L57.3281 0
L50.6875 18.7031
L17.8281 18.7031
L11.1875 0
L0.78125 0
z
" id="BitstreamVeraSans-Roman-41"/>
      </defs>
      <g transform="translate(122.044691988 347.482783654)rotate(-30.0)scale(0.1 -0.1)">
       <use xlink:href="#BitstreamVeraSans-Roman-41"/>
       <use x="68.408203125" xlink:href="#BitstreamVeraSans-Roman-70"/>
       <use x="131.884765625" xlink:href="#BitstreamVeraSans-Roman-72"/>
       <use x="172.998046875" xlink:href="#BitstreamVeraSans-Roman-20"/>
       <use x="204.78515625" xlink:href="#BitstreamVeraSans-Roman-32"/>
       <use x="268.408203125" xlink:href="#BitstreamVeraSans-Roman-30"/>
       <use x="332.03125" xlink:href="#BitstreamVeraSans-Roman-31"/>
       <use x="395.654296875" xlink:href="#BitstreamVeraSans-Roman-32"/>
      </g>
     </g>
    </g>
    <g id="xtick_5">
     <g id="line2d_14">
      <path clip-path="url(#pd45558ca38)" d="
M198.991 314.439
L198.991 12.0391" style="fill:none;stroke:#000000;stroke-dasharray:1.000000,3.000000;stroke-dashoffset:0.0;stroke-width:0.5;"/>
     </g>
     <g id="line2d_15">
      <g>
       <use style="stroke:#000000;stroke-width:0.5;" x="198.990813908" xlink:href="#m93b0483c22" y="314.4390625"/>
      </g>
     </g>
     <g id="line2d_16">
      <g>
       <use style="stroke:#000000;stroke-width:0.5;" x="198.990813908" xlink:href="#m741efc42ff" y="12.0390625"/>
      </g>
     </g>
     <g id="text_5">
      <!-- May 2012 -->
      <defs>
       <path d="
M32.1719 -5.07812
Q28.375 -14.8438 24.75 -17.8125
Q21.1406 -20.7969 15.0938 -20.7969
L7.90625 -20.7969
L7.90625 -13.2812
L13.1875 -13.2812
Q16.8906 -13.2812 18.9375 -11.5156
Q21 -9.76562 23.4844 -3.21875
L25.0938 0.875
L2.98438 54.6875
L12.5 54.6875
L29.5938 11.9219
L46.6875 54.6875
L56.2031 54.6875
z
" id="BitstreamVeraSans-Roman-79"/>
      </defs>
      <g transform="translate(156.12058999 349.170283654)rotate(-30.0)scale(0.1 -0.1)">
       <use xlink:href="#BitstreamVeraSans-Roman-4d"/>
       <use x="86.279296875" xlink:href="#BitstreamVeraSans-Roman-61"/>
       <use x="147.55859375" xlink:href="#BitstreamVeraSans-Roman-79"/>
       <use x="206.73828125" xlink:href="#BitstreamVeraSans-Roman-20"/>
       <use x="238.525390625" xlink:href="#BitstreamVeraSans-Roman-32"/>
       <use x="302.1484375" xlink:href="#BitstreamVeraSans-Roman-30"/>
       <use x="365.771484375" xlink:href="#BitstreamVeraSans-Roman-31"/>
       <use x="429.39453125" xlink:href="#BitstreamVeraSans-Roman-32"/>
      </g>
     </g>
    </g>
    <g id="xtick_6">
     <g id="line2d_17">
      <path clip-path="url(#pd45558ca38)" d="
M237.223 314.439
L237.223 12.0391" style="fill:none;stroke:#000000;stroke-dasharray:1.000000,3.000000;stroke-dashoffset:0.0;stroke-width:0.5;"/>
     </g>
     <g id="line2d_18">
      <g>
       <use style="stroke:#000000;stroke-width:0.5;" x="237.222838773" xlink:href="#m93b0483c22" y="314.4390625"/>
      </g>
     </g>
     <g id="line2d_19">
      <g>
       <use style="stroke:#000000;stroke-width:0.5;" x="237.222838773" xlink:href="#m741efc42ff" y="12.0390625"/>
      </g>
     </g>
     <g id="text_6">
      <!-- Jun 2012 -->
      <defs>
       <path d="
M8.5 21.5781
L8.5 54.6875
L17.4844 54.6875
L17.4844 21.9219
Q17.4844 14.1562 20.5 10.2656
Q23.5312 6.39062 29.5938 6.39062
Q36.8594 6.39062 41.0781 11.0312
Q45.3125 15.6719 45.3125 23.6875
L45.3125 54.6875
L54.2969 54.6875
L54.2969 0
L45.3125 0
L45.3125 8.40625
Q42.0469 3.42188 37.7188 1
Q33.4062 -1.42188 27.6875 -1.42188
Q18.2656 -1.42188 13.375 4.4375
Q8.5 10.2969 8.5 21.5781" id="BitstreamVeraSans-Roman-75"/>
      </defs>
      <g transform="translate(198.278145631 346.903877404)rotate(-30.0)scale(0.1 -0.1)">
       <use xlink:href="#BitstreamVeraSans-Roman-4a"/>
       <use x="29.4921875" xlink:href="#BitstreamVeraSans-Roman-75"/>
       <use x="92.87109375" xlink:href="#BitstreamVeraSans-Roman-6e"/>
       <use x="156.25" xlink:href="#BitstreamVeraSans-Roman-20"/>
       <use x="188.037109375" xlink:href="#BitstreamVeraSans-Roman-32"/>
       <use x="251.66015625" xlink:href="#BitstreamVeraSans-Roman-30"/>
       <use x="315.283203125" xlink:href="#BitstreamVeraSans-Roman-31"/>
       <use x="378.90625" xlink:href="#BitstreamVeraSans-Roman-32"/>
      </g>
     </g>
    </g>
    <g id="xtick_7">
     <g id="line2d_20">
      <path clip-path="url(#pd45558ca38)" d="
M274.222 314.439
L274.222 12.0391" style="fill:none;stroke:#000000;stroke-dasharray:1.000000,3.000000;stroke-dashoffset:0.0;stroke-width:0.5;"/>
     </g>
     <g id="line2d_21">
      <g>
       <use style="stroke:#000000;stroke-width:0.5;" x="274.221572513" xlink:href="#m93b0483c22" y="314.4390625"/>
      </g>
     </g>
     <g id="line2d_22">
      <g>
       <use style="stroke:#000000;stroke-width:0.5;" x="274.221572513" xlink:href="#m741efc42ff" y="12.0390625"/>
      </g>
     </g>
     <g id="text_7">
      <!-- Jul 2012 -->
      <defs>
       <path d="
M9.42188 75.9844
L18.4062 75.9844
L18.4062 0
L9.42188 0
z
" id="BitstreamVeraSans-Roman-6c"/>
      </defs>
      <g transform="translate(238.359388542 345.124189904)rotate(-30.0)scale(0.1 -0.1)">
       <use xlink:href="#BitstreamVeraSans-Roman-4a"/>
       <use x="29.4921875" xlink:href="#BitstreamVeraSans-Roman-75"/>
       <use x="92.87109375" xlink:href="#BitstreamVeraSans-Roman-6c"/>
       <use x="120.654296875" xlink:href="#BitstreamVeraSans-Roman-20"/>
       <use x="152.44140625" xlink:href="#BitstreamVeraSans-Roman-32"/>
       <use x="216.064453125" xlink:href="#BitstreamVeraSans-Roman-30"/>
       <use x="279.6875" xlink:href="#BitstreamVeraSans-Roman-31"/>
       <use x="343.310546875" xlink:href="#BitstreamVeraSans-Roman-32"/>
      </g>
     </g>
    </g>
    <g id="xtick_8">
     <g id="line2d_23">
      <path clip-path="url(#pd45558ca38)" d="
M312.454 314.439
L312.454 12.0391" style="fill:none;stroke:#000000;stroke-dasharray:1.000000,3.000000;stroke-dashoffset:0.0;stroke-width:0.5;"/>
     </g>
     <g id="line2d_24">
      <g>
       <use style="stroke:#000000;stroke-width:0.5;" x="312.453597377" xlink:href="#m93b0483c22" y="314.4390625"/>
      </g>
     </g>
     <g id="line2d_25">
      <g>
       <use style="stroke:#000000;stroke-width:0.5;" x="312.453597377" xlink:href="#m741efc42ff" y="12.0390625"/>
      </g>
     </g>
     <g id="text_8">
      <!-- Aug 2012 -->
      <defs>
       <path d="
M45.4062 27.9844
Q45.4062 37.75 41.375 43.1094
Q37.3594 48.4844 30.0781 48.4844
Q22.8594 48.4844 18.8281 43.1094
Q14.7969 37.75 14.7969 27.9844
Q14.7969 18.2656 18.8281 12.8906
Q22.8594 7.51562 30.0781 7.51562
Q37.3594 7.51562 41.375 12.8906
Q45.4062 18.2656 45.4062 27.9844
M54.3906 6.78125
Q54.3906 -7.17188 48.1875 -13.9844
Q42 -20.7969 29.2031 -20.7969
Q24.4688 -20.7969 20.2656 -20.0938
Q16.0625 -19.3906 12.1094 -17.9219
L12.1094 -9.1875
Q16.0625 -11.3281 19.9219 -12.3438
Q23.7812 -13.375 27.7812 -13.375
Q36.625 -13.375 41.0156 -8.76562
Q45.4062 -4.15625 45.4062 5.17188
L45.4062 9.625
Q42.625 4.78125 38.2812 2.39062
Q33.9375 0 27.875 0
Q17.8281 0 11.6719 7.65625
Q5.51562 15.3281 5.51562 27.9844
Q5.51562 40.6719 11.6719 48.3281
Q17.8281 56 27.875 56
Q33.9375 56 38.2812 53.6094
Q42.625 51.2188 45.4062 46.3906
L45.4062 54.6875
L54.3906 54.6875
z
" id="BitstreamVeraSans-Roman-67"/>
      </defs>
      <g transform="translate(270.57794951 348.596064904)rotate(-30.0)scale(0.1 -0.1)">
       <use xlink:href="#BitstreamVeraSans-Roman-41"/>
       <use x="68.408203125" xlink:href="#BitstreamVeraSans-Roman-75"/>
       <use x="131.787109375" xlink:href="#BitstreamVeraSans-Roman-67"/>
       <use x="195.263671875" xlink:href="#BitstreamVeraSans-Roman-20"/>
       <use x="227.05078125" xlink:href="#BitstreamVeraSans-Roman-32"/>
       <use x="290.673828125" xlink:href="#BitstreamVeraSans-Roman-30"/>
       <use x="354.296875" xlink:href="#BitstreamVeraSans-Roman-31"/>
       <use x="417.919921875" xlink:href="#BitstreamVeraSans-Roman-32"/>
      </g>
     </g>
    </g>
    <g id="xtick_9">
     <g id="line2d_26">
      <path clip-path="url(#pd45558ca38)" d="
M350.686 314.439
L350.686 12.0391" style="fill:none;stroke:#000000;stroke-dasharray:1.000000,3.000000;stroke-dashoffset:0.0;stroke-width:0.5;"/>
     </g>
     <g id="line2d_27">
      <g>
       <use style="stroke:#000000;stroke-width:0.5;" x="350.685622242" xlink:href="#m93b0483c22" y="314.4390625"/>
      </g>
     </g>
     <g id="line2d_28">
      <g>
       <use style="stroke:#000000;stroke-width:0.5;" x="350.685622242" xlink:href="#m741efc42ff" y="12.0390625"/>
      </g>
     </g>
     <g id="text_9">
      <!-- Sep 2012 -->
      <defs>
       <path d="
M53.5156 70.5156
L53.5156 60.8906
Q47.9062 63.5781 42.9219 64.8906
Q37.9375 66.2188 33.2969 66.2188
Q25.25 66.2188 20.875 63.0938
Q16.5 59.9688 16.5 54.2031
Q16.5 49.3594 19.4062 46.8906
Q22.3125 44.4375 30.4219 42.9219
L36.375 41.7031
Q47.4062 39.5938 52.6562 34.2969
Q57.9062 29 57.9062 20.125
Q57.9062 9.51562 50.7969 4.04688
Q43.7031 -1.42188 29.9844 -1.42188
Q24.8125 -1.42188 18.9688 -0.25
Q13.1406 0.921875 6.89062 3.21875
L6.89062 13.375
Q12.8906 10.0156 18.6562 8.29688
Q24.4219 6.59375 29.9844 6.59375
Q38.4219 6.59375 43.0156 9.90625
Q47.6094 13.2344 47.6094 19.3906
Q47.6094 24.75 44.3125 27.7812
Q41.0156 30.8125 33.5 32.3281
L27.4844 33.5
Q16.4531 35.6875 11.5156 40.375
Q6.59375 45.0625 6.59375 53.4219
Q6.59375 63.0938 13.4062 68.6562
Q20.2188 74.2188 32.1719 74.2188
Q37.3125 74.2188 42.625 73.2812
Q47.9531 72.3594 53.5156 70.5156" id="BitstreamVeraSans-Roman-53"/>
      </defs>
      <g transform="translate(309.395894687 348.257783654)rotate(-30.0)scale(0.1 -0.1)">
       <use xlink:href="#BitstreamVeraSans-Roman-53"/>
       <use x="63.4765625" xlink:href="#BitstreamVeraSans-Roman-65"/>
       <use x="125.0" xlink:href="#BitstreamVeraSans-Roman-70"/>
       <use x="188.4765625" xlink:href="#BitstreamVeraSans-Roman-20"/>
       <use x="220.263671875" xlink:href="#BitstreamVeraSans-Roman-32"/>
       <use x="283.88671875" xlink:href="#BitstreamVeraSans-Roman-30"/>
       <use x="347.509765625" xlink:href="#BitstreamVeraSans-Roman-31"/>
       <use x="411.1328125" xlink:href="#BitstreamVeraSans-Roman-32"/>
      </g>
     </g>
    </g>
    <g id="xtick_10">
     <g id="line2d_29">
      <path clip-path="url(#pd45558ca38)" d="
M387.684 314.439
L387.684 12.0391" style="fill:none;stroke:#000000;stroke-dasharray:1.000000,3.000000;stroke-dashoffset:0.0;stroke-width:0.5;"/>
     </g>
     <g id="line2d_30">
      <g>
       <use style="stroke:#000000;stroke-width:0.5;" x="387.684355982" xlink:href="#m93b0483c22" y="314.4390625"/>
      </g>
     </g>
     <g id="line2d_31">
      <g>
       <use style="stroke:#000000;stroke-width:0.5;" x="387.684355982" xlink:href="#m741efc42ff" y="12.0390625"/>
      </g>
     </g>
     <g id="text_10">
      <!-- Oct 2012 -->
      <defs>
       <path d="
M39.4062 66.2188
Q28.6562 66.2188 22.3281 58.2031
Q16.0156 50.2031 16.0156 36.375
Q16.0156 22.6094 22.3281 14.5938
Q28.6562 6.59375 39.4062 6.59375
Q50.1406 6.59375 56.4219 14.5938
Q62.7031 22.6094 62.7031 36.375
Q62.7031 50.2031 56.4219 58.2031
Q50.1406 66.2188 39.4062 66.2188
M39.4062 74.2188
Q54.7344 74.2188 63.9062 63.9375
Q73.0938 53.6562 73.0938 36.375
Q73.0938 19.1406 63.9062 8.85938
Q54.7344 -1.42188 39.4062 -1.42188
Q24.0312 -1.42188 14.8125 8.82812
Q5.60938 19.0938 5.60938 36.375
Q5.60938 53.6562 14.8125 63.9375
Q24.0312 74.2188 39.4062 74.2188" id="BitstreamVeraSans-Roman-4f"/>
       <path d="
M18.3125 70.2188
L18.3125 54.6875
L36.8125 54.6875
L36.8125 47.7031
L18.3125 47.7031
L18.3125 18.0156
Q18.3125 11.3281 20.1406 9.42188
Q21.9688 7.51562 27.5938 7.51562
L36.8125 7.51562
L36.8125 0
L27.5938 0
Q17.1875 0 13.2344 3.875
Q9.28125 7.76562 9.28125 18.0156
L9.28125 47.7031
L2.6875 47.7031
L2.6875 54.6875
L9.28125 54.6875
L9.28125 70.2188
z
" id="BitstreamVeraSans-Roman-74"/>
       <path d="
M48.7812 52.5938
L48.7812 44.1875
Q44.9688 46.2969 41.1406 47.3438
Q37.3125 48.3906 33.4062 48.3906
Q24.6562 48.3906 19.8125 42.8438
Q14.9844 37.3125 14.9844 27.2969
Q14.9844 17.2812 19.8125 11.7344
Q24.6562 6.20312 33.4062 6.20312
Q37.3125 6.20312 41.1406 7.25
Q44.9688 8.29688 48.7812 10.4062
L48.7812 2.09375
Q45.0156 0.34375 40.9844 -0.53125
Q36.9688 -1.42188 32.4219 -1.42188
Q20.0625 -1.42188 12.7812 6.34375
Q5.51562 14.1094 5.51562 27.2969
Q5.51562 40.6719 12.8594 48.3281
Q20.2188 56 33.0156 56
Q37.1562 56 41.1094 55.1406
Q45.0625 54.2969 48.7812 52.5938" id="BitstreamVeraSans-Roman-63"/>
      </defs>
      <g transform="translate(347.745086791 347.478096154)rotate(-30.0)scale(0.1 -0.1)">
       <use xlink:href="#BitstreamVeraSans-Roman-4f"/>
       <use x="78.7109375" xlink:href="#BitstreamVeraSans-Roman-63"/>
       <use x="133.69140625" xlink:href="#BitstreamVeraSans-Roman-74"/>
       <use x="172.900390625" xlink:href="#BitstreamVeraSans-Roman-20"/>
       <use x="204.6875" xlink:href="#BitstreamVeraSans-Roman-32"/>
       <use x="268.310546875" xlink:href="#BitstreamVeraSans-Roman-30"/>
       <use x="331.93359375" xlink:href="#BitstreamVeraSans-Roman-31"/>
       <use x="395.556640625" xlink:href="#BitstreamVeraSans-Roman-32"/>
      </g>
     </g>
    </g>
    <g id="xtick_11">
     <g id="line2d_32">
      <path clip-path="url(#pd45558ca38)" d="
M425.916 314.439
L425.916 12.0391" style="fill:none;stroke:#000000;stroke-dasharray:1.000000,3.000000;stroke-dashoffset:0.0;stroke-width:0.5;"/>
     </g>
     <g id="line2d_33">
      <g>
       <use style="stroke:#000000;stroke-width:0.5;" x="425.916380847" xlink:href="#m93b0483c22" y="314.4390625"/>
      </g>
     </g>
     <g id="line2d_34">
      <g>
       <use style="stroke:#000000;stroke-width:0.5;" x="425.916380847" xlink:href="#m741efc42ff" y="12.0390625"/>
      </g>
     </g>
     <g id="text_11">
      <!-- Nov 2012 -->
      <defs>
       <path d="
M2.98438 54.6875
L12.5 54.6875
L29.5938 8.79688
L46.6875 54.6875
L56.2031 54.6875
L35.6875 0
L23.4844 0
z
" id="BitstreamVeraSans-Roman-76"/>
       <path d="
M9.8125 72.9062
L23.0938 72.9062
L55.4219 11.9219
L55.4219 72.9062
L64.9844 72.9062
L64.9844 0
L51.7031 0
L19.3906 60.9844
L19.3906 0
L9.8125 0
z
" id="BitstreamVeraSans-Roman-4e"/>
       <path d="
M30.6094 48.3906
Q23.3906 48.3906 19.1875 42.75
Q14.9844 37.1094 14.9844 27.2969
Q14.9844 17.4844 19.1562 11.8438
Q23.3438 6.20312 30.6094 6.20312
Q37.7969 6.20312 41.9844 11.8594
Q46.1875 17.5312 46.1875 27.2969
Q46.1875 37.0156 41.9844 42.7031
Q37.7969 48.3906 30.6094 48.3906
M30.6094 56
Q42.3281 56 49.0156 48.375
Q55.7188 40.7656 55.7188 27.2969
Q55.7188 13.875 49.0156 6.21875
Q42.3281 -1.42188 30.6094 -1.42188
Q18.8438 -1.42188 12.1719 6.21875
Q5.51562 13.875 5.51562 27.2969
Q5.51562 40.7656 12.1719 48.375
Q18.8438 56 30.6094 56" id="BitstreamVeraSans-Roman-6f"/>
      </defs>
      <g transform="translate(384.047498803 348.592158654)rotate(-30.0)scale(0.1 -0.1)">
       <use xlink:href="#BitstreamVeraSans-Roman-4e"/>
       <use x="74.8046875" xlink:href="#BitstreamVeraSans-Roman-6f"/>
       <use x="135.986328125" xlink:href="#BitstreamVeraSans-Roman-76"/>
       <use x="195.166015625" xlink:href="#BitstreamVeraSans-Roman-20"/>
       <use x="226.953125" xlink:href="#BitstreamVeraSans-Roman-32"/>
       <use x="290.576171875" xlink:href="#BitstreamVeraSans-Roman-30"/>
       <use x="354.19921875" xlink:href="#BitstreamVeraSans-Roman-31"/>
       <use x="417.822265625" xlink:href="#BitstreamVeraSans-Roman-32"/>
      </g>
     </g>
    </g>
    <g id="xtick_12">
     <g id="line2d_35">
      <path clip-path="url(#pd45558ca38)" d="
M462.915 314.439
L462.915 12.0391" style="fill:none;stroke:#000000;stroke-dasharray:1.000000,3.000000;stroke-dashoffset:0.0;stroke-width:0.5;"/>
     </g>
     <g id="line2d_36">
      <g>
       <use style="stroke:#000000;stroke-width:0.5;" x="462.915114587" xlink:href="#m93b0483c22" y="314.4390625"/>
      </g>
     </g>
     <g id="line2d_37">
      <g>
       <use style="stroke:#000000;stroke-width:0.5;" x="462.915114587" xlink:href="#m741efc42ff" y="12.0390625"/>
      </g>
     </g>
     <g id="text_12">
      <!-- Dec 2012 -->
      <defs>
       <path d="
M19.6719 64.7969
L19.6719 8.10938
L31.5938 8.10938
Q46.6875 8.10938 53.6875 14.9375
Q60.6875 21.7812 60.6875 36.5312
Q60.6875 51.1719 53.6875 57.9844
Q46.6875 64.7969 31.5938 64.7969
z

M9.8125 72.9062
L30.0781 72.9062
Q51.2656 72.9062 61.1719 64.0938
Q71.0938 55.2812 71.0938 36.5312
Q71.0938 17.6719 61.125 8.82812
Q51.1719 0 30.0781 0
L9.8125 0
z
" id="BitstreamVeraSans-Roman-44"/>
      </defs>
      <g transform="translate(421.191021165 348.508564904)rotate(-30.0)scale(0.1 -0.1)">
       <use xlink:href="#BitstreamVeraSans-Roman-44"/>
       <use x="77.001953125" xlink:href="#BitstreamVeraSans-Roman-65"/>
       <use x="138.525390625" xlink:href="#BitstreamVeraSans-Roman-63"/>
       <use x="193.505859375" xlink:href="#BitstreamVeraSans-Roman-20"/>
       <use x="225.29296875" xlink:href="#BitstreamVeraSans-Roman-32"/>
       <use x="288.916015625" xlink:href="#BitstreamVeraSans-Roman-30"/>
       <use x="352.5390625" xlink:href="#BitstreamVeraSans-Roman-31"/>
       <use x="416.162109375" xlink:href="#BitstreamVeraSans-Roman-32"/>
      </g>
     </g>
    </g>
    <g id="text_13">
     <!-- Delivery Day_Hour -->
     <defs>
      <path d="
M9.42188 54.6875
L18.4062 54.6875
L18.4062 0
L9.42188 0
z

M9.42188 75.9844
L18.4062 75.9844
L18.4062 64.5938
L9.42188 64.5938
z
" id="BitstreamVeraSans-Roman-69"/>
      <path d="
M50.9844 -16.6094
L50.9844 -23.5781
L-0.984375 -23.5781
L-0.984375 -16.6094
z
" id="BitstreamVeraSans-Roman-5f"/>
      <path d="
M9.8125 72.9062
L19.6719 72.9062
L19.6719 43.0156
L55.5156 43.0156
L55.5156 72.9062
L65.375 72.9062
L65.375 0
L55.5156 0
L55.5156 34.7188
L19.6719 34.7188
L19.6719 0
L9.8125 0
z
" id="BitstreamVeraSans-Roman-48"/>
     </defs>
     <g transform="translate(226.200869073 363.847908361)scale(0.1 -0.1)">
      <use xlink:href="#BitstreamVeraSans-Roman-44"/>
      <use x="77.001953125" xlink:href="#BitstreamVeraSans-Roman-65"/>
      <use x="138.525390625" xlink:href="#BitstreamVeraSans-Roman-6c"/>
      <use x="166.30859375" xlink:href="#BitstreamVeraSans-Roman-69"/>
      <use x="194.091796875" xlink:href="#BitstreamVeraSans-Roman-76"/>
      <use x="253.271484375" xlink:href="#BitstreamVeraSans-Roman-65"/>
      <use x="314.794921875" xlink:href="#BitstreamVeraSans-Roman-72"/>
      <use x="355.908203125" xlink:href="#BitstreamVeraSans-Roman-79"/>
      <use x="415.087890625" xlink:href="#BitstreamVeraSans-Roman-20"/>
      <use x="446.875" xlink:href="#BitstreamVeraSans-Roman-44"/>
      <use x="523.876953125" xlink:href="#BitstreamVeraSans-Roman-61"/>
      <use x="585.15625" xlink:href="#BitstreamVeraSans-Roman-79"/>
      <use x="644.3359375" xlink:href="#BitstreamVeraSans-Roman-5f"/>
      <use x="694.3359375" xlink:href="#BitstreamVeraSans-Roman-48"/>
      <use x="769.53125" xlink:href="#BitstreamVeraSans-Roman-6f"/>
      <use x="830.712890625" xlink:href="#BitstreamVeraSans-Roman-75"/>
      <use x="894.091796875" xlink:href="#BitstreamVeraSans-Roman-72"/>
     </g>
     <!-- from -->
     <defs>
      <path d="
M52 44.1875
Q55.375 50.25 60.0625 53.125
Q64.75 56 71.0938 56
Q79.6406 56 84.2812 50.0156
Q88.9219 44.0469 88.9219 33.0156
L88.9219 0
L79.8906 0
L79.8906 32.7188
Q79.8906 40.5781 77.0938 44.375
Q74.3125 48.1875 68.6094 48.1875
Q61.625 48.1875 57.5625 43.5469
Q53.5156 38.9219 53.5156 30.9062
L53.5156 0
L44.4844 0
L44.4844 32.7188
Q44.4844 40.625 41.7031 44.4062
Q38.9219 48.1875 33.1094 48.1875
Q26.2188 48.1875 22.1562 43.5312
Q18.1094 38.875 18.1094 30.9062
L18.1094 0
L9.07812 0
L9.07812 54.6875
L18.1094 54.6875
L18.1094 46.1875
Q21.1875 51.2188 25.4844 53.6094
Q29.7812 56 35.6875 56
Q41.6562 56 45.8281 52.9688
Q50 49.9531 52 44.1875" id="BitstreamVeraSans-Roman-6d"/>
      <path d="
M37.1094 75.9844
L37.1094 68.5
L28.5156 68.5
Q23.6875 68.5 21.7969 66.5469
Q19.9219 64.5938 19.9219 59.5156
L19.9219 54.6875
L34.7188 54.6875
L34.7188 47.7031
L19.9219 47.7031
L19.9219 0
L10.8906 0
L10.8906 47.7031
L2.29688 47.7031
L2.29688 54.6875
L10.8906 54.6875
L10.8906 58.5
Q10.8906 67.625 15.1406 71.7969
Q19.3906 75.9844 28.6094 75.9844
z
" id="BitstreamVeraSans-Roman-66"/>
     </defs>
     <g transform="translate(261.868837823 375.323845861)scale(0.1 -0.1)">
      <use xlink:href="#BitstreamVeraSans-Roman-66"/>
      <use x="35.205078125" xlink:href="#BitstreamVeraSans-Roman-72"/>
      <use x="74.068359375" xlink:href="#BitstreamVeraSans-Roman-6f"/>
      <use x="135.25" xlink:href="#BitstreamVeraSans-Roman-6d"/>
     </g>
    </g>
   </g>
   <g id="matplotlib.axis_2">
    <g id="ytick_1">
     <g id="line2d_38">
      <path clip-path="url(#pd45558ca38)" d="
M49.7626 314.439
L496.163 314.439" style="fill:none;stroke:#000000;stroke-dasharray:1.000000,3.000000;stroke-dashoffset:0.0;stroke-width:0.5;"/>
     </g>
     <g id="line2d_39">
      <defs>
       <path d="
M0 0
L4 0" id="m728421d6d4" style="stroke:#000000;stroke-width:0.5;"/>
      </defs>
      <g>
       <use style="stroke:#000000;stroke-width:0.5;" x="49.762587823" xlink:href="#m728421d6d4" y="314.4390625"/>
      </g>
     </g>
     <g id="line2d_40">
      <defs>
       <path d="
M0 0
L-4 0" id="mcb0005524f" style="stroke:#000000;stroke-width:0.5;"/>
      </defs>
      <g>
       <use style="stroke:#000000;stroke-width:0.5;" x="496.162587823" xlink:href="#mcb0005524f" y="314.4390625"/>
      </g>
     </g>
     <g id="text_14">
      <!-- 0.2 -->
      <defs>
       <path d="
M10.5938 35.5
L73.1875 35.5
L73.1875 27.2031
L10.5938 27.2031
z
" id="BitstreamVeraSans-Roman-2212"/>
       <path d="
M10.6875 12.4062
L21 12.4062
L21 0
L10.6875 0
z
" id="BitstreamVeraSans-Roman-2e"/>
      </defs>
      <g transform="translate(23.540712823 317.1984375)scale(0.1 -0.1)">
       <use xlink:href="#BitstreamVeraSans-Roman-2212"/>
       <use x="83.7890625" xlink:href="#BitstreamVeraSans-Roman-30"/>
       <use x="147.412109375" xlink:href="#BitstreamVeraSans-Roman-2e"/>
       <use x="179.19921875" xlink:href="#BitstreamVeraSans-Roman-32"/>
      </g>
     </g>
    </g>
    <g id="ytick_2">
     <g id="line2d_41">
      <path clip-path="url(#pd45558ca38)" d="
M49.7626 264.039
L496.163 264.039" style="fill:none;stroke:#000000;stroke-dasharray:1.000000,3.000000;stroke-dashoffset:0.0;stroke-width:0.5;"/>
     </g>
     <g id="line2d_42">
      <g>
       <use style="stroke:#000000;stroke-width:0.5;" x="49.762587823" xlink:href="#m728421d6d4" y="264.0390625"/>
      </g>
     </g>
     <g id="line2d_43">
      <g>
       <use style="stroke:#000000;stroke-width:0.5;" x="496.162587823" xlink:href="#mcb0005524f" y="264.0390625"/>
      </g>
     </g>
     <g id="text_15">
      <!-- 0.0 -->
      <g transform="translate(31.182900323 266.7984375)scale(0.1 -0.1)">
       <use xlink:href="#BitstreamVeraSans-Roman-30"/>
       <use x="63.623046875" xlink:href="#BitstreamVeraSans-Roman-2e"/>
       <use x="95.41015625" xlink:href="#BitstreamVeraSans-Roman-30"/>
      </g>
     </g>
    </g>
    <g id="ytick_3">
     <g id="line2d_44">
      <path clip-path="url(#pd45558ca38)" d="
M49.7626 213.639
L496.163 213.639" style="fill:none;stroke:#000000;stroke-dasharray:1.000000,3.000000;stroke-dashoffset:0.0;stroke-width:0.5;"/>
     </g>
     <g id="line2d_45">
      <g>
       <use style="stroke:#000000;stroke-width:0.5;" x="49.762587823" xlink:href="#m728421d6d4" y="213.6390625"/>
      </g>
     </g>
     <g id="line2d_46">
      <g>
       <use style="stroke:#000000;stroke-width:0.5;" x="496.162587823" xlink:href="#mcb0005524f" y="213.6390625"/>
      </g>
     </g>
     <g id="text_16">
      <!-- 0.2 -->
      <g transform="translate(31.520400323 216.3984375)scale(0.1 -0.1)">
       <use xlink:href="#BitstreamVeraSans-Roman-30"/>
       <use x="63.623046875" xlink:href="#BitstreamVeraSans-Roman-2e"/>
       <use x="95.41015625" xlink:href="#BitstreamVeraSans-Roman-32"/>
      </g>
     </g>
    </g>
    <g id="ytick_4">
     <g id="line2d_47">
      <path clip-path="url(#pd45558ca38)" d="
M49.7626 163.239
L496.163 163.239" style="fill:none;stroke:#000000;stroke-dasharray:1.000000,3.000000;stroke-dashoffset:0.0;stroke-width:0.5;"/>
     </g>
     <g id="line2d_48">
      <g>
       <use style="stroke:#000000;stroke-width:0.5;" x="49.762587823" xlink:href="#m728421d6d4" y="163.2390625"/>
      </g>
     </g>
     <g id="line2d_49">
      <g>
       <use style="stroke:#000000;stroke-width:0.5;" x="496.162587823" xlink:href="#mcb0005524f" y="163.2390625"/>
      </g>
     </g>
     <g id="text_17">
      <!-- 0.4 -->
      <defs>
       <path d="
M37.7969 64.3125
L12.8906 25.3906
L37.7969 25.3906
z

M35.2031 72.9062
L47.6094 72.9062
L47.6094 25.3906
L58.0156 25.3906
L58.0156 17.1875
L47.6094 17.1875
L47.6094 0
L37.7969 0
L37.7969 17.1875
L4.89062 17.1875
L4.89062 26.7031
z
" id="BitstreamVeraSans-Roman-34"/>
      </defs>
      <g transform="translate(31.079775323 165.9984375)scale(0.1 -0.1)">
       <use xlink:href="#BitstreamVeraSans-Roman-30"/>
       <use x="63.623046875" xlink:href="#BitstreamVeraSans-Roman-2e"/>
       <use x="95.41015625" xlink:href="#BitstreamVeraSans-Roman-34"/>
      </g>
     </g>
    </g>
    <g id="ytick_5">
     <g id="line2d_50">
      <path clip-path="url(#pd45558ca38)" d="
M49.7626 112.839
L496.163 112.839" style="fill:none;stroke:#000000;stroke-dasharray:1.000000,3.000000;stroke-dashoffset:0.0;stroke-width:0.5;"/>
     </g>
     <g id="line2d_51">
      <g>
       <use style="stroke:#000000;stroke-width:0.5;" x="49.762587823" xlink:href="#m728421d6d4" y="112.8390625"/>
      </g>
     </g>
     <g id="line2d_52">
      <g>
       <use style="stroke:#000000;stroke-width:0.5;" x="496.162587823" xlink:href="#mcb0005524f" y="112.8390625"/>
      </g>
     </g>
     <g id="text_18">
      <!-- 0.6 -->
      <defs>
       <path d="
M33.0156 40.375
Q26.375 40.375 22.4844 35.8281
Q18.6094 31.2969 18.6094 23.3906
Q18.6094 15.5312 22.4844 10.9531
Q26.375 6.39062 33.0156 6.39062
Q39.6562 6.39062 43.5312 10.9531
Q47.4062 15.5312 47.4062 23.3906
Q47.4062 31.2969 43.5312 35.8281
Q39.6562 40.375 33.0156 40.375
M52.5938 71.2969
L52.5938 62.3125
Q48.875 64.0625 45.0938 64.9844
Q41.3125 65.9219 37.5938 65.9219
Q27.8281 65.9219 22.6719 59.3281
Q17.5312 52.7344 16.7969 39.4062
Q19.6719 43.6562 24.0156 45.9219
Q28.375 48.1875 33.5938 48.1875
Q44.5781 48.1875 50.9531 41.5156
Q57.3281 34.8594 57.3281 23.3906
Q57.3281 12.1562 50.6875 5.35938
Q44.0469 -1.42188 33.0156 -1.42188
Q20.3594 -1.42188 13.6719 8.26562
Q6.98438 17.9688 6.98438 36.375
Q6.98438 53.6562 15.1875 63.9375
Q23.3906 74.2188 37.2031 74.2188
Q40.9219 74.2188 44.7031 73.4844
Q48.4844 72.75 52.5938 71.2969" id="BitstreamVeraSans-Roman-36"/>
      </defs>
      <g transform="translate(31.148525323 115.5984375)scale(0.1 -0.1)">
       <use xlink:href="#BitstreamVeraSans-Roman-30"/>
       <use x="63.623046875" xlink:href="#BitstreamVeraSans-Roman-2e"/>
       <use x="95.41015625" xlink:href="#BitstreamVeraSans-Roman-36"/>
      </g>
     </g>
    </g>
    <g id="ytick_6">
     <g id="line2d_53">
      <path clip-path="url(#pd45558ca38)" d="
M49.7626 62.4391
L496.163 62.4391" style="fill:none;stroke:#000000;stroke-dasharray:1.000000,3.000000;stroke-dashoffset:0.0;stroke-width:0.5;"/>
     </g>
     <g id="line2d_54">
      <g>
       <use style="stroke:#000000;stroke-width:0.5;" x="49.762587823" xlink:href="#m728421d6d4" y="62.4390625"/>
      </g>
     </g>
     <g id="line2d_55">
      <g>
       <use style="stroke:#000000;stroke-width:0.5;" x="496.162587823" xlink:href="#mcb0005524f" y="62.4390625"/>
      </g>
     </g>
     <g id="text_19">
      <!-- 0.8 -->
      <defs>
       <path d="
M31.7812 34.625
Q24.75 34.625 20.7188 30.8594
Q16.7031 27.0938 16.7031 20.5156
Q16.7031 13.9219 20.7188 10.1562
Q24.75 6.39062 31.7812 6.39062
Q38.8125 6.39062 42.8594 10.1719
Q46.9219 13.9688 46.9219 20.5156
Q46.9219 27.0938 42.8906 30.8594
Q38.875 34.625 31.7812 34.625
M21.9219 38.8125
Q15.5781 40.375 12.0312 44.7188
Q8.5 49.0781 8.5 55.3281
Q8.5 64.0625 14.7188 69.1406
Q20.9531 74.2188 31.7812 74.2188
Q42.6719 74.2188 48.875 69.1406
Q55.0781 64.0625 55.0781 55.3281
Q55.0781 49.0781 51.5312 44.7188
Q48 40.375 41.7031 38.8125
Q48.8281 37.1562 52.7969 32.3125
Q56.7812 27.4844 56.7812 20.5156
Q56.7812 9.90625 50.3125 4.23438
Q43.8438 -1.42188 31.7812 -1.42188
Q19.7344 -1.42188 13.25 4.23438
Q6.78125 9.90625 6.78125 20.5156
Q6.78125 27.4844 10.7812 32.3125
Q14.7969 37.1562 21.9219 38.8125
M18.3125 54.3906
Q18.3125 48.7344 21.8438 45.5625
Q25.3906 42.3906 31.7812 42.3906
Q38.1406 42.3906 41.7188 45.5625
Q45.3125 48.7344 45.3125 54.3906
Q45.3125 60.0625 41.7188 63.2344
Q38.1406 66.4062 31.7812 66.4062
Q25.3906 66.4062 21.8438 63.2344
Q18.3125 60.0625 18.3125 54.3906" id="BitstreamVeraSans-Roman-38"/>
      </defs>
      <g transform="translate(31.203212823 65.1984375)scale(0.1 -0.1)">
       <use xlink:href="#BitstreamVeraSans-Roman-30"/>
       <use x="63.623046875" xlink:href="#BitstreamVeraSans-Roman-2e"/>
       <use x="95.41015625" xlink:href="#BitstreamVeraSans-Roman-38"/>
      </g>
     </g>
    </g>
    <g id="ytick_7">
     <g id="line2d_56">
      <path clip-path="url(#pd45558ca38)" d="
M49.7626 12.0391
L496.163 12.0391" style="fill:none;stroke:#000000;stroke-dasharray:1.000000,3.000000;stroke-dashoffset:0.0;stroke-width:0.5;"/>
     </g>
     <g id="line2d_57">
      <g>
       <use style="stroke:#000000;stroke-width:0.5;" x="49.762587823" xlink:href="#m728421d6d4" y="12.0390625"/>
      </g>
     </g>
     <g id="line2d_58">
      <g>
       <use style="stroke:#000000;stroke-width:0.5;" x="496.162587823" xlink:href="#mcb0005524f" y="12.0390625"/>
      </g>
     </g>
     <g id="text_20">
      <!-- 1.0 -->
      <g transform="translate(31.621962823 14.7984375)scale(0.1 -0.1)">
       <use xlink:href="#BitstreamVeraSans-Roman-31"/>
       <use x="63.623046875" xlink:href="#BitstreamVeraSans-Roman-2e"/>
       <use x="95.41015625" xlink:href="#BitstreamVeraSans-Roman-30"/>
      </g>
     </g>
    </g>
   </g>
  </g>
 </g>
 <defs>
  <clipPath id="pd45558ca38">
   <rect height="302.4" width="446.4" x="49.762587823" y="12.0390625"/>
  </clipPath>
 </defs>
</svg>
