<?xml version="1.0" encoding="utf-8" standalone="no"?>
<!DOCTYPE svg PUBLIC "-//W3C//DTD SVG 1.1//EN"
  "http://www.w3.org/Graphics/SVG/1.1/DTD/svg11.dtd">
<!-- Created with matplotlib (http://matplotlib.org/) -->
<svg height="351pt" version="1.1" viewBox="0 0 490 351" width="490pt" xmlns="http://www.w3.org/2000/svg" xmlns:xlink="http://www.w3.org/1999/xlink">
 <defs>
  <style type="text/css">
*{stroke-linecap:butt;stroke-linejoin:round;}
  </style>
 </defs>
 <g id="figure_1">
  <g id="patch_1">
   <path d="
M0 351.838
L490.462 351.838
L490.462 0
L0 0
z
" style="fill:#ffffff;"/>
  </g>
  <g id="axes_1">
   <g id="patch_2">
    <path d="
M36.8625 289.239
L483.262 289.239
L483.262 12.0391
L36.8625 12.0391
z
" style="fill:#eaeaf2;"/>
   </g>
   <g id="matplotlib.axis_1">
    <g id="xtick_1">
     <g id="line2d_1">
      <path clip-path="url(#p6e2fea4c25)" d="
M62.0168 289.239
L62.0168 12.0391" style="fill:none;stroke:#ffffff;stroke-linecap:round;"/>
     </g>
     <g id="line2d_2">
      <defs>
       <path d="
M0 0
L0 0" id="m219da94a98" style="stroke:#262626;"/>
      </defs>
      <g>
       <use style="fill:#262626;stroke:#262626;" x="62.0167857143" xlink:href="#m219da94a98" y="289.2390625"/>
      </g>
     </g>
     <g id="line2d_3">
      <g>
       <use style="fill:#262626;stroke:#262626;" x="62.0167857143" xlink:href="#m219da94a98" y="12.0390625"/>
      </g>
     </g>
     <g id="text_1">
      <!-- Sep 2011 -->
      <defs>
       <path d="
M19.1875 8.29688
L53.6094 8.29688
L53.6094 0
L7.32812 0
L7.32812 8.29688
Q12.9375 14.1094 22.625 23.8906
Q32.3281 33.6875 34.8125 36.5312
Q39.5469 41.8438 41.4219 45.5312
Q43.3125 49.2188 43.3125 52.7812
Q43.3125 58.5938 39.2344 62.25
Q35.1562 65.9219 28.6094 65.9219
Q23.9688 65.9219 18.8125 64.3125
Q13.6719 62.7031 7.8125 59.4219
L7.8125 69.3906
Q13.7656 71.7812 18.9375 73
Q24.125 74.2188 28.4219 74.2188
Q39.75 74.2188 46.4844 68.5469
Q53.2188 62.8906 53.2188 53.4219
Q53.2188 48.9219 51.5312 44.8906
Q49.8594 40.875 45.4062 35.4062
Q44.1875 33.9844 37.6406 27.2188
Q31.1094 20.4531 19.1875 8.29688" id="BitstreamVeraSans-Roman-32"/>
       <path id="BitstreamVeraSans-Roman-20"/>
       <path d="
M31.7812 66.4062
Q24.1719 66.4062 20.3281 58.9062
Q16.5 51.4219 16.5 36.375
Q16.5 21.3906 20.3281 13.8906
Q24.1719 6.39062 31.7812 6.39062
Q39.4531 6.39062 43.2812 13.8906
Q47.125 21.3906 47.125 36.375
Q47.125 51.4219 43.2812 58.9062
Q39.4531 66.4062 31.7812 66.4062
M31.7812 74.2188
Q44.0469 74.2188 50.5156 64.5156
Q56.9844 54.8281 56.9844 36.375
Q56.9844 17.9688 50.5156 8.26562
Q44.0469 -1.42188 31.7812 -1.42188
Q19.5312 -1.42188 13.0625 8.26562
Q6.59375 17.9688 6.59375 36.375
Q6.59375 54.8281 13.0625 64.5156
Q19.5312 74.2188 31.7812 74.2188" id="BitstreamVeraSans-Roman-30"/>
       <path d="
M12.4062 8.29688
L28.5156 8.29688
L28.5156 63.9219
L10.9844 60.4062
L10.9844 69.3906
L28.4219 72.9062
L38.2812 72.9062
L38.2812 8.29688
L54.3906 8.29688
L54.3906 0
L12.4062 0
z
" id="BitstreamVeraSans-Roman-31"/>
       <path d="
M53.5156 70.5156
L53.5156 60.8906
Q47.9062 63.5781 42.9219 64.8906
Q37.9375 66.2188 33.2969 66.2188
Q25.25 66.2188 20.875 63.0938
Q16.5 59.9688 16.5 54.2031
Q16.5 49.3594 19.4062 46.8906
Q22.3125 44.4375 30.4219 42.9219
L36.375 41.7031
Q47.4062 39.5938 52.6562 34.2969
Q57.9062 29 57.9062 20.125
Q57.9062 9.51562 50.7969 4.04688
Q43.7031 -1.42188 29.9844 -1.42188
Q24.8125 -1.42188 18.9688 -0.25
Q13.1406 0.921875 6.89062 3.21875
L6.89062 13.375
Q12.8906 10.0156 18.6562 8.29688
Q24.4219 6.59375 29.9844 6.59375
Q38.4219 6.59375 43.0156 9.90625
Q47.6094 13.2344 47.6094 19.3906
Q47.6094 24.75 44.3125 27.7812
Q41.0156 30.8125 33.5 32.3281
L27.4844 33.5
Q16.4531 35.6875 11.5156 40.375
Q6.59375 45.0625 6.59375 53.4219
Q6.59375 63.0938 13.4062 68.6562
Q20.2188 74.2188 32.1719 74.2188
Q37.3125 74.2188 42.625 73.2812
Q47.9531 72.3594 53.5156 70.5156" id="BitstreamVeraSans-Roman-53"/>
       <path d="
M56.2031 29.5938
L56.2031 25.2031
L14.8906 25.2031
Q15.4844 15.9219 20.4844 11.0625
Q25.4844 6.20312 34.4219 6.20312
Q39.5938 6.20312 44.4531 7.46875
Q49.3125 8.73438 54.1094 11.2812
L54.1094 2.78125
Q49.2656 0.734375 44.1875 -0.34375
Q39.1094 -1.42188 33.8906 -1.42188
Q20.7969 -1.42188 13.1562 6.1875
Q5.51562 13.8125 5.51562 26.8125
Q5.51562 40.2344 12.7656 48.1094
Q20.0156 56 32.3281 56
Q43.3594 56 49.7812 48.8906
Q56.2031 41.7969 56.2031 29.5938
M47.2188 32.2344
Q47.125 39.5938 43.0938 43.9844
Q39.0625 48.3906 32.4219 48.3906
Q24.9062 48.3906 20.3906 44.1406
Q15.875 39.8906 15.1875 32.1719
z
" id="BitstreamVeraSans-Roman-65"/>
       <path d="
M18.1094 8.20312
L18.1094 -20.7969
L9.07812 -20.7969
L9.07812 54.6875
L18.1094 54.6875
L18.1094 46.3906
Q20.9531 51.2656 25.2656 53.625
Q29.5938 56 35.5938 56
Q45.5625 56 51.7812 48.0938
Q58.0156 40.1875 58.0156 27.2969
Q58.0156 14.4062 51.7812 6.48438
Q45.5625 -1.42188 35.5938 -1.42188
Q29.5938 -1.42188 25.2656 0.953125
Q20.9531 3.32812 18.1094 8.20312
M48.6875 27.2969
Q48.6875 37.2031 44.6094 42.8438
Q40.5312 48.4844 33.4062 48.4844
Q26.2656 48.4844 22.1875 42.8438
Q18.1094 37.2031 18.1094 27.2969
Q18.1094 17.3906 22.1875 11.75
Q26.2656 6.10938 33.4062 6.10938
Q40.5312 6.10938 44.6094 11.75
Q48.6875 17.3906 48.6875 27.2969" id="BitstreamVeraSans-Roman-70"/>
      </defs>
      <g style="fill:#262626;" transform="translate(20.659399924 326.096846154)rotate(-30.0)scale(0.1 -0.1)">
       <use xlink:href="#BitstreamVeraSans-Roman-53"/>
       <use x="63.4765625" xlink:href="#BitstreamVeraSans-Roman-65"/>
       <use x="125.0" xlink:href="#BitstreamVeraSans-Roman-70"/>
       <use x="188.4765625" xlink:href="#BitstreamVeraSans-Roman-20"/>
       <use x="220.263671875" xlink:href="#BitstreamVeraSans-Roman-32"/>
       <use x="283.88671875" xlink:href="#BitstreamVeraSans-Roman-30"/>
       <use x="347.509765625" xlink:href="#BitstreamVeraSans-Roman-31"/>
       <use x="411.1328125" xlink:href="#BitstreamVeraSans-Roman-31"/>
      </g>
     </g>
    </g>
    <g id="xtick_2">
     <g id="line2d_4">
      <path clip-path="url(#p6e2fea4c25)" d="
M105.24 289.239
L105.24 12.0391" style="fill:none;stroke:#ffffff;stroke-linecap:round;"/>
     </g>
     <g id="line2d_5">
      <g>
       <use style="fill:#262626;stroke:#262626;" x="105.239642857" xlink:href="#m219da94a98" y="289.2390625"/>
      </g>
     </g>
     <g id="line2d_6">
      <g>
       <use style="fill:#262626;stroke:#262626;" x="105.239642857" xlink:href="#m219da94a98" y="12.0390625"/>
      </g>
     </g>
     <g id="text_2">
      <!-- Jan 2012 -->
      <defs>
       <path d="
M54.8906 33.0156
L54.8906 0
L45.9062 0
L45.9062 32.7188
Q45.9062 40.4844 42.875 44.3281
Q39.8438 48.1875 33.7969 48.1875
Q26.5156 48.1875 22.3125 43.5469
Q18.1094 38.9219 18.1094 30.9062
L18.1094 0
L9.07812 0
L9.07812 54.6875
L18.1094 54.6875
L18.1094 46.1875
Q21.3438 51.125 25.7031 53.5625
Q30.0781 56 35.7969 56
Q45.2188 56 50.0469 50.1719
Q54.8906 44.3438 54.8906 33.0156" id="BitstreamVeraSans-Roman-6e"/>
       <path d="
M34.2812 27.4844
Q23.3906 27.4844 19.1875 25
Q14.9844 22.5156 14.9844 16.5
Q14.9844 11.7188 18.1406 8.90625
Q21.2969 6.10938 26.7031 6.10938
Q34.1875 6.10938 38.7031 11.4062
Q43.2188 16.7031 43.2188 25.4844
L43.2188 27.4844
z

M52.2031 31.2031
L52.2031 0
L43.2188 0
L43.2188 8.29688
Q40.1406 3.32812 35.5469 0.953125
Q30.9531 -1.42188 24.3125 -1.42188
Q15.9219 -1.42188 10.9531 3.29688
Q6 8.01562 6 15.9219
Q6 25.1406 12.1719 29.8281
Q18.3594 34.5156 30.6094 34.5156
L43.2188 34.5156
L43.2188 35.4062
Q43.2188 41.6094 39.1406 45
Q35.0625 48.3906 27.6875 48.3906
Q23 48.3906 18.5469 47.2656
Q14.1094 46.1406 10.0156 43.8906
L10.0156 52.2031
Q14.9375 54.1094 19.5781 55.0469
Q24.2188 56 28.6094 56
Q40.4844 56 46.3438 49.8438
Q52.2031 43.7031 52.2031 31.2031" id="BitstreamVeraSans-Roman-61"/>
       <path d="
M9.8125 72.9062
L19.6719 72.9062
L19.6719 5.07812
Q19.6719 -8.10938 14.6719 -14.0625
Q9.67188 -20.0156 -1.42188 -20.0156
L-5.17188 -20.0156
L-5.17188 -11.7188
L-2.09375 -11.7188
Q4.4375 -11.7188 7.125 -8.04688
Q9.8125 -4.39062 9.8125 5.07812
z
" id="BitstreamVeraSans-Roman-4a"/>
      </defs>
      <g style="fill:#262626;" transform="translate(66.4762737841 324.599189904)rotate(-30.0)scale(0.1 -0.1)">
       <use xlink:href="#BitstreamVeraSans-Roman-4a"/>
       <use x="29.4921875" xlink:href="#BitstreamVeraSans-Roman-61"/>
       <use x="90.771484375" xlink:href="#BitstreamVeraSans-Roman-6e"/>
       <use x="154.150390625" xlink:href="#BitstreamVeraSans-Roman-20"/>
       <use x="185.9375" xlink:href="#BitstreamVeraSans-Roman-32"/>
       <use x="249.560546875" xlink:href="#BitstreamVeraSans-Roman-30"/>
       <use x="313.18359375" xlink:href="#BitstreamVeraSans-Roman-31"/>
       <use x="376.806640625" xlink:href="#BitstreamVeraSans-Roman-32"/>
      </g>
     </g>
    </g>
    <g id="xtick_3">
     <g id="line2d_7">
      <path clip-path="url(#p6e2fea4c25)" d="
M148.108 289.239
L148.108 12.0391" style="fill:none;stroke:#ffffff;stroke-linecap:round;"/>
     </g>
     <g id="line2d_8">
      <g>
       <use style="fill:#262626;stroke:#262626;" x="148.108214286" xlink:href="#m219da94a98" y="289.2390625"/>
      </g>
     </g>
     <g id="line2d_9">
      <g>
       <use style="fill:#262626;stroke:#262626;" x="148.108214286" xlink:href="#m219da94a98" y="12.0390625"/>
      </g>
     </g>
     <g id="text_3">
      <!-- May 2012 -->
      <defs>
       <path d="
M9.8125 72.9062
L24.5156 72.9062
L43.1094 23.2969
L61.8125 72.9062
L76.5156 72.9062
L76.5156 0
L66.8906 0
L66.8906 64.0156
L48.0938 14.0156
L38.1875 14.0156
L19.3906 64.0156
L19.3906 0
L9.8125 0
z
" id="BitstreamVeraSans-Roman-4d"/>
       <path d="
M32.1719 -5.07812
Q28.375 -14.8438 24.75 -17.8125
Q21.1406 -20.7969 15.0938 -20.7969
L7.90625 -20.7969
L7.90625 -13.2812
L13.1875 -13.2812
Q16.8906 -13.2812 18.9375 -11.5156
Q21 -9.76562 23.4844 -3.21875
L25.0938 0.875
L2.98438 54.6875
L12.5 54.6875
L29.5938 11.9219
L46.6875 54.6875
L56.2031 54.6875
z
" id="BitstreamVeraSans-Roman-79"/>
      </defs>
      <g style="fill:#262626;" transform="translate(105.237990368 326.970283654)rotate(-30.0)scale(0.1 -0.1)">
       <use xlink:href="#BitstreamVeraSans-Roman-4d"/>
       <use x="86.279296875" xlink:href="#BitstreamVeraSans-Roman-61"/>
       <use x="147.55859375" xlink:href="#BitstreamVeraSans-Roman-79"/>
       <use x="206.73828125" xlink:href="#BitstreamVeraSans-Roman-20"/>
       <use x="238.525390625" xlink:href="#BitstreamVeraSans-Roman-32"/>
       <use x="302.1484375" xlink:href="#BitstreamVeraSans-Roman-30"/>
       <use x="365.771484375" xlink:href="#BitstreamVeraSans-Roman-31"/>
       <use x="429.39453125" xlink:href="#BitstreamVeraSans-Roman-32"/>
      </g>
     </g>
    </g>
    <g id="xtick_4">
     <g id="line2d_10">
      <path clip-path="url(#p6e2fea4c25)" d="
M191.685 289.239
L191.685 12.0391" style="fill:none;stroke:#ffffff;stroke-linecap:round;"/>
     </g>
     <g id="line2d_11">
      <g>
       <use style="fill:#262626;stroke:#262626;" x="191.685357143" xlink:href="#m219da94a98" y="289.2390625"/>
      </g>
     </g>
     <g id="line2d_12">
      <g>
       <use style="fill:#262626;stroke:#262626;" x="191.685357143" xlink:href="#m219da94a98" y="12.0390625"/>
      </g>
     </g>
     <g id="text_4">
      <!-- Sep 2012 -->
      <g style="fill:#262626;" transform="translate(150.395629587 326.057783654)rotate(-30.0)scale(0.1 -0.1)">
       <use xlink:href="#BitstreamVeraSans-Roman-53"/>
       <use x="63.4765625" xlink:href="#BitstreamVeraSans-Roman-65"/>
       <use x="125.0" xlink:href="#BitstreamVeraSans-Roman-70"/>
       <use x="188.4765625" xlink:href="#BitstreamVeraSans-Roman-20"/>
       <use x="220.263671875" xlink:href="#BitstreamVeraSans-Roman-32"/>
       <use x="283.88671875" xlink:href="#BitstreamVeraSans-Roman-30"/>
       <use x="347.509765625" xlink:href="#BitstreamVeraSans-Roman-31"/>
       <use x="411.1328125" xlink:href="#BitstreamVeraSans-Roman-32"/>
      </g>
     </g>
    </g>
    <g id="xtick_5">
     <g id="line2d_13">
      <path clip-path="url(#p6e2fea4c25)" d="
M234.908 289.239
L234.908 12.0391" style="fill:none;stroke:#ffffff;stroke-linecap:round;"/>
     </g>
     <g id="line2d_14">
      <g>
       <use style="fill:#262626;stroke:#262626;" x="234.908214286" xlink:href="#m219da94a98" y="289.2390625"/>
      </g>
     </g>
     <g id="line2d_15">
      <g>
       <use style="fill:#262626;stroke:#262626;" x="234.908214286" xlink:href="#m219da94a98" y="12.0390625"/>
      </g>
     </g>
     <g id="text_5">
      <!-- Jan 2013 -->
      <defs>
       <path d="
M40.5781 39.3125
Q47.6562 37.7969 51.625 33
Q55.6094 28.2188 55.6094 21.1875
Q55.6094 10.4062 48.1875 4.48438
Q40.7656 -1.42188 27.0938 -1.42188
Q22.5156 -1.42188 17.6562 -0.515625
Q12.7969 0.390625 7.625 2.20312
L7.625 11.7188
Q11.7188 9.32812 16.5938 8.10938
Q21.4844 6.89062 26.8125 6.89062
Q36.0781 6.89062 40.9375 10.5469
Q45.7969 14.2031 45.7969 21.1875
Q45.7969 27.6406 41.2812 31.2656
Q36.7656 34.9062 28.7188 34.9062
L20.2188 34.9062
L20.2188 43.0156
L29.1094 43.0156
Q36.375 43.0156 40.2344 45.9219
Q44.0938 48.8281 44.0938 54.2969
Q44.0938 59.9062 40.1094 62.9062
Q36.1406 65.9219 28.7188 65.9219
Q24.6562 65.9219 20.0156 65.0312
Q15.375 64.1562 9.8125 62.3125
L9.8125 71.0938
Q15.4375 72.6562 20.3438 73.4375
Q25.25 74.2188 29.5938 74.2188
Q40.8281 74.2188 47.3594 69.1094
Q53.9062 64.0156 53.9062 55.3281
Q53.9062 49.2656 50.4375 45.0938
Q46.9688 40.9219 40.5781 39.3125" id="BitstreamVeraSans-Roman-33"/>
      </defs>
      <g style="fill:#262626;" transform="translate(195.971640132 324.699189904)rotate(-30.0)scale(0.1 -0.1)">
       <use xlink:href="#BitstreamVeraSans-Roman-4a"/>
       <use x="29.4921875" xlink:href="#BitstreamVeraSans-Roman-61"/>
       <use x="90.771484375" xlink:href="#BitstreamVeraSans-Roman-6e"/>
       <use x="154.150390625" xlink:href="#BitstreamVeraSans-Roman-20"/>
       <use x="185.9375" xlink:href="#BitstreamVeraSans-Roman-32"/>
       <use x="249.560546875" xlink:href="#BitstreamVeraSans-Roman-30"/>
       <use x="313.18359375" xlink:href="#BitstreamVeraSans-Roman-31"/>
       <use x="376.806640625" xlink:href="#BitstreamVeraSans-Roman-33"/>
      </g>
     </g>
    </g>
    <g id="xtick_6">
     <g id="line2d_16">
      <path clip-path="url(#p6e2fea4c25)" d="
M277.422 289.239
L277.422 12.0391" style="fill:none;stroke:#ffffff;stroke-linecap:round;"/>
     </g>
     <g id="line2d_17">
      <g>
       <use style="fill:#262626;stroke:#262626;" x="277.4225" xlink:href="#m219da94a98" y="289.2390625"/>
      </g>
     </g>
     <g id="line2d_18">
      <g>
       <use style="fill:#262626;stroke:#262626;" x="277.4225" xlink:href="#m219da94a98" y="12.0390625"/>
      </g>
     </g>
     <g id="text_6">
      <!-- May 2013 -->
      <g style="fill:#262626;" transform="translate(234.379071002 327.070283654)rotate(-30.0)scale(0.1 -0.1)">
       <use xlink:href="#BitstreamVeraSans-Roman-4d"/>
       <use x="86.279296875" xlink:href="#BitstreamVeraSans-Roman-61"/>
       <use x="147.55859375" xlink:href="#BitstreamVeraSans-Roman-79"/>
       <use x="206.73828125" xlink:href="#BitstreamVeraSans-Roman-20"/>
       <use x="238.525390625" xlink:href="#BitstreamVeraSans-Roman-32"/>
       <use x="302.1484375" xlink:href="#BitstreamVeraSans-Roman-30"/>
       <use x="365.771484375" xlink:href="#BitstreamVeraSans-Roman-31"/>
       <use x="429.39453125" xlink:href="#BitstreamVeraSans-Roman-33"/>
      </g>
     </g>
    </g>
    <g id="xtick_7">
     <g id="line2d_19">
      <path clip-path="url(#p6e2fea4c25)" d="
M321 289.239
L321 12.0391" style="fill:none;stroke:#ffffff;stroke-linecap:round;"/>
     </g>
     <g id="line2d_20">
      <g>
       <use style="fill:#262626;stroke:#262626;" x="320.999642857" xlink:href="#m219da94a98" y="289.2390625"/>
      </g>
     </g>
     <g id="line2d_21">
      <g>
       <use style="fill:#262626;stroke:#262626;" x="320.999642857" xlink:href="#m219da94a98" y="12.0390625"/>
      </g>
     </g>
     <g id="text_7">
      <!-- Sep 2013 -->
      <g style="fill:#262626;" transform="translate(279.536710221 326.157783654)rotate(-30.0)scale(0.1 -0.1)">
       <use xlink:href="#BitstreamVeraSans-Roman-53"/>
       <use x="63.4765625" xlink:href="#BitstreamVeraSans-Roman-65"/>
       <use x="125.0" xlink:href="#BitstreamVeraSans-Roman-70"/>
       <use x="188.4765625" xlink:href="#BitstreamVeraSans-Roman-20"/>
       <use x="220.263671875" xlink:href="#BitstreamVeraSans-Roman-32"/>
       <use x="283.88671875" xlink:href="#BitstreamVeraSans-Roman-30"/>
       <use x="347.509765625" xlink:href="#BitstreamVeraSans-Roman-31"/>
       <use x="411.1328125" xlink:href="#BitstreamVeraSans-Roman-33"/>
      </g>
     </g>
    </g>
    <g id="xtick_8">
     <g id="line2d_22">
      <path clip-path="url(#p6e2fea4c25)" d="
M364.222 289.239
L364.222 12.0391" style="fill:none;stroke:#ffffff;stroke-linecap:round;"/>
     </g>
     <g id="line2d_23">
      <g>
       <use style="fill:#262626;stroke:#262626;" x="364.2225" xlink:href="#m219da94a98" y="289.2390625"/>
      </g>
     </g>
     <g id="line2d_24">
      <g>
       <use style="fill:#262626;stroke:#262626;" x="364.2225" xlink:href="#m219da94a98" y="12.0390625"/>
      </g>
     </g>
     <g id="text_8">
      <!-- Jan 2014 -->
      <defs>
       <path d="
M37.7969 64.3125
L12.8906 25.3906
L37.7969 25.3906
z

M35.2031 72.9062
L47.6094 72.9062
L47.6094 25.3906
L58.0156 25.3906
L58.0156 17.1875
L47.6094 17.1875
L47.6094 0
L37.7969 0
L37.7969 17.1875
L4.89062 17.1875
L4.89062 26.7031
z
" id="BitstreamVeraSans-Roman-34"/>
      </defs>
      <g style="fill:#262626;" transform="translate(325.077538483 324.819502404)rotate(-30.0)scale(0.1 -0.1)">
       <use xlink:href="#BitstreamVeraSans-Roman-4a"/>
       <use x="29.4921875" xlink:href="#BitstreamVeraSans-Roman-61"/>
       <use x="90.771484375" xlink:href="#BitstreamVeraSans-Roman-6e"/>
       <use x="154.150390625" xlink:href="#BitstreamVeraSans-Roman-20"/>
       <use x="185.9375" xlink:href="#BitstreamVeraSans-Roman-32"/>
       <use x="249.560546875" xlink:href="#BitstreamVeraSans-Roman-30"/>
       <use x="313.18359375" xlink:href="#BitstreamVeraSans-Roman-31"/>
       <use x="376.806640625" xlink:href="#BitstreamVeraSans-Roman-34"/>
      </g>
     </g>
    </g>
    <g id="xtick_9">
     <g id="line2d_25">
      <path clip-path="url(#p6e2fea4c25)" d="
M406.737 289.239
L406.737 12.0391" style="fill:none;stroke:#ffffff;stroke-linecap:round;"/>
     </g>
     <g id="line2d_26">
      <g>
       <use style="fill:#262626;stroke:#262626;" x="406.736785714" xlink:href="#m219da94a98" y="289.2390625"/>
      </g>
     </g>
     <g id="line2d_27">
      <g>
       <use style="fill:#262626;stroke:#262626;" x="406.736785714" xlink:href="#m219da94a98" y="12.0390625"/>
      </g>
     </g>
     <g id="text_9">
      <!-- May 2014 -->
      <g style="fill:#262626;" transform="translate(363.484969353 327.190596154)rotate(-30.0)scale(0.1 -0.1)">
       <use xlink:href="#BitstreamVeraSans-Roman-4d"/>
       <use x="86.279296875" xlink:href="#BitstreamVeraSans-Roman-61"/>
       <use x="147.55859375" xlink:href="#BitstreamVeraSans-Roman-79"/>
       <use x="206.73828125" xlink:href="#BitstreamVeraSans-Roman-20"/>
       <use x="238.525390625" xlink:href="#BitstreamVeraSans-Roman-32"/>
       <use x="302.1484375" xlink:href="#BitstreamVeraSans-Roman-30"/>
       <use x="365.771484375" xlink:href="#BitstreamVeraSans-Roman-31"/>
       <use x="429.39453125" xlink:href="#BitstreamVeraSans-Roman-34"/>
      </g>
     </g>
    </g>
    <g id="xtick_10">
     <g id="line2d_28">
      <path clip-path="url(#p6e2fea4c25)" d="
M450.314 289.239
L450.314 12.0391" style="fill:none;stroke:#ffffff;stroke-linecap:round;"/>
     </g>
     <g id="line2d_29">
      <g>
       <use style="fill:#262626;stroke:#262626;" x="450.313928571" xlink:href="#m219da94a98" y="289.2390625"/>
      </g>
     </g>
     <g id="line2d_30">
      <g>
       <use style="fill:#262626;stroke:#262626;" x="450.313928571" xlink:href="#m219da94a98" y="12.0390625"/>
      </g>
     </g>
     <g id="text_10">
      <!-- Sep 2014 -->
      <g style="fill:#262626;" transform="translate(408.642608572 326.278096154)rotate(-30.0)scale(0.1 -0.1)">
       <use xlink:href="#BitstreamVeraSans-Roman-53"/>
       <use x="63.4765625" xlink:href="#BitstreamVeraSans-Roman-65"/>
       <use x="125.0" xlink:href="#BitstreamVeraSans-Roman-70"/>
       <use x="188.4765625" xlink:href="#BitstreamVeraSans-Roman-20"/>
       <use x="220.263671875" xlink:href="#BitstreamVeraSans-Roman-32"/>
       <use x="283.88671875" xlink:href="#BitstreamVeraSans-Roman-30"/>
       <use x="347.509765625" xlink:href="#BitstreamVeraSans-Roman-31"/>
       <use x="411.1328125" xlink:href="#BitstreamVeraSans-Roman-34"/>
      </g>
     </g>
    </g>
    <g id="text_11">
     <!-- Date -->
     <defs>
      <path d="
M18.3125 70.2188
L18.3125 54.6875
L36.8125 54.6875
L36.8125 47.7031
L18.3125 47.7031
L18.3125 18.0156
Q18.3125 11.3281 20.1406 9.42188
Q21.9688 7.51562 27.5938 7.51562
L36.8125 7.51562
L36.8125 0
L27.5938 0
Q17.1875 0 13.2344 3.875
Q9.28125 7.76562 9.28125 18.0156
L9.28125 47.7031
L2.6875 47.7031
L2.6875 54.6875
L9.28125 54.6875
L9.28125 70.2188
z
" id="BitstreamVeraSans-Roman-74"/>
      <path d="
M19.6719 64.7969
L19.6719 8.10938
L31.5938 8.10938
Q46.6875 8.10938 53.6875 14.9375
Q60.6875 21.7812 60.6875 36.5312
Q60.6875 51.1719 53.6875 57.9844
Q46.6875 64.7969 31.5938 64.7969
z

M9.8125 72.9062
L30.0781 72.9062
Q51.2656 72.9062 61.1719 64.0938
Q71.0938 55.2812 71.0938 36.5312
Q71.0938 17.6719 61.125 8.82812
Q51.1719 0 30.0781 0
L9.8125 0
z
" id="BitstreamVeraSans-Roman-44"/>
     </defs>
     <g style="fill:#262626;" transform="translate(247.749375 342.349939611)scale(0.11 -0.11)">
      <use xlink:href="#BitstreamVeraSans-Roman-44"/>
      <use x="77.001953125" xlink:href="#BitstreamVeraSans-Roman-61"/>
      <use x="138.28125" xlink:href="#BitstreamVeraSans-Roman-74"/>
      <use x="177.490234375" xlink:href="#BitstreamVeraSans-Roman-65"/>
     </g>
    </g>
   </g>
   <g id="matplotlib.axis_2">
    <g id="ytick_1">
     <g id="line2d_31">
      <path clip-path="url(#p6e2fea4c25)" d="
M36.8625 289.239
L483.262 289.239" style="fill:none;stroke:#ffffff;stroke-linecap:round;"/>
     </g>
     <g id="line2d_32">
      <g>
       <use style="fill:#262626;stroke:#262626;" x="36.8625" xlink:href="#m219da94a98" y="289.2390625"/>
      </g>
     </g>
     <g id="line2d_33">
      <g>
       <use style="fill:#262626;stroke:#262626;" x="483.2625" xlink:href="#m219da94a98" y="289.2390625"/>
      </g>
     </g>
     <g id="text_12">
      <!-- −0.4 -->
      <defs>
       <path d="
M10.5938 35.5
L73.1875 35.5
L73.1875 27.2031
L10.5938 27.2031
z
" id="BitstreamVeraSans-Roman-2212"/>
       <path d="
M10.6875 12.4062
L21 12.4062
L21 0
L10.6875 0
z
" id="BitstreamVeraSans-Roman-2e"/>
      </defs>
      <g style="fill:#262626;" transform="translate(7.2 291.9984375)scale(0.1 -0.1)">
       <use xlink:href="#BitstreamVeraSans-Roman-2212"/>
       <use x="83.7890625" xlink:href="#BitstreamVeraSans-Roman-30"/>
       <use x="147.412109375" xlink:href="#BitstreamVeraSans-Roman-2e"/>
       <use x="179.19921875" xlink:href="#BitstreamVeraSans-Roman-34"/>
      </g>
     </g>
    </g>
    <g id="ytick_2">
     <g id="line2d_34">
      <path clip-path="url(#p6e2fea4c25)" d="
M36.8625 249.639
L483.262 249.639" style="fill:none;stroke:#ffffff;stroke-linecap:round;"/>
     </g>
     <g id="line2d_35">
      <g>
       <use style="fill:#262626;stroke:#262626;" x="36.8625" xlink:href="#m219da94a98" y="249.6390625"/>
      </g>
     </g>
     <g id="line2d_36">
      <g>
       <use style="fill:#262626;stroke:#262626;" x="483.2625" xlink:href="#m219da94a98" y="249.6390625"/>
      </g>
     </g>
     <g id="text_13">
      <!-- −0.2 -->
      <g style="fill:#262626;" transform="translate(7.640625 252.3984375)scale(0.1 -0.1)">
       <use xlink:href="#BitstreamVeraSans-Roman-2212"/>
       <use x="83.7890625" xlink:href="#BitstreamVeraSans-Roman-30"/>
       <use x="147.412109375" xlink:href="#BitstreamVeraSans-Roman-2e"/>
       <use x="179.19921875" xlink:href="#BitstreamVeraSans-Roman-32"/>
      </g>
     </g>
    </g>
    <g id="ytick_3">
     <g id="line2d_37">
      <path clip-path="url(#p6e2fea4c25)" d="
M36.8625 210.039
L483.262 210.039" style="fill:none;stroke:#ffffff;stroke-linecap:round;"/>
     </g>
     <g id="line2d_38">
      <g>
       <use style="fill:#262626;stroke:#262626;" x="36.8625" xlink:href="#m219da94a98" y="210.0390625"/>
      </g>
     </g>
     <g id="line2d_39">
      <g>
       <use style="fill:#262626;stroke:#262626;" x="483.2625" xlink:href="#m219da94a98" y="210.0390625"/>
      </g>
     </g>
     <g id="text_14">
      <!-- 0.0 -->
      <g style="fill:#262626;" transform="translate(15.2828125 212.7984375)scale(0.1 -0.1)">
       <use xlink:href="#BitstreamVeraSans-Roman-30"/>
       <use x="63.623046875" xlink:href="#BitstreamVeraSans-Roman-2e"/>
       <use x="95.41015625" xlink:href="#BitstreamVeraSans-Roman-30"/>
      </g>
     </g>
    </g>
    <g id="ytick_4">
     <g id="line2d_40">
      <path clip-path="url(#p6e2fea4c25)" d="
M36.8625 170.439
L483.262 170.439" style="fill:none;stroke:#ffffff;stroke-linecap:round;"/>
     </g>
     <g id="line2d_41">
      <g>
       <use style="fill:#262626;stroke:#262626;" x="36.8625" xlink:href="#m219da94a98" y="170.4390625"/>
      </g>
     </g>
     <g id="line2d_42">
      <g>
       <use style="fill:#262626;stroke:#262626;" x="483.2625" xlink:href="#m219da94a98" y="170.4390625"/>
      </g>
     </g>
     <g id="text_15">
      <!-- 0.2 -->
      <g style="fill:#262626;" transform="translate(15.6203125 173.1984375)scale(0.1 -0.1)">
       <use xlink:href="#BitstreamVeraSans-Roman-30"/>
       <use x="63.623046875" xlink:href="#BitstreamVeraSans-Roman-2e"/>
       <use x="95.41015625" xlink:href="#BitstreamVeraSans-Roman-32"/>
      </g>
     </g>
    </g>
    <g id="ytick_5">
     <g id="line2d_43">
      <path clip-path="url(#p6e2fea4c25)" d="
M36.8625 130.839
L483.262 130.839" style="fill:none;stroke:#ffffff;stroke-linecap:round;"/>
     </g>
     <g id="line2d_44">
      <g>
       <use style="fill:#262626;stroke:#262626;" x="36.8625" xlink:href="#m219da94a98" y="130.8390625"/>
      </g>
     </g>
     <g id="line2d_45">
      <g>
       <use style="fill:#262626;stroke:#262626;" x="483.2625" xlink:href="#m219da94a98" y="130.8390625"/>
      </g>
     </g>
     <g id="text_16">
      <!-- 0.4 -->
      <g style="fill:#262626;" transform="translate(15.1796875 133.5984375)scale(0.1 -0.1)">
       <use xlink:href="#BitstreamVeraSans-Roman-30"/>
       <use x="63.623046875" xlink:href="#BitstreamVeraSans-Roman-2e"/>
       <use x="95.41015625" xlink:href="#BitstreamVeraSans-Roman-34"/>
      </g>
     </g>
    </g>
    <g id="ytick_6">
     <g id="line2d_46">
      <path clip-path="url(#p6e2fea4c25)" d="
M36.8625 91.2391
L483.262 91.2391" style="fill:none;stroke:#ffffff;stroke-linecap:round;"/>
     </g>
     <g id="line2d_47">
      <g>
       <use style="fill:#262626;stroke:#262626;" x="36.8625" xlink:href="#m219da94a98" y="91.2390625"/>
      </g>
     </g>
     <g id="line2d_48">
      <g>
       <use style="fill:#262626;stroke:#262626;" x="483.2625" xlink:href="#m219da94a98" y="91.2390625"/>
      </g>
     </g>
     <g id="text_17">
      <!-- 0.6 -->
      <defs>
       <path d="
M33.0156 40.375
Q26.375 40.375 22.4844 35.8281
Q18.6094 31.2969 18.6094 23.3906
Q18.6094 15.5312 22.4844 10.9531
Q26.375 6.39062 33.0156 6.39062
Q39.6562 6.39062 43.5312 10.9531
Q47.4062 15.5312 47.4062 23.3906
Q47.4062 31.2969 43.5312 35.8281
Q39.6562 40.375 33.0156 40.375
M52.5938 71.2969
L52.5938 62.3125
Q48.875 64.0625 45.0938 64.9844
Q41.3125 65.9219 37.5938 65.9219
Q27.8281 65.9219 22.6719 59.3281
Q17.5312 52.7344 16.7969 39.4062
Q19.6719 43.6562 24.0156 45.9219
Q28.375 48.1875 33.5938 48.1875
Q44.5781 48.1875 50.9531 41.5156
Q57.3281 34.8594 57.3281 23.3906
Q57.3281 12.1562 50.6875 5.35938
Q44.0469 -1.42188 33.0156 -1.42188
Q20.3594 -1.42188 13.6719 8.26562
Q6.98438 17.9688 6.98438 36.375
Q6.98438 53.6562 15.1875 63.9375
Q23.3906 74.2188 37.2031 74.2188
Q40.9219 74.2188 44.7031 73.4844
Q48.4844 72.75 52.5938 71.2969" id="BitstreamVeraSans-Roman-36"/>
      </defs>
      <g style="fill:#262626;" transform="translate(15.2484375 93.9984375)scale(0.1 -0.1)">
       <use xlink:href="#BitstreamVeraSans-Roman-30"/>
       <use x="63.623046875" xlink:href="#BitstreamVeraSans-Roman-2e"/>
       <use x="95.41015625" xlink:href="#BitstreamVeraSans-Roman-36"/>
      </g>
     </g>
    </g>
    <g id="ytick_7">
     <g id="line2d_49">
      <path clip-path="url(#p6e2fea4c25)" d="
M36.8625 51.6391
L483.262 51.6391" style="fill:none;stroke:#ffffff;stroke-linecap:round;"/>
     </g>
     <g id="line2d_50">
      <g>
       <use style="fill:#262626;stroke:#262626;" x="36.8625" xlink:href="#m219da94a98" y="51.6390625"/>
      </g>
     </g>
     <g id="line2d_51">
      <g>
       <use style="fill:#262626;stroke:#262626;" x="483.2625" xlink:href="#m219da94a98" y="51.6390625"/>
      </g>
     </g>
     <g id="text_18">
      <!-- 0.8 -->
      <defs>
       <path d="
M31.7812 34.625
Q24.75 34.625 20.7188 30.8594
Q16.7031 27.0938 16.7031 20.5156
Q16.7031 13.9219 20.7188 10.1562
Q24.75 6.39062 31.7812 6.39062
Q38.8125 6.39062 42.8594 10.1719
Q46.9219 13.9688 46.9219 20.5156
Q46.9219 27.0938 42.8906 30.8594
Q38.875 34.625 31.7812 34.625
M21.9219 38.8125
Q15.5781 40.375 12.0312 44.7188
Q8.5 49.0781 8.5 55.3281
Q8.5 64.0625 14.7188 69.1406
Q20.9531 74.2188 31.7812 74.2188
Q42.6719 74.2188 48.875 69.1406
Q55.0781 64.0625 55.0781 55.3281
Q55.0781 49.0781 51.5312 44.7188
Q48 40.375 41.7031 38.8125
Q48.8281 37.1562 52.7969 32.3125
Q56.7812 27.4844 56.7812 20.5156
Q56.7812 9.90625 50.3125 4.23438
Q43.8438 -1.42188 31.7812 -1.42188
Q19.7344 -1.42188 13.25 4.23438
Q6.78125 9.90625 6.78125 20.5156
Q6.78125 27.4844 10.7812 32.3125
Q14.7969 37.1562 21.9219 38.8125
M18.3125 54.3906
Q18.3125 48.7344 21.8438 45.5625
Q25.3906 42.3906 31.7812 42.3906
Q38.1406 42.3906 41.7188 45.5625
Q45.3125 48.7344 45.3125 54.3906
Q45.3125 60.0625 41.7188 63.2344
Q38.1406 66.4062 31.7812 66.4062
Q25.3906 66.4062 21.8438 63.2344
Q18.3125 60.0625 18.3125 54.3906" id="BitstreamVeraSans-Roman-38"/>
      </defs>
      <g style="fill:#262626;" transform="translate(15.303125 54.3984375)scale(0.1 -0.1)">
       <use xlink:href="#BitstreamVeraSans-Roman-30"/>
       <use x="63.623046875" xlink:href="#BitstreamVeraSans-Roman-2e"/>
       <use x="95.41015625" xlink:href="#BitstreamVeraSans-Roman-38"/>
      </g>
     </g>
    </g>
    <g id="ytick_8">
     <g id="line2d_52">
      <path clip-path="url(#p6e2fea4c25)" d="
M36.8625 12.0391
L483.262 12.0391" style="fill:none;stroke:#ffffff;stroke-linecap:round;"/>
     </g>
     <g id="line2d_53">
      <g>
       <use style="fill:#262626;stroke:#262626;" x="36.8625" xlink:href="#m219da94a98" y="12.0390625"/>
      </g>
     </g>
     <g id="line2d_54">
      <g>
       <use style="fill:#262626;stroke:#262626;" x="483.2625" xlink:href="#m219da94a98" y="12.0390625"/>
      </g>
     </g>
     <g id="text_19">
      <!-- 1.0 -->
      <g style="fill:#262626;" transform="translate(15.721875 14.7984375)scale(0.1 -0.1)">
       <use xlink:href="#BitstreamVeraSans-Roman-31"/>
       <use x="63.623046875" xlink:href="#BitstreamVeraSans-Roman-2e"/>
       <use x="95.41015625" xlink:href="#BitstreamVeraSans-Roman-30"/>
      </g>
     </g>
    </g>
   </g>
   <g id="line2d_55">
    <path clip-path="url(#p6e2fea4c25)" d="
M36.8625 202.024
L37.2168 187.399
L37.5711 192.51
L38.6339 168.734
L38.9882 118.938
L39.3425 114.065
L39.6968 112.551
L40.0511 122.033
L41.4682 154.223
L42.1768 145.94
L42.5311 190.924
L43.5939 190.906
L43.9482 200.511
L44.3025 198.546
L44.6568 205.603
L45.0111 182.735
L46.0739 184.575
L46.4282 187.877
L46.7825 182.362
L47.1368 188.113
L47.4911 184.222
L48.5539 185.465
L48.9082 187.787
L49.2625 202.324
L49.6168 200.332
L49.9711 186.527
L51.0339 187.597
L51.3882 178.946
L51.7425 176.743
L52.4511 145.619
L53.5139 118.248
L53.8682 104.838
L54.2225 109.424
L54.5768 107.223
L54.9311 81.1522
L55.9939 79.9352
L56.3482 76.3235
L57.0568 84.9437
L57.4111 91.3288
L58.4739 100.133
L58.8282 108.317
L59.1825 99.951
L59.5368 98.3345
L60.9539 89.4851
L61.3082 90.0313
L61.6625 92.917
L62.0168 99.3228
L62.3711 91.1875
L63.7882 119.436
L64.1425 157.904
L64.4968 154.225
L64.8511 162.481
L65.9139 170.899
L66.2682 171.6
L66.6225 190.777
L66.9768 177.504
L67.3311 188.355
L68.3939 171.427
L68.7482 158.611
L69.1025 134.515
L69.4568 88.6827
L69.8111 87.6257
L70.8739 92.5326
L71.2282 82.6466
L71.9368 76.1421
L72.2911 58.2622
L73.3539 55.3693
L73.7082 56.2074
L74.0625 61.0444
L74.4168 59.3916
L74.7711 53.1179
L75.8339 41.2826
L76.1882 53.1752
L76.5425 55.2218
L76.8968 54.6109
L77.2511 78.0606
L78.3139 83.2658
L78.6682 83.8519
L79.0225 90.6865
L79.3768 102.178
L79.7311 102.212
L80.7939 100.415
L81.1482 93.6082
L81.5025 100.458
L81.8568 98.2425
L82.2111 111.453
L83.2739 131.367
L83.6282 119.552
L83.9825 120.484
L84.3368 115.514
L84.6911 115.326
L85.7539 141.551
L86.1082 136.301
L86.4625 119.485
L86.8168 119.942
L87.1711 85.8055
L88.2339 80.1229
L88.5882 80.3755
L88.9425 65.8649
L89.2968 61.4237
L89.6511 63.4599
L90.7139 58.4791
L91.4225 73.4262
L92.1311 85.1767
L93.1939 70.7833
L93.5482 78.0561
L93.9025 76.2593
L94.2568 76.7304
L94.6111 80.1218
L95.6739 78.3259
L96.0282 67.4256
L96.3825 76.9942
L96.7368 80.1682
L97.0911 87.4935
L98.1539 92.2084
L98.5082 92.895
L98.8625 89.6466
L99.2168 91.2055
L99.5711 100.737
L100.634 98.5569
L100.988 113.876
L101.697 116.349
L102.051 120.148
L103.468 155.687
L103.822 145.533
L104.177 153.552
L104.531 145.821
L105.948 147.599
L106.302 150.054
L106.657 162.365
L107.011 146.018
L108.074 185.079
L108.428 173.121
L108.782 172.4
L109.137 173.482
L109.491 178.484
L110.908 181.355
L111.262 172.415
L111.617 176.669
L111.971 193.927
L113.034 194.275
L113.388 206.23
L113.742 233.159
L114.097 220.141
L114.451 226.596
L115.514 223.986
L115.868 225.11
L116.222 224.076
L116.577 208.801
L116.931 202.322
L117.994 220.329
L118.348 221.642
L118.702 220.158
L119.057 221.135
L119.411 211.526
L120.474 219.811
L120.828 217.946
L121.182 218.1
L121.537 219.417
L121.891 259.679
L123.308 228.21
L123.662 205.179
L124.017 163.566
L124.371 149.345
L125.434 129.295
L125.788 143.949
L126.142 141.996
L126.497 139.296
L126.851 167.349
L127.914 172.397
L128.268 149.52
L128.622 150.541
L128.977 153.345
L129.331 147.043
L130.394 168.957
L130.748 151.012
L131.102 149.819
L131.457 153.72
L131.811 150.936
L132.874 157.298
L133.582 198.358
L133.937 201.608
L134.291 202.667
L135.354 204.889
L135.708 204.192
L136.062 211.934
L136.417 216.322
L136.771 236.188
L137.834 245.008
L138.188 246.294
L138.542 222.627
L138.897 225.744
L140.314 243.486
L140.668 215.135
L141.022 219.934
L141.731 198.241
L142.794 196.798
L143.148 185.824
L143.502 183.702
L143.857 187.158
L144.211 174.75
L145.274 183.418
L145.628 203.346
L145.982 203.271
L146.337 219.611
L146.691 212.995
L147.754 187.845
L148.108 189.982
L148.462 188.549
L148.817 193.208
L149.171 182.671
L150.234 196.39
L150.588 205.704
L151.297 231.249
L151.651 235.758
L152.714 232.897
L153.068 237.438
L153.422 196.564
L153.777 172.135
L154.131 169.502
L155.194 150.559
L155.548 147.555
L155.902 150.908
L156.257 135.512
L156.611 135.307
L158.028 141.403
L158.382 137.745
L158.737 136.534
L159.091 128.922
L160.154 123.55
L160.508 110.38
L160.862 105.559
L161.217 105.724
L161.571 106.239
L162.634 88.8296
L162.988 85.5345
L163.342 84.8578
L163.697 98.5458
L164.051 91.1355
L165.114 81.9242
L165.468 90.0292
L165.822 81.8632
L166.177 68.6328
L166.531 70.4703
L167.594 55.8617
L167.948 56.0503
L168.302 55.4479
L168.657 59.4704
L169.011 53.4048
L170.074 55.454
L170.428 52.6949
L171.137 40.4509
L171.491 37.743
L172.554 37.676
L172.908 41.0324
L173.262 50.3412
L173.617 50.9137
L173.971 50.0854
L175.034 51.8353
L175.742 48.6885
L176.097 46.0764
L176.451 89.0735
L177.514 93.1675
L177.868 109.651
L178.222 109.999
L178.577 111.752
L178.931 90.942
L180.702 124.8
L181.057 127.448
L181.411 132.551
L182.474 137.081
L182.828 139.441
L183.182 135.553
L183.537 135.403
L183.891 134.028
L184.954 154.274
L185.308 156.725
L185.662 154.165
L186.017 165.327
L186.371 141.186
L187.434 135.067
L187.788 130.375
L188.142 130.658
L188.497 128.549
L188.851 163.772
L189.914 153.516
L190.268 143.892
L190.622 144.631
L190.977 139.644
L191.331 168.964
L192.748 168.029
L193.102 178.167
L193.457 151.516
L193.811 151.047
L194.874 147.294
L195.228 117.295
L195.582 117.219
L196.291 106.064
L197.354 100.467
L197.708 104.222
L198.062 112.166
L198.417 108.668
L199.834 140.243
L200.188 144.693
L200.542 150.597
L200.897 144.525
L201.251 178.569
L202.668 174.747
L203.022 170.02
L203.377 205.1
L203.731 201.705
L204.794 208.279
L205.502 163.96
L205.857 198.548
L206.211 206.376
L207.274 197.901
L207.628 202.877
L207.982 201.346
L208.337 154.849
L208.691 151.228
L209.754 139.132
L210.108 137.765
L210.462 126.392
L210.817 132.319
L211.171 124.785
L212.942 125.841
L213.297 133.182
L213.651 136.317
L214.714 139.485
L215.422 127.446
L215.777 127.71
L216.131 119.16
L217.194 115.496
L217.548 114.816
L217.902 120.949
L218.257 122.942
L218.611 118.1
L219.674 91.1937
L220.028 90.0455
L220.382 89.5642
L221.091 89.0048
L222.154 86.6799
L222.508 79.7557
L222.862 80.615
L223.217 80.7689
L223.571 82.6436
L224.634 86.3881
L224.988 86.2504
L225.342 93.2598
L225.697 120.46
L226.051 159.057
L227.114 162.585
L227.468 206.58
L227.822 215.554
L228.177 204.022
L228.531 204.113
L229.594 192.377
L229.948 219.93
L230.302 223.103
L230.657 225.007
L231.011 220.713
L232.074 228.027
L232.782 230.136
L233.137 230.273
L233.491 229.914
L234.554 227.326
L235.262 184.684
L235.617 191.203
L235.971 194.137
L237.034 194.602
L237.388 169.096
L237.742 168.291
L238.097 102.284
L238.451 100.882
L239.514 120.814
L239.868 117.955
L240.222 107.726
L240.577 106.094
L240.931 103.486
L242.348 104.727
L242.702 143.027
L243.057 139.089
L243.411 147.821
L244.474 148.716
L244.828 152.795
L245.182 148.579
L245.537 182.325
L245.891 165.603
L246.954 145.087
L247.308 151.019
L247.662 151.212
L248.017 151.597
L248.371 149.86
L249.434 153.126
L249.788 145.021
L250.142 144.887
L250.497 158.405
L250.851 162.675
L252.268 214.525
L252.622 232.68
L253.331 248.935
L254.394 253.228
L254.748 251.447
L255.102 248.549
L255.457 249.09
L255.811 249.065
L256.874 267.65
L257.582 254.731
L257.937 256.518
L258.291 259.411
L259.354 264.16
L259.708 225.958
L260.062 232.274
L260.417 230.231
L260.771 230.73
L261.834 223.41
L262.188 168.823
L262.542 134.797
L262.897 128.68
L263.251 132.645
L264.314 115.354
L264.668 115.89
L265.022 138.714
L265.377 130.502
L266.794 137.496
L267.148 122.929
L267.502 149.529
L267.857 146.034
L268.211 151.751
L269.274 154.385
L269.628 155.943
L269.982 159.942
L270.337 144.033
L270.691 146.329
L271.754 142.864
L272.462 124.947
L272.817 141.168
L273.171 185.282
L274.234 184.602
L274.942 174.202
L275.297 196.852
L275.651 199.92
L276.714 191.966
L277.068 195.128
L277.422 195.31
L277.777 197.469
L278.131 202.045
L279.194 203.533
L279.548 206.849
L279.902 207.373
L280.257 207.018
L280.611 209.835
L281.674 235.742
L282.028 238.075
L282.737 263.021
L283.091 242.087
L284.154 243.381
L284.508 236.277
L284.862 207.99
L285.217 130.246
L285.571 123.918
L286.988 137.201
L287.342 139.061
L288.051 147.131
L289.468 137.919
L289.822 128.193
L290.177 126.228
L290.531 111.429
L291.594 117.124
L291.948 111.926
L292.302 116.244
L292.657 116.228
L293.011 85.1849
L294.428 72.4477
L294.782 74.5911
L295.137 75.0509
L295.491 85.2213
L296.554 81.7634
L296.908 90.2861
L297.262 79.4209
L297.617 81.5017
L297.971 80.6354
L299.034 79.6101
L299.388 81.5679
L299.742 81.4887
L300.451 83.39
L301.514 91.0191
L301.868 74.4449
L302.222 93.9466
L302.577 87.6254
L302.931 88.2769
L303.994 88.7285
L304.348 91.2381
L304.702 105.366
L305.057 101.636
L305.411 142.212
L306.474 144.817
L306.828 156.23
L307.182 143.88
L307.537 180.917
L307.891 187.415
L308.954 182.19
L309.308 181.784
L309.662 186.043
L310.017 165.533
L310.371 163.15
L311.434 163.369
L312.142 155.107
L312.497 168.459
L312.851 169.63
L313.914 167.085
L314.622 178.428
L315.331 163.756
L316.394 186.158
L316.748 185.578
L317.102 185.608
L317.457 148.689
L317.811 131.199
L318.874 123.183
L319.228 104.591
L319.582 104.926
L319.937 164.469
L320.291 168.9
L321.708 168.9
L322.062 142.229
L322.417 131.21
L322.771 133.577
L323.834 125.301
L324.188 128.561
L324.542 133.71
L324.897 115.958
L325.251 126.082
L326.314 128.96
L326.668 108.283
L327.022 95.6979
L327.377 123.42
L327.731 139.593
L328.794 144.529
L329.148 147.716
L329.502 165.402
L329.857 165.305
L330.211 154.746
L331.274 155.737
L331.628 134.297
L331.982 142.941
L332.337 169.446
L332.691 167.17
L333.754 169.536
L334.108 144.488
L334.462 130.351
L334.817 107.728
L335.171 111.796
L336.234 113.1
L336.588 113.961
L336.942 120.204
L337.297 103.888
L337.651 113.804
L338.714 113.725
L339.068 111.487
L339.422 113.947
L339.777 111.795
L340.131 114.693
L341.194 115.123
L341.548 115.044
L341.902 114.062
L342.257 106.93
L342.611 114.916
L343.674 116.479
L344.028 120.16
L344.382 121.018
L344.737 105.782
L345.091 106.291
L346.154 109.991
L346.508 109.335
L346.862 108.919
L347.571 128.331
L348.634 124.851
L349.342 114.837
L349.697 102.004
L350.051 115.683
L351.114 117.437
L351.468 85.8416
L351.822 90.0478
L352.531 90.9444
L353.594 82.8145
L353.948 82.7994
L354.302 83.2077
L354.657 85.6345
L355.011 136.687
L356.074 139.631
L356.428 133.303
L356.782 116.398
L357.137 134.008
L357.491 136.274
L358.554 138.135
L358.908 137.341
L359.262 141.879
L359.617 148.33
L359.971 160.398
L361.034 141.179
L361.388 139.499
L362.097 148.585
L362.451 145.927
L363.514 140.005
L363.868 130.168
L364.577 126.566
L364.931 131.439
L365.994 129.746
L366.348 107.328
L366.702 109.57
L367.057 145.46
L367.411 160.517
L368.474 138.775
L368.828 127.779
L369.182 123.007
L369.891 123.584
L371.308 120.966
L371.662 124.426
L372.017 130.537
L372.371 87.5105
L373.434 87.5074
L373.788 85.4122
L374.142 79.7163
L374.497 71.2587
L374.851 89.238
L375.914 78.2385
L376.268 82.8479
L376.622 84.9978
L376.977 81.4458
L377.331 62.3128
L378.394 63.888
L378.748 63.3728
L379.102 67.1192
L379.457 67.9347
L379.811 68.1397
L381.228 69.1695
L381.582 69.2069
L381.937 78.1133
L382.291 77.5639
L383.354 92.177
L383.708 94.1122
L384.771 126.652
L385.834 104.443
L386.188 86.1418
L386.542 84.6351
L386.897 85.1561
L387.251 91.868
L388.314 94.3381
L388.668 90.9152
L389.022 94.7663
L389.377 77.0615
L389.731 112.82
L390.794 125.245
L391.148 110.613
L391.502 113.621
L391.857 107.809
L392.211 110.845
L393.274 112.119
L393.628 109.882
L393.982 120.172
L394.337 120.483
L394.691 116.856
L396.108 109.963
L396.462 110.676
L396.817 174.984
L397.171 171.979
L398.234 176.808
L398.942 168.265
L399.297 158.38
L399.651 158.167
L400.714 158.99
L401.068 160.67
L401.422 155.159
L401.777 161.17
L403.194 162.2
L403.548 161.977
L403.902 165.357
L404.611 179.814
L405.674 181.378
L406.028 176.279
L406.382 178.705
L406.737 177.887
L407.091 139.188
L408.154 135.741
L408.862 148.772
L409.217 150.681
L409.571 161.562
L410.634 154.935
L410.988 148.163
L411.342 149.557
L411.697 154.182
L412.051 88.5325
L413.114 90.4019
L413.468 83.9587
L413.822 86.6477
L414.177 83.7453
L414.531 97.3204
L415.948 101.152
L416.302 117.711
L416.657 97.3866
L417.011 109.326
L418.074 124.49
L418.428 145.48
L418.782 145.736
L419.137 152.003
L419.491 152.482
L420.554 155.24
L420.908 175.195
L421.262 175.201
L421.617 159.18
L421.971 166.014
L423.034 168.497
L423.388 178.896
L423.742 185.643
L424.097 210.845
L424.451 212.581
L425.514 214.055
L426.222 227.768
L426.577 227.856
L426.931 228.406
L427.994 221.331
L428.702 203.83
L429.057 206.96
L430.474 193.172
L430.828 141.55
L431.182 135.13
L431.537 131.774
L431.891 122.397
L432.954 119.568
L433.308 104.43
L433.662 100.919
L434.017 80.8855
L434.371 82.8919
L435.434 60.1221
L435.788 60.7635
L436.497 69.3334
L436.851 66.4221
L437.914 66.119
L438.268 69.9782
L438.622 67.1088
L438.977 65.6934
L439.331 68.8261
L440.394 66.3914
L440.748 68.9315
L441.102 73.8972
L441.457 74.0366
L441.811 73.7228
L443.228 76.8039
L443.582 78.4092
L443.937 81.6461
L444.291 88.6923
L445.354 84.8732
L445.708 94.3336
L446.062 94.9654
L446.417 90.7859
L446.771 97.0359
L447.834 98.2269
L448.188 92.3754
L448.542 90.1376
L448.897 99.4951
L449.251 93.3813
L450.668 87.5528
L451.022 114.67
L451.377 120.823
L451.731 120.055
L452.794 125.636
L453.148 121.118
L453.502 122.591
L453.857 106.831
L454.211 133.64
L455.274 128.232
L455.628 120.412
L455.982 149.35
L456.337 155.103
L456.691 167.194
L457.754 157.321
L458.108 159.526
L458.462 148.141
L458.817 143.383
L459.171 145.401
L460.234 148.618
L460.588 154.568
L460.942 137.812
L461.297 131.2
L461.651 138.283
L462.714 137.885
L463.068 129.58
L463.422 129.956
L463.777 127.025
L464.131 96.0059
L465.548 124.218
L465.902 118.091
L466.257 119.027
L466.611 134.259
L467.674 136.465
L468.028 124.95
L468.382 157.063
L468.737 137.285
L469.091 140.189
L470.154 133.252
L470.508 120.532
L470.862 127.479
L471.217 130.916
L471.571 125.975
L472.634 124.392
L472.988 135.294
L473.342 126.383
L473.697 132.38
L474.051 156.449
L475.114 136.667
L475.468 141.154
L475.822 138.844
L476.177 131.487
L476.531 96.1024
L477.594 91.9108
L477.948 96.8303
L478.302 66.314
L478.657 99.4406
L479.011 89.9488
L480.074 89.3136
L480.428 121.715
L480.782 123.318
L481.491 142.836
L482.554 141.019
L482.908 145.674
L483.262 146.802
L483.262 146.802" style="fill:none;stroke:#4c72b0;stroke-linecap:round;stroke-width:1.75;"/>
   </g>
   <g id="line2d_56">
    <path clip-path="url(#p6e2fea4c25)" d="
M155.194 138.393
L155.548 137.236
L155.902 137.493
L156.611 136.992
L158.028 137.089
L158.737 136.593
L159.091 135.67
L160.508 134.93
L161.217 135.582
L161.571 135.67
L162.634 134.815
L162.988 135.029
L163.342 134.866
L163.697 134.02
L164.051 133.848
L165.468 133.872
L165.822 133.407
L166.177 132.477
L166.531 132.796
L168.302 133.38
L168.657 133.384
L169.011 130.716
L170.074 130.688
L170.428 130.546
L171.137 127.77
L171.491 127.337
L172.908 127.019
L173.262 127.289
L173.617 122.567
L173.971 122.171
L175.034 122.091
L175.388 122.226
L176.097 121.512
L176.451 122.914
L177.514 123.278
L177.868 122.269
L178.222 122.08
L178.577 122.426
L178.931 119.92
L179.994 120.155
L180.702 122.716
L181.057 122.083
L181.411 126.462
L182.474 130.605
L182.828 129.445
L183.182 130.012
L183.891 129.947
L184.954 131.973
L185.308 131.537
L185.662 130.768
L186.017 129.516
L186.371 128.774
L187.434 127.426
L187.788 127.736
L188.142 127.827
L188.497 127.704
L188.851 127.288
L189.914 127.232
L190.268 126.851
L190.622 126.642
L191.331 126.797
L193.102 127.31
L193.811 125.857
L195.228 125.811
L195.582 126.494
L195.937 126.07
L197.354 125.947
L197.708 126.212
L198.062 129.356
L198.417 129.368
L198.771 129.085
L199.834 130.333
L200.188 131.875
L200.542 132.159
L200.897 134.289
L201.251 137.69
L202.314 137.332
L202.668 137.369
L203.022 137.6
L203.377 137.559
L203.731 141.474
L204.794 141.367
L205.148 140.291
L205.502 140.802
L205.857 138.326
L206.211 137.911
L207.274 137.525
L207.628 136.567
L207.982 136.942
L208.337 138.718
L208.691 139.077
L209.754 141.089
L210.108 141.205
L210.462 142.792
L210.817 142.998
L211.171 143.497
L212.942 144.23
L213.297 143.959
L213.651 146.031
L214.714 145.905
L215.422 142.965
L215.777 144.201
L216.131 144.135
L217.194 144.646
L217.548 144.389
L217.902 144.395
L218.257 144.651
L218.611 146.083
L219.674 145.232
L220.028 147.727
L220.382 147.575
L221.091 147.452
L222.154 147.426
L222.508 151.178
L222.862 150.764
L223.217 151.335
L223.571 151.303
L224.634 150.453
L224.988 150.332
L225.342 150.61
L225.697 150.172
L226.051 152.343
L227.114 150.985
L227.468 154.101
L227.822 154.059
L228.177 154.435
L228.531 154.468
L229.594 153.562
L229.948 153.866
L230.302 154.879
L230.657 154.641
L231.011 154.601
L232.074 154.659
L232.782 153.951
L233.137 153.849
L233.491 153.55
L234.554 153.915
L235.262 151.425
L235.617 151.021
L235.971 151.038
L237.034 151.795
L237.388 150.205
L237.742 150.141
L238.097 150.21
L238.451 150.037
L239.514 150.961
L240.222 150.392
L240.577 150.511
L240.931 146.129
L242.348 146.099
L242.702 147.723
L243.057 143.774
L243.411 143.054
L244.474 142.33
L245.537 142.597
L245.891 142.254
L246.954 142.184
L247.308 141.439
L247.662 141.328
L248.017 141.378
L248.371 141.302
L249.434 141.94
L250.142 141.028
L250.497 140.792
L250.851 140.86
L252.268 146.607
L252.622 149.584
L252.977 150.526
L253.331 150.237
L254.394 150.769
L254.748 150.752
L255.102 150.308
L255.811 150.554
L256.874 149.1
L257.228 147.817
L258.291 147.668
L259.354 148.057
L259.708 147.04
L260.062 148.516
L260.771 147.768
L261.834 147.522
L262.188 147.295
L262.897 147.256
L263.251 146.861
L264.314 146.676
L264.668 146.834
L265.022 147.369
L265.377 147.088
L266.794 146.855
L267.148 144.001
L267.857 143.859
L268.211 144.384
L269.274 144.024
L269.628 144.023
L269.982 144.277
L270.337 144.823
L270.691 145.061
L271.754 143.204
L272.108 142.122
L272.462 141.793
L272.817 142.494
L273.171 145.497
L274.234 145.707
L274.588 145.265
L274.942 144.143
L275.297 150.792
L275.651 149.761
L276.714 148.29
L277.068 149.35
L277.777 148.92
L279.194 149.696
L279.548 148.694
L279.902 148.042
L280.257 148.016
L280.611 148.286
L281.674 147.321
L282.028 147.185
L282.382 146.727
L282.737 149.042
L283.091 149.638
L284.154 150.813
L284.508 151.91
L284.862 150.551
L285.217 149.78
L285.571 150.203
L286.988 149.7
L287.342 149.931
L288.051 151.042
L289.114 152.952
L289.822 153.279
L290.177 152.682
L290.531 151.81
L291.594 152.315
L291.948 154.143
L293.011 154.723
L294.074 154.707
L294.428 155.156
L294.782 155.386
L295.137 154.153
L295.491 156.198
L296.554 155.806
L296.908 157.394
L297.262 157.144
L297.617 157.463
L297.971 157.301
L299.034 159.869
L299.388 159.669
L299.742 160.014
L300.451 160.999
L301.514 162.869
L301.868 162.942
L302.222 163.726
L302.577 162.723
L303.994 162.947
L304.348 162.689
L304.702 163.406
L305.057 163.498
L305.411 165.435
L306.474 162.923
L307.182 161.752
L307.537 163.34
L307.891 164.1
L308.954 167.822
L309.662 166.318
L310.017 164.951
L310.371 165.346
L311.434 167.439
L311.788 167.191
L312.497 167.095
L312.851 167.11
L313.914 166.969
L314.268 165.918
L314.622 166.048
L314.977 165.487
L315.331 166.032
L316.748 166.704
L317.457 166.337
L317.811 166.408
L318.874 166.294
L319.228 165.136
L319.582 165.576
L319.937 165.584
L320.291 166.28
L321.708 166.641
L322.417 165.044
L322.771 166.779
L323.834 166.655
L324.188 166.932
L324.542 167.512
L324.897 166.942
L325.251 168.07
L326.668 168.415
L327.022 167.414
L327.731 168.688
L328.794 168.642
L329.148 167.589
L329.857 166.756
L330.211 166.65
L331.274 166.185
L331.628 165.478
L331.982 165.371
L332.337 166.028
L332.691 166.042
L333.754 165.604
L334.108 164.193
L334.462 165.126
L334.817 163.556
L335.171 163.413
L336.234 163.417
L336.588 163.58
L337.297 162.598
L337.651 161.825
L339.068 162.278
L339.777 162.255
L340.131 161.016
L341.194 160.819
L341.548 161.603
L341.902 161.038
L342.257 161.031
L342.611 161.745
L343.674 161.781
L344.028 163.572
L344.382 164.374
L344.737 163.128
L345.091 163.112
L346.154 163.781
L346.862 162.893
L347.217 162.901
L347.571 164.162
L348.634 164.201
L348.988 163.771
L349.697 163.38
L350.051 163.454
L351.114 163.13
L351.822 162.345
L353.594 163.044
L353.948 162.781
L354.302 162.758
L354.657 161.485
L355.011 162.272
L356.074 159.111
L356.428 159.134
L356.782 158.779
L357.491 159.543
L358.554 159.593
L358.908 159.423
L359.262 158.987
L359.617 159.174
L359.971 159.082
L361.034 158.455
L362.097 158.621
L362.451 158.302
L363.514 160.238
L364.577 159.333
L364.931 159.458
L365.994 159.606
L366.348 159.371
L366.702 159.555
L367.057 161.151
L367.411 160.568
L368.474 160.151
L368.828 159.87
L369.537 159.866
L369.891 159.71
L371.308 157.815
L371.662 158.293
L372.017 157.685
L372.371 153.728
L373.788 152.756
L374.497 150.191
L374.851 152.362
L375.914 149.101
L376.622 149.197
L376.977 148.405
L377.331 148.055
L378.394 148.099
L378.748 147.81
L379.457 148.06
L379.811 142.416
L381.228 140.566
L381.582 139.864
L381.937 140.78
L382.291 140.078
L383.708 140.391
L384.062 140.65
L384.417 140.623
L384.771 140.375
L385.834 141.704
L386.188 141.357
L386.542 141.355
L387.251 141.023
L388.314 141.534
L388.668 140.349
L389.022 140.746
L389.377 139.501
L389.731 141.612
L390.794 142.103
L391.148 141.117
L393.274 139.75
L393.628 138.951
L393.982 139.17
L394.337 138.39
L394.691 138.64
L395.754 139.164
L396.108 138.521
L396.462 138.465
L396.817 170.861
L397.171 170.37
L398.234 170.343
L398.942 169.811
L399.297 168.735
L399.651 168.821
L400.714 169.277
L401.068 169.242
L401.422 167.682
L401.777 170.033
L403.194 170.05
L403.548 170.243
L403.902 166.551
L404.257 166.654
L404.611 166.545
L405.674 166.535
L406.028 165.676
L406.382 166.001
L406.737 165.952
L407.091 166.088
L408.154 165.885
L408.862 166.146
L410.634 165.491
L410.988 165.775
L411.342 165.551
L412.051 165.592
L413.114 165.343
L413.468 165.708
L413.822 165.499
L416.657 165.093
L417.011 165.236
L418.074 165.527
L418.428 165.824
L418.782 165.89
L419.137 166.203
L419.491 165.979
L421.617 166.127
L421.971 166.384
L423.034 166.581
L423.388 166.528
L423.742 166.931
L424.097 166.961
L424.451 167.225
L425.514 167.084
L425.868 167.239
L426.222 167.103
L427.994 167.275
L428.348 167.47
L428.702 167.483
L429.057 167.632
L430.474 167.677
L430.828 166.987
L431.182 167.151
L431.891 167.042
L432.954 166.912
L433.308 166.623
L433.662 166.644
L434.371 165.601
L435.788 165.324
L436.142 164.787
L436.851 164.27
L438.268 164.477
L438.622 164.888
L438.977 164.397
L440.394 164.347
L440.748 164.145
L441.102 164.283
L442.874 164.073
L443.228 163.856
L443.937 163.896
L444.291 163.668
L445.708 163.459
L446.771 163.569
L447.834 163.945
L448.188 163.917
L448.542 163.761
L449.251 163.727
L450.668 163.804
L451.022 164.153
L451.731 164.443
L452.794 164.459
L453.148 164.181
L453.857 164.197
L454.211 164.61
L455.982 164.748
L456.337 164.507
L456.691 164.583
L457.754 164.386
L458.108 164.535
L458.817 164.067
L459.171 164.027
L460.234 164.544
L460.588 164.584
L460.942 164.095
L461.651 164.138
L462.714 164.374
L463.068 163.981
L463.422 164.269
L463.777 163.956
L464.131 163.325
L465.902 164.123
L466.257 167.306
L466.611 167.785
L468.028 167.606
L468.382 168.223
L468.737 167.599
L469.091 167.65
L470.154 167.488
L470.508 167.096
L471.217 166.977
L471.571 166.763
L472.988 166.727
L473.697 166.811
L475.114 166.618
L475.468 167.038
L477.948 166.907
L478.302 167.199
L480.428 167.626
L480.782 167.622
L481.491 167.954
L482.554 167.646
L483.262 167.646
L483.262 167.646" style="fill:none;stroke:#55a868;stroke-linecap:round;stroke-width:1.75;"/>
   </g>
   <g id="patch_3">
    <path d="
M36.8625 12.0391
L483.262 12.0391" style="fill:none;"/>
   </g>
   <g id="patch_4">
    <path d="
M483.262 289.239
L483.262 12.0391" style="fill:none;"/>
   </g>
   <g id="patch_5">
    <path d="
M36.8625 289.239
L483.262 289.239" style="fill:none;"/>
   </g>
   <g id="patch_6">
    <path d="
M36.8625 289.239
L36.8625 12.0391" style="fill:none;"/>
   </g>
  </g>
 </g>
 <defs>
  <clipPath id="p6e2fea4c25">
   <rect height="277.2" width="446.4" x="36.8625" y="12.0390625"/>
  </clipPath>
 </defs>
</svg>
