<?xml version="1.0" encoding="utf-8" standalone="no"?>
<!DOCTYPE svg PUBLIC "-//W3C//DTD SVG 1.1//EN"
  "http://www.w3.org/Graphics/SVG/1.1/DTD/svg11.dtd">
<!-- Created with matplotlib (http://matplotlib.org/) -->
<svg height="367pt" version="1.1" viewBox="0 0 489 367" width="489pt" xmlns="http://www.w3.org/2000/svg" xmlns:xlink="http://www.w3.org/1999/xlink">
 <defs>
  <style type="text/css">
*{stroke-linecap:butt;stroke-linejoin:round;}
  </style>
 </defs>
 <g id="figure_1">
  <g id="patch_1">
   <path d="
M0 367.717
L489.097 367.717
L489.097 0
L0 0
z
" style="fill:#ffffff;"/>
  </g>
  <g id="axes_1">
   <g id="patch_2">
    <path d="
M35.4969 346.839
L481.897 346.839
L481.897 12.0391
L35.4969 12.0391
z
" style="fill:#ffffff;"/>
   </g>
   <g id="line2d_1">
    <path clip-path="url(#p9281b82f0c)" d="
M71.2089 344.049
L72.5824 345.723
M76.703 340.143
L78.0766 345.723
M86.3178 345.723
L87.6913 345.165
M93.1855 346.661
L94.559 344.886
L95.9326 346.817
L97.3061 340.143
L98.6796 342.375
M102.8 345.723
L104.174 344.049
M106.921 344.049
L108.294 343.714
L109.668 345.723
M112.415 344.942
L113.789 326.02
L115.162 345.165
L116.536 335.316
L117.909 326.751
L119.283 345.723
L120.656 346.114
L122.03 346.281
L123.403 344.049
L124.777 343.77
L126.15 342.375
M128.897 341.538
L130.271 346.822
M138.512 344.328
L139.886 338.056
L141.259 336.516
L142.633 345.444
L144.006 344.495
L145.38 344.886
L146.753 341.259
L148.127 344.83
L149.501 339.306
L150.874 323.236
M153.621 344.44
L154.995 340.539
L156.368 344.607
L157.742 334.73
L159.115 337.688
L160.489 346.281
L161.862 305.921
L163.236 341.616
L164.609 340.422
M167.357 345.02
L168.73 345.89
L170.104 340.193
L171.477 345.723
M174.224 341.817
L175.598 345.165
L176.971 345.444
L178.345 342.654
M181.092 337.018
L182.465 343.212
L183.839 342.369
L185.213 346.822
L186.586 334.451
L187.96 338.19
L189.333 344.769
L190.707 341.962
M193.454 342.096
L194.827 345.12
L196.201 333.112
L197.574 340.924
L198.948 345.053
L200.321 341.761
L201.695 283.785
L203.069 340.366
L204.442 335.679
L205.816 342.319
L207.189 345.003
L208.563 339.25
L209.936 342.922
L211.31 345.388
L212.683 345.405
L214.057 331.773
L215.43 346.002
L216.804 341.516
L218.177 339.752
L219.551 332.041
L220.925 330.992
L222.298 334.172
L223.672 346.359
L225.045 340.584
L226.419 337.632
L227.792 339.752
L229.166 322.343
L230.539 339.172
L231.913 333.402
L233.286 342.375
L234.66 343.915
L236.033 328.927
L237.407 325.635
L238.781 325.323
L240.154 316.194
L241.528 343.324
L242.901 300.971
L244.275 331.494
L245.648 295.241
L247.022 338.469
L248.395 325.635
L249.769 328.693
L251.142 334.563
L252.516 281.553
L253.889 340.98
L255.263 321.562
L256.637 315.256
L258.01 321.723
L259.384 331.494
L260.757 311.127
L262.131 328.034
L263.504 335.846
L264.878 329.519
L266.251 318.214
L267.625 291.039
L268.998 284.678
L270.372 308.951
L271.745 326.639
L273.119 330.992
L274.493 330.378
L275.866 337.353
L277.24 284.176
L278.613 317.321
L279.987 265.036
L281.36 335.121
L282.734 316.116
L284.107 312.968
L285.481 329.039
L286.854 284.678
L288.228 319.664
L289.601 329.708
L290.975 341.761
L292.349 302.757
L293.722 301.161
L295.096 303.761
L296.469 311.607
L297.843 318.66
L299.216 333.475
L300.59 309.76
L301.963 322.025
L303.337 339.362
L304.71 294.778
L306.084 303.482
L307.457 309.899
L308.831 288.807
L310.205 317.6
L311.578 323.275
L312.952 315.881
L314.325 317.751
L315.699 317.656
L317.072 332.61
L318.446 316.925
L319.819 325.747
L321.193 321.417
L322.566 327.421
L323.94 317.695
L325.313 324.854
L326.687 243.665
L328.061 330.434
L329.434 209.292
L330.808 186.375
L332.181 332.498
L333.555 315.089
L334.928 272.011
L336.302 287.858
L337.675 331.773
L339.049 306.803
L340.422 268.496
L341.796 248.017
L343.169 270.226
L344.543 300.134
L345.917 325.914
L347.29 203.573
L348.664 201.257
L350.037 332.164
L351.411 289.421
L352.784 323.961
L354.158 219.928
L355.531 313.247
L356.905 311.015
L358.278 217.55
L359.652 149.809
L361.025 291.753
L362.399 270.951
L363.773 252.85
L365.146 291.43
L366.52 302.366
L367.893 320.702
L369.267 305.38
L370.64 311.964
L372.014 309.035
L373.387 303.761
L374.761 273.456
L376.134 293.662
L377.508 271.286
L378.881 254.323
L380.255 163.034
L381.629 294.387
L383.002 305.882
L384.376 318.827
L385.749 290.369
L387.123 290.983
L388.496 316.986
L389.87 298.237
L391.243 297.344
L392.617 321.617
L393.99 315.814
L395.364 268.273
L396.737 308.058
L398.111 258.067
L399.485 293.02
L400.858 323.961
L402.232 259.01
L403.605 284.337
L404.979 279.433
L406.352 189.148
L407.726 86.387
L409.099 163.648
L410.473 288.177
L411.846 211.625
L413.22 204.326
L414.593 198.802
L415.967 203.768
L417.341 252.091
L418.714 295.391
L420.088 302.645
L421.461 314.196
L422.835 234.681
L424.208 330.099
L425.582 318.214
L426.955 326.026
L428.329 322.678
L429.702 280.27
L431.076 277.368
L432.449 315.368
L433.823 310.513
L435.197 307.221
L436.57 331.215
L437.944 321.004
L439.317 304.319
L440.691 277.089
L442.064 329.374
L443.438 307.891
L444.811 319.218
L446.185 268.607
L447.558 319.162
L448.932 329.429
L450.305 329.206
L451.679 306.551
L453.053 281.441
L454.426 316.54
L455.8 317.935
L457.173 310.234
L458.547 305.435
L459.92 292.825
L461.294 303.873
L462.667 291.151
L464.041 306.44
L465.414 302.199
L466.788 314.587
L468.161 310.625
L469.535 335.288
L470.909 300.469
L472.282 310.29
L473.656 288.472
L475.029 329.82
L476.403 334.005
L477.776 280.604
L479.15 329.597
L480.523 278.484
L481.897 293.773
L481.897 293.773" style="fill:none;stroke:#0000ff;stroke-linecap:square;"/>
   </g>
   <g id="line2d_2">
    <path clip-path="url(#p9281b82f0c)" d="
M36.8704 344.049
L38.244 342.375
L40.991 345.723
L43.7381 344.049
L56.1 339.585
L64.3412 345.611
L68.4618 345.444
L69.8353 345.723
L72.5824 344.049
L76.703 344.049
L78.0766 322.845
L79.4501 342.04
L80.8236 344.819
L82.1972 345.165
L84.9443 343.491
L86.3178 339.027
L89.0649 340.589
L90.4384 344.607
L93.1855 344.607
L95.9326 345.505
L98.6796 345.165
L100.053 344.049
L101.427 334.842
L102.8 341.259
L104.174 344.049
L106.921 344.607
L108.294 344.049
L109.668 346.169
L111.041 338.558
L112.415 339.864
L113.789 344.607
L115.162 345.723
L116.536 342.096
L117.909 345.723
L119.283 335.679
L120.656 328.319
L122.03 345.611
L123.403 344.607
L126.15 334.563
L127.524 338.915
L128.897 340.701
L130.271 338.748
L131.645 344.607
L133.018 340.143
L134.392 336.795
L135.765 342.654
L137.139 339.261
L138.512 323.437
L139.886 335.4
L141.259 337.632
L142.633 325.077
L144.006 346.56
L145.38 331.143
L146.753 331.215
L148.127 339.864
L149.501 330.099
L150.874 342.319
L152.248 345.332
L153.621 337.911
L154.995 340.93
L156.368 335.512
L157.742 343.993
L159.115 339.306
L160.489 332.164
L161.862 318.66
L163.236 334.563
L164.609 340.617
L165.983 339.25
L167.357 333.893
L168.73 340.534
L170.104 327.309
L171.477 342.152
L172.851 342.152
L174.224 310.904
L175.598 335.679
L176.971 328.983
L178.345 346.225
L179.718 328.537
L181.092 346.114
L182.465 344.88
L183.839 346.772
L185.213 344.049
L186.586 340.701
L187.96 332.577
L189.333 345.946
L190.707 342.152
L192.08 326.081
L193.454 342.375
L194.827 327.694
L196.201 341.315
L197.574 343.491
L198.948 340.422
L200.321 313.805
L201.695 346.002
L203.069 343.045
L204.442 341.538
L205.816 344.942
L207.189 313.086
L208.563 338.636
L209.936 344.272
L211.31 337.576
L212.683 337.945
L214.057 342.598
L215.43 345.444
L216.804 328.871
L218.177 343.491
L220.925 297.183
L222.298 337.576
L223.672 339.914
L225.045 345.444
L226.419 337.9
L227.792 322.996
L229.166 344.607
L230.539 336.237
L231.913 341.092
L233.286 332.861
L234.66 331.048
L236.033 320.485
L237.407 312.477
L238.781 328.18
L240.154 306.998
L241.528 335.4
L242.901 300.134
L244.275 321.249
L245.648 334.675
L247.022 315.591
L248.395 336.962
L249.769 345.723
L251.142 343.77
L252.516 321.338
L253.889 333.977
L255.263 329.708
L256.637 312.556
L258.01 318.158
L259.384 329.798
L260.757 319.999
L262.131 313.359
L263.504 324.262
L264.878 337.911
L266.251 329.262
L267.625 292.3
L268.998 314.324
L270.372 306.44
L271.745 327.923
L273.119 304.877
L274.493 311.518
L275.866 335.501
L277.24 332.498
L278.613 306.44
L279.987 150.535
L281.36 322.901
L282.734 323.626
L284.107 311.629
L285.481 319.497
L286.854 306.83
L288.228 316.093
L289.601 328.425
L290.975 327.303
L292.349 313.415
L293.722 325.914
L295.096 318.671
L296.469 306.328
L297.843 323.012
L299.216 290.983
L300.59 328.592
L301.963 305.324
L303.337 313.917
L304.71 327.421
L306.084 323.213
L307.457 314.866
L308.831 320.39
L310.205 319.441
L311.578 329.541
L312.952 315.602
L314.325 299.632
L315.699 289.588
L317.072 317.098
L318.446 300.676
L319.819 329.485
L321.193 317.6
L322.566 323.961
L323.94 261.605
L325.313 316.261
L326.687 291.485
L328.061 331.606
L329.434 328.146
L330.808 224.09
L333.555 325.802
L334.928 321.059
L336.302 276.866
L337.675 253.262
L339.049 268.942
L340.422 326.751
L341.796 269.277
L343.169 276.286
L344.543 307.5
L345.917 331.271
L347.29 209.794
L348.664 271.565
L350.037 311.741
L351.411 309.509
L352.784 311.35
L354.158 305.714
L355.531 328.313
L356.905 311.618
L358.278 319.385
L359.652 294.722
L361.025 318.102
L362.399 297.289
L363.773 325.914
L365.146 304.152
L366.52 303.695
L367.893 261.019
L369.267 306.942
L370.64 307.891
L372.014 296.563
L373.387 223.348
L374.761 308.337
L376.134 309.341
L377.508 333.28
L378.881 299.521
L380.255 306.328
L381.629 297.4
L383.002 299.576
L384.376 232.17
L385.749 293.327
L387.123 325.635
L388.496 280.772
L389.87 309.899
L391.243 256.945
L392.617 309.341
L393.99 298.315
L395.364 193.389
L396.737 280.27
L398.111 180.499
L399.485 243.832
L400.858 312.355
L402.232 280.716
L403.605 303.985
L404.979 126.764
L406.352 198.802
L407.726 227.539
L409.099 65.0491
L410.473 237.583
L411.846 115.509
L413.22 322.733
L414.593 324.798
L415.967 272.491
L417.341 241.768
L418.714 289.979
L420.088 274.634
L421.461 236.857
L422.835 327.253
L424.208 308.672
L425.582 251.812
L426.955 307.723
L428.329 303.259
L429.702 220.619
L431.076 322.789
L432.449 308.839
L433.823 271.788
L435.197 292.378
L436.57 298.293
L437.944 311.573
L439.317 336.181
L440.691 317.935
L442.064 304.766
L443.438 313.917
L444.811 325.914
L446.185 259.624
L447.558 301.808
L448.932 289.365
L450.305 307.444
L451.679 295.168
L453.053 297.01
L454.426 318.604
L455.8 318.214
L457.173 269.891
L458.547 320.501
L459.92 336.125
L461.294 326.863
L462.667 332.777
L464.041 310.848
L465.414 325.691
L466.788 278.093
L468.161 323.738
L469.535 314.475
L470.909 311.239
L472.282 276.977
L473.656 325.133
L475.029 313.303
L476.403 294.833
L477.776 311.127
L479.15 303.817
L480.523 304.096
L481.897 278.149
L481.897 278.149" style="fill:none;stroke:#008000;stroke-linecap:square;"/>
   </g>
   <g id="line2d_3">
    <path clip-path="url(#p9281b82f0c)" d="
M43.7381 344.607
L49.2323 339.864
L54.7264 345.165
L57.4735 346.794
L60.2206 345.723
L64.3412 346.56
L69.8353 344.942
L73.956 344.998
L76.703 343.212
L78.0766 346.281
L79.4501 340.534
L80.8236 343.491
L86.3178 329.82
L90.4384 335.4
L93.1855 321.534
L94.559 346.281
L98.6796 342.933
L100.053 346.822
L101.427 339.473
L102.8 346.002
L105.547 345.444
L106.921 341.259
L109.668 345.723
L111.041 340.813
L112.415 339.139
L113.789 344.049
L116.536 340.534
L117.909 338.134
L119.283 344.607
L120.656 346.56
L122.03 344.272
L123.403 343.77
L124.777 346.281
L126.15 343.212
L127.524 340.701
L128.897 341.817
L131.645 337.699
L133.018 342.096
L134.392 333.838
L135.765 345.165
L137.139 337.911
L138.512 339.976
L139.886 336.683
L141.259 345.768
L142.633 338.313
L144.006 339.139
L145.38 337.799
L146.753 333.224
L148.127 345.969
L149.501 344.914
L150.874 334.005
L152.248 345.667
L153.621 342.453
L154.995 338.413
L156.368 328.983
L157.742 339.92
L159.115 341.538
L160.489 341.873
L161.862 344.049
L163.236 337.186
L164.609 340.98
L165.983 343.77
L167.357 343.045
L168.73 335.785
L170.104 338.413
L171.477 345.053
L172.851 344.83
L174.224 319.776
L175.598 333.391
L176.971 343.826
L178.345 345.221
L179.718 327.365
L182.465 343.491
L186.586 341.817
L187.96 331.327
L189.333 341.426
L190.707 342.71
L192.08 337.632
L193.454 342.598
L194.827 345.55
L196.201 341.315
L197.574 344.886
L198.948 334.563
L200.321 345.779
L201.695 335.679
L203.069 344.774
L204.442 341.471
L205.816 342.654
L207.189 346.002
L208.563 342.018
L209.936 340.768
L211.31 297.456
L212.683 343.435
L214.057 334.284
L215.43 333.687
L216.804 327.253
L218.177 330.936
L219.551 335.958
L220.925 338.86
L223.672 335.958
L225.045 340.924
L226.419 334.697
L227.792 319.609
L229.166 338.86
L230.539 334.563
L231.913 328.202
L233.286 327.627
L234.66 337.074
L236.033 336.795
L237.407 337.688
L238.781 333.726
L240.154 331.661
L241.528 279.321
L242.901 338.134
L244.275 309.453
L245.648 311.964
L247.022 324.24
L248.395 330.763
L249.769 312.684
L251.142 267.876
L252.516 325.808
L253.889 342.654
L255.263 333.782
L256.637 332.61
L258.01 343.731
L259.384 300.413
L260.757 323.029
L262.131 331.494
L263.504 333.553
L264.878 329.318
L266.251 323.905
L267.625 292.434
L268.998 305.659
L270.372 295.224
L271.745 334.228
L273.119 341.092
L274.493 322.566
L275.866 331.159
L277.24 313.805
L278.613 322.845
L279.987 331.048
L281.36 314.029
L282.734 274.411
L284.107 304.202
L285.481 313.582
L286.854 299.521
L288.228 320.39
L289.601 327.309
L290.975 329.82
L292.349 303.929
L293.722 307.277
L295.096 303.092
L296.469 283.283
L297.843 283.339
L299.216 334.228
L300.59 307.779
L301.963 328.76
L303.337 290.927
L304.71 318.66
L307.457 288.584
L308.831 316.261
L310.205 324.296
L311.578 296.954
L312.952 292.484
L314.325 315.591
L315.699 311.183
L317.072 321.104
L318.446 306.261
L319.819 318.604
L321.193 326.706
L322.566 312.02
L323.94 277.982
L325.313 314.815
L326.687 286.631
L328.061 287.775
L329.434 325.635
L330.808 310.681
L332.181 330.545
L333.555 324.128
L334.928 319.106
L336.302 313.08
L337.675 284.555
L339.049 331.271
L340.422 313.861
L341.796 234.324
L343.169 291.876
L344.543 315.758
L345.917 307.444
L347.29 103.718
L348.664 252.983
L350.037 271.118
L351.411 190.487
L352.784 278.707
L354.158 322.12
L355.531 303.929
L356.905 329.095
L358.278 217.55
L359.652 324.77
L361.025 305.435
L362.399 221.066
L363.773 317.377
L365.146 270.114
L366.52 290.626
L367.893 294.164
L369.267 317.544
L370.64 293.327
L372.014 306.133
L373.387 253.653
L374.761 298.46
L376.134 236.69
L377.508 310.625
L378.881 305.101
L380.255 292.155
L381.629 261.298
L383.002 324.407
L384.376 301.463
L385.749 316.372
L387.123 321.952
L388.496 256.834
L389.87 273.406
L391.243 314.475
L392.617 292.322
L393.99 323.626
L395.364 234.681
L396.737 208.343
L398.111 264.869
L399.485 294.443
L400.858 275.694
L402.232 260.461
L403.605 293.662
L404.979 299.426
L406.352 162.922
L407.726 109.628
L409.099 132.623
L410.473 272.234
L411.846 282.055
L413.22 257.314
L414.593 291.318
L415.967 304.543
L417.341 323.012
L418.714 281.553
L420.088 323.738
L421.461 244.669
L422.835 272.513
L424.208 328.537
L425.582 252.649
L426.955 319.33
L428.329 329.653
L429.702 320.39
L431.076 280.604
L432.449 308.058
L433.823 287.803
L435.197 317.432
L436.57 276.475
L437.944 304.543
L440.691 335.791
L442.064 310.904
L443.438 330.099
L444.811 289.03
L446.185 292.992
L447.558 286.463
L448.932 286.017
L451.679 306.607
L453.053 314.252
L454.426 314.308
L455.8 316.261
L457.173 305.603
L458.547 292.378
L459.92 321.506
L461.294 328.816
L462.667 320.39
L464.041 318.995
L465.414 325.412
L466.788 299.576
L468.161 318.158
L469.535 338.357
L470.909 297.177
L472.282 294.108
L473.656 321.952
L475.029 303.985
L476.403 310.569
L477.776 327.086
L479.15 310.625
L480.523 289.477
L481.897 298.293
L481.897 298.293" style="fill:none;stroke:#ff0000;stroke-linecap:square;"/>
   </g>
   <g id="patch_3">
    <path d="
M35.4969 12.0391
L481.897 12.0391" style="fill:none;stroke:#000000;stroke-linecap:square;stroke-linejoin:miter;"/>
   </g>
   <g id="patch_4">
    <path d="
M481.897 346.839
L481.897 12.0391" style="fill:none;stroke:#000000;stroke-linecap:square;stroke-linejoin:miter;"/>
   </g>
   <g id="patch_5">
    <path d="
M35.4969 346.839
L481.897 346.839" style="fill:none;stroke:#000000;stroke-linecap:square;stroke-linejoin:miter;"/>
   </g>
   <g id="patch_6">
    <path d="
M35.4969 346.839
L35.4969 12.0391" style="fill:none;stroke:#000000;stroke-linecap:square;stroke-linejoin:miter;"/>
   </g>
   <g id="matplotlib.axis_1">
    <g id="xtick_1">
     <g id="line2d_4">
      <path clip-path="url(#p9281b82f0c)" d="
M35.4969 346.839
L35.4969 12.0391" style="fill:none;stroke:#000000;stroke-dasharray:1.000000,3.000000;stroke-dashoffset:0.0;stroke-width:0.5;"/>
     </g>
     <g id="line2d_5">
      <defs>
       <path d="
M0 0
L0 -4" id="m93b0483c22" style="stroke:#000000;stroke-width:0.5;"/>
      </defs>
      <g>
       <use style="stroke:#000000;stroke-width:0.5;" x="35.496875" xlink:href="#m93b0483c22" y="346.8390625"/>
      </g>
     </g>
     <g id="line2d_6">
      <defs>
       <path d="
M0 0
L0 4" id="m741efc42ff" style="stroke:#000000;stroke-width:0.5;"/>
      </defs>
      <g>
       <use style="stroke:#000000;stroke-width:0.5;" x="35.496875" xlink:href="#m741efc42ff" y="12.0390625"/>
      </g>
     </g>
    </g>
    <g id="xtick_2">
     <g id="line2d_7">
      <path clip-path="url(#p9281b82f0c)" d="
M54.7264 346.839
L54.7264 12.0391" style="fill:none;stroke:#000000;stroke-dasharray:1.000000,3.000000;stroke-dashoffset:0.0;stroke-width:0.5;"/>
     </g>
     <g id="line2d_8">
      <g>
       <use style="stroke:#000000;stroke-width:0.5;" x="54.7264134615" xlink:href="#m93b0483c22" y="346.8390625"/>
      </g>
     </g>
     <g id="line2d_9">
      <g>
       <use style="stroke:#000000;stroke-width:0.5;" x="54.7264134615" xlink:href="#m741efc42ff" y="12.0390625"/>
      </g>
     </g>
     <g id="text_1">
      <!-- 2007 -->
      <defs>
       <path d="
M19.1875 8.29688
L53.6094 8.29688
L53.6094 0
L7.32812 0
L7.32812 8.29688
Q12.9375 14.1094 22.625 23.8906
Q32.3281 33.6875 34.8125 36.5312
Q39.5469 41.8438 41.4219 45.5312
Q43.3125 49.2188 43.3125 52.7812
Q43.3125 58.5938 39.2344 62.25
Q35.1562 65.9219 28.6094 65.9219
Q23.9688 65.9219 18.8125 64.3125
Q13.6719 62.7031 7.8125 59.4219
L7.8125 69.3906
Q13.7656 71.7812 18.9375 73
Q24.125 74.2188 28.4219 74.2188
Q39.75 74.2188 46.4844 68.5469
Q53.2188 62.8906 53.2188 53.4219
Q53.2188 48.9219 51.5312 44.8906
Q49.8594 40.875 45.4062 35.4062
Q44.1875 33.9844 37.6406 27.2188
Q31.1094 20.4531 19.1875 8.29688" id="BitstreamVeraSans-Roman-32"/>
       <path d="
M31.7812 66.4062
Q24.1719 66.4062 20.3281 58.9062
Q16.5 51.4219 16.5 36.375
Q16.5 21.3906 20.3281 13.8906
Q24.1719 6.39062 31.7812 6.39062
Q39.4531 6.39062 43.2812 13.8906
Q47.125 21.3906 47.125 36.375
Q47.125 51.4219 43.2812 58.9062
Q39.4531 66.4062 31.7812 66.4062
M31.7812 74.2188
Q44.0469 74.2188 50.5156 64.5156
Q56.9844 54.8281 56.9844 36.375
Q56.9844 17.9688 50.5156 8.26562
Q44.0469 -1.42188 31.7812 -1.42188
Q19.5312 -1.42188 13.0625 8.26562
Q6.59375 17.9688 6.59375 36.375
Q6.59375 54.8281 13.0625 64.5156
Q19.5312 74.2188 31.7812 74.2188" id="BitstreamVeraSans-Roman-30"/>
       <path d="
M8.20312 72.9062
L55.0781 72.9062
L55.0781 68.7031
L28.6094 0
L18.3125 0
L43.2188 64.5938
L8.20312 64.5938
z
" id="BitstreamVeraSans-Roman-37"/>
      </defs>
      <g transform="translate(42.7951634615 358.4375)scale(0.1 -0.1)">
       <use xlink:href="#BitstreamVeraSans-Roman-32"/>
       <use x="63.623046875" xlink:href="#BitstreamVeraSans-Roman-30"/>
       <use x="127.24609375" xlink:href="#BitstreamVeraSans-Roman-30"/>
       <use x="190.869140625" xlink:href="#BitstreamVeraSans-Roman-37"/>
      </g>
     </g>
    </g>
    <g id="xtick_3">
     <g id="line2d_10">
      <path clip-path="url(#p9281b82f0c)" d="
M126.15 346.839
L126.15 12.0391" style="fill:none;stroke:#000000;stroke-dasharray:1.000000,3.000000;stroke-dashoffset:0.0;stroke-width:0.5;"/>
     </g>
     <g id="line2d_11">
      <g>
       <use style="stroke:#000000;stroke-width:0.5;" x="126.150413462" xlink:href="#m93b0483c22" y="346.8390625"/>
      </g>
     </g>
     <g id="line2d_12">
      <g>
       <use style="stroke:#000000;stroke-width:0.5;" x="126.150413462" xlink:href="#m741efc42ff" y="12.0390625"/>
      </g>
     </g>
     <g id="text_2">
      <!-- 2008 -->
      <defs>
       <path d="
M31.7812 34.625
Q24.75 34.625 20.7188 30.8594
Q16.7031 27.0938 16.7031 20.5156
Q16.7031 13.9219 20.7188 10.1562
Q24.75 6.39062 31.7812 6.39062
Q38.8125 6.39062 42.8594 10.1719
Q46.9219 13.9688 46.9219 20.5156
Q46.9219 27.0938 42.8906 30.8594
Q38.875 34.625 31.7812 34.625
M21.9219 38.8125
Q15.5781 40.375 12.0312 44.7188
Q8.5 49.0781 8.5 55.3281
Q8.5 64.0625 14.7188 69.1406
Q20.9531 74.2188 31.7812 74.2188
Q42.6719 74.2188 48.875 69.1406
Q55.0781 64.0625 55.0781 55.3281
Q55.0781 49.0781 51.5312 44.7188
Q48 40.375 41.7031 38.8125
Q48.8281 37.1562 52.7969 32.3125
Q56.7812 27.4844 56.7812 20.5156
Q56.7812 9.90625 50.3125 4.23438
Q43.8438 -1.42188 31.7812 -1.42188
Q19.7344 -1.42188 13.25 4.23438
Q6.78125 9.90625 6.78125 20.5156
Q6.78125 27.4844 10.7812 32.3125
Q14.7969 37.1562 21.9219 38.8125
M18.3125 54.3906
Q18.3125 48.7344 21.8438 45.5625
Q25.3906 42.3906 31.7812 42.3906
Q38.1406 42.3906 41.7188 45.5625
Q45.3125 48.7344 45.3125 54.3906
Q45.3125 60.0625 41.7188 63.2344
Q38.1406 66.4062 31.7812 66.4062
Q25.3906 66.4062 21.8438 63.2344
Q18.3125 60.0625 18.3125 54.3906" id="BitstreamVeraSans-Roman-38"/>
      </defs>
      <g transform="translate(114.134007212 358.4375)scale(0.1 -0.1)">
       <use xlink:href="#BitstreamVeraSans-Roman-32"/>
       <use x="63.623046875" xlink:href="#BitstreamVeraSans-Roman-30"/>
       <use x="127.24609375" xlink:href="#BitstreamVeraSans-Roman-30"/>
       <use x="190.869140625" xlink:href="#BitstreamVeraSans-Roman-38"/>
      </g>
     </g>
    </g>
    <g id="xtick_4">
     <g id="line2d_13">
      <path clip-path="url(#p9281b82f0c)" d="
M197.574 346.839
L197.574 12.0391" style="fill:none;stroke:#000000;stroke-dasharray:1.000000,3.000000;stroke-dashoffset:0.0;stroke-width:0.5;"/>
     </g>
     <g id="line2d_14">
      <g>
       <use style="stroke:#000000;stroke-width:0.5;" x="197.574413462" xlink:href="#m93b0483c22" y="346.8390625"/>
      </g>
     </g>
     <g id="line2d_15">
      <g>
       <use style="stroke:#000000;stroke-width:0.5;" x="197.574413462" xlink:href="#m741efc42ff" y="12.0390625"/>
      </g>
     </g>
     <g id="text_3">
      <!-- 2009 -->
      <defs>
       <path d="
M10.9844 1.51562
L10.9844 10.5
Q14.7031 8.73438 18.5 7.8125
Q22.3125 6.89062 25.9844 6.89062
Q35.75 6.89062 40.8906 13.4531
Q46.0469 20.0156 46.7812 33.4062
Q43.9531 29.2031 39.5938 26.9531
Q35.25 24.7031 29.9844 24.7031
Q19.0469 24.7031 12.6719 31.3125
Q6.29688 37.9375 6.29688 49.4219
Q6.29688 60.6406 12.9375 67.4219
Q19.5781 74.2188 30.6094 74.2188
Q43.2656 74.2188 49.9219 64.5156
Q56.5938 54.8281 56.5938 36.375
Q56.5938 19.1406 48.4062 8.85938
Q40.2344 -1.42188 26.4219 -1.42188
Q22.7031 -1.42188 18.8906 -0.6875
Q15.0938 0.046875 10.9844 1.51562
M30.6094 32.4219
Q37.25 32.4219 41.125 36.9531
Q45.0156 41.5 45.0156 49.4219
Q45.0156 57.2812 41.125 61.8438
Q37.25 66.4062 30.6094 66.4062
Q23.9688 66.4062 20.0938 61.8438
Q16.2188 57.2812 16.2188 49.4219
Q16.2188 41.5 20.0938 36.9531
Q23.9688 32.4219 30.6094 32.4219" id="BitstreamVeraSans-Roman-39"/>
      </defs>
      <g transform="translate(185.567382212 358.4375)scale(0.1 -0.1)">
       <use xlink:href="#BitstreamVeraSans-Roman-32"/>
       <use x="63.623046875" xlink:href="#BitstreamVeraSans-Roman-30"/>
       <use x="127.24609375" xlink:href="#BitstreamVeraSans-Roman-30"/>
       <use x="190.869140625" xlink:href="#BitstreamVeraSans-Roman-39"/>
      </g>
     </g>
    </g>
    <g id="xtick_5">
     <g id="line2d_16">
      <path clip-path="url(#p9281b82f0c)" d="
M268.998 346.839
L268.998 12.0391" style="fill:none;stroke:#000000;stroke-dasharray:1.000000,3.000000;stroke-dashoffset:0.0;stroke-width:0.5;"/>
     </g>
     <g id="line2d_17">
      <g>
       <use style="stroke:#000000;stroke-width:0.5;" x="268.998413462" xlink:href="#m93b0483c22" y="346.8390625"/>
      </g>
     </g>
     <g id="line2d_18">
      <g>
       <use style="stroke:#000000;stroke-width:0.5;" x="268.998413462" xlink:href="#m741efc42ff" y="12.0390625"/>
      </g>
     </g>
     <g id="text_4">
      <!-- 2010 -->
      <defs>
       <path d="
M12.4062 8.29688
L28.5156 8.29688
L28.5156 63.9219
L10.9844 60.4062
L10.9844 69.3906
L28.4219 72.9062
L38.2812 72.9062
L38.2812 8.29688
L54.3906 8.29688
L54.3906 0
L12.4062 0
z
" id="BitstreamVeraSans-Roman-31"/>
      </defs>
      <g transform="translate(256.971850962 358.4375)scale(0.1 -0.1)">
       <use xlink:href="#BitstreamVeraSans-Roman-32"/>
       <use x="63.623046875" xlink:href="#BitstreamVeraSans-Roman-30"/>
       <use x="127.24609375" xlink:href="#BitstreamVeraSans-Roman-31"/>
       <use x="190.869140625" xlink:href="#BitstreamVeraSans-Roman-30"/>
      </g>
     </g>
    </g>
    <g id="xtick_6">
     <g id="line2d_19">
      <path clip-path="url(#p9281b82f0c)" d="
M341.796 346.839
L341.796 12.0391" style="fill:none;stroke:#000000;stroke-dasharray:1.000000,3.000000;stroke-dashoffset:0.0;stroke-width:0.5;"/>
     </g>
     <g id="line2d_20">
      <g>
       <use style="stroke:#000000;stroke-width:0.5;" x="341.795951923" xlink:href="#m93b0483c22" y="346.8390625"/>
      </g>
     </g>
     <g id="line2d_21">
      <g>
       <use style="stroke:#000000;stroke-width:0.5;" x="341.795951923" xlink:href="#m741efc42ff" y="12.0390625"/>
      </g>
     </g>
     <g id="text_5">
      <!-- 2011 -->
      <g transform="translate(329.899076923 358.4375)scale(0.1 -0.1)">
       <use xlink:href="#BitstreamVeraSans-Roman-32"/>
       <use x="63.623046875" xlink:href="#BitstreamVeraSans-Roman-30"/>
       <use x="127.24609375" xlink:href="#BitstreamVeraSans-Roman-31"/>
       <use x="190.869140625" xlink:href="#BitstreamVeraSans-Roman-31"/>
      </g>
     </g>
    </g>
    <g id="xtick_7">
     <g id="line2d_22">
      <path clip-path="url(#p9281b82f0c)" d="
M413.22 346.839
L413.22 12.0391" style="fill:none;stroke:#000000;stroke-dasharray:1.000000,3.000000;stroke-dashoffset:0.0;stroke-width:0.5;"/>
     </g>
     <g id="line2d_23">
      <g>
       <use style="stroke:#000000;stroke-width:0.5;" x="413.219951923" xlink:href="#m93b0483c22" y="346.8390625"/>
      </g>
     </g>
     <g id="line2d_24">
      <g>
       <use style="stroke:#000000;stroke-width:0.5;" x="413.219951923" xlink:href="#m741efc42ff" y="12.0390625"/>
      </g>
     </g>
     <g id="text_6">
      <!-- 2012 -->
      <g transform="translate(401.362139423 358.4375)scale(0.1 -0.1)">
       <use xlink:href="#BitstreamVeraSans-Roman-32"/>
       <use x="63.623046875" xlink:href="#BitstreamVeraSans-Roman-30"/>
       <use x="127.24609375" xlink:href="#BitstreamVeraSans-Roman-31"/>
       <use x="190.869140625" xlink:href="#BitstreamVeraSans-Roman-32"/>
      </g>
     </g>
    </g>
    <g id="xtick_8">
     <g id="line2d_25">
      <path clip-path="url(#p9281b82f0c)" d="
M481.897 346.839
L481.897 12.0391" style="fill:none;stroke:#000000;stroke-dasharray:1.000000,3.000000;stroke-dashoffset:0.0;stroke-width:0.5;"/>
     </g>
     <g id="line2d_26">
      <g>
       <use style="stroke:#000000;stroke-width:0.5;" x="481.896875" xlink:href="#m93b0483c22" y="346.8390625"/>
      </g>
     </g>
     <g id="line2d_27">
      <g>
       <use style="stroke:#000000;stroke-width:0.5;" x="481.896875" xlink:href="#m741efc42ff" y="12.0390625"/>
      </g>
     </g>
    </g>
    <g id="xtick_9">
     <g id="line2d_28">
      <defs>
       <path d="
M0 0
L0 -2" id="m177f7580d0" style="stroke:#000000;stroke-width:0.5;"/>
      </defs>
      <g>
       <use style="stroke:#000000;stroke-width:0.5;" x="36.8704134615" xlink:href="#m177f7580d0" y="346.8390625"/>
      </g>
     </g>
     <g id="line2d_29">
      <defs>
       <path d="
M0 0
L0 2" id="m5284c7e2a0" style="stroke:#000000;stroke-width:0.5;"/>
      </defs>
      <g>
       <use style="stroke:#000000;stroke-width:0.5;" x="36.8704134615" xlink:href="#m5284c7e2a0" y="12.0390625"/>
      </g>
     </g>
    </g>
    <g id="xtick_10">
     <g id="line2d_30">
      <g>
       <use style="stroke:#000000;stroke-width:0.5;" x="72.5824134615" xlink:href="#m177f7580d0" y="346.8390625"/>
      </g>
     </g>
     <g id="line2d_31">
      <g>
       <use style="stroke:#000000;stroke-width:0.5;" x="72.5824134615" xlink:href="#m5284c7e2a0" y="12.0390625"/>
      </g>
     </g>
    </g>
    <g id="xtick_11">
     <g id="line2d_32">
      <g>
       <use style="stroke:#000000;stroke-width:0.5;" x="90.4384134615" xlink:href="#m177f7580d0" y="346.8390625"/>
      </g>
     </g>
     <g id="line2d_33">
      <g>
       <use style="stroke:#000000;stroke-width:0.5;" x="90.4384134615" xlink:href="#m5284c7e2a0" y="12.0390625"/>
      </g>
     </g>
    </g>
    <g id="xtick_12">
     <g id="line2d_34">
      <g>
       <use style="stroke:#000000;stroke-width:0.5;" x="108.294413462" xlink:href="#m177f7580d0" y="346.8390625"/>
      </g>
     </g>
     <g id="line2d_35">
      <g>
       <use style="stroke:#000000;stroke-width:0.5;" x="108.294413462" xlink:href="#m5284c7e2a0" y="12.0390625"/>
      </g>
     </g>
    </g>
    <g id="xtick_13">
     <g id="line2d_36">
      <g>
       <use style="stroke:#000000;stroke-width:0.5;" x="144.006413462" xlink:href="#m177f7580d0" y="346.8390625"/>
      </g>
     </g>
     <g id="line2d_37">
      <g>
       <use style="stroke:#000000;stroke-width:0.5;" x="144.006413462" xlink:href="#m5284c7e2a0" y="12.0390625"/>
      </g>
     </g>
    </g>
    <g id="xtick_14">
     <g id="line2d_38">
      <g>
       <use style="stroke:#000000;stroke-width:0.5;" x="161.862413462" xlink:href="#m177f7580d0" y="346.8390625"/>
      </g>
     </g>
     <g id="line2d_39">
      <g>
       <use style="stroke:#000000;stroke-width:0.5;" x="161.862413462" xlink:href="#m5284c7e2a0" y="12.0390625"/>
      </g>
     </g>
    </g>
    <g id="xtick_15">
     <g id="line2d_40">
      <g>
       <use style="stroke:#000000;stroke-width:0.5;" x="179.718413462" xlink:href="#m177f7580d0" y="346.8390625"/>
      </g>
     </g>
     <g id="line2d_41">
      <g>
       <use style="stroke:#000000;stroke-width:0.5;" x="179.718413462" xlink:href="#m5284c7e2a0" y="12.0390625"/>
      </g>
     </g>
    </g>
    <g id="xtick_16">
     <g id="line2d_42">
      <g>
       <use style="stroke:#000000;stroke-width:0.5;" x="215.430413462" xlink:href="#m177f7580d0" y="346.8390625"/>
      </g>
     </g>
     <g id="line2d_43">
      <g>
       <use style="stroke:#000000;stroke-width:0.5;" x="215.430413462" xlink:href="#m5284c7e2a0" y="12.0390625"/>
      </g>
     </g>
    </g>
    <g id="xtick_17">
     <g id="line2d_44">
      <g>
       <use style="stroke:#000000;stroke-width:0.5;" x="233.286413462" xlink:href="#m177f7580d0" y="346.8390625"/>
      </g>
     </g>
     <g id="line2d_45">
      <g>
       <use style="stroke:#000000;stroke-width:0.5;" x="233.286413462" xlink:href="#m5284c7e2a0" y="12.0390625"/>
      </g>
     </g>
    </g>
    <g id="xtick_18">
     <g id="line2d_46">
      <g>
       <use style="stroke:#000000;stroke-width:0.5;" x="251.142413462" xlink:href="#m177f7580d0" y="346.8390625"/>
      </g>
     </g>
     <g id="line2d_47">
      <g>
       <use style="stroke:#000000;stroke-width:0.5;" x="251.142413462" xlink:href="#m5284c7e2a0" y="12.0390625"/>
      </g>
     </g>
    </g>
    <g id="xtick_19">
     <g id="line2d_48">
      <g>
       <use style="stroke:#000000;stroke-width:0.5;" x="286.854413462" xlink:href="#m177f7580d0" y="346.8390625"/>
      </g>
     </g>
     <g id="line2d_49">
      <g>
       <use style="stroke:#000000;stroke-width:0.5;" x="286.854413462" xlink:href="#m5284c7e2a0" y="12.0390625"/>
      </g>
     </g>
    </g>
    <g id="xtick_20">
     <g id="line2d_50">
      <g>
       <use style="stroke:#000000;stroke-width:0.5;" x="304.710413462" xlink:href="#m177f7580d0" y="346.8390625"/>
      </g>
     </g>
     <g id="line2d_51">
      <g>
       <use style="stroke:#000000;stroke-width:0.5;" x="304.710413462" xlink:href="#m5284c7e2a0" y="12.0390625"/>
      </g>
     </g>
    </g>
    <g id="xtick_21">
     <g id="line2d_52">
      <g>
       <use style="stroke:#000000;stroke-width:0.5;" x="322.566413462" xlink:href="#m177f7580d0" y="346.8390625"/>
      </g>
     </g>
     <g id="line2d_53">
      <g>
       <use style="stroke:#000000;stroke-width:0.5;" x="322.566413462" xlink:href="#m5284c7e2a0" y="12.0390625"/>
      </g>
     </g>
    </g>
    <g id="xtick_22">
     <g id="line2d_54">
      <g>
       <use style="stroke:#000000;stroke-width:0.5;" x="358.278413462" xlink:href="#m177f7580d0" y="346.8390625"/>
      </g>
     </g>
     <g id="line2d_55">
      <g>
       <use style="stroke:#000000;stroke-width:0.5;" x="358.278413462" xlink:href="#m5284c7e2a0" y="12.0390625"/>
      </g>
     </g>
    </g>
    <g id="xtick_23">
     <g id="line2d_56">
      <g>
       <use style="stroke:#000000;stroke-width:0.5;" x="376.134413462" xlink:href="#m177f7580d0" y="346.8390625"/>
      </g>
     </g>
     <g id="line2d_57">
      <g>
       <use style="stroke:#000000;stroke-width:0.5;" x="376.134413462" xlink:href="#m5284c7e2a0" y="12.0390625"/>
      </g>
     </g>
    </g>
    <g id="xtick_24">
     <g id="line2d_58">
      <g>
       <use style="stroke:#000000;stroke-width:0.5;" x="395.363951923" xlink:href="#m177f7580d0" y="346.8390625"/>
      </g>
     </g>
     <g id="line2d_59">
      <g>
       <use style="stroke:#000000;stroke-width:0.5;" x="395.363951923" xlink:href="#m5284c7e2a0" y="12.0390625"/>
      </g>
     </g>
    </g>
    <g id="xtick_25">
     <g id="line2d_60">
      <g>
       <use style="stroke:#000000;stroke-width:0.5;" x="431.075951923" xlink:href="#m177f7580d0" y="346.8390625"/>
      </g>
     </g>
     <g id="line2d_61">
      <g>
       <use style="stroke:#000000;stroke-width:0.5;" x="431.075951923" xlink:href="#m5284c7e2a0" y="12.0390625"/>
      </g>
     </g>
    </g>
    <g id="xtick_26">
     <g id="line2d_62">
      <g>
       <use style="stroke:#000000;stroke-width:0.5;" x="448.931951923" xlink:href="#m177f7580d0" y="346.8390625"/>
      </g>
     </g>
     <g id="line2d_63">
      <g>
       <use style="stroke:#000000;stroke-width:0.5;" x="448.931951923" xlink:href="#m5284c7e2a0" y="12.0390625"/>
      </g>
     </g>
    </g>
    <g id="xtick_27">
     <g id="line2d_64">
      <g>
       <use style="stroke:#000000;stroke-width:0.5;" x="466.787951923" xlink:href="#m177f7580d0" y="346.8390625"/>
      </g>
     </g>
     <g id="line2d_65">
      <g>
       <use style="stroke:#000000;stroke-width:0.5;" x="466.787951923" xlink:href="#m5284c7e2a0" y="12.0390625"/>
      </g>
     </g>
    </g>
   </g>
   <g id="matplotlib.axis_2">
    <g id="ytick_1">
     <g id="line2d_66">
      <path clip-path="url(#p9281b82f0c)" d="
M35.4969 346.839
L481.897 346.839" style="fill:none;stroke:#000000;stroke-dasharray:1.000000,3.000000;stroke-dashoffset:0.0;stroke-width:0.5;"/>
     </g>
     <g id="line2d_67">
      <defs>
       <path d="
M0 0
L4 0" id="m728421d6d4" style="stroke:#000000;stroke-width:0.5;"/>
      </defs>
      <g>
       <use style="stroke:#000000;stroke-width:0.5;" x="35.496875" xlink:href="#m728421d6d4" y="346.8390625"/>
      </g>
     </g>
     <g id="line2d_68">
      <defs>
       <path d="
M0 0
L-4 0" id="mcb0005524f" style="stroke:#000000;stroke-width:0.5;"/>
      </defs>
      <g>
       <use style="stroke:#000000;stroke-width:0.5;" x="481.896875" xlink:href="#mcb0005524f" y="346.8390625"/>
      </g>
     </g>
     <g id="text_7">
      <!-- 0 -->
      <g transform="translate(26.4578125 349.5984375)scale(0.1 -0.1)">
       <use xlink:href="#BitstreamVeraSans-Roman-30"/>
      </g>
     </g>
    </g>
    <g id="ytick_2">
     <g id="line2d_69">
      <path clip-path="url(#p9281b82f0c)" d="
M35.4969 291.039
L481.897 291.039" style="fill:none;stroke:#000000;stroke-dasharray:1.000000,3.000000;stroke-dashoffset:0.0;stroke-width:0.5;"/>
     </g>
     <g id="line2d_70">
      <g>
       <use style="stroke:#000000;stroke-width:0.5;" x="35.496875" xlink:href="#m728421d6d4" y="291.0390625"/>
      </g>
     </g>
     <g id="line2d_71">
      <g>
       <use style="stroke:#000000;stroke-width:0.5;" x="481.896875" xlink:href="#mcb0005524f" y="291.0390625"/>
      </g>
     </g>
     <g id="text_8">
      <!-- 1000 -->
      <g transform="translate(7.809375 293.7984375)scale(0.1 -0.1)">
       <use xlink:href="#BitstreamVeraSans-Roman-31"/>
       <use x="63.623046875" xlink:href="#BitstreamVeraSans-Roman-30"/>
       <use x="127.24609375" xlink:href="#BitstreamVeraSans-Roman-30"/>
       <use x="190.869140625" xlink:href="#BitstreamVeraSans-Roman-30"/>
      </g>
     </g>
    </g>
    <g id="ytick_3">
     <g id="line2d_72">
      <path clip-path="url(#p9281b82f0c)" d="
M35.4969 235.239
L481.897 235.239" style="fill:none;stroke:#000000;stroke-dasharray:1.000000,3.000000;stroke-dashoffset:0.0;stroke-width:0.5;"/>
     </g>
     <g id="line2d_73">
      <g>
       <use style="stroke:#000000;stroke-width:0.5;" x="35.496875" xlink:href="#m728421d6d4" y="235.2390625"/>
      </g>
     </g>
     <g id="line2d_74">
      <g>
       <use style="stroke:#000000;stroke-width:0.5;" x="481.896875" xlink:href="#mcb0005524f" y="235.2390625"/>
      </g>
     </g>
     <g id="text_9">
      <!-- 2000 -->
      <g transform="translate(7.44375 237.9984375)scale(0.1 -0.1)">
       <use xlink:href="#BitstreamVeraSans-Roman-32"/>
       <use x="63.623046875" xlink:href="#BitstreamVeraSans-Roman-30"/>
       <use x="127.24609375" xlink:href="#BitstreamVeraSans-Roman-30"/>
       <use x="190.869140625" xlink:href="#BitstreamVeraSans-Roman-30"/>
      </g>
     </g>
    </g>
    <g id="ytick_4">
     <g id="line2d_75">
      <path clip-path="url(#p9281b82f0c)" d="
M35.4969 179.439
L481.897 179.439" style="fill:none;stroke:#000000;stroke-dasharray:1.000000,3.000000;stroke-dashoffset:0.0;stroke-width:0.5;"/>
     </g>
     <g id="line2d_76">
      <g>
       <use style="stroke:#000000;stroke-width:0.5;" x="35.496875" xlink:href="#m728421d6d4" y="179.4390625"/>
      </g>
     </g>
     <g id="line2d_77">
      <g>
       <use style="stroke:#000000;stroke-width:0.5;" x="481.896875" xlink:href="#mcb0005524f" y="179.4390625"/>
      </g>
     </g>
     <g id="text_10">
      <!-- 3000 -->
      <defs>
       <path d="
M40.5781 39.3125
Q47.6562 37.7969 51.625 33
Q55.6094 28.2188 55.6094 21.1875
Q55.6094 10.4062 48.1875 4.48438
Q40.7656 -1.42188 27.0938 -1.42188
Q22.5156 -1.42188 17.6562 -0.515625
Q12.7969 0.390625 7.625 2.20312
L7.625 11.7188
Q11.7188 9.32812 16.5938 8.10938
Q21.4844 6.89062 26.8125 6.89062
Q36.0781 6.89062 40.9375 10.5469
Q45.7969 14.2031 45.7969 21.1875
Q45.7969 27.6406 41.2812 31.2656
Q36.7656 34.9062 28.7188 34.9062
L20.2188 34.9062
L20.2188 43.0156
L29.1094 43.0156
Q36.375 43.0156 40.2344 45.9219
Q44.0938 48.8281 44.0938 54.2969
Q44.0938 59.9062 40.1094 62.9062
Q36.1406 65.9219 28.7188 65.9219
Q24.6562 65.9219 20.0156 65.0312
Q15.375 64.1562 9.8125 62.3125
L9.8125 71.0938
Q15.4375 72.6562 20.3438 73.4375
Q25.25 74.2188 29.5938 74.2188
Q40.8281 74.2188 47.3594 69.1094
Q53.9062 64.0156 53.9062 55.3281
Q53.9062 49.2656 50.4375 45.0938
Q46.9688 40.9219 40.5781 39.3125" id="BitstreamVeraSans-Roman-33"/>
      </defs>
      <g transform="translate(7.4734375 182.1984375)scale(0.1 -0.1)">
       <use xlink:href="#BitstreamVeraSans-Roman-33"/>
       <use x="63.623046875" xlink:href="#BitstreamVeraSans-Roman-30"/>
       <use x="127.24609375" xlink:href="#BitstreamVeraSans-Roman-30"/>
       <use x="190.869140625" xlink:href="#BitstreamVeraSans-Roman-30"/>
      </g>
     </g>
    </g>
    <g id="ytick_5">
     <g id="line2d_78">
      <path clip-path="url(#p9281b82f0c)" d="
M35.4969 123.639
L481.897 123.639" style="fill:none;stroke:#000000;stroke-dasharray:1.000000,3.000000;stroke-dashoffset:0.0;stroke-width:0.5;"/>
     </g>
     <g id="line2d_79">
      <g>
       <use style="stroke:#000000;stroke-width:0.5;" x="35.496875" xlink:href="#m728421d6d4" y="123.6390625"/>
      </g>
     </g>
     <g id="line2d_80">
      <g>
       <use style="stroke:#000000;stroke-width:0.5;" x="481.896875" xlink:href="#mcb0005524f" y="123.6390625"/>
      </g>
     </g>
     <g id="text_11">
      <!-- 4000 -->
      <defs>
       <path d="
M37.7969 64.3125
L12.8906 25.3906
L37.7969 25.3906
z

M35.2031 72.9062
L47.6094 72.9062
L47.6094 25.3906
L58.0156 25.3906
L58.0156 17.1875
L47.6094 17.1875
L47.6094 0
L37.7969 0
L37.7969 17.1875
L4.89062 17.1875
L4.89062 26.7031
z
" id="BitstreamVeraSans-Roman-34"/>
      </defs>
      <g transform="translate(7.2 126.3984375)scale(0.1 -0.1)">
       <use xlink:href="#BitstreamVeraSans-Roman-34"/>
       <use x="63.623046875" xlink:href="#BitstreamVeraSans-Roman-30"/>
       <use x="127.24609375" xlink:href="#BitstreamVeraSans-Roman-30"/>
       <use x="190.869140625" xlink:href="#BitstreamVeraSans-Roman-30"/>
      </g>
     </g>
    </g>
    <g id="ytick_6">
     <g id="line2d_81">
      <path clip-path="url(#p9281b82f0c)" d="
M35.4969 67.8391
L481.897 67.8391" style="fill:none;stroke:#000000;stroke-dasharray:1.000000,3.000000;stroke-dashoffset:0.0;stroke-width:0.5;"/>
     </g>
     <g id="line2d_82">
      <g>
       <use style="stroke:#000000;stroke-width:0.5;" x="35.496875" xlink:href="#m728421d6d4" y="67.8390625"/>
      </g>
     </g>
     <g id="line2d_83">
      <g>
       <use style="stroke:#000000;stroke-width:0.5;" x="481.896875" xlink:href="#mcb0005524f" y="67.8390625"/>
      </g>
     </g>
     <g id="text_12">
      <!-- 5000 -->
      <defs>
       <path d="
M10.7969 72.9062
L49.5156 72.9062
L49.5156 64.5938
L19.8281 64.5938
L19.8281 46.7344
Q21.9688 47.4688 24.1094 47.8281
Q26.2656 48.1875 28.4219 48.1875
Q40.625 48.1875 47.75 41.5
Q54.8906 34.8125 54.8906 23.3906
Q54.8906 11.625 47.5625 5.09375
Q40.2344 -1.42188 26.9062 -1.42188
Q22.3125 -1.42188 17.5469 -0.640625
Q12.7969 0.140625 7.71875 1.70312
L7.71875 11.625
Q12.1094 9.23438 16.7969 8.0625
Q21.4844 6.89062 26.7031 6.89062
Q35.1562 6.89062 40.0781 11.3281
Q45.0156 15.7656 45.0156 23.3906
Q45.0156 31 40.0781 35.4375
Q35.1562 39.8906 26.7031 39.8906
Q22.75 39.8906 18.8125 39.0156
Q14.8906 38.1406 10.7969 36.2812
z
" id="BitstreamVeraSans-Roman-35"/>
      </defs>
      <g transform="translate(7.4828125 70.5984375)scale(0.1 -0.1)">
       <use xlink:href="#BitstreamVeraSans-Roman-35"/>
       <use x="63.623046875" xlink:href="#BitstreamVeraSans-Roman-30"/>
       <use x="127.24609375" xlink:href="#BitstreamVeraSans-Roman-30"/>
       <use x="190.869140625" xlink:href="#BitstreamVeraSans-Roman-30"/>
      </g>
     </g>
    </g>
    <g id="ytick_7">
     <g id="line2d_84">
      <path clip-path="url(#p9281b82f0c)" d="
M35.4969 12.0391
L481.897 12.0391" style="fill:none;stroke:#000000;stroke-dasharray:1.000000,3.000000;stroke-dashoffset:0.0;stroke-width:0.5;"/>
     </g>
     <g id="line2d_85">
      <g>
       <use style="stroke:#000000;stroke-width:0.5;" x="35.496875" xlink:href="#m728421d6d4" y="12.0390625"/>
      </g>
     </g>
     <g id="line2d_86">
      <g>
       <use style="stroke:#000000;stroke-width:0.5;" x="481.896875" xlink:href="#mcb0005524f" y="12.0390625"/>
      </g>
     </g>
     <g id="text_13">
      <!-- 6000 -->
      <defs>
       <path d="
M33.0156 40.375
Q26.375 40.375 22.4844 35.8281
Q18.6094 31.2969 18.6094 23.3906
Q18.6094 15.5312 22.4844 10.9531
Q26.375 6.39062 33.0156 6.39062
Q39.6562 6.39062 43.5312 10.9531
Q47.4062 15.5312 47.4062 23.3906
Q47.4062 31.2969 43.5312 35.8281
Q39.6562 40.375 33.0156 40.375
M52.5938 71.2969
L52.5938 62.3125
Q48.875 64.0625 45.0938 64.9844
Q41.3125 65.9219 37.5938 65.9219
Q27.8281 65.9219 22.6719 59.3281
Q17.5312 52.7344 16.7969 39.4062
Q19.6719 43.6562 24.0156 45.9219
Q28.375 48.1875 33.5938 48.1875
Q44.5781 48.1875 50.9531 41.5156
Q57.3281 34.8594 57.3281 23.3906
Q57.3281 12.1562 50.6875 5.35938
Q44.0469 -1.42188 33.0156 -1.42188
Q20.3594 -1.42188 13.6719 8.26562
Q6.98438 17.9688 6.98438 36.375
Q6.98438 53.6562 15.1875 63.9375
Q23.3906 74.2188 37.2031 74.2188
Q40.9219 74.2188 44.7031 73.4844
Q48.4844 72.75 52.5938 71.2969" id="BitstreamVeraSans-Roman-36"/>
      </defs>
      <g transform="translate(7.409375 14.7984375)scale(0.1 -0.1)">
       <use xlink:href="#BitstreamVeraSans-Roman-36"/>
       <use x="63.623046875" xlink:href="#BitstreamVeraSans-Roman-30"/>
       <use x="127.24609375" xlink:href="#BitstreamVeraSans-Roman-30"/>
       <use x="190.869140625" xlink:href="#BitstreamVeraSans-Roman-30"/>
      </g>
     </g>
    </g>
   </g>
   <g id="legend_1">
    <g id="patch_7">
     <path d="
M41.4969 74.4803
L111.117 74.4803
L111.117 18.0391
L41.4969 18.0391
z
" style="fill:#ffffff;stroke:#000000;stroke-linejoin:miter;"/>
    </g>
    <g id="line2d_87">
     <path d="
M49.2969 27.7572
L66.2969 27.7572" style="fill:none;stroke:#0000ff;stroke-linecap:square;"/>
    </g>
    <g id="line2d_88"/>
    <g id="text_14">
     <!-- FRI -->
     <defs>
      <path d="
M9.8125 72.9062
L51.7031 72.9062
L51.7031 64.5938
L19.6719 64.5938
L19.6719 43.1094
L48.5781 43.1094
L48.5781 34.8125
L19.6719 34.8125
L19.6719 0
L9.8125 0
z
" id="BitstreamVeraSans-Roman-46"/>
      <path d="
M44.3906 34.1875
Q47.5625 33.1094 50.5625 29.5938
Q53.5625 26.0781 56.5938 19.9219
L66.6094 0
L56 0
L46.6875 18.7031
Q43.0625 26.0312 39.6719 28.4219
Q36.2812 30.8125 30.4219 30.8125
L19.6719 30.8125
L19.6719 0
L9.8125 0
L9.8125 72.9062
L32.0781 72.9062
Q44.5781 72.9062 50.7344 67.6719
Q56.8906 62.4531 56.8906 51.9062
Q56.8906 45.0156 53.6875 40.4688
Q50.4844 35.9375 44.3906 34.1875
M19.6719 64.7969
L19.6719 38.9219
L32.0781 38.9219
Q39.2031 38.9219 42.8438 42.2188
Q46.4844 45.5156 46.4844 51.9062
Q46.4844 58.2969 42.8438 61.5469
Q39.2031 64.7969 32.0781 64.7969
z
" id="BitstreamVeraSans-Roman-52"/>
      <path d="
M9.8125 72.9062
L19.6719 72.9062
L19.6719 0
L9.8125 0
z
" id="BitstreamVeraSans-Roman-49"/>
     </defs>
     <g transform="translate(79.896875 31.9571875)scale(0.12 -0.12)">
      <use xlink:href="#BitstreamVeraSans-Roman-46"/>
      <use x="57.51953125" xlink:href="#BitstreamVeraSans-Roman-52"/>
      <use x="127.001953125" xlink:href="#BitstreamVeraSans-Roman-49"/>
     </g>
    </g>
    <g id="line2d_89">
     <path d="
M49.2969 45.3709
L66.2969 45.3709" style="fill:none;stroke:#008000;stroke-linecap:square;"/>
    </g>
    <g id="line2d_90"/>
    <g id="text_15">
     <!-- MON -->
     <defs>
      <path d="
M39.4062 66.2188
Q28.6562 66.2188 22.3281 58.2031
Q16.0156 50.2031 16.0156 36.375
Q16.0156 22.6094 22.3281 14.5938
Q28.6562 6.59375 39.4062 6.59375
Q50.1406 6.59375 56.4219 14.5938
Q62.7031 22.6094 62.7031 36.375
Q62.7031 50.2031 56.4219 58.2031
Q50.1406 66.2188 39.4062 66.2188
M39.4062 74.2188
Q54.7344 74.2188 63.9062 63.9375
Q73.0938 53.6562 73.0938 36.375
Q73.0938 19.1406 63.9062 8.85938
Q54.7344 -1.42188 39.4062 -1.42188
Q24.0312 -1.42188 14.8125 8.82812
Q5.60938 19.0938 5.60938 36.375
Q5.60938 53.6562 14.8125 63.9375
Q24.0312 74.2188 39.4062 74.2188" id="BitstreamVeraSans-Roman-4f"/>
      <path d="
M9.8125 72.9062
L23.0938 72.9062
L55.4219 11.9219
L55.4219 72.9062
L64.9844 72.9062
L64.9844 0
L51.7031 0
L19.3906 60.9844
L19.3906 0
L9.8125 0
z
" id="BitstreamVeraSans-Roman-4e"/>
      <path d="
M9.8125 72.9062
L24.5156 72.9062
L43.1094 23.2969
L61.8125 72.9062
L76.5156 72.9062
L76.5156 0
L66.8906 0
L66.8906 64.0156
L48.0938 14.0156
L38.1875 14.0156
L19.3906 64.0156
L19.3906 0
L9.8125 0
z
" id="BitstreamVeraSans-Roman-4d"/>
     </defs>
     <g transform="translate(79.896875 49.5709375)scale(0.12 -0.12)">
      <use xlink:href="#BitstreamVeraSans-Roman-4d"/>
      <use x="86.279296875" xlink:href="#BitstreamVeraSans-Roman-4f"/>
      <use x="164.990234375" xlink:href="#BitstreamVeraSans-Roman-4e"/>
     </g>
    </g>
    <g id="line2d_91">
     <path d="
M49.2969 62.9847
L66.2969 62.9847" style="fill:none;stroke:#ff0000;stroke-linecap:square;"/>
    </g>
    <g id="line2d_92"/>
    <g id="text_16">
     <!-- SUN -->
     <defs>
      <path d="
M53.5156 70.5156
L53.5156 60.8906
Q47.9062 63.5781 42.9219 64.8906
Q37.9375 66.2188 33.2969 66.2188
Q25.25 66.2188 20.875 63.0938
Q16.5 59.9688 16.5 54.2031
Q16.5 49.3594 19.4062 46.8906
Q22.3125 44.4375 30.4219 42.9219
L36.375 41.7031
Q47.4062 39.5938 52.6562 34.2969
Q57.9062 29 57.9062 20.125
Q57.9062 9.51562 50.7969 4.04688
Q43.7031 -1.42188 29.9844 -1.42188
Q24.8125 -1.42188 18.9688 -0.25
Q13.1406 0.921875 6.89062 3.21875
L6.89062 13.375
Q12.8906 10.0156 18.6562 8.29688
Q24.4219 6.59375 29.9844 6.59375
Q38.4219 6.59375 43.0156 9.90625
Q47.6094 13.2344 47.6094 19.3906
Q47.6094 24.75 44.3125 27.7812
Q41.0156 30.8125 33.5 32.3281
L27.4844 33.5
Q16.4531 35.6875 11.5156 40.375
Q6.59375 45.0625 6.59375 53.4219
Q6.59375 63.0938 13.4062 68.6562
Q20.2188 74.2188 32.1719 74.2188
Q37.3125 74.2188 42.625 73.2812
Q47.9531 72.3594 53.5156 70.5156" id="BitstreamVeraSans-Roman-53"/>
      <path d="
M8.6875 72.9062
L18.6094 72.9062
L18.6094 28.6094
Q18.6094 16.8906 22.8438 11.7344
Q27.0938 6.59375 36.625 6.59375
Q46.0938 6.59375 50.3438 11.7344
Q54.5938 16.8906 54.5938 28.6094
L54.5938 72.9062
L64.5 72.9062
L64.5 27.3906
Q64.5 13.1406 57.4375 5.85938
Q50.3906 -1.42188 36.625 -1.42188
Q22.7969 -1.42188 15.7344 5.85938
Q8.6875 13.1406 8.6875 27.3906
z
" id="BitstreamVeraSans-Roman-55"/>
     </defs>
     <g transform="translate(79.896875 67.1846875)scale(0.12 -0.12)">
      <use xlink:href="#BitstreamVeraSans-Roman-53"/>
      <use x="63.4765625" xlink:href="#BitstreamVeraSans-Roman-55"/>
      <use x="136.669921875" xlink:href="#BitstreamVeraSans-Roman-4e"/>
     </g>
    </g>
   </g>
  </g>
 </g>
 <defs>
  <clipPath id="p9281b82f0c">
   <rect height="334.8" width="446.4" x="35.496875" y="12.0390625"/>
  </clipPath>
 </defs>
</svg>
