<?xml version="1.0" encoding="utf-8" standalone="no"?>
<!DOCTYPE svg PUBLIC "-//W3C//DTD SVG 1.1//EN"
  "http://www.w3.org/Graphics/SVG/1.1/DTD/svg11.dtd">
<!-- Created with matplotlib (http://matplotlib.org/) -->
<svg height="348pt" version="1.1" viewBox="0 0 487 348" width="487pt" xmlns="http://www.w3.org/2000/svg" xmlns:xlink="http://www.w3.org/1999/xlink">
 <defs>
  <style type="text/css">
*{stroke-linecap:butt;stroke-linejoin:round;}
  </style>
 </defs>
 <g id="figure_1">
  <g id="patch_1">
   <path d="
M0 348.817
L487.775 348.817
L487.775 0
L0 0
z
" style="fill:#ffffff;"/>
  </g>
  <g id="axes_1">
   <g id="patch_2">
    <path d="
M25.5125 318.939
L471.912 318.939
L471.912 12.0391
L25.5125 12.0391
z
" style="fill:#ffffff;"/>
   </g>
   <g id="matplotlib.axis_1">
    <g id="xtick_1">
     <g id="line2d_1">
      <defs>
       <path d="
M0 0
L0 6" id="m44d4eda7dc" style="stroke:#262626;"/>
      </defs>
      <g>
       <use style="fill:#262626;stroke:#262626;" x="25.5125" xlink:href="#m44d4eda7dc" y="318.9390625"/>
      </g>
     </g>
     <g id="line2d_2">
      <defs>
       <path d="
M0 0
L0 -6" id="m6214b81e1c" style="stroke:#262626;"/>
      </defs>
      <g>
       <use style="fill:#262626;stroke:#262626;" x="25.5125" xlink:href="#m6214b81e1c" y="12.0390625"/>
      </g>
     </g>
     <g id="text_1">
      <!-- 0 -->
      <defs>
       <path d="
M31.7812 66.4062
Q24.1719 66.4062 20.3281 58.9062
Q16.5 51.4219 16.5 36.375
Q16.5 21.3906 20.3281 13.8906
Q24.1719 6.39062 31.7812 6.39062
Q39.4531 6.39062 43.2812 13.8906
Q47.125 21.3906 47.125 36.375
Q47.125 51.4219 43.2812 58.9062
Q39.4531 66.4062 31.7812 66.4062
M31.7812 74.2188
Q44.0469 74.2188 50.5156 64.5156
Q56.9844 54.8281 56.9844 36.375
Q56.9844 17.9688 50.5156 8.26562
Q44.0469 -1.42188 31.7812 -1.42188
Q19.5312 -1.42188 13.0625 8.26562
Q6.59375 17.9688 6.59375 36.375
Q6.59375 54.8281 13.0625 64.5156
Q19.5312 74.2188 31.7812 74.2188" id="BitstreamVeraSans-Roman-30"/>
      </defs>
      <g style="fill:#262626;" transform="translate(22.99296875 339.5375)scale(0.1 -0.1)">
       <use xlink:href="#BitstreamVeraSans-Roman-30"/>
      </g>
     </g>
    </g>
    <g id="xtick_2">
     <g id="line2d_3">
      <g>
       <use style="fill:#262626;stroke:#262626;" x="114.7925" xlink:href="#m44d4eda7dc" y="318.9390625"/>
      </g>
     </g>
     <g id="line2d_4">
      <g>
       <use style="fill:#262626;stroke:#262626;" x="114.7925" xlink:href="#m6214b81e1c" y="12.0390625"/>
      </g>
     </g>
     <g id="text_2">
      <!-- 20 -->
      <defs>
       <path d="
M19.1875 8.29688
L53.6094 8.29688
L53.6094 0
L7.32812 0
L7.32812 8.29688
Q12.9375 14.1094 22.625 23.8906
Q32.3281 33.6875 34.8125 36.5312
Q39.5469 41.8438 41.4219 45.5312
Q43.3125 49.2188 43.3125 52.7812
Q43.3125 58.5938 39.2344 62.25
Q35.1562 65.9219 28.6094 65.9219
Q23.9688 65.9219 18.8125 64.3125
Q13.6719 62.7031 7.8125 59.4219
L7.8125 69.3906
Q13.7656 71.7812 18.9375 73
Q24.125 74.2188 28.4219 74.2188
Q39.75 74.2188 46.4844 68.5469
Q53.2188 62.8906 53.2188 53.4219
Q53.2188 48.9219 51.5312 44.8906
Q49.8594 40.875 45.4062 35.4062
Q44.1875 33.9844 37.6406 27.2188
Q31.1094 20.4531 19.1875 8.29688" id="BitstreamVeraSans-Roman-32"/>
      </defs>
      <g style="fill:#262626;" transform="translate(109.1284375 339.5375)scale(0.1 -0.1)">
       <use xlink:href="#BitstreamVeraSans-Roman-32"/>
       <use x="63.623046875" xlink:href="#BitstreamVeraSans-Roman-30"/>
      </g>
     </g>
    </g>
    <g id="xtick_3">
     <g id="line2d_5">
      <g>
       <use style="fill:#262626;stroke:#262626;" x="204.0725" xlink:href="#m44d4eda7dc" y="318.9390625"/>
      </g>
     </g>
     <g id="line2d_6">
      <g>
       <use style="fill:#262626;stroke:#262626;" x="204.0725" xlink:href="#m6214b81e1c" y="12.0390625"/>
      </g>
     </g>
     <g id="text_3">
      <!-- 40 -->
      <defs>
       <path d="
M37.7969 64.3125
L12.8906 25.3906
L37.7969 25.3906
z

M35.2031 72.9062
L47.6094 72.9062
L47.6094 25.3906
L58.0156 25.3906
L58.0156 17.1875
L47.6094 17.1875
L47.6094 0
L37.7969 0
L37.7969 17.1875
L4.89062 17.1875
L4.89062 26.7031
z
" id="BitstreamVeraSans-Roman-34"/>
      </defs>
      <g style="fill:#262626;" transform="translate(198.2865625 339.5375)scale(0.1 -0.1)">
       <use xlink:href="#BitstreamVeraSans-Roman-34"/>
       <use x="63.623046875" xlink:href="#BitstreamVeraSans-Roman-30"/>
      </g>
     </g>
    </g>
    <g id="xtick_4">
     <g id="line2d_7">
      <g>
       <use style="fill:#262626;stroke:#262626;" x="293.3525" xlink:href="#m44d4eda7dc" y="318.9390625"/>
      </g>
     </g>
     <g id="line2d_8">
      <g>
       <use style="fill:#262626;stroke:#262626;" x="293.3525" xlink:href="#m6214b81e1c" y="12.0390625"/>
      </g>
     </g>
     <g id="text_4">
      <!-- 60 -->
      <defs>
       <path d="
M33.0156 40.375
Q26.375 40.375 22.4844 35.8281
Q18.6094 31.2969 18.6094 23.3906
Q18.6094 15.5312 22.4844 10.9531
Q26.375 6.39062 33.0156 6.39062
Q39.6562 6.39062 43.5312 10.9531
Q47.4062 15.5312 47.4062 23.3906
Q47.4062 31.2969 43.5312 35.8281
Q39.6562 40.375 33.0156 40.375
M52.5938 71.2969
L52.5938 62.3125
Q48.875 64.0625 45.0938 64.9844
Q41.3125 65.9219 37.5938 65.9219
Q27.8281 65.9219 22.6719 59.3281
Q17.5312 52.7344 16.7969 39.4062
Q19.6719 43.6562 24.0156 45.9219
Q28.375 48.1875 33.5938 48.1875
Q44.5781 48.1875 50.9531 41.5156
Q57.3281 34.8594 57.3281 23.3906
Q57.3281 12.1562 50.6875 5.35938
Q44.0469 -1.42188 33.0156 -1.42188
Q20.3594 -1.42188 13.6719 8.26562
Q6.98438 17.9688 6.98438 36.375
Q6.98438 53.6562 15.1875 63.9375
Q23.3906 74.2188 37.2031 74.2188
Q40.9219 74.2188 44.7031 73.4844
Q48.4844 72.75 52.5938 71.2969" id="BitstreamVeraSans-Roman-36"/>
      </defs>
      <g style="fill:#262626;" transform="translate(287.67125 339.5375)scale(0.1 -0.1)">
       <use xlink:href="#BitstreamVeraSans-Roman-36"/>
       <use x="63.623046875" xlink:href="#BitstreamVeraSans-Roman-30"/>
      </g>
     </g>
    </g>
    <g id="xtick_5">
     <g id="line2d_9">
      <g>
       <use style="fill:#262626;stroke:#262626;" x="382.6325" xlink:href="#m44d4eda7dc" y="318.9390625"/>
      </g>
     </g>
     <g id="line2d_10">
      <g>
       <use style="fill:#262626;stroke:#262626;" x="382.6325" xlink:href="#m6214b81e1c" y="12.0390625"/>
      </g>
     </g>
     <g id="text_5">
      <!-- 80 -->
      <defs>
       <path d="
M31.7812 34.625
Q24.75 34.625 20.7188 30.8594
Q16.7031 27.0938 16.7031 20.5156
Q16.7031 13.9219 20.7188 10.1562
Q24.75 6.39062 31.7812 6.39062
Q38.8125 6.39062 42.8594 10.1719
Q46.9219 13.9688 46.9219 20.5156
Q46.9219 27.0938 42.8906 30.8594
Q38.875 34.625 31.7812 34.625
M21.9219 38.8125
Q15.5781 40.375 12.0312 44.7188
Q8.5 49.0781 8.5 55.3281
Q8.5 64.0625 14.7188 69.1406
Q20.9531 74.2188 31.7812 74.2188
Q42.6719 74.2188 48.875 69.1406
Q55.0781 64.0625 55.0781 55.3281
Q55.0781 49.0781 51.5312 44.7188
Q48 40.375 41.7031 38.8125
Q48.8281 37.1562 52.7969 32.3125
Q56.7812 27.4844 56.7812 20.5156
Q56.7812 9.90625 50.3125 4.23438
Q43.8438 -1.42188 31.7812 -1.42188
Q19.7344 -1.42188 13.25 4.23438
Q6.78125 9.90625 6.78125 20.5156
Q6.78125 27.4844 10.7812 32.3125
Q14.7969 37.1562 21.9219 38.8125
M18.3125 54.3906
Q18.3125 48.7344 21.8438 45.5625
Q25.3906 42.3906 31.7812 42.3906
Q38.1406 42.3906 41.7188 45.5625
Q45.3125 48.7344 45.3125 54.3906
Q45.3125 60.0625 41.7188 63.2344
Q38.1406 66.4062 31.7812 66.4062
Q25.3906 66.4062 21.8438 63.2344
Q18.3125 60.0625 18.3125 54.3906" id="BitstreamVeraSans-Roman-38"/>
      </defs>
      <g style="fill:#262626;" transform="translate(376.94109375 339.5375)scale(0.1 -0.1)">
       <use xlink:href="#BitstreamVeraSans-Roman-38"/>
       <use x="63.623046875" xlink:href="#BitstreamVeraSans-Roman-30"/>
      </g>
     </g>
    </g>
    <g id="xtick_6">
     <g id="line2d_11">
      <g>
       <use style="fill:#262626;stroke:#262626;" x="471.9125" xlink:href="#m44d4eda7dc" y="318.9390625"/>
      </g>
     </g>
     <g id="line2d_12">
      <g>
       <use style="fill:#262626;stroke:#262626;" x="471.9125" xlink:href="#m6214b81e1c" y="12.0390625"/>
      </g>
     </g>
     <g id="text_6">
      <!-- 100 -->
      <defs>
       <path d="
M12.4062 8.29688
L28.5156 8.29688
L28.5156 63.9219
L10.9844 60.4062
L10.9844 69.3906
L28.4219 72.9062
L38.2812 72.9062
L38.2812 8.29688
L54.3906 8.29688
L54.3906 0
L12.4062 0
z
" id="BitstreamVeraSans-Roman-31"/>
      </defs>
      <g style="fill:#262626;" transform="translate(463.25 339.5375)scale(0.1 -0.1)">
       <use xlink:href="#BitstreamVeraSans-Roman-31"/>
       <use x="63.623046875" xlink:href="#BitstreamVeraSans-Roman-30"/>
       <use x="127.24609375" xlink:href="#BitstreamVeraSans-Roman-30"/>
      </g>
     </g>
    </g>
   </g>
   <g id="matplotlib.axis_2">
    <g id="ytick_1">
     <g id="line2d_13">
      <defs>
       <path d="
M0 0
L-6 0" id="m0dfa6ce036" style="stroke:#262626;"/>
      </defs>
      <g>
       <use style="fill:#262626;stroke:#262626;" x="25.5125" xlink:href="#m0dfa6ce036" y="318.9390625"/>
      </g>
     </g>
     <g id="line2d_14">
      <defs>
       <path d="
M0 0
L6 0" id="m0afc27f78c" style="stroke:#262626;"/>
      </defs>
      <g>
       <use style="fill:#262626;stroke:#262626;" x="471.9125" xlink:href="#m0afc27f78c" y="318.9390625"/>
      </g>
     </g>
     <g id="text_7">
      <!-- 1 -->
      <g style="fill:#262626;" transform="translate(8.171875 321.6984375)scale(0.1 -0.1)">
       <use xlink:href="#BitstreamVeraSans-Roman-31"/>
      </g>
     </g>
    </g>
    <g id="ytick_2">
     <g id="line2d_15">
      <g>
       <use style="fill:#262626;stroke:#262626;" x="25.5125" xlink:href="#m0dfa6ce036" y="257.5590625"/>
      </g>
     </g>
     <g id="line2d_16">
      <g>
       <use style="fill:#262626;stroke:#262626;" x="471.9125" xlink:href="#m0afc27f78c" y="257.5590625"/>
      </g>
     </g>
     <g id="text_8">
      <!-- 2 -->
      <g style="fill:#262626;" transform="translate(7.884375 260.3184375)scale(0.1 -0.1)">
       <use xlink:href="#BitstreamVeraSans-Roman-32"/>
      </g>
     </g>
    </g>
    <g id="ytick_3">
     <g id="line2d_17">
      <g>
       <use style="fill:#262626;stroke:#262626;" x="25.5125" xlink:href="#m0dfa6ce036" y="196.1790625"/>
      </g>
     </g>
     <g id="line2d_18">
      <g>
       <use style="fill:#262626;stroke:#262626;" x="471.9125" xlink:href="#m0afc27f78c" y="196.1790625"/>
      </g>
     </g>
     <g id="text_9">
      <!-- 3 -->
      <defs>
       <path d="
M40.5781 39.3125
Q47.6562 37.7969 51.625 33
Q55.6094 28.2188 55.6094 21.1875
Q55.6094 10.4062 48.1875 4.48438
Q40.7656 -1.42188 27.0938 -1.42188
Q22.5156 -1.42188 17.6562 -0.515625
Q12.7969 0.390625 7.625 2.20312
L7.625 11.7188
Q11.7188 9.32812 16.5938 8.10938
Q21.4844 6.89062 26.8125 6.89062
Q36.0781 6.89062 40.9375 10.5469
Q45.7969 14.2031 45.7969 21.1875
Q45.7969 27.6406 41.2812 31.2656
Q36.7656 34.9062 28.7188 34.9062
L20.2188 34.9062
L20.2188 43.0156
L29.1094 43.0156
Q36.375 43.0156 40.2344 45.9219
Q44.0938 48.8281 44.0938 54.2969
Q44.0938 59.9062 40.1094 62.9062
Q36.1406 65.9219 28.7188 65.9219
Q24.6562 65.9219 20.0156 65.0312
Q15.375 64.1562 9.8125 62.3125
L9.8125 71.0938
Q15.4375 72.6562 20.3438 73.4375
Q25.25 74.2188 29.5938 74.2188
Q40.8281 74.2188 47.3594 69.1094
Q53.9062 64.0156 53.9062 55.3281
Q53.9062 49.2656 50.4375 45.0938
Q46.9688 40.9219 40.5781 39.3125" id="BitstreamVeraSans-Roman-33"/>
      </defs>
      <g style="fill:#262626;" transform="translate(7.7140625 198.9384375)scale(0.1 -0.1)">
       <use xlink:href="#BitstreamVeraSans-Roman-33"/>
      </g>
     </g>
    </g>
    <g id="ytick_4">
     <g id="line2d_19">
      <g>
       <use style="fill:#262626;stroke:#262626;" x="25.5125" xlink:href="#m0dfa6ce036" y="134.7990625"/>
      </g>
     </g>
     <g id="line2d_20">
      <g>
       <use style="fill:#262626;stroke:#262626;" x="471.9125" xlink:href="#m0afc27f78c" y="134.7990625"/>
      </g>
     </g>
     <g id="text_10">
      <!-- 4 -->
      <g style="fill:#262626;" transform="translate(7.2 137.5584375)scale(0.1 -0.1)">
       <use xlink:href="#BitstreamVeraSans-Roman-34"/>
      </g>
     </g>
    </g>
    <g id="ytick_5">
     <g id="line2d_21">
      <g>
       <use style="fill:#262626;stroke:#262626;" x="25.5125" xlink:href="#m0dfa6ce036" y="73.4190625"/>
      </g>
     </g>
     <g id="line2d_22">
      <g>
       <use style="fill:#262626;stroke:#262626;" x="471.9125" xlink:href="#m0afc27f78c" y="73.4190625"/>
      </g>
     </g>
     <g id="text_11">
      <!-- 5 -->
      <defs>
       <path d="
M10.7969 72.9062
L49.5156 72.9062
L49.5156 64.5938
L19.8281 64.5938
L19.8281 46.7344
Q21.9688 47.4688 24.1094 47.8281
Q26.2656 48.1875 28.4219 48.1875
Q40.625 48.1875 47.75 41.5
Q54.8906 34.8125 54.8906 23.3906
Q54.8906 11.625 47.5625 5.09375
Q40.2344 -1.42188 26.9062 -1.42188
Q22.3125 -1.42188 17.5469 -0.640625
Q12.7969 0.140625 7.71875 1.70312
L7.71875 11.625
Q12.1094 9.23438 16.7969 8.0625
Q21.4844 6.89062 26.7031 6.89062
Q35.1562 6.89062 40.0781 11.3281
Q45.0156 15.7656 45.0156 23.3906
Q45.0156 31 40.0781 35.4375
Q35.1562 39.8906 26.7031 39.8906
Q22.75 39.8906 18.8125 39.0156
Q14.8906 38.1406 10.7969 36.2812
z
" id="BitstreamVeraSans-Roman-35"/>
      </defs>
      <g style="fill:#262626;" transform="translate(7.7953125 76.1784375)scale(0.1 -0.1)">
       <use xlink:href="#BitstreamVeraSans-Roman-35"/>
      </g>
     </g>
    </g>
    <g id="ytick_6">
     <g id="line2d_23">
      <g>
       <use style="fill:#262626;stroke:#262626;" x="25.5125" xlink:href="#m0dfa6ce036" y="12.0390625"/>
      </g>
     </g>
     <g id="line2d_24">
      <g>
       <use style="fill:#262626;stroke:#262626;" x="471.9125" xlink:href="#m0afc27f78c" y="12.0390625"/>
      </g>
     </g>
     <g id="text_12">
      <!-- 6 -->
      <g style="fill:#262626;" transform="translate(7.478125 14.7984375)scale(0.1 -0.1)">
       <use xlink:href="#BitstreamVeraSans-Roman-36"/>
      </g>
     </g>
    </g>
   </g>
   <g id="line2d_25">
    <defs>
     <path d="
M0 1.75
C0.464105 1.75 0.909265 1.56561 1.23744 1.23744
C1.56561 0.909265 1.75 0.464105 1.75 0
C1.75 -0.464105 1.56561 -0.909265 1.23744 -1.23744
C0.909265 -1.56561 0.464105 -1.75 0 -1.75
C-0.464105 -1.75 -0.909265 -1.56561 -1.23744 -1.23744
C-1.56561 -0.909265 -1.75 -0.464105 -1.75 0
C-1.75 0.464105 -1.56561 0.909265 -1.23744 1.23744
C-0.909265 1.56561 -0.464105 1.75 0 1.75
z
" id="m3d36f68132"/>
    </defs>
    <g clip-path="url(#p141e3b834e)">
     <use style="fill:#66c2a5;" x="25.5125" xlink:href="#m3d36f68132" y="273.651010764"/>
     <use style="fill:#66c2a5;" x="29.9765" xlink:href="#m3d36f68132" y="316.384042932"/>
     <use style="fill:#66c2a5;" x="34.4405" xlink:href="#m3d36f68132" y="316.744145993"/>
     <use style="fill:#66c2a5;" x="38.9045" xlink:href="#m3d36f68132" y="314.105094428"/>
     <use style="fill:#66c2a5;" x="43.3685" xlink:href="#m3d36f68132" y="300.472595941"/>
     <use style="fill:#66c2a5;" x="47.8325" xlink:href="#m3d36f68132" y="310.378810744"/>
     <use style="fill:#66c2a5;" x="52.2965" xlink:href="#m3d36f68132" y="317.045163713"/>
     <use style="fill:#66c2a5;" x="56.7605" xlink:href="#m3d36f68132" y="303.72597596"/>
     <use style="fill:#66c2a5;" x="61.2245" xlink:href="#m3d36f68132" y="303.181293993"/>
     <use style="fill:#66c2a5;" x="65.6885" xlink:href="#m3d36f68132" y="292.16968441"/>
     <use style="fill:#66c2a5;" x="70.1525" xlink:href="#m3d36f68132" y="318.6273214"/>
     <use style="fill:#66c2a5;" x="74.6165" xlink:href="#m3d36f68132" y="312.375360203"/>
     <use style="fill:#66c2a5;" x="79.0805" xlink:href="#m3d36f68132" y="215.412888783"/>
     <use style="fill:#66c2a5;" x="83.5445" xlink:href="#m3d36f68132" y="287.281337133"/>
     <use style="fill:#66c2a5;" x="88.0085" xlink:href="#m3d36f68132" y="267.590298603"/>
     <use style="fill:#66c2a5;" x="92.4725" xlink:href="#m3d36f68132" y="280.421535209"/>
     <use style="fill:#66c2a5;" x="96.9365" xlink:href="#m3d36f68132" y="28.1819053127"/>
     <use style="fill:#66c2a5;" x="101.4005" xlink:href="#m3d36f68132" y="295.275646105"/>
     <use style="fill:#66c2a5;" x="105.8645" xlink:href="#m3d36f68132" y="309.872026413"/>
     <use style="fill:#66c2a5;" x="110.3285" xlink:href="#m3d36f68132" y="290.669313635"/>
     <use style="fill:#66c2a5;" x="114.7925" xlink:href="#m3d36f68132" y="312.905920197"/>
     <use style="fill:#66c2a5;" x="119.2565" xlink:href="#m3d36f68132" y="302.00561097"/>
     <use style="fill:#66c2a5;" x="123.7205" xlink:href="#m3d36f68132" y="312.081636321"/>
     <use style="fill:#66c2a5;" x="128.1845" xlink:href="#m3d36f68132" y="307.708280729"/>
     <use style="fill:#66c2a5;" x="132.6485" xlink:href="#m3d36f68132" y="303.177593439"/>
     <use style="fill:#66c2a5;" x="137.1125" xlink:href="#m3d36f68132" y="177.408541391"/>
     <use style="fill:#66c2a5;" x="141.5765" xlink:href="#m3d36f68132" y="272.467519706"/>
     <use style="fill:#66c2a5;" x="146.0405" xlink:href="#m3d36f68132" y="315.50932345"/>
     <use style="fill:#66c2a5;" x="150.5045" xlink:href="#m3d36f68132" y="78.5981772287"/>
     <use style="fill:#66c2a5;" x="154.9685" xlink:href="#m3d36f68132" y="283.805942256"/>
     <use style="fill:#66c2a5;" x="159.4325" xlink:href="#m3d36f68132" y="280.758320712"/>
     <use style="fill:#66c2a5;" x="163.8965" xlink:href="#m3d36f68132" y="318.316136689"/>
     <use style="fill:#66c2a5;" x="168.3605" xlink:href="#m3d36f68132" y="275.151108226"/>
     <use style="fill:#66c2a5;" x="172.8245" xlink:href="#m3d36f68132" y="304.603478252"/>
     <use style="fill:#66c2a5;" x="177.2885" xlink:href="#m3d36f68132" y="286.930513228"/>
     <use style="fill:#66c2a5;" x="181.7525" xlink:href="#m3d36f68132" y="267.099528409"/>
     <use style="fill:#66c2a5;" x="186.2165" xlink:href="#m3d36f68132" y="276.40059322"/>
     <use style="fill:#66c2a5;" x="190.6805" xlink:href="#m3d36f68132" y="316.390898075"/>
     <use style="fill:#66c2a5;" x="195.1445" xlink:href="#m3d36f68132" y="268.108648793"/>
     <use style="fill:#66c2a5;" x="199.6085" xlink:href="#m3d36f68132" y="265.016401382"/>
     <use style="fill:#66c2a5;" x="204.0725" xlink:href="#m3d36f68132" y="317.594611735"/>
     <use style="fill:#66c2a5;" x="208.5365" xlink:href="#m3d36f68132" y="309.019257534"/>
     <use style="fill:#66c2a5;" x="213.0005" xlink:href="#m3d36f68132" y="315.529388567"/>
     <use style="fill:#66c2a5;" x="217.4645" xlink:href="#m3d36f68132" y="303.653424999"/>
     <use style="fill:#66c2a5;" x="221.9285" xlink:href="#m3d36f68132" y="313.322283582"/>
     <use style="fill:#66c2a5;" x="226.3925" xlink:href="#m3d36f68132" y="289.152527925"/>
     <use style="fill:#66c2a5;" x="230.8565" xlink:href="#m3d36f68132" y="300.67450147"/>
     <use style="fill:#66c2a5;" x="235.3205" xlink:href="#m3d36f68132" y="259.989247977"/>
     <use style="fill:#66c2a5;" x="239.7845" xlink:href="#m3d36f68132" y="310.705701601"/>
     <use style="fill:#66c2a5;" x="244.2485" xlink:href="#m3d36f68132" y="298.340866758"/>
     <use style="fill:#66c2a5;" x="248.7125" xlink:href="#m3d36f68132" y="310.811502463"/>
     <use style="fill:#66c2a5;" x="253.1765" xlink:href="#m3d36f68132" y="300.200733909"/>
     <use style="fill:#66c2a5;" x="257.6405" xlink:href="#m3d36f68132" y="301.389966983"/>
     <use style="fill:#66c2a5;" x="262.1045" xlink:href="#m3d36f68132" y="318.113871567"/>
     <use style="fill:#66c2a5;" x="266.5685" xlink:href="#m3d36f68132" y="309.919011345"/>
     <use style="fill:#66c2a5;" x="271.0325" xlink:href="#m3d36f68132" y="258.687226597"/>
     <use style="fill:#66c2a5;" x="275.4965" xlink:href="#m3d36f68132" y="125.244845623"/>
     <use style="fill:#66c2a5;" x="279.9605" xlink:href="#m3d36f68132" y="311.554706607"/>
     <use style="fill:#66c2a5;" x="284.4245" xlink:href="#m3d36f68132" y="297.3600504"/>
     <use style="fill:#66c2a5;" x="288.8885" xlink:href="#m3d36f68132" y="310.255991694"/>
     <use style="fill:#66c2a5;" x="293.3525" xlink:href="#m3d36f68132" y="306.305324033"/>
     <use style="fill:#66c2a5;" x="297.8165" xlink:href="#m3d36f68132" y="278.54014171"/>
     <use style="fill:#66c2a5;" x="302.2805" xlink:href="#m3d36f68132" y="312.295883578"/>
     <use style="fill:#66c2a5;" x="306.7445" xlink:href="#m3d36f68132" y="314.242758119"/>
     <use style="fill:#66c2a5;" x="311.2085" xlink:href="#m3d36f68132" y="294.791721698"/>
     <use style="fill:#66c2a5;" x="315.6725" xlink:href="#m3d36f68132" y="271.591829397"/>
     <use style="fill:#66c2a5;" x="320.1365" xlink:href="#m3d36f68132" y="300.236226458"/>
     <use style="fill:#66c2a5;" x="324.6005" xlink:href="#m3d36f68132" y="55.3703989248"/>
     <use style="fill:#66c2a5;" x="329.0645" xlink:href="#m3d36f68132" y="305.339995024"/>
     <use style="fill:#66c2a5;" x="333.5285" xlink:href="#m3d36f68132" y="307.365615669"/>
     <use style="fill:#66c2a5;" x="337.9925" xlink:href="#m3d36f68132" y="259.495885082"/>
     <use style="fill:#66c2a5;" x="342.4565" xlink:href="#m3d36f68132" y="183.674883808"/>
     <use style="fill:#66c2a5;" x="346.9205" xlink:href="#m3d36f68132" y="315.86699209"/>
     <use style="fill:#66c2a5;" x="351.3845" xlink:href="#m3d36f68132" y="187.989086265"/>
     <use style="fill:#66c2a5;" x="355.8485" xlink:href="#m3d36f68132" y="315.194251617"/>
     <use style="fill:#66c2a5;" x="360.3125" xlink:href="#m3d36f68132" y="291.937663692"/>
     <use style="fill:#66c2a5;" x="364.7765" xlink:href="#m3d36f68132" y="311.02492432"/>
     <use style="fill:#66c2a5;" x="369.2405" xlink:href="#m3d36f68132" y="262.209428565"/>
     <use style="fill:#66c2a5;" x="373.7045" xlink:href="#m3d36f68132" y="279.062112469"/>
     <use style="fill:#66c2a5;" x="378.1685" xlink:href="#m3d36f68132" y="304.292393989"/>
     <use style="fill:#66c2a5;" x="382.6325" xlink:href="#m3d36f68132" y="307.74453461"/>
     <use style="fill:#66c2a5;" x="387.0965" xlink:href="#m3d36f68132" y="312.492077774"/>
     <use style="fill:#66c2a5;" x="391.5605" xlink:href="#m3d36f68132" y="308.232290964"/>
     <use style="fill:#66c2a5;" x="396.0245" xlink:href="#m3d36f68132" y="307.672757559"/>
     <use style="fill:#66c2a5;" x="400.4885" xlink:href="#m3d36f68132" y="298.330017047"/>
     <use style="fill:#66c2a5;" x="404.9525" xlink:href="#m3d36f68132" y="245.22712027"/>
     <use style="fill:#66c2a5;" x="409.4165" xlink:href="#m3d36f68132" y="300.171712376"/>
     <use style="fill:#66c2a5;" x="413.8805" xlink:href="#m3d36f68132" y="316.820882988"/>
     <use style="fill:#66c2a5;" x="418.3445" xlink:href="#m3d36f68132" y="292.930807589"/>
     <use style="fill:#66c2a5;" x="422.8085" xlink:href="#m3d36f68132" y="294.003110338"/>
     <use style="fill:#66c2a5;" x="427.2725" xlink:href="#m3d36f68132" y="256.875988078"/>
     <use style="fill:#66c2a5;" x="431.7365" xlink:href="#m3d36f68132" y="304.406315068"/>
     <use style="fill:#66c2a5;" x="436.2005" xlink:href="#m3d36f68132" y="310.272601896"/>
     <use style="fill:#66c2a5;" x="440.6645" xlink:href="#m3d36f68132" y="310.040764716"/>
     <use style="fill:#66c2a5;" x="445.1285" xlink:href="#m3d36f68132" y="307.165131224"/>
     <use style="fill:#66c2a5;" x="449.5925" xlink:href="#m3d36f68132" y="294.512029023"/>
     <use style="fill:#66c2a5;" x="454.0565" xlink:href="#m3d36f68132" y="312.386435426"/>
     <use style="fill:#66c2a5;" x="458.5205" xlink:href="#m3d36f68132" y="302.738650354"/>
     <use style="fill:#66c2a5;" x="462.9845" xlink:href="#m3d36f68132" y="302.775024887"/>
     <use style="fill:#66c2a5;" x="467.4485" xlink:href="#m3d36f68132" y="309.174689134"/>
    </g>
   </g>
   <g id="patch_3">
    <path d="
M25.5125 12.0391
L471.912 12.0391" style="fill:none;stroke:#262626;stroke-linecap:square;stroke-linejoin:miter;stroke-width:1.25;"/>
   </g>
   <g id="patch_4">
    <path d="
M471.912 318.939
L471.912 12.0391" style="fill:none;stroke:#262626;stroke-linecap:square;stroke-linejoin:miter;stroke-width:1.25;"/>
   </g>
   <g id="patch_5">
    <path d="
M25.5125 318.939
L471.912 318.939" style="fill:none;stroke:#262626;stroke-linecap:square;stroke-linejoin:miter;stroke-width:1.25;"/>
   </g>
   <g id="patch_6">
    <path d="
M25.5125 318.939
L25.5125 12.0391" style="fill:none;stroke:#262626;stroke-linecap:square;stroke-linejoin:miter;stroke-width:1.25;"/>
   </g>
  </g>
 </g>
 <defs>
  <clipPath id="p141e3b834e">
   <rect height="306.9" width="446.4" x="25.5125" y="12.0390625"/>
  </clipPath>
 </defs>
</svg>
